<?xml version="1.0" encoding="utf-8" ?>
<svg baseProfile="full" height="300mm" version="1.1" viewBox="0,0,200,300" width="200mm" xmlns="http://www.w3.org/2000/svg" xmlns:ev="http://www.w3.org/2001/xml-events" xmlns:xlink="http://www.w3.org/1999/xlink"><defs /><rect fill="#222222" height="300" width="200" x="0" y="0" /><text fill="#FFFFFF" style="font-size:12px; font-family:Arial; font-weight:bold;" x="10" y="20">Over 10km Runs</text><text fill="#FFFFFF" style="font-size:4px; font-family:Arial" x="10" y="280">ATHLETE</text><text fill="#FFFFFF" style="font-size:9px; font-family:Arial" x="10" y="290">SAM0TA</text><text fill="#FFFFFF" style="font-size:4px; font-family:Arial" x="120" y="280">STATISTICS</text><text fill="#FFFFFF" style="font-size:3px; font-family:Arial" x="120" y="285">Number: 3</text><text fill="#FFFFFF" style="font-size:3px; font-family:Arial" x="120" y="290">Weekly: 3.0</text><text fill="#FFFFFF" style="font-size:3px; font-family:Arial" x="141" y="285">Total: 74.8 km</text><text fill="#FFFFFF" style="font-size:3px; font-family:Arial" x="141" y="290">Avg: 24.9 km</text><text fill="#FFFFFF" style="font-size:3px; font-family:Arial" x="167" y="285">Min: 18.6 km</text><text fill="#FFFFFF" style="font-size:3px; font-family:Arial" x="167" y="290">Max: 36.2 km</text><polyline fill="none" points="48.8644269896613,34.5 49.088216886651935,34.673642947207554 49.53579668072052,35.029609860539495 49.81180422040052,35.22061587165808 50.33398064682842,35.411621446037316 50.59506886001327,35.46371379962511 50.7442621247028,35.481077910277236 51.572284743742784,35.63735474363057 51.72893767169444,35.654718818186666 52.1690578025009,35.715493050687655 52.3779283730546,35.75890318968595 52.818048503948376,35.802313306121505 53.52671651117271,35.42898556752334 53.80272405088181,35.42030350724235 54.198086202319246,35.611308625033416 54.809778587543406,35.89781548290921 55.302116361039225,35.91517950332491 55.62288188011735,35.86308743126574 56.02570369478781,36.01936354998179 56.56279944765265,36.114865478652064 56.8238876608375,36.1843213581451 57.286386781401234,36.340596875983465 58.002514451916795,36.783375922212144 58.50977155184955,37.156697608363174 58.89021437682095,37.43451731537061 59.5690437311423,37.85992695126333 60.30009072815301,38.23324382678402 60.52388062517275,38.36347025138093 60.93416210307623,38.53710516841238 61.50109650887316,38.75414830724185 61.66520910005784,38.91041901805147 61.88899899710668,39.00591764187993 62.3813367705734,39.22295956283051 62.73940060581663,39.3792293967781 63.321254338137805,39.58758872071485 63.619640867516864,39.717813034287246 63.79121312193456,39.76990270290844 64.27609123216826,40.08244003255095 64.48496180272195,40.31684226257494 64.73859035267378,40.39497619309259 65.01459789235378,40.464428514453175 65.34282307466492,40.75960023615335 65.5442339820147,41.176311479794094 65.90975748049095,41.410710641066544 66.12608771430678,41.619064899023215 66.446853233414,41.82741863743286 66.77507841569604,42.05313460109028 67.04362629214302,42.16599235427566 67.46882709654165,42.400388739202754 67.99846318617347,42.643465777189704 68.1849547670281,42.71291622960416 68.37144634788274,42.76500403103273 68.78172782578622,42.817091799966875 69.10249334489345,42.85181696125801 69.55007313896203,42.78236662429117 70.34079744183691,42.843135672286735 70.87043353146873,42.929948521312326 71.05692511232337,42.99071746198024 71.61639985491638,43.26851777077536 71.98938301662565,43.58972322654881 72.29522920926684,44.1887246971819 72.45188213716028,44.36234750918811 72.65329304451006,44.5446510735419 72.9442199106561,44.752997517243784 73.1530904812098,44.92661915685312 73.40671903119073,45.117602543781686 73.57829128560843,45.26518031654268 73.38434004149167,45.7252740528711 73.2575257665012,45.890212700011034 73.17546947090887,46.254812764847884 73.48131566355005,46.47183585773746 73.8841374781914,46.45447403106664 74.1228467017354,46.40238852933544 74.34663659872604,46.82775251002022 74.48091053697863,47.17498680754943 74.62264413840603,47.496177248249296 74.65248279136722,47.773962579871295 74.83151470898883,48.08646997431788 75.00308696334832,48.49446398058353 75.07022393247462,48.65071647676814 75.30147349272738,49.08474965568166 75.39098945158185,49.27572354036238 75.49542473684414,49.536141770709946 75.59240035890252,49.848642576049315 75.80127092948533,50.56912609155552 75.8609482353495,50.7948184454508 76.13695577502949,51.115994975225476 75.9653835206409,51.28960339638434 75.7266742970969,51.506613415738684 75.49542473684414,51.740983603784116 75.42828776771785,51.93195141929755 75.39098945158185,52.09687781791581 75.59986002213554,52.38332815787726 75.8609482353495,52.643736705991614 76.52485826323391,53.155871150542225 76.68897085438948,53.30343473022367 77.10671199552598,53.66800245735794 77.19622795432224,53.789524679712486 77.22606660728343,54.15409028677823 77.26336492344853,54.34505258927675 77.44985650427407,54.5360144555234 77.8079203395755,54.62281515960058 77.98695225719712,55.03945728456165 77.97203293073107,55.6296967401795 77.77808168664342,56.40220973097166 77.61396909545874,56.879601830543834 77.5617514528276,57.17471558311081 77.52445313666249,57.38303054594871 77.45731616753619,57.600024746927375 77.44239684109925,57.80833864995657 77.427477514575,57.95589401719917 77.427477514575,58.1034491240498 77.13655064845807,58.28572271997837 76.89784142497228,58.459316251421114 76.53977758969995,58.693666947088786 76.03252048973809,59.19708473881474 75.65953732802882,59.66578133722942 75.4805054104072,59.726538111317495 75.19703820746508,59.61370406714559 74.95086932074628,59.83069247844105 74.63010380166816,60.16919327553478 74.0557097326091,60.79411422351404 73.43655768412282,61.42770986053074 73.03373586948146,61.85299738965114 72.8024863091996,62.096017863623274 72.60853506511194,62.304320564857335 72.22063257687842,62.72092441053974 71.90732672106242,62.95526316155883 71.6909964872466,62.868471108115045 71.01216713292524,62.46922650196939 70.7883772358764,62.34771689563058 71.1389814078866,62.668849043337104 71.7282948034117,62.99865915445844 71.8327300887031,63.154884542535 71.54926288581919,63.57148415041593 71.1016830917506,64.23109595138521 70.66902262411895,64.91673954499856 70.58696632855572,65.02956643312064 70.25874114621547,65.48087246329669 69.66942775069037,65.89746048316738 69.35612189484527,66.00160716387472 69.0875740183983,65.9929282787416 68.7071311934269,65.85406599457201 68.23717240965925,66.06235933436255 67.81197160528973,66.27933101159579 67.87910857438692,66.6959150538678 67.80451194208581,67.39021717942524 67.51358507591067,68.14526419810863 67.20027922009467,68.83955429111666 67.02870696567697,69.26480412678211 66.77507841569604,70.08058347315091 66.64826414070558,70.21076029224787 66.59604649810353,70.47979174293869 66.6557238039677,70.5752543077615 66.71540110983187,70.85296296769229 66.722860773094,71.61665702802566 66.81237673191936,72.12867527732305 66.91681201715255,72.57994300017162 67.05108595537604,73.41304624597979 67.19281955686165,74.27217527765606 67.31963383185212,75.07922784527182 67.44644810684258,75.79081612290611 67.56580271857092,76.49372055189451 67.65531867739628,76.96232022337063 67.71499598326045,77.43959496831667 67.64785901413416,77.54372727806185 67.65531867739628,77.8648010838806 67.75229429939645,78.37678108995169 67.81943126852275,78.93214568938856 67.96862453321228,79.79121804206807 68.08797914496972,80.20773479536729 68.17749510376598,80.73705517732742 68.1849547670281,81.01473010412155 68.30430937878555,81.34446788272908 68.47588163314504,81.9258444848092 68.63999422432971,82.43779964021087 68.85632445814554,82.97578303820046 69.22184795662179,83.62656478382269 69.66942775069037,84.25131049776974 70.25128148301155,84.91943616912613 70.85551420500269,85.49211107009614 71.519424232858,86.03007483122929 71.75067379311076,86.22964115347713 72.10127796515008,86.7242165095522 72.0043023431208,86.97584144603024 71.75067379311076,87.73938834608998 71.47466625343077,88.54631102126586 71.39260995786753,88.910725162983 71.30309399907128,89.17969648786675 71.22103770347894,89.43131404145242 70.9972478064592,90.09939835767727 70.79583689910942,90.55924550259078 70.49745036975946,91.34878848085646 70.28857979914756,91.96480035728018 70.02003192272969,92.77168229450035 69.77386303595267,93.53517632003059 69.6395890977874,93.66531665240473 69.57991179186502,93.99500458881812 69.04281603900017,94.57629331349017 68.43112365377601,95.23566071168898 68.09543880820274,95.41785341902141 67.75229429939645,95.69547963908553 67.63293968766811,95.89502291604731 67.32709349508514,96.31145952701627 66.93919100685162,97.04021861138608 66.6930221201037,97.3959201461621 66.48415154955,97.8730783679639 66.26036165253026,98.32420727645513 65.68596758347121,98.49771774778492 65.15633149381028,98.6191748637284 64.98475923942169,99.48672056756914 64.92508193352842,99.83373633190058 64.76096934237285,100.17207531724125 64.67145338354749,100.35425728148402 64.12689796744962,101.00490391755011 63.724076152808266,101.4820415703798 63.157141746982234,102.11532916453143 62.63496532055433,102.77463718695071 62.12770822062157,103.27778981647134 61.605531794193666,103.90238887439773 61.284766275115544,104.31011074601702 60.86702513394994,104.83060386739817 60.740210858988576,105.05614988187153 60.34484870758024,105.47254092794174 59.85251093408442,106.11447306731134 59.352713497384684,106.73905096610542 58.80069841799559,107.44169553398388 58.308360644528875,108.05758901019726 58.07711108427611,108.41324374322721 57.95775647251867,108.56070989688305 57.756345565168886,108.57805883904075 57.56239432108123,109.08117659889103 57.174491832905915,109.42815260325006 56.637396079982864,110.13944891802385 56.092840663885,110.76399679885799 55.675099522748496,111.2931239979298 55.17530208604876,111.85694438366045 55.04102814779617,111.93501152253157 54.78739959784434,111.8395961207134 54.309981150814565,111.50997844162339 53.996675294969464,111.2671014269581 53.68336943912436,110.99820105343679 53.49687785826973,110.83339072032686 52.929943452443695,110.32160919773742 52.43014601574396,109.80115020462108 52.09446117019979,109.5669426024906 51.65434103933512,109.15057191478991 51.50514777464559,108.99443237319065 51.355954509956064,108.7515480631846 51.035188990907045,108.53468647686532 50.40857727918774,107.97951825685595 49.81180422040052,107.45904470799724 49.28962779403082,106.95591720248922 48.633177429350326,106.4267625990251 48.3795488793985,106.20122027629259 48.118460666184546,105.97567734604672 47.917049758834764,105.71543474859936 47.611203566222684,105.4204921604105 47.290438047173666,105.16024783751345 46.9547532016004,105.40314256404963 46.48479441780364,105.94965312268323 46.30576250018203,106.1578466830033 45.932779338472756,106.60025628007133 45.48519954440417,107.19880672047293 45.11967604592792,107.60651254192635 44.77653153712163,108.01421637842577 44.61241894593695,108.20505579013115 44.33641140628606,108.51733752569271 43.858992959256284,109.05515334061784 43.5158484504791,109.43682698492921 43.142865288769826,109.86187058714859 42.85939808585681,110.1654718393911 42.598309872613754,110.46039771629876 42.232786374137504,110.97217839083169 42.00899647711776,111.17168526421301 41.59871499918518,111.63141668482422 41.33762678600033,111.94368564456818 41.0839982360485,112.20390888833208 40.949724297825014,112.35136836758466 40.5991201257566,112.62893844776409 40.367870565503836,112.79374524761806 40.04710504645482,112.98457376865554 39.756178180279676,113.08866186961677 39.42795299796853,113.18407584850502 38.980373203899944,113.38357745319081 38.585011052462505,113.55705672315526 38.42089846130693,113.61777438276476 38.279164859850425,113.66981805597607 37.965859004005324,113.73920956991788 37.727149780490436,113.83462280776439 37.622714495199034,113.89534026615001 37.18259436436347,114.05147067134385 36.98864312027581,114.08616627743322 36.48138602034305,114.28566573347052 36.257596123294206,114.33770899169758 35.92191127772094,114.48516471437324 35.76525834982749,114.57190325349802 35.332597882224945,114.70201089376496 34.75820381316589,114.88416125066578 34.66868785434053,114.85813979534578 34.377760988194495,115.02294220909243 34.2061887338059,115.06631121143437 33.98985849999008,115.14437535909383 33.72877028680523,115.20509186807612 33.52735937945545,115.24846077612165 33.28119049273664,115.32652475404029 33.109618238318944,115.3438722948049 32.952965310396394,115.45663122218684 32.744094739842694,115.5 32.54268383249291,115.4739787360013 32.22191831341479,115.01426840591739 32.16970067078364,114.87548743311345 32.02050740609411,114.58057710246794" stroke="#4dd2ff" stroke-linecap="round" stroke-linejoin="round" stroke-width="0.5"><title>2024-03-06 18.6km</title><desc>9223370327137444807</desc></polyline><polyline fill="none" points="121.39937010293943,104.04548309339225 121.24589030574134,104.00690209897948 120.80619142725482,103.93938528188664 120.49508373023127,103.95867581104176 119.91434936242877,103.94903054746828 119.59079735752312,103.96349844207725 119.23820863421133,103.94903054746828 118.83169457674376,103.93938528188664 118.40858810878126,104.01172472503094 118.19703487480001,103.97314370266031 118.02281456447963,103.90080419963851 117.74489168844593,103.95385317950786 117.57896758335119,103.9683210726289 117.37985865725204,103.91044947318369 117.20563834693166,103.79952870670968 117.035566139195,103.62591306386093 116.9899370103085,103.43782872072916 116.87793823936954,103.1966938368314 116.74934705792111,102.54080063889705 116.62490397912916,102.37200310140543 116.3345367952279,102.39611707277072 116.15202027963824,102.40576265783602 115.92802273777488,102.4202310316723 115.72891381166119,102.43469940100476 115.4302504225052,102.42505382193849 114.84951605470269,102.4154082408968 114.52181594715512,102.37682589668839 114.15678291597578,102.42505382193849 113.6921954217396,102.4154082408968 113.4142725457059,102.48775005014977 112.95383315409708,102.49257283343468 112.77546474113478,102.37682589668839 112.5556153018988,102.42505382193849 112.07858349976595,102.46363612620917 111.72599477646872,102.44434497807015 111.51444154248748,102.42505382193849 110.80096789060917,102.5022183985202 110.28245506223175,102.43952218977938 109.97134736519365,102.28036989639804 109.76809033648169,102.23214182136144 109.20809648180148,102.08745729673319 108.80987862961774,101.92348095898342 108.27477339070174,101.74985832524544 107.98855430942785,101.72092115671694 107.262636349682,101.46530872076983 106.95567675527127,101.25792401583385 106.96397296054056,100.90585019347054 107.08011983409233,100.35603095697661 107.12989706562075,100.16793341264929 107.14234137350286,99.90748940513004 106.87686280535127,99.62292854711268 106.9058995237574,99.51682066359717 106.9183438316395,99.51682066359717 106.97641726842267,99.3480121689754 107.27093255493673,98.86087565467096 107.13404516826267,98.55219245428088 106.79804885544581,98.27726975667974 106.36249807958666,97.71294966196729 106.30027654019068,97.24991268281155 106.20072207714838,96.84957491747628 106.07627899832733,96.52158478618003 105.74028268551046,96.04888906319684 105.46235980952042,95.77877506739969 105.58680288831238,95.45077739492262 105.86472576434608,95.16618930739423 105.97672453525593,94.91054089849058 105.99331694577995,94.53430106492306 105.71124596714799,93.9265226047537 105.67391304348712,93.43450566024694 105.57021047781745,93.07272517850652 105.29228760178376,92.88459821714059 104.97288369950547,92.70129429292865 104.67836841297685,92.46492764126742 104.50829620526929,92.19961670504927 104.68666461823159,91.57251211889525 104.96873559689266,91.16247763041974 105.21762175450567,90.85374339719783 105.54946996468061,90.50641493765943 105.63243201722798,89.85999118351901 105.57850668307219,89.5223035637755 105.5909509909543,89.11225101817399 105.60754340144922,88.81315158916186 105.49969273316674,88.3982685544288 105.38354585958587,88.0653946088969 105.27984329390165,87.59743735585289 105.42087878323218,87.35139608841564 105.81494853281765,86.95097320598143 106.00990935628943,86.49265363085578 105.76517130127468,86.2273086562418 105.4582117068785,85.92336619022171 105.39599016748252,85.2913524856449 105.1346597019583,84.9488071205451 104.89406974960002,84.5724867709323 104.98532800738758,83.77158974383929 105.12636349670356,83.21191857997837 105.05169764944003,82.71978837443021 105.0807343678025,82.21800319837348 105.22176985713304,81.73551234937986 105.25910278077936,81.55216451497836 105.1802888308739,81.22406658716864 105.10977108620864,80.84289108942176 105.19273313874146,80.54856356862365 105.43747119374166,80.00815409274219 105.63243201722798,79.69452071487103 106.08457520356751,79.49186417708916 106.258795513917,79.39536075360229 106.39153479797824,79.01417027390926 106.48279305578035,78.48821878831586 106.44546013214858,78.16492455745538 106.27123982178455,77.7451212332744 106.22975879552541,77.1178218501118 106.25464741128962,76.86207428966009 106.50353356893174,76.5966743912104 106.6611614687572,76.41330630416269 106.94323244738916,76.22993749426678 107.29996927332832,76.24923950829543 107.58618835458765,76.2540650105584 107.8309264096024,76.2637160135564 108.31210631434806,76.20580996547142 108.59417729299457,75.88732541245918 108.5236595483293,75.63157108670202 108.36188354589103,75.43854802290662 108.4448455984093,75.14418630844739 108.48632662468299,74.83534578577746 108.26232908281963,74.36725545922673 107.97611000154575,74.03910685448136 107.61937317562115,73.87503168390322 107.02619449995109,73.70613016841162 106.56990321094054,73.33454467522824 106.29198033493594,72.81335482525901 106.03064986942627,72.60584242596087 105.97672453525593,72.2390740603696 106.00576125366206,72.08947034384619 105.97257643264311,71.58274450246245 106.14679674299259,70.8395366136865 106.25464741128962,70.44379769672378 106.24220310340752,70.04805541182577 106.30857274543087,69.54130732446356 106.29612843754876,69.3241278821115 106.37079428485595,68.98146492127853 106.56160700570035,68.66293089002647 106.74412352129002,68.51814197259591 106.8727147027239,68.34922099906908 106.88930711323337,67.71696847928979 106.67775387925212,67.84728077075852 106.41642341374245,67.57217661594404 106.18412966663891,67.35016154968616 106.0265017667989,66.93991352894227 106.13435243511049,66.6406715127996 106.30857274543087,66.42347852054081 106.52012597942667,65.9842629242994 106.5947918267193,65.50643025491081 106.6155323398416,65.28923196333199 106.70264249501633,65.00928600167026 106.89760331850266,64.80656545974853 107.20041481028602,64.41560191798271 107.56959594410728,64.25631953228367 107.7645567675645,64.22735903987632 108.04247964358365,63.84121741697527 108.26232908281963,63.759161908859824 108.74350898755074,63.64331859196318 109.05046858197602,63.59987727369298 109.42794592105201,63.46955307527605 109.49846366570273,63.18959615420317 109.36987248426885,62.9530795102728 109.22468889231095,62.47038874732607 109.28691043172148,61.92011516268758 109.22883699493832,61.799440259910625 108.99654324782023,61.70772712425969 108.88039637426846,61.49051108102867 109.06291288984357,61.36500801553484 109.23713320020761,61.06090302817029 109.36987248426885,60.6554266162093 109.43624212630675,60.47682278857974 109.51090797358484,60.264428154114285 109.647795360288,59.9313527952836 109.72246120758064,59.70930122977006 109.87594100477872,59.43414890488202 110.35297280688246,59.04314016684293 110.57282224614755,58.84522090943574 110.83830081427004,58.41558840079961 111.10792748503445,58.03422587970999 111.41903518207255,57.676997387879965 111.49370102936518,57.24735407726257 111.56836687664327,57.030117183268885 111.63473651868117,56.79356918799385 112.02465816563927,56.35426257301151 112.39383929946052,55.972883132297284 112.63857735444617,55.88598611295674 112.74642802275775,55.755640279177896 112.97042556462111,55.663915213961445 113.18197879860236,55.59150056086219 113.41842064834782,55.5528793663907 113.70878783224907,55.45632623975689 114.04478414503683,55.01700697990236 114.23144876325387,54.77562100274736 114.5176678445423,54.37974528498307 117.34667383624765,51.033977950020926 117.71170686742698,50.889134094799374 118.25510831158317,50.623585853682016 118.5496235981118,50.464256180242955 118.81095406362147,50.23250295221078 119.1179136580322,50.053859049647144 119.44146566293784,49.75933652076128 119.7650176678435,49.542064605571795 120.1673836226837,49.43584241039207 120.98455984023167,49.35376145682312 121.1463358426845,49.36824634152072 121.29981563989713,49.40204438825094 121.5694423106761,49.39721609737535 122.12528806269984,49.33444827019048 122.33269319405372,49.31513507553609 122.72676294363919,49.141315962133376 123.14986941160168,48.96266786209162 123.32408972192206,48.730907140645286 123.68082654786122,48.65848167799413 124.19933937625319,48.48466010678749 124.75933323093341,48.10321604503042 124.97918267015484,47.79419577357112 125.22392072515504,47.523801349118 125.57236134583945,47.34997553051653 125.83369181134913,47.30169046543597 125.98717160854721,47.32583300426995 126.21116915041057,47.44171701586674 126.48909202642972,47.639684866669995 126.82923644187395,48.04044646881812 127.26063911507663,48.47500333374046 127.68374558305368,48.60536960027457 127.87041020128527,48.63916820222221 128.1981103088183,48.58122772668139 128.7166231371957,48.47983172051681 129.00699032109696,48.40257747198848 129.66653863881947,48.19978445813467 129.95690582270618,48.1901276258468 130.60815793517395,48.11770131977755 131.08104163466487,48.08390233829414 131.28429866340593,48.12252974370858 131.7322937471181,48.15632869707406 131.88992164697265,48.11770131977755 132.05169764941093,48.1901276258468 132.24251037026988,48.209441288392554 132.6282839145715,48.14184343436136 132.94768781686435,48.18529920896253 133.1260562298412,48.233583355278824 133.3832385927235,48.2577254095886 133.727531110766,48.267382227819326 133.8727147027239,48.1901276258468 134.15893378399778,48.16115711697785 134.75626056230976,48.170813955286576 135.2996620064514,48.165985536379594 135.51951144570194,48.127358167115744 135.7559532954474,48.07424548193376 136.24128130283498,48.045274900763616 136.7390536180901,48.016304301519995 137.00868028883997,48.05010333220707 137.4815639883309,48.04044646881812 137.8839299431711,48.06941705300051 138.14940851130814,48.07907391036861 138.3734060531715,48.11770131977755 138.72599477648328,48.24806858937518 139.00391765248787,48.2625538189568 139.3108772468986,48.30600948059873 139.4809494546207,48.33980830042128 139.90820402519603,48.46051817044281 140.06583192502148,48.50880203058114 140.43086495622993,48.61019797348126 140.93278537411243,48.75504893642574 141.3600399447023,48.851615994051826 141.91173759409867,48.92886949559397 142.64180365648645,48.96266786209162 143.25157474268053,48.88058607219136 144.11852819174237,48.730907140645286 144.59555999386066,48.706765332317445 144.83200184360612,48.69710860546911 145.0311107696907,48.68262351143494 145.2385159010737,48.58605610239465 145.78191734522989,48.363950299535645 146.2299124289566,48.1901276258468 146.4082808419189,48.01147586656589 146.9890152097214,47.78936731550493 147.66515593793883,47.71694038439455 148.34959287142556,47.64934181342687 148.7146259026049,47.615542491028464 148.98010447074194,47.57691466390315 149.35343370719056,47.538286804625386 149.6645414042141,47.44171701586674 149.8843908434501,47.40308904413541 150.1872023352189,47.277547914072784 150.58127208481892,47.13269234224572 150.8882316792151,46.98300777662007 151.26156091566372,46.79952281210717 151.50215086803655,46.67880862424499 151.7593332309043,46.548436948869494 152.02066369641398,46.50980823401551 152.25710554615944,46.553265535963874 152.46865878015524,46.548436948869494 152.96643109541037,46.27320665430307 153.2194653556653,46.26837803808667 153.42272238439182,46.28286388524066 154.05323398372275,46.297349727869005 154.47634045168525,46.29252111416281 154.72937471194018,46.326321399592416 154.9990013827046,46.15731972639696 155.3764787217806,46.1669769814398 155.70003072668624,46.05591842723152 155.96965739745065,45.98348879224068 156.07750806576223,46.26354942135731 156.07335996313486,46.630522861236386 156.0028422184696,46.90575103781521 155.8783991396631,47.0988926437858 155.56729144261044,47.277547914072784 155.3598863112711,47.63002791793042 155.40966354279954,47.88110793276792 155.60462436625676,48.06941705300051 155.8244738055073,48.209441288392554 156.05261945001257,48.2866958582199 156.36372714703612,48.455689781672845 156.48817022582807,48.56674259648935 156.69142725456913,48.72607877998962 156.93616530956933,48.83230259860284 157.16431095406006,48.84195929733687 157.38416039332515,48.97715286877792 157.75748962974467,49.0495778344266 158.2096328161133,49.02543619177595 158.6202949761937,49.001294536541536 158.98947611001495,48.83230259860284 159.50798893839237,48.50880203058114 159.75272699340712,48.426719438466534 160.03064986942627,48.537772322564706 160.4413120294921,48.663310045689286 160.63627285297844,48.706765332317445 160.8644184974546,48.764705651225086 161.0593793209555,48.730907140645286 161.810185896451,48.43637622152892 161.967813796291,48.363950299535645 162.5444000614516,48.035618036359665 162.92187740051304,47.78936731550493 163.35328007375938,47.59622858148941 163.80957136272627,47.687969580307254 164.32393608849088,48.0066474311061 164.73459824858583,48.06458862355066 165.12037179291656,48.093559192660905 165.60155169766222,48.07424548193376 166.20717468121438,48.209441288392554 166.57220771239372,48.4170626533778 166.95798125672445,48.61019797348126 167.35205100629537,48.86127268877681 167.7170840375038,49.03992117888265 168.2812259947823,49.03026452130871 168.6047779997025,48.99163787094221 169.00299585190078,48.94818285088331 169.3099554463115,48.94818285088331 169.58787832233065,48.94818285088331 169.86165309570788,48.904727790177276 170.13542786909966,48.83230259860284 170.69127362113795,48.80816084297112 170.90697495776112,48.643996571910975 171.2056383469171,48.455689781672845 171.51259794132784,48.32049469211779 171.82370563835138,48.2625538189568 172.39199569825723,48.08390233829414 172.69065908741322,48.11287289536631 172.9519895529229,48.1901276258468 173.20502381317783,48.18529920896253 173.64887079427717,47.963191489303426 174.08027346750896,47.9728483687868 174.37478875402303,47.80385268816826 174.80204332462745,47.59622858148941 175.0716699954064,47.67348417148605 175.5818866185291,47.59140010283954 176.06721462590212,47.34997553051653 176.51106160700147,47.229262773675146 177.01298202488397,47.05543585248597 177.40290367185662,47.20029166532913 177.79697342142754,47.44171701586674 178.06245198956458,47.59622858148941 178.47726225227234,47.82316651137444 178.90866492547502,48.07907391036861 179.21977262252767,48.28186745137282 179.58065755107964,48.50397364682067 179.77976647717878,48.65365330980785 179.93739437700424,48.866101035389875 180.19872484252846,49.05923448799513 180.56790597634972,49.25719544334788 180.8167921339773,49.377902928816184 181.3104163465905,49.70139744276821 181.58833922260965,49.9959203390863 181.9035950222751,50.338723325279716 182.05707481948775,50.74428978785727 182.33914579811972,51.13054026921964 182.69173452141695,50.99535296612157 183.114840989394,50.94707169108733 183.5172069442342,50.990524840883154 183.7619449992344,51.15468081764993 184.0481640805083,51.391257528288406 184.38416039329604,51.671285546810395 184.59156552466447,52.21685252733732 184.7284529113531,52.414800024449505 185.3008910738863,52.63688645609727 185.44607466582966,52.69482187232279" stroke="#ff8900" stroke-linecap="round" stroke-linejoin="round" stroke-width="0.5"><title>2024-03-06 36.2km</title><desc>9223370327144915207</desc></polyline><polyline fill="none" points="23.96913302585017,184.5 23.976229039370082,184.5164985979718 23.848500796593726,184.62373940158432 23.947844985406846,185.06919965714042 23.96913302585017,185.51465742375876 23.94074897194514,186.00960757878784 23.85559681011364,186.47155828466202 23.73496458082809,186.91700821628183 23.60723633808084,187.3872026664758 23.564660257165087,187.849145390981 23.571756270655897,188.34408105461625 23.656908432516502,188.74002737361297 23.770444648253033,189.16071818325872 23.962037012417568,189.57315799884964 24.054285187710775,189.96084948044154 23.990421066322597,190.75272409649915 24.196205457410542,191.2806361386538 24.096861268626526,191.71781065312825 24.26006957879872,192.18797679583076 24.338125727139413,192.60864941601176 24.338125727139413,192.97158087389107 24.203301470930455,193.35925583402422 23.813020729168784,194.13460010077688 23.60723633808084,194.5717589706037 23.41564397397451,195.00066723109921 23.55756424367428,195.38833232808975 23.75625262130052,195.74300300035975 24.032997147238348,196.10592019515025 24.316837686666986,196.43584348473814 24.87742275209166,198.01945627835812 24.46585396991577,197.45034904994827 24.5793901856523,197.92048139988765 24.68583038795623,198.38236311540095 24.78517457676935,198.84424215638865 24.89871079250588,199.2318885729619 25.054823089245474,199.7185058759933 25.1612632915203,200.18862485796853 25.182551331963623,200.62575054841727 25.182551331963623,201.054626256373 25.139975251018768,201.48349965859234 25.06901511619799,201.9123707551771 24.96257491389406,202.3000022625929 24.849038698128425,202.70412672236125 24.89161477907328,203.14123862933047 24.87742275209166,203.55360615742393 24.94128687342163,204.06493893214065 24.948382886941545,204.73296552284592 24.89161477907328,205.45871646727755 25.06191910270718,205.95354287166265 25.274799507315038,206.332907703385 25.494775925355498,206.67928271358687 25.814096532209078,206.93493949470576 26.225665314414073,207.1328667626658 26.63723409656086,207.24007716114284 26.913978622556897,207.52871982562647 27.02751483832253,207.9493115532532 27.02751483832253,208.3616542320524 27.098474973172415,208.782241569279 27.275875310326228,209.4254885029659 27.79388429480605,210.79443266599992 27.88613247012836,211.22325371801708 28.01386071284651,211.65207246573846 28.169973009556998,212.02316375297232 28.326085306267487,212.41899255738826 28.517677670373814,212.7818339034202 28.702174020989332,213.21064427643432 28.91505442559719,213.65594491748925 29.064070708787767,214.08475059390184 29.19179895153502,214.56303113043396 29.262759086414007,215.18973921916768 29.205990978487534,215.60204448855802 29.14922287061927,215.94013322015962 29.08535874923109,216.3606806193493 29.04987868180615,216.80596368567058 28.993110573937884,217.25124426788534 28.929246452549705,217.6717847590844 28.929246452549705,218.14179798023542 28.971822533465456,218.6447915196186 29.042782668344444,219.03234175695252 29.24147104594158,219.59304940820584 29.390487329132156,220.03006881703186 29.56788766628597,220.45884025141277 29.71690394950565,220.87111830497452 29.82334415180958,221.3163762112672 29.887208273168653,221.695668024513 29.943976381066022,222.08320345068205 29.943976381066022,222.61915359974955 29.922688340593595,223.08913769258652 30.05041658336995,223.53438322839793 30.383929217176046,223.97138106196508 31.008378403930692,224.20224687635346 31.462523267051438,224.18575648317346 31.710883739055134,224.4496023652173 31.774747860443313,224.68871194267558 31.888284076208947,225.13394855804654 32.235988737025764,225.32358562173613 32.77528576194891,224.9278208040414 33.14427846323815,224.65573135389423 33.30039075991954,224.4908282055403 33.48488711056416,224.38364097646263 33.79711170392693,224.07856884453213 34.19448845915031,223.8394574397389 34.61315325481701,223.66630735475337 35.05310609092703,223.5838548013271 35.47886690008454,223.5508737561322 35.9472037901578,223.50964743046643 36.38715662629693,223.62508108869952 36.71357324664132,223.96313584197924 36.90516561080585,224.40837650362664 37.032893853524,225.01851708136383 37.06837392097805,225.43901665737212 37.032893853524,225.87600406626007 37.16771810976206,226.31298908351891 37.41607858176576,226.75821664140676 37.820551350479946,227.05503363411844 38.22502411916503,227.31887003464362 38.672072968794964,227.51674676296534 39.09783377792337,227.55797101965436 39.5377866140625,227.49201219875977 39.9564514097583,227.31887003464362 40.28286803010269,227.07976833367138 40.708628839289304,227.01380911776505 41.12019762143609,227.1869519433385 41.32598201252404,227.54148131952388 41.297597958589904,227.98670202742505 41.396942147403024,228.39069644739357 41.72335876774741,228.75346520524909 42.10654349598917,229.01729599397368 42.55359234561911,229.09149824624183 42.97935315477662,228.9595830834296 43.28448173464858,228.65452843473759 43.66766646291944,228.5638362874015 43.916026934894035,228.89362542029266 43.90893092143233,229.3141045893717 43.916026934894035,229.7593154139322 43.90183490794152,230.22101290654246 43.85925882702577,230.61675148994254 43.71024254380609,231.0619550520787 43.79539470563759,231.48242280405248 44.00827511024545,231.8616663285211 44.263731595739955,232.1996862128217 44.632724297000095,232.37281779460318 45.04429307920509,232.47174995855312 45.434573820908554,232.37281779460318 45.86033463006606,232.47174995855312 46.293191452743486,232.6283923008159 46.75443232929683,232.81801156720758 47.15890509801102,233.09831748416764 47.556281853234395,233.41159940361104 47.91817854097462,233.6424379263044 48.26588320179144,233.8238105832279 48.6490679300332,233.99693864425353 49.03934867179487,234.1618221629833 49.415437386516714,234.3514377886895 49.60702975068125,234.6894471354317 49.756046033871826,235.1428720613767 50.1534227890952,235.41492578134785 50.5720875847328,235.6622465408509 50.94108028602204,235.93429849178938 51.18944075805484,236.23932533483458 51.45908927047276,236.61854627215507 51.84227399871452,236.8905949658947 52.239650753937894,237.0884479793749 52.51639527990483,237.43468957369623 52.56606737431139,237.81390483587165 52.899580008146586,238.1271682598017 53.21180460153846,238.40745554510795 53.50983716794872,238.70422924581362 53.87173385571805,238.94329614732123 54.23363054351648,239.21533692356024 54.63100729873986,239.45440229545056 54.87936777071445,239.79239004872215 55.099344188784016,240.16335057083052 55.37608871475095,240.3611954782682 55.85152161831502,240.44363071174303 56.248898373538395,240.75688382317458 56.63208310175105,240.9547272606651 57.0081718165311,241.1773005422001 57.38426053128205,241.4328468784588 57.82421336742118,241.48230736526602 58.115149920311524,241.86974678574188 58.46995059461915,241.89447689771623 58.7608871475386,241.86150341336906 59.200839983677724,241.87799015724158 59.612408765853615,241.90272026666207 59.94592139971792,242.2324543275463 60.180089844739996,242.60340351932973 60.57037058647256,242.75178271377808 60.989035382139264,242.74353943241294 61.41479619129677,242.7270528671579 61.83346098696347,242.619890110087 62.025053351098904,242.19123764436517 62.24502976916847,241.8285299154304 62.67788659178768,241.73785272587702 63.110743414436,241.78731302383676 63.53650422359351,241.88623352791183 63.93388097881689,242.06758746721607 64.26029759916128,242.29015764827636 64.70734644876211,242.36434757085226 65.08343516354216,242.61164681513037 65.38856374347233,242.9084048978184 65.65821225589025,243.2546212677771 66.04849299765192,243.45245851983054 66.46715779328952,243.58434974906413 66.8716305620037,243.72448394153616 67.25481529024546,243.85637472170492 67.66638407245046,243.99650843704148 68.09214488160796,244.0542104836859 68.51790569076547,244.06245362982008 68.95076251338469,244.0542104836859 69.3765233225713,243.99650843704148 69.80228413172881,243.93056318983872 70.26352500831126,243.8728610538965 70.67509379048715,243.7986725321607 71.12214264008799,243.72448394153616 71.52661540880217,243.77394300961168 72.14396858206601,243.65853846980463 72.58392141820514,243.61732252233196 72.9671061464469,243.69151121249888 73.32900283424533,243.90583370812237 73.67670749506215,244.10366934765625 74.0527962098131,244.24380262925843 74.46436499198899,244.3509632081914 74.84754972023075,244.4251512170449 75.20944640802918,244.20258698368707 75.59972714976175,244.35920632365742 75.96871985102189,244.53231155273534 76.36609660624526,244.6806871648878 76.74218532096711,244.8290625014779 77.1537541031721,244.80433329782682 77.57951491232961,244.85379169744556 78.02656376195955,244.91973618262273 78.43813254413544,244.96095145823347 78.83550929935882,245.01865280835045 78.94194950163364,245.38958906414337 79.04129369044676,245.76876656794047 79.47415051306598,245.8429532603841 80.02763956499984,245.80998140556767 80.43920834717574,245.76052359787718 80.87206516982405,245.73579468249227 81.28363395202905,245.76052359787718 81.60295455888263,245.97484054353117 81.9080831387837,246.23861445673538 82.19901969170314,246.49414460478874 82.47576421767008,246.76615967087128 82.82346887848689,246.95574538142682 83.19955759320874,247.03817381091358 83.38405394385336,247.35964387351123 83.29890178202186,247.69759818580496 82.99377320212079,247.78826861178095 83.24213367412449,247.44207188634027 83.55435826751636,247.1535734693607 83.85948684738833,246.84858829594305 84.1646154273185,246.56008773614303 84.4981280611537,246.27982905202225 84.79616062756395,246.41995851696265 85.12257724790834,246.77440253720124 85.41351380082779,247.1123593247612 85.73993042120128,247.48328586087882 86.08053906849818,247.8377251644124 86.37857163493754,248.12622111126984 86.57016399904387,248.48065756295546 86.30051548659685,248.810364478697 86.00248292015749,249.11534216460132 85.66897028632229,249.4120760931546 85.38512974689365,249.74177916590997 85.0870971804834,250.07148087837413 84.78196860058233,250.3764537513198 84.4981280611537,250.68142546043237 84.21428752172505,250.98639600569004 83.9162549552857,251.29960778670647 83.60403036192292,251.60457597289496 83.29180576853105,251.9177853311412 82.99377320212079,252.23923576452944 82.6673565817764,252.5771694414434 82.3338439479412,252.92334392153862 82.02161935452023,253.2612747057865 81.73777881509159,253.55799324069085 81.45393827563385,253.8629528092206 81.12752165531856,254.12670068686566 80.87206516982405,254.43990016112366 80.5740326034138,254.76134045062645 80.26180801002192,255.08277944740257 80.04892760544317,255.43718504801654 79.8218551738828,255.7915890771692 79.54511064794497,256.0882982186595 79.21159801408066,256.3932481330048 78.92066146116122,256.73116424673935 78.60843686779845,257.069078931956 78.3245963283407,257.3905086482773 78.01237173497793,257.67897011376044 77.67885910114273,257.9839139596079 77.3169624133443,258.28885664217523 77.01892984693404,258.6020398079636 76.63574511872139,258.7998390699504 76.27384843092295,258.9893962367496 75.96162383753108,259.25312719932845 75.67778329810244,259.56630658730865 75.29459856986068,259.7805865142727 74.95398992250557,260.06079785977636 74.63466931565199,260.3410082230912 74.25858060090104,260.5552860734897 73.85410783218686,260.7201147983433 73.6341314141464,260.8602189472949 73.83281979174353,261.27228855046997 74.07408425025642,261.6843560296984 74.35792478968506,262.0140084838422 74.62757330219029,262.4343133914954 74.8901258011465,262.75572153583926 75.2307344484725,263.1018519385907 75.28040654287906,263.62928586127964 74.98946998995962,263.9754124821411 74.68434141005855,264.26385018822475 74.34373276273254,264.5358047865884 74.01731614238815,264.7912764454959 73.68380350852385,265.0549882694031 73.33609884770704,265.28573540186335 73.09483438919415,265.44231343391584 72.87485797112458,265.1044341395682 72.69036162050907,264.7088663221002 72.46328918894869,264.36274287646665 72.19364067647257,264.0166179324224 71.85303202914656,264.27209125023364 71.51951939531136,264.5605278860312 71.2214868289011,264.30505548984365 71.00151041083154,263.9671713895368 70.76024595231866,263.8023493590226" stroke="#ffff00" stroke-linecap="round" stroke-linejoin="round" stroke-width="0.5"><title>2024-03-04 20.1km</title><desc>383901413</desc></polyline></svg>