<?xml version="1.0" encoding="utf-8" ?>
<svg baseProfile="full" height="300mm" version="1.1" viewBox="0,0,200,300" width="200mm" xmlns="http://www.w3.org/2000/svg" xmlns:ev="http://www.w3.org/2001/xml-events" xmlns:xlink="http://www.w3.org/1999/xlink"><defs /><rect fill="#222222" height="300" width="200" x="0" y="0" /><text fill="#FFFFFF" style="font-size:12px; font-family:Arial; font-weight:bold;" x="10" y="20">Over 10km Runs</text><text fill="#FFFFFF" style="font-size:4px; font-family:Arial" x="10" y="280">ATHLETE</text><text fill="#FFFFFF" style="font-size:9px; font-family:Arial" x="10" y="290">SAM0TA</text><text fill="#FFFFFF" style="font-size:4px; font-family:Arial" x="120" y="280">STATISTICS</text><text fill="#FFFFFF" style="font-size:3px; font-family:Arial" x="120" y="285">Number: 2</text><text fill="#FFFFFF" style="font-size:3px; font-family:Arial" x="120" y="290">Weekly: 2.0</text><text fill="#FFFFFF" style="font-size:3px; font-family:Arial" x="141" y="285">Total: 54.7 km</text><text fill="#FFFFFF" style="font-size:3px; font-family:Arial" x="141" y="290">Avg: 27.4 km</text><text fill="#FFFFFF" style="font-size:3px; font-family:Arial" x="167" y="285">Min: 18.6 km</text><text fill="#FFFFFF" style="font-size:3px; font-family:Arial" x="167" y="290">Max: 36.2 km</text><polyline fill="none" points="91.81923598615685,36.0 92.11762251553591,36.23152392960037 92.71439557429403,36.70614648071205 93.08240562718129,36.9608211622035 93.7786408624379,37.21549526137824 94.1267584800371,37.28495173283591 94.32568283291766,37.3081038803648 95.42971299163764,37.516472991505 95.63858356222045,37.539625090910704 96.22541040333454,37.62065740091202 96.50390449742554,37.678537586238235 97.09073133859783,37.736417741492915 98.03562201489694,37.238647423364455 98.40363206784241,37.2270713429898 98.93078160309233,37.48174483337789 99.74637145001907,37.86375397720985 100.40282181469956,37.88690600442351 100.83050917345099,37.817449908347044 101.36760492634494,38.02581806664239 102.0837325968314,38.15315397152881 102.4318502144306,38.245761810852855 103.04851570853498,38.45412916797068 104.00335260253632,39.04450122961134 104.67969540244667,39.54226347781514 105.18695250240853,39.91268975381536 106.09205830818973,40.479902601684444 107.06678763753735,40.977658435702324 107.3651741668582,41.151293668510334 107.91221613739617,41.38280689121166 108.66812867851695,41.67219774298428 108.88694546674378,41.88055869073287 109.18533199612284,42.00789018916839 109.84178236074513,42.29727941710735 110.3192008077749,42.50563919569686 111.09500578418374,42.78345162761252 111.49285449000308,42.95708404571633 111.72161749587394,43.026536937199126 112.3681216428522,43.44325337673217 112.6466157369432,43.755789683425974 112.98478713689838,43.85996825744951 113.35279718978563,43.95257135260181 113.79043076618109,44.34613364819961 114.05897864262806,44.90174863972061 114.54634330730187,45.21428085475054 114.8347836190951,45.49208653203095 115.26247097784653,45.76989151656744 115.70010455424199,46.07084613478219 116.05816838948522,46.22132313903421 116.62510279536946,46.53385165226791 117.33128424821189,46.85795436958142 117.5799396893708,46.95055497279827 117.82859513047151,47.02000537470303 118.3756371010677,47.08945573328674 118.80332445981912,47.13575594834401 119.40009751857724,47.043155499050044 120.45439658907708,47.12418089638231 121.1605780419195,47.23993136174249 121.40923348307842,47.32095661596395 122.15519980649697,47.691357027688355 122.6525106888148,48.119630968729325 123.06030561233638,48.918299596240104 123.26917618286097,49.14979667891021 123.53772405930795,49.39286809805344 123.92562654748326,49.67066335632262 124.20412064157426,49.902158875796886 124.54229204158764,50.15680339170649 124.7710550474585,50.353573755390244 124.51245338865556,50.967032070482674 124.34336768864887,51.1869502666741 124.23395929450635,51.673083686458995 124.64175421802793,51.96244781030691 125.17884997092187,51.939298708086426 125.49712893558899,51.86985137244483 125.79551546496805,52.43700334668392 125.97454738261877,52.89998241006106 126.1635255178553,53.328236330991786 126.20331038848963,53.6986167731593 126.44201961194631,54.11529329908808 126.67078261781717,54.65928530743258 126.76029857661342,54.86762196901691 127.06863132363651,55.446332874242216 127.18798593542306,55.700964720475895 127.32723298243945,56.04818902761326 127.45653381187003,56.46485676806333 127.73502790596103,57.42550145540008 127.81459764711326,57.726424593922275 128.18260770000052,58.154659966960025 127.95384469412966,58.386137861838506 127.63556572946254,58.675484554318246 127.32723298243945,58.98797813837882 127.2377170236432,59.242601892394305 127.18798593542306,59.462503757218656 127.46648002945585,59.84443754383392 127.81459764711326,60.19164894131973 128.6998110176064,60.87449486738478 128.91862780583324,61.07124630695762 129.47561599401524,61.557336609803315 129.59497060574358,61.71936623960937 129.6347554763779,62.20545371570188 129.68448656453984,62.46007011902839 129.93314200569876,62.714685940693016 130.41056045272853,62.830420212798344 130.64926967624342,63.3859430460725 130.62937724095536,64.17292898690357 130.37077558215242,65.20294630795979 130.1519587939256,65.83946910739178 130.0823352704174,66.23295411081199 130.03260418219725,66.51070739459828 129.94308822334278,66.80003299589589 129.92319578811293,67.0777848666039 129.90330335276667,67.27452535626071 129.90330335276667,67.47126549873065 129.51540086459136,67.7142969599663 129.19712189992424,67.94575500188512 128.71970345289446,68.25822259610868 128.04336065298412,68.92944631841965 127.54604977066629,69.55437511630589 127.3073405471514,69.63538414841605 126.92938427662011,69.4849387561917 126.60115909430897,69.77425663791655 126.17347173549933,70.2255910340391 125.40761297679273,71.05881896468054 124.58207691216376,71.90361314736947 124.04498115926981,72.47066318619909 123.73664841224672,72.7946904848286 123.47804675344378,73.07242741980008 122.96084343583789,73.62789921404328 122.54310229473049,73.94035088207602 122.25466198299546,73.82462814414612 121.34955617721425,73.292302002621 121.0511696478352,73.13028919417411 121.51864187716274,73.55846539110644 122.3043930712156,73.99821220594458 122.4436401182902,74.20651272338 122.06568384770071,74.76197886721638 121.4689107889426,75.64146126850392 120.89203016547253,76.5556527266599 120.78262177138822,76.70608857749176 120.34498819493456,77.30782995105983 119.5592370008817,77.86328064421832 119.1414958597743,78.00214288516145 118.78343202453107,77.99057103831728 118.2761749245692,77.80542132608389 117.649563212879,78.0831457791428 117.08262880705297,78.3724413487871 117.17214476584923,78.92788673849282 117.07268258940894,79.85362290589546 116.68478010123363,80.86035226414242 116.26703896006802,81.78607238815312 116.03827595425537,82.35307216903311 115.70010455424199,83.44077796419879 115.5310188542353,83.61434705632564 115.46139533078531,83.97305565724673 115.54096507193753,84.1003390770129 115.62053481308976,84.47061729025154 115.63048103073379,85.48887603735784 115.74983564252034,86.17156703642831 115.88908268953674,86.77325733355246 116.06811460712925,87.88406166130153 116.2570927424822,89.02956703687232 116.42617844243068,90.10563712702424 116.59526414243737,91.0544214972033 116.75440362474183,91.99162740252359 116.87375823647017,92.61642696448689 116.9533279776224,93.25279329108162 116.86381201882614,93.39163637074671 116.87375823647017,93.81973477849533 117.00305906584254,94.50237478659983 117.092575024697,95.24286091918475 117.29149937763577,96.38829072275257 117.45063885994023,96.9436463938182 117.56999347166857,97.64940690309595 117.5799396893708,98.01964013882389 117.73907917167526,98.45929051030544 117.96784217754612,99.23445931306924 118.18665896577295,99.91706618694298 118.47509927750798,100.63437738426728 118.96246394212358,101.50208637842297 119.5592370008817,102.33508066368813 120.33504197729053,103.22591489216575 121.14068560663145,103.98948142679001 122.0258989771246,104.70676644163905 122.33423172414768,104.97285487130284 122.80170395353343,105.63228867940052 122.67240312410286,105.96778859469487 122.33423172414768,106.98585112811998 121.96622167120222,108.06174802835449 121.85681327711791,108.54763355063915 121.73745866538957,108.90626198381506 121.62805027124705,109.2417520552699 121.3296637419262,110.13253114356485 121.06111586542102,110.7456606701162 120.66326715965988,111.79838464113709 120.38477306551067,112.61973380970448 120.02670923032565,113.69557639265986 119.6984840479563,114.71356842669775 119.51945213036379,114.88708886986569 119.43988238915335,115.3266727850787 118.72375471860869,116.10172441798204 117.90816487168195,116.98088094891136 117.46058507758426,117.22380455869279 117.00305906584254,117.59397285211162 116.84391958353808,117.86003055472247 116.43612466007471,118.41527936935017 115.91892134246882,119.38695814851235 115.59069616015768,119.86122686153976 115.31220206606667,120.49743782394944 115.01381553668762,121.0989430352638 114.24795677792281,121.33029033037019 113.54177532508038,121.49223315162817 113.31301231920952,122.64896075674915 113.23344257799909,123.11164844252926 113.01462578983046,123.56276708965015 112.89527117804391,123.80567637531203 112.16919728991343,124.67320522339287 111.63210153707769,125.30938876050641 110.87618899595691,126.15377221936797 110.1799537607003,127.0328495825961 109.50361096078996,127.70371975528542 108.80737572559156,128.5365184991897 108.37968836678192,129.08014766134875 107.82270017859992,129.7741384898618 107.65361447859323,130.07486650915962 107.12646494340152,130.6300545705817 106.47001457877923,131.48596408974117 105.8036179964547,132.31873462146905 105.06759789062198,133.2555940453094 104.4111475259997,134.0767853469224 104.10281477897661,134.55099165762658 103.94367529667215,134.74761319583922 103.67512742022518,134.77074511871615 103.41652576142224,135.4415687985238 102.89932244381635,135.90420347100007 102.18319477332989,136.85259855736513 101.4571208851994,137.68532906514156 100.9001326970174,138.39083199723245 100.23373611469287,139.14259251154726 100.05470419704216,139.2466820300324 99.71653279708698,139.11946149427968 99.07997486775275,138.679971255493 98.66223372658715,138.3561352359393 98.24449258547975,137.99760140458238 97.99583714437904,137.77785429376672 97.23992460325826,137.09547893031413 96.57352802093374,136.40153360616387 96.12594822689425,136.08925680331595 95.53912138578016,135.5340958863817 95.34019703284139,135.3259098309136 95.14127267990261,135.00206408424856 94.7135853212094,134.71291530247981 93.87810303887818,133.97269100914127 93.08240562718129,133.27872627732722 92.38617039198289,132.60788960332138 91.51090323913377,131.90235013203346 91.1727318391786,131.60162703504466 90.8246142215794,131.3009031280526 90.55606634507421,130.95391299812763 90.14827142161084,130.56065621387825 89.72058406285942,130.21366378334642 89.27300426876172,130.53752341873042 88.64639255707152,131.26620416357036 88.40768333355663,131.54379557733773 87.91037245129701,132.13367504008784 87.31359939248068,132.93174229395663 86.82623472786509,133.47535005589452 86.36870871612336,134.01895517123194 86.14989192789653,134.2734077201676 85.78188187500928,134.68978336759028 85.14532394567505,135.40687112082378 84.68779793393333,135.91576931323652 84.1904870516737,136.482494116186 83.8125307810842,136.8872957858548 83.464413163485,137.2805302883935 82.97704849886941,137.96290452111134 82.67866196943214,138.2289136856125 82.13161999889417,138.84188891309168 81.78350238129497,139.25824752608605 81.445330981398,139.60521185109974 81.26629906374728,139.80182449011045 80.79882683436153,140.17191793034726 80.49049408733845,140.391660330155 80.06280672858702,140.64609835820738 79.6749042403535,140.78488249282236 79.23727066395804,140.91210113134002 78.64049760519993,141.17810327091138 78.11334806995,141.40940896420216 77.89453128172318,141.4903658436815 77.70555314642843,141.5597574079584 77.28781200532103,141.65227942655474 76.96953304065391,141.7794970770119 76.83028599357931,141.8604536881976 76.24345915246522,142.0686275617918 75.98485749366228,142.11488836989884 75.30851469375193,142.3808876446201 75.01012816437287,142.4502786555895 74.56254837027518,142.6468862858237 74.35367779975059,142.76253767131857 73.77679717628052,142.93601452501753 73.01093841751572,143.17888166755438 72.89158380572917,143.14418639379437 72.50368131761206,143.36392294545658 72.2749183117412,143.42174828190764 71.98647799994797,143.52583381212025 71.63836038240697,143.60678915742756 71.36981250596,143.66461436815734 71.04158732359065,143.7686996720513 70.812824317778,143.79182972639683 70.60395374719519,143.94217496290366 70.32545965310419,144.0 70.05691177665722,143.96530498133507 69.62922441784758,143.35235787455167 69.55960089439759,143.1673165774846 69.36067654145882,142.7741028032833" stroke="#4DD2FF" stroke-linecap="round" stroke-linejoin="round" stroke-width="0.5"><title>2024-03-06 18.6km</title><desc>9223370327137444807</desc></polyline><polyline fill="none" points="68.5324934705859,248.72731079118967 68.32785374097875,248.6758694653072 67.74158856968279,248.58584704251916 67.32677830697503,248.61156774805568 66.55246581658139,248.59870739662438 66.12106314336415,248.61799792277452 65.65094484563451,248.59870739662438 65.10892610231531,248.58584704251916 64.54478414505138,248.6822996333758 64.26271316641942,248.63085827021496 64.03041941928677,248.53440559951923 63.659855584584875,248.60513757267836 63.43862344446825,248.62442809683853 63.17314487634576,248.54726596424734 62.94085112924222,248.39937160894624 62.71408818560303,248.16788408514913 62.653249347087694,247.9171049609722 62.50391765250242,247.59559178244308 62.33246274388512,246.72106751853062 62.166538638819475,246.49600413520966 61.779382393637206,246.52815609702884 61.53602703951765,246.5410168771159 61.237363650347106,246.56030804222974 60.97188508219551,246.57959920134454 60.57366722999723,246.56673842925375 59.79935473960359,246.55387765452906 59.36242126286379,246.50243452891664 58.875710554624675,246.56673842925375 58.25626056230976,246.55387765452906 57.885696727607865,246.6503334002009 57.27177753878641,246.6567637779117 57.03395298816031,246.50243452891664 56.74082040254143,246.56673842925375 56.10477799968794,246.61818150161344 55.6346597019583,246.5924599707614 55.352588723326335,246.56673842925375 54.40129052082193,246.66962453136148 53.70994008297566,246.58602958637493 53.2951298202679,246.37382652853194 53.024120448651956,246.3095224284807 52.2774619757256,246.11660972898244 51.74650483948062,245.89797461198032 51.03303118760232,245.66647776699756 50.651405745884404,245.6278948756226 49.68351513289963,245.28707829436098 49.274235673685325,245.01056535444877 49.28529728070134,244.54113359129406 49.44015977878007,243.80804127597366 49.50652942081797,243.55724455020027 49.523121831327444,243.20998587350914 49.16915040713502,242.83057139615266 49.20786603167653,242.68909421813078 49.224458442186005,242.68909421813078 49.30188969121082,242.4640162253054 49.69457673991565,241.8145008728934 49.51206022434053,241.40292327237694 49.06406514058472,241.0363596755742 48.48333077278221,240.28393288262305 48.40036872026394,239.66655024374995 48.267629436188145,239.13276655663867 48.1017053310934,238.69544638157458 47.653710247337585,238.06518541759579 47.283146412693895,237.7050334232008 47.44907051775954,237.26770319322895 47.819634352461435,236.88825240985898 47.9689660470176,236.54738786465532 47.99108926104964,236.04573475323195 47.61499462285428,235.23536347300978 47.56521739132586,234.57934088032926 47.426947303756606,234.096966904679 47.05638346905471,233.84613095618624 46.63051159933093,233.6017257239073 46.2378245506261,233.2865701883602 46.01106160701602,232.93282227340023 46.24888615764212,232.09668282519488 46.62498079586658,231.54997017389542 46.95682900599786,231.13832452959468 47.399293286231114,230.6752199168841 47.50990935630398,229.813321578029 47.43800891074352,229.36307141837096 47.454601321252994,228.81633469089866 47.47672453528503,228.41753545221945 47.33292364422232,227.86435807257658 47.17806114611449,227.4205261452007 47.039791058545234,226.7965831411384 47.22783837764291,226.46852811788995 47.75326471042354,225.9346309413122 48.01321247505257,225.32353817447802 47.68689506838564,224.96974487499028 47.277615609171335,224.56448825362895 47.19465355662396,223.7218033141944 46.8462129359541,223.26507616072922 46.525426332780626,222.7633156945776 46.647104009840405,221.69545299178571 46.83515132893808,220.94922477330692 46.73559686591034,220.29305116591058 46.774312490422744,219.62400426449676 46.96235980949132,218.9806831325077 47.012137041048845,218.73621935330812 46.90705177449854,218.29875544956303 46.81302811493515,217.7905214525672 46.92364418497891,217.39808475816972 47.249961591674946,216.6775387903217 47.50990935630398,216.25936095316138 48.11276693808031,215.98915223611766 48.34506068521296,215.86048100480548 48.522046397294616,215.35222703188265 48.6437240743835,214.65095838442357 48.593946842855075,214.21989940994536 48.36165309572243,213.6601616443695 48.30634506070055,212.82376246681815 48.3395298817195,212.48276571954557 48.67137809190899,212.12889918827932 48.8815486250096,211.88440840555268 49.25764326317585,211.63991665902722 49.73329236442805,211.66565267772967 50.114917806116864,211.67208668074818 50.441235212783795,211.6849546847443 51.08280841913074,211.60774662062977 51.4589030573261,211.18310054994436 51.36487939776271,210.84209478227422 51.14917806116864,210.58473069721003 51.2597941312124,210.19224841126197 51.31510216623428,209.78046104770692 51.016438777092844,209.1563406123023 50.63481333537493,208.71880913930727 50.15916423415183,208.5000422452067 49.36825933327782,208.27484022455246 48.75987094792072,207.77939290030554 48.389307113247924,207.084473100349 48.04086649257806,206.80778990128238 47.9689660470176,206.318765413831 48.00768167155911,206.11929379179492 47.963435243524145,205.44365933661538 48.19572899065679,204.45271548491291 48.3395298817195,203.92506359563413 48.322937471210025,203.39740721576527 48.411430327250855,202.72174309928596 48.39483791674138,202.43217050948442 48.49439237979823,201.9752865617047 48.7488093409338,201.55057452003894 48.99216469505336,201.3575226301291 49.163619603641564,201.13229466542543 49.185742817644496,200.2892913057185 48.90367183901253,200.4630410276768 48.555231218313565,200.09623548793024 48.24550622218521,199.80021539958398 48.0353356890555,199.2532180385897 48.179136580147315,198.85422868373644 48.411430327250855,198.56463802739017 48.69350130591192,197.9790172323992 48.79305576893967,197.34190700655017 48.82070978646516,197.05230928444144 48.93685666003148,196.67904800223187 49.19680442466051,196.40875394633258 49.60055308038136,195.88746922397695 50.092794592143036,195.67509270971277 50.352742356742965,195.6364787198363 50.72330619144486,195.12162322263612 51.016438777092844,195.0122158784834 51.65801198341069,194.85775812261636 52.06729144262499,194.79983636492761 52.570594561402686,194.62607076703716 52.66461822093697,194.2527948722709 52.49316331234877,193.9374393470316 52.299585189757636,193.2938516631002 52.38254724230501,192.5601535502501 52.30511599325109,192.39925367988326 51.99539099709364,192.27696949901656 51.84052849901491,191.98734810804308 52.083883853134466,191.820010687381 52.31617760026711,191.4145373708925 52.49316331234877,190.87390215494815 52.581656168418704,190.63576371810632 52.68121063144645,190.3525708721536 52.86372714705067,189.90847039371147 52.963281610107515,189.61240163969705 53.16792133968556,189.24553187317724 53.80396374250995,188.72418688912148 54.097096328187035,188.46029454591553 54.451067752350355,187.88745120106978 54.810569980036234,187.37896783961332 55.225380242743995,186.90266318384238 55.324934705829946,186.3298054363513 55.42448916885769,186.04015624436215 55.51298202489852,185.72475891732756 56.03287755418569,185.1390167640202 56.525119065947365,184.63051084306062 56.85143647258519,184.514648150609 56.995237363677006,184.34085370556932 57.293900752818445,184.2185536186189 57.57597173147951,184.12200074781867 57.891227531130426,184.07050582185548 58.2783837763418,183.94176831967707 58.72637886006851,183.35600930653527 58.97526501768152,183.03416133699648 59.356890459370334,182.50632704664895 63.128898448339896,178.04530393336245 63.61560915657901,177.85217879306583 64.34014441544423,177.49811447157845 64.73283146414906,177.28567490699425 65.08127208481892,176.97667060295134 65.49055154403322,176.7384787328665 65.92195421725046,176.3457820276817 66.3533568904677,176.05608614076118 66.88984483023523,175.91445654719428 67.97941312030889,175.8050152757678 68.19511445690296,175.82432845536096 68.39975418653921,175.86939251767035 68.75925641422509,175.86295479649925 69.50038408359978,175.77926436025518 69.77692425873829,175.75351343405055 70.30235059151892,175.52175461617662 70.86649254878284,175.28355714945792 71.09878629591549,174.97454285419735 71.57443539713859,174.87797557066006 72.26578583501396,174.64621347571665 73.01244430791121,174.13762139337268 73.30557689353009,173.7255943647615 73.63189430019702,173.3650684654931 74.0964817944332,173.133300707359 74.44492241513217,173.06892062058614 74.64956214473932,173.10111067235994 74.94822553388076,173.25562268782232 75.31878936858266,173.51957982222666 75.77231525583193,174.05392862509325 76.34751882008277,174.63333777832304 76.9116607774049,174.80715946703276 77.16054693504702,174.85222426963082 77.59748041175772,174.77497030224185 78.28883084960398,174.63977562735818 78.67598709478625,174.53676996265494 79.5553848517593,174.2663792775129 79.94254109694157,174.2535035011315 80.8108772468986,174.15693509304037 81.44138884622953,174.11186978439218 81.71239821787458,174.16337299161387 82.30972499615746,174.20843826276905 82.51989552928717,174.15693509304037 82.73559686588123,174.2535035011315 82.99001382701681,174.27925505119129 83.50437855278142,174.18912457915212 83.93025042247609,174.24706561195126 84.1680749731022,174.3114444737039 84.5109847903077,174.34363387945268 84.97004148102133,174.35650963709486 85.16361960364156,174.2535035011315 85.54524504533038,174.21487615596925 86.34168074975605,174.2277519403833 87.06621600859216,174.22131404850734 87.35934859426925,174.16981088948887 87.67460439392016,174.0989939759129 88.32170840376057,174.06036653435513 88.98540482411045,174.02173906869575 89.34490705179633,174.0668044429476 89.97541865112726,174.05392862509325 90.5119065908948,174.09255607066734 90.86587801505812,174.1054318804927 91.16454140422866,174.15693509304037 91.6346597019874,174.3307581191657 92.00522353663109,174.35007175861028 92.4145029958454,174.40801264080073 92.64126593948458,174.45307773389868 93.21093870027107,174.61402422725587 93.42110923337168,174.67840270744637 93.9078199416399,174.8135972979726 94.57704716548324,175.00673191523674 95.14671992626972,175.13548799207274 95.88231679212186,175.2384926607956 96.8557382086583,175.28355714945792 97.66876632356434,175.17411476292182 98.8247042556468,174.97454285419735 99.46074665847118,174.94235377642326 99.7760024581221,174.92947814062427 100.04148102627369,174.9101646819181 100.3180212014413,174.781408136525 101.04255646030651,174.48526706605116 101.63988323858939,174.2535035011315 101.87770778921549,174.01530115542118 102.65202027963824,173.71915642067324 103.55354125058511,173.62258717919394 104.46612382857711,173.53245575123947 104.95283453681623,173.48738998804038 105.30680596097955,173.43588621853996 105.80457827623468,173.3843824061696 106.21938853894244,173.25562268782232 106.51252112461952,173.2041187255163 106.91626978028216,173.03673055209583 107.4416961130919,172.84358978966338 107.8509755722771,172.64401036882555 108.34874788756133,172.39936374947501 108.6695344907057,172.23841149899454 109.0124443078821,172.06458259849387 109.36088492855197,172.01307764535886 109.67614072820288,172.0710207146185 109.95821170689305,172.06458259849387 110.62190812721383,171.69760887240773 110.95928714089678,171.69117071744768 111.23029651251272,171.7104851803233 112.07097864497337,171.72979963715989 112.6351206022373,171.72336148555405 112.97249961592024,171.76842853278868 113.33200184360612,171.5430929685317 113.83530496235471,171.55596930858883 114.26670763557195,171.40789123630748 114.62620986325783,171.31131838965666 114.77001075434964,171.68473256181096 114.76447995085618,172.17403048164851 114.6704562912928,172.54100138375725 114.50453218619805,172.79852352504895 114.08972192349029,173.03673055209583 113.81318174835178,173.50670389057632 113.87955139038968,173.84147724369177 114.13949915501871,174.09255607066734 114.4326317406667,174.27925505119129 114.73682593333069,174.382261144292 115.15163619603845,174.607586375565 115.3175603011041,174.75565679531792 115.58856967274914,174.9681050399886 115.91488707944518,175.10973679813833 116.21908127208007,175.1226123964516 116.51221385775716,175.3028704917051 117.00998617298319,175.39943711257 117.61284375481773,175.36724825570127 118.16039330157219,175.3350593820578 118.65263481333386,175.10973679813833 119.34398525118013,174.67840270744637 119.67030265787616,174.56895925129356 120.04086649254896,174.71702976342203 120.58841603933251,174.8844133942548 120.84836380396155,174.94235377642326 121.15255799659644,175.01960753497042 121.41250576125458,174.97454285419735 122.4135811952583,174.58183496203856 122.62375172838802,174.48526706605116 123.3925334152591,174.04749071514743 123.89583653400769,173.71915642067324 124.47104009834584,173.46163810865255 125.07942848364473,173.58395944040967 125.76524811799754,174.0088632414736 126.3127976647811,174.08611816473422 126.82716239054571,174.12474559021575 127.46873559689266,174.0989939759129 128.27623290827614,174.27925505119129 128.76294361651526,174.55608353783828 129.27730834230897,174.8135972979726 129.8027346750605,175.14836358503453 130.2894453833287,175.38656157184232 131.04163465969032,175.3736860284116 131.47303733293666,175.32218382792416 132.00399446921074,175.26424380117896 132.41327392839594,175.26424380117896 132.78383776309784,175.26424380117896 133.14887079427717,175.20630372023516 133.5139038254565,175.10973679813833 134.2550314948312,175.07754779062816 134.54263327701483,174.85866209588494 134.94085112921312,174.607586375565 135.35013058842742,174.42732625615463 135.76494085113518,174.35007175861028 136.52266093099024,174.11186978439218 136.92087878321763,174.1504971938266 137.2693194039166,174.2535035011315 137.60669841757044,174.24706561195126 138.19849439238897,173.95092198573911 138.7736979566689,173.96379782505392 139.16638500537374,173.73847025089344 139.73605776616023,173.46163810865255 140.0955599938752,173.56464556198262 140.77584882470546,173.45520013712303 141.42295283454587,173.133300707359 142.0147488093353,172.9723503649002 142.68397603317862,172.7405811366516 143.2038715624658,172.93372222043763 143.72929789524642,173.25562268782232 144.08326931940974,173.46163810865255 144.63634966968675,173.76422201516834 145.2115532339667,174.1054318804927 145.62636349670356,174.37582326849952 146.10754340144922,174.67196486242756 146.3730219695717,174.87153774641047 146.58319250267232,175.15480138051862 146.93163312337128,175.41231265066017 147.42387463513296,175.67626059113172 147.75572284529335,175.83720390509188 148.41388846212067,176.26852992369095 148.78445229682256,176.66122711878415 149.20479336302378,177.11829776703962 149.40943309263093,177.65905305048 149.7855277308263,178.17405369229164 150.25564602855593,177.9938039548324 150.81978798584896,177.9294289214522 151.3562759256456,177.98736645451208 151.68259333231254,178.2062410901999 152.06421877400135,178.52167670438575 152.51221385772806,178.89504739574477 152.78875403289567,179.62247003645098 152.97127054847078,179.88640003259934 153.7345214318484,180.18251527479515 153.92809955443954,180.2597624964328" stroke="yellow" stroke-linecap="round" stroke-linejoin="round" stroke-width="0.5"><title>2024-03-06 36.2km</title><desc>9223370327144915207</desc></polyline></svg>