<?xml version="1.0" encoding="utf-8" ?>
<svg baseProfile="full" height="300mm" version="1.1" viewBox="0,0,200,300" width="200mm" xmlns="http://www.w3.org/2000/svg" xmlns:ev="http://www.w3.org/2001/xml-events" xmlns:xlink="http://www.w3.org/1999/xlink"><defs /><rect fill="#222222" height="300" width="200" x="0" y="0" /><text fill="#FFFFFF" style="font-size:12px; font-family:Arial; font-weight:bold;" x="10" y="20">Over 10km Runs</text><text fill="#FFFFFF" style="font-size:4px; font-family:Arial" x="10" y="280">ATHLETE</text><text fill="#FFFFFF" style="font-size:9px; font-family:Arial" x="10" y="290">SAM0TA</text><text fill="#FFFFFF" style="font-size:4px; font-family:Arial" x="120" y="280">STATISTICS</text><text fill="#FFFFFF" style="font-size:3px; font-family:Arial" x="120" y="285">Number: 7</text><text fill="#FFFFFF" style="font-size:3px; font-family:Arial" x="120" y="290">Weekly: 1.8</text><text fill="#FFFFFF" style="font-size:3px; font-family:Arial" x="141" y="285">Total: 136.9 km</text><text fill="#FFFFFF" style="font-size:3px; font-family:Arial" x="141" y="290">Avg: 19.6 km</text><text fill="#FFFFFF" style="font-size:3px; font-family:Arial" x="167" y="285">Min: 11.9 km</text><text fill="#FFFFFF" style="font-size:3px; font-family:Arial" x="167" y="290">Max: 36.2 km</text><polyline fill="none" points="32.86365679766459,33.0 32.86365679766459,33.0462359952362 32.991801660115016,33.05651065498023 33.44693686126266,33.08733462150121 33.561825358643546,33.0821972950871 33.74299568141578,33.19521835357591 33.76067083486123,33.44180886064714 33.769508411583956,33.590790031703364 33.76508962322259,33.78086880765841 33.8181150835444,34.14561252846761 33.83137144862849,34.232945134364854 33.86672175551939,34.46925612113046 33.89765327403438,34.66446869646461 33.89765327403438,34.890503350969084 33.92416600420256,35.20900498087576 33.9550975227321,35.43503715593033 33.95067873437074,35.52750456728245 33.941841157648014,35.830590985900926 33.928584792563925,36.16963461738851 33.93742236928665,36.60627830731755 33.96835388781619,36.67819572317967 33.94625994600938,36.81689330244262 33.972772676177556,36.99154896217806 33.98161025288573,37.11483494030472 34.003704194692546,37.19188852116713 34.021379348138,37.38195350931346 34.03463571323664,37.4692804220831 33.99928540633118,37.561744044636725 34.01254177141527,37.69530230656892 34.03463571323664,37.839133879162546 33.99928540633118,37.941870461621875 33.87555933224212,38.38877212166335 33.87997812060348,38.48123403187492 34.21138724764751,40.29961660961635 34.220224824370234,40.63862972550123 34.2423187661625,40.79786235987922 34.237899977801135,40.98791354542118 34.220224824370234,41.321785488507885 34.21580603599432,41.41937840173705 34.206968459286145,41.6659280651038 34.19813088256342,41.92274932947839 34.220224824370234,42.030613864477345 34.23348118943977,42.42097879486391 34.22906240107841,42.595614743986516 34.23348118943977,42.74456845063469 34.24673755452386,43.011656736922305 34.25557513124659,43.11951890690398 34.295344226498855,43.30956120787232 34.29092543812294,43.4585127732571 34.37930120533565,43.57151021452955 34.3969763587811,43.735869670174 34.401395147142466,43.82318540974666 34.46325818420155,43.95672683219891 34.4986084910779,44.21353625080883 34.5472151630529,44.398438209987944 34.54279637467698,44.5319780857717 34.58256546992925,44.6347008228222 34.64442850697378,44.82473732630024 34.679778813850135,44.94800385871713 34.7195479091024,45.09695051056406 34.794667311231024,45.40511457915272 34.852111559928744,45.57974003602067 34.87420550173556,45.67732458276805 34.922812173696,45.75950089448452 34.99351278747781,45.954669089951494 35.033281882700976,46.10874870259795 35.08630734303733,46.416906494108844 35.117238861566875,46.71992645827413 35.13933280337369,46.83291648025988 35.218870993863675,46.98699336878053 35.25864008911594,47.17702087314319 35.311665549423196,47.336232546851534 35.338178279591375,47.52112288244825 35.40004131663591,47.67006181900069 35.364691009759554,47.88576569408906 35.40446010499727,47.962802565361926 35.497254660585895,48.03470353743978 35.541442544184974,48.1682336380436 35.629818311397685,48.270948855828465 35.65633104156586,48.42502128428532 35.6872625600663,48.491785854901536 35.731450443694484,48.69721474018297 35.78447590401629,49.03617054381175 35.91703955482808,49.31349629943361 36.009834110416705,49.65244789851204 35.93029591991217,49.863007575921074 36.00541532204079,50.06329522144006 36.01867168712488,50.16600652134002 36.06285957072396,50.273853157716076 36.204260798258474,50.4690036189495 36.266123835303006,50.7052373622937 36.27054262367892,50.782269861843815 36.31473050726345,51.141753280669946 36.40752506285207,51.36771295559447 36.44287536972843,51.47555698364522 36.557763867109315,51.85557693120427 36.71242145974247,52.31775943703906 36.74335297825746,52.42560140318892 36.71242145974247,52.52830782002275 36.76986570841109,52.718314131521765 36.82730995712336,52.76966706397798 36.88475420579198,52.94940190963098 36.906848147598794,53.02643093019651 36.93336087775242,53.18562386098711 36.97312997300469,53.30373441557094 37.0615057402174,53.616982787745656 37.096856047108304,53.74536269769669 37.145462719068746,53.940499525644555 37.17197544922237,54.0842840664518 37.20732575611328,54.33077088286518 37.30012031168735,54.56698626805883 37.26918879315781,54.746714613393124 37.26918879315781,54.95211764071428 37.26918879315781,55.1113044029953 37.45919669266732,55.30643586761653 37.54315367153322,55.47075650677289 37.56082882496412,55.61453662036365 37.50338457628095,56.13316857390964 37.50338457628095,56.35910555438386 37.46361548102868,56.667199781673844 37.45035911594459,56.81611130692909 37.437102750875056,57.226899408535246 37.45035911594459,57.401483323676075 37.39291486727598,57.591471005169296 37.42826517415233,57.714705869748286 37.46361548102868,57.81740135683867 37.507803364642314,58.146025489728345 37.55199124824139,58.32574089346963 37.684554899067734,58.64409229944431 37.777349454627256,58.95730701557841 37.8436312800477,59.07540385523316 37.8613064334786,59.162692643334594 37.94526341232995,59.4964424785976 38.02038281445857,59.645345528384496 38.07340827479493,59.789113567047025 38.10433979330992,59.871266545302205 38.15294646528491,60.02016847237974 38.19713434888399,60.10232106883268 38.14410888856219,60.21528066725659 38.347373153141234,60.36931606966391 38.47551801560621,60.590099314147665 38.599244089695276,60.83141941331269 38.70971379870025,61.17029246879247 38.82460229608114,61.473222487307794 38.974841100367485,61.82749423522182 39.08972959771927,62.15095753951027 39.1515926347638,62.26904679290601 39.270899920520606,62.45388158294736 39.34160053427331,62.536030157949426 39.34160053427331,62.83381760462726 39.39462599460967,62.96217371261446 39.40788235969376,63.034052988350595 39.655334507871885,63.049455676773505 39.770223005252774,63.193213871993066 39.96906848148501,63.455058088136866 40.14582001589588,63.7169009254103 40.28722124344495,63.911998613573815 40.38001579903357,64.06088843955513 40.47722914295446,64.19437549071517 40.6274679472117,64.41514175046177 40.90585161393392,64.80533088226366 41.09585951344343,65.16984691027392 41.312380143106566,65.4830205186845 41.48029410079471,65.7140489656631 41.5951825981756,65.78079031719972 41.6482080584974,65.84239763910591 41.93984809030371,66.06315658254607 42.063574164392776,66.26851285943121 42.28451358243183,66.61761658400428 42.470102693579975,66.92051341831393 42.545222095708596,67.10533091945035 42.50545300045633,67.16693660053716 42.43033359832771,67.32608425680519 42.36405177290726,67.44929499577484 42.29776994751592,67.52630155261068 42.30660752423864,67.61357550622415 42.50987178881769,67.80865790761527 42.60708513275313,67.88053017839047 42.74848636028764,68.00887326073644 42.8191869740549,68.06021040094856 43.013613661925774,68.22962258764892 43.08431427569303,68.28609318831514 43.163852466183016,68.45550460563754 43.42014219108387,68.74812296732489 43.48200522814295,68.83026114535096 43.53503068846476,68.9175328109086 43.63666282076156,69.08694207749431 43.76038889486517,69.34875526363612 43.80015799010289,69.48736168662072 43.84434587373107,69.6362348218463 43.994584677988314,70.062317539363 44.02993498486467,70.22145593143796 44.082960445201024,70.42166157249085 44.11831075207738,70.53973118820431 44.15366105895373,70.6475336360636 44.24645561451325,71.02227366098668 44.37901926533959,71.48941138292867 44.436463514051866,71.58181173135017 44.454138667468214,71.68961192091228 44.48948897435912,71.8384784653208 44.63530899026955,72.32614161154561 44.65298414370045,72.43394018819527 44.71042839239817,72.68546929196236 44.78112900615088,72.89593144238461 44.88717992682359,73.25525500739604 44.93136781040812,73.32198624087323 44.9755556940363,73.57864399699974 44.9932308474672,73.65564106566308 45.10370055647218,73.90716399281882 45.12137570991763,74.13815331604928 45.13905086336308,74.25621411155225 45.17881995861535,74.37940768645421 45.289289667620324,74.74385355954655 45.29812724434305,74.88757795861966 45.32905876287259,74.99023798949202 45.42627210680803,75.25202010949215 45.47487877876847,75.39574304069902 45.567673334342544,75.62672545325768 45.598604852872086,75.76018146956267 45.656049101555254,75.95523192642213 45.69139940843161,76.11948434970327 45.72233092696115,76.19134461439171 45.788612752367044,76.36586196801363 45.84605700105021,76.67896509774073 45.903501249762485,76.82781671438352 45.921176403193385,76.94073833341827 45.96978307515383,77.04339412836998 45.98303944023792,77.1306513875752 46.040483688906534,77.2538378459576 46.01838974711427,77.34622748962647 46.05374005399062,77.42835147334699 46.06699641907471,77.51560805752524 46.11118430268834,77.66958989168415 46.07141520745063,77.81843854513136 46.11118430268834,77.9056944453223 46.13327824449516,77.9980828787775 46.12444066777243,78.1058691676808 46.21281643498514,78.24445119609663 46.2835170487524,78.42409399192184 46.35863645088102,78.7320515617539 46.420499487925554,78.88089703738297 46.420499487925554,79.0143443267043 46.477943736637826,79.25044250048813 46.54422556201462,79.5481299057792 46.56190071547462,79.72263548793853 46.60166981072689,79.98439271393727 46.62376375251915,80.17429415346851 46.672370424479595,80.26154592330204 46.73423346152413,80.6362135492127 46.787258921860484,80.71833210407203 46.844703170558205,80.85690685820373 46.91540378432546,81.1340552090187 46.937497726117726,81.21104058815763 46.91540378432546,81.29829054056245 46.9463353028259,81.6062303265644 46.90656620760274,81.70887649853103 46.81377165202866,81.7294057075269 46.69446436630096,81.77046410010371 46.376311604341026,81.85771307188043 46.19514128153969,81.9039036421018 46.07583399581199,81.93982961152142 45.952107921708375,81.94496189074198 45.55883575763437,82.02194601567317 45.25393936074397,82.05787189989132 45.15230722844717,82.06300416694285 44.86950477337814,82.05787189989132 44.807641736319056,82.12972359054038 44.630890201893635,82.31961684511407 44.37901926533959,82.45305491496038 44.2950622865028,82.4633193670561 44.24203682616644,82.54030269030045 44.39227563042368,82.89442444373708 44.50716412780457,83.22288294855389 44.59553989501728,83.42816841350577 44.706009604022256,83.55647139920256 44.76787264106679,83.62318882107502 44.8562484082795,83.75149130412683 44.94462417549221,83.86952929648032 45.068350249595824,84.03888766620366 45.15672601679398,84.13639676923776 45.36882785812486,84.43405495494517 45.4174345300853,84.63933542539598 45.333477551233955,84.67012742295628 45.20975147713034,84.73684335233338 45.13463207500172,84.77789926443074 45.0595126728731,84.83948306910315 44.896017503531766,84.96265044989559 44.52042049288866,85.0652897011023 44.46297624419094,85.04476186778265 44.38785684206232,85.08581752595637 44.2111053076369,85.15253289826796 43.91504648748378,85.23977594254757 43.84434587373107,85.2551717580136 43.702944646182004,85.29622724265573 43.526193111756584,85.28596337466661 43.442236132905236,85.27569950457473 43.45991128633614,85.33728269345374 43.795739201741526,85.26030369543878 44.15366105895373,85.17819263303682 44.30831865158689,85.1114772951114 44.38785684206232,85.10634534234487 44.53367685797275,85.05502578549931 44.93136781040812,84.96778241747961 45.06393146123446,84.9164627177961 45.13905086336308,84.84974702914405 45.27161451418942,84.83435108828053 45.38650301155576,84.84461504938372 45.57651091106527,84.75737131262576 45.73558729204524,84.92672666197541 46.00513338203018,85.2808314398826 46.0625776307279,85.37833811039673 46.16420976301015,85.49637224549588 46.22165401170787,85.56821897332702 46.34979887417285,85.69138455124266 46.50003767843009,85.88639609315578 46.47352494826191,86.01982460275758 46.508875255138264,86.091670575217 46.71213951973186,86.32260335588217 46.849121958905016,86.47655794791353 46.90214741924137,86.5637986720867 46.9463353028259,86.63564385956488 46.92424136103364,86.71262073109392 47.10099289545906,86.92815533828252 47.08773653037497,86.97947296437997 47.05680501185998,86.8922329685447 46.9463353028259,86.71262073109392 46.849121958905016,86.60485307762792 46.71655830809323,86.37905342822341 46.659114059395506,86.31233969946697 46.52655040859827,86.40471253087162 46.37189281596511,86.45603069647404 46.203978858247865,86.50221700030306 46.05374005399062,86.3328670101655 45.96536428677791,86.32773518327667 45.77093759892159,86.43037162028486 45.66488667826343,86.32773518327667" stroke="#4dd2ff" stroke-linecap="round" stroke-linejoin="round" stroke-width="0.5"><title>2024-04-30 15.0km</title><desc>9223370322408862007</desc></polyline><polyline fill="none" points="133.01697045884794,57.909046851928 133.03394091766677,58.001120477998484 133.45254556884174,58.04058056263602 133.63356379637844,58.04715724101334 133.79195474545122,58.05373391871399 133.84286612193682,57.96166036887371 133.950345694524,57.77093616266575 134.12570710247383,57.79066627950306 134.13702074170578,57.66570876933474 134.0578252671403,57.36975579136197 133.99560025142273,57.09353176824152 133.99560025142273,56.7909993175017 134.0578252671403,56.65288619802595 134.0069138906547,56.42269699843746 133.96165933375596,56.27800621755887 133.8711502199876,55.903124025262514 133.80892520427005,55.73870131327203 133.75235700816847,55.42300851346954 133.6165933375305,54.9757743619266 133.52608422376215,54.620615587118664 133.52042740417528,54.46276660546573 134.19358893777826,52.923718480833486 134.3406662476482,53.015799331788 134.45380263985135,53.00922213257945 134.97423004402663,52.989490530842886 135.48900062855682,52.99606773209234 135.83406662478228,53.00922213257945 136.4167190446169,53.00264493267969 136.79572595853824,52.950027309005236 137.6781898177287,52.93029568889688 137.80263984913472,52.96975892299088 137.94971715903375,53.00264493267969 138.25518541797646,53.00264493267969 138.4531741043611,52.93687289627633 138.82652419863734,52.94345010298639 139.16027655563084,52.956604514354694 139.3243243243487,52.96318171902385 139.75989943434251,52.96975892299088 140.12759270900278,52.956604514354694 140.60842237589532,52.96318171902385 140.7441860465333,52.976336126288516 141.27592708988232,52.989490530842886 141.62664990572375,53.00264493267969 141.7963544940576,53.101302859598945 141.88120678818086,53.186806272329704 142.0509113765147,53.19338345314827 142.282840980537,53.107880049268715 142.59962287871167,53.08157128645689 142.7467001885816,52.950027309005236 143.12570710244472,52.923718480833486 143.23884349464788,52.976336126288516 143.35197988688014,52.950027309005236 143.52734129477176,52.87110079179911 143.64613450662,52.86452357758753 143.9063482086931,52.86452357758753 144.0590823381499,52.96318171902385 144.46071653047693,52.93029568889688 144.70961659334716,52.950027309005236 144.8001257070864,52.976336126288516 144.96983029542025,53.03553092533184 145.07730986800743,52.976336126288516 145.19610307985567,52.989490530842886 145.6543054682552,53.06841690097281 145.7787554996903,53.094725669230684 146.02765556253144,53.11445723825818 146.1407919547346,53.094725669230684 146.48585795098916,53.13418880118479 146.64990571970702,53.1407659874676 147.0685103708529,53.19338345314827 147.36266499059275,53.232846523824264 147.5323695788975,53.19996063328654 147.6851037083834,53.19996063328654 147.90571967317373,53.2591552239719 148.04714016342768,53.27888674194401 148.20553111250047,53.377544239854615 148.38654934003716,53.31834975950187 148.6128221244726,53.469624433040735 148.74292897549458,53.48935588562745 148.9182903834153,53.495933035141206 149.17850408548838,53.5617044927385 149.47265870525734,53.54855020665855 149.7159019484825,53.54855020665855 149.93086109365686,53.535395917879214 150.14016341924435,53.5617044927385 150.5644248900353,53.68009294482181 150.75109993715887,53.666938683258195 150.95474544313038,53.67351581438561 151.08485229415237,53.69982433204132 151.2828409805079,53.739287088134006 151.40729101194302,53.77874981970672 151.84286612193682,53.83794387109083 152.14833438090864,53.89056075936605 152.4934003771341,53.96290890956152 152.8271527341276,54.00894859861728 152.99120050284546,54.04183407038727 153.09302325581666,54.06156534526235 153.20615964801982,54.08787370224309 153.70395977373119,54.199684097857244 154.05468258957262,54.278608964534214 154.21873035826138,54.28518603232442 154.3714644877764,54.357533733153105 154.51288497800124,54.331225487829215 154.66561910748715,54.331225487829215 154.84098051543697,54.31149429670404 155.64990571967792,54.219415323710564 155.9666876178817,54.225992397645314 156.3513513513608,54.225992397645314 156.69641734758625,54.344379611848126 156.76429918291979,54.64034668223758 156.8378378378693,54.739002065965906 156.85480829668813,54.64034668223758 156.90571967317373,54.74557908610586 157.1998742928845,54.798195222687355 157.38089252042118,54.81792626266906 157.66939032054506,54.86396533212246 157.7655562539585,54.850811315678584 158.13324952861876,54.969197365626314 158.29164047769154,54.9757743619266 158.46700188564137,55.00865933323439 158.636706473917,55.10731414507245 158.76115650535212,55.07442922480186 158.96480201132363,55.11389112708639 159.13450659962837,55.166506958630634 159.28724072911427,55.330931151398545 159.45128849783214,55.350662025924976 159.54745443118736,55.337508110245835 159.70584538028925,55.34408506843101 159.85857950974605,55.38354680319753 160.06222501574666,55.42300851346954 160.3337523570226,55.48877797611931 160.6675047140452,55.55454737067703 161.01257071027067,55.6663551851816 161.23884349467698,55.712393639867514 161.4368321810325,55.74527822991149 161.57825267128646,55.77158588970997 161.98554368325858,55.77158588970997 162.33060967945494,55.84393189796174 162.44940289127408,55.92943161967196 162.58516656194115,55.876816419931856 162.90194846011582,55.96889299090617 163.10559396605822,56.014931226356566 163.4959145191824,56.08727695752532 164.06725329981418,56.179353223516955 164.25958516658284,56.225391306470556 164.63859208047506,56.297736797987454 165.00062853551935,56.337197940472834 165.3230672533391,56.39638960823868 165.43620364551316,56.45558122086368 165.62853551228181,56.50819594135464 165.860465116275,56.55423378604246 166.1715901948628,56.606848424813506 166.4544311753707,56.65946302005614 166.84475172846578,56.81072973862683 167.16153362666955,56.85019056250894 167.2803268384596,56.83046015362197 167.45003142679343,56.86992096525864 167.79509742298978,56.95541930638501 168.06662476432393,57.00803361297221 168.1741043369111,57.03434074993129 168.32118164678104,57.100108544658724 168.52482715275255,57.113262095441314 169.00565681961598,57.33029529016494 169.37335009430535,57.4749836747942 169.5883092394797,57.619671729964466 169.75235700819758,57.69859234845717 169.85983658075565,57.83670319498924 170.0012570710387,57.94850699373637 170.08610936519108,57.987967111021135 170.39723444374977,58.14580733515322 170.86109365179436,58.44175669861579 171.07605279699783,58.59301917434641 171.53425518542645,58.86923667918745 171.78315524829668,58.98103866122983 171.97548711503623,59.09284044654487 172.0603394091886,59.178335796736064 172.15084852295695,59.26383103189073 172.52985543684918,59.415091550763464 172.86360779384268,59.59923430518029 172.97108736642986,59.71761150837847 173.07856693907524,59.763647027844854 173.37837837840198,59.908329871952446 173.63859208047506,60.03328297220287 173.8592080452654,60.15165936687481 173.9893148962874,60.210847481514065 174.15901948462124,60.276611988669174 174.28912633564323,60.38841149467771 174.60025141420192,60.618586328881065 175.13199245758005,60.907947794803476 175.5053425518563,61.09866258608599 175.62413576370454,61.12496802962778 175.81081081082812,61.230189694888395 176.18981772472034,61.34198752335578 176.36517913264106,61.4077508599803 176.83469516030164,61.539277329098695 176.9704588309396,61.526124694435566 177.19107479572995,61.519548376090825 177.45128849780303,61.51297205704759 177.77938403520966,61.48666677413348 177.9208045254636,61.45378515513585 178.14142049028305,61.49981941693477 178.26587052168907,61.49981941693477 178.4638592080737,61.670803526012605 178.62225015714648,61.67737982870676 178.8768070396036,61.861516028046026 179.07479572598822,61.953583927639556 179.34632306726417,62.19690559168885 179.51037083598203,62.32843042763125 179.7988686361059,62.690122323030664 180.01948460089625,62.93344116725348 180.2627278441214,63.22279209381668 180.43243243245524,63.459532781194866 180.51162790702074,63.538446147704235 180.60213702075998,63.61735941622101 180.8566939032171,63.88697901109117 181.133878064109,63.95273971440474 181.20175989944255,64.04480458471517 181.25832809554413,64.1960537250161 181.4223758642329,64.29469427479489 181.5241986172332,64.49855092588768 181.51854179761722,64.91283823456979 181.53551225646515,65.01147767198563 181.51288497800124,65.35342653652697 181.4732872407476,65.55070389083266 181.45065996231278,65.66249411983154 181.4676304211025,65.8400429029607 181.61470773100154,65.96498434194655 181.73915776243666,65.97813605808551 181.8579509742267,66.07677384236376 181.94846008799504,66.13595643945519 182.38969201760483,66.50420247219517 182.62162162165623,66.58311205880455 182.80263984919293,66.68174890433511 183.07982401008485,66.76723404664517 183.1703331238532,66.85271907399874 183.15901948462124,66.87244637167169 183.14770584538928,66.96450701322829 183.19861722187488,67.01053728400802 183.2721558768244,66.97108276822837 183.41923318666522,67.03026453269922 183.49842866123072,66.96450701322829 183.78126964176772,67.00396153306792 184.02451288499287,67.00396153306792 184.34695160278352,67.02368878384004 184.91263356382842,66.97108276822837 185.29729729730752,66.95135550116902 185.47265870522824,66.93820398640673 185.64236329353298,66.91190094866397 185.81206788186682,66.93820398640673 185.9987429289904,67.13547642240883 186.10622250160668,67.08944624210199 186.21370207419386,66.90532518753389 186.39472030173056,66.64886997282156 186.55311125080334,66.40556535117139 186.67190446262248,66.13595643945519 186.83595223131124,65.93868090150863 187.0,65.79401178458647 186.98302954118117,65.6427664466355 186.8698931489489,65.57043159260138 186.75675675674574,65.54412798889462 186.46825895662187,65.52440027896228 186.29289754873025,65.53755208625444 185.96480201132363,65.53755208625444 185.69327467001858,65.43891346523378 185.57448145822855,65.46521711246533 185.23507228161907,65.45864120168699 184.8900062853645,65.55070389083266 184.7881835323933,65.52440027896228 184.6863607794221,65.39945797396285 184.61847894408857,65.3468506141653" stroke="#4dd2ff" stroke-linecap="round" stroke-linejoin="round" stroke-width="0.5"><title>2024-04-13 11.9km</title><desc>9223370323858149007</desc></polyline><polyline fill="none" points="32.3036087101209,93.04290072016374 32.331285274543916,93.02681295424918 32.331285274543916,93.35392987926025 32.349736317497445,93.84728264759542 32.38663840338995,94.2333815380698 32.38202564265521,94.61947755212168 32.42354048928246,94.94658442440414 32.45121705370548,95.39166095139808 32.43276601078105,95.50427006923564 32.4742808574083,95.83137135731886 32.45121705370548,96.05658743765161 32.50195742180222,96.104847898976 32.488119139612536,96.41585868292168 32.44660429297073,96.66252108113986 32.395863924888545,96.81802503326617 32.36818736043642,96.95207978996041 32.49734466109658,97.87436711815462 32.5204084647703,97.95479837464154 32.57114883286704,98.04595364779016 32.575761593616335,98.15319494036157 32.617276440243586,98.51781367563308 32.64956576540135,99.04328910618278 32.64956576540135,99.30066288389207 32.67262956907507,99.41326350981763 32.70030613349809,99.9119204847957 32.63572748321167,100.03524351297892 32.695693372777896,100.26580317008484 32.723369937200914,100.60359802535459 32.71875717646617,100.69474864096264 32.74643374088919,100.95747598927119 32.75565926235868,101.36496883435757 32.76027202310797,101.51509696991707 32.75565926235868,101.63841618463994 32.783335826781695,101.76709679163469 32.84791447709722,101.92258543228672 32.907880366678,102.23356131471155 32.921718648896785,102.3997717973507 32.981684538477566,102.61959774634306 32.97245901702263,102.72146799205802 33.037037667338154,102.82333803760775 33.087778035434894,102.9841850704579 33.13390564279689,103.19864700476319 33.18003325018799,103.28979305823668 33.216935336065944,103.45600015503078 33.244611900503514,103.54178425461214 33.27690122566128,103.63292970490511 33.318416072273976,103.84202748548705 33.40605852630688,104.13154609738922 33.47063717660785,104.28166622271965 33.502926501765614,104.40497885766308 33.55827963061165,104.56582098431682 33.60901999872294,104.78027637710693 33.68282417052251,105.02153763387832 33.77507938526105,105.37002413424125 33.858109078530106,105.67561806115918 33.94113877179916,105.99193268529052 33.908849446626846,106.14740865769636 33.858109078530106,106.27071685609553 33.895011164437165,106.34577387681202 33.94113877179916,106.41546958446997 34.05184502949123,106.50660998394233 34.07952159391425,106.6245561454889 34.13948748349503,106.73714086763721 34.22712993749883,107.04808787817456 34.11642367982131,107.16603280826166 34.19484061234107,107.32150526082478 34.31477239153173,107.36975523754882 34.45315521361772,107.8897799153965 34.53157214615203,108.17391490772206 34.49005729951023,108.2757742429203 34.48083177804074,108.43660436488426 34.6422784038441,108.6778486127223 34.716082575629116,108.84939939520336 34.854465397729655,109.37477013690659 34.94210785176256,109.68570133449975 35.002073741328786,109.91085724508957 35.10355447755137,110.28075411931059 35.19119693156972,110.6345660525185 35.205035213773954,110.73642055562959 35.237324538917164,110.81147111414975 35.20042245302466,110.94012896183995 35.23271177819697,111.02053995461392 35.32496699295007,111.16527942745961 35.35725631809328,111.33146128716908 35.45873705431586,111.62629876034043 35.59711987643095,112.09267461429044 35.620183680104674,112.21596867953122 35.71705165559251,112.5912096837601 35.71705165559251,112.68233923230946 35.80930687034561,112.91820320285115 35.92462588875787,113.25055515945496 36.0307193857152,113.54002125785337 36.05839595013822,113.72227686159385 36.072234232357005,114.00101948772863 36.063008710872964,114.3548060488647 36.04917042868328,114.73003158358188 36.02610662498046,115.06237193389097 36.00765558204148,115.45367316596457 36.01688110349642,115.58767975884984 36.02149386424571,115.68952453797101 35.99843006055744,116.02721895421564 36.00304282129218,116.28986864738908 35.984591778338654,116.41315273878354 36.02610662498046,116.68116062254921 36.09068527529598,116.9545272379437 36.15065116487676,117.08852995476263 36.19677877225331,117.25469284306018 36.23829361888056,117.35117427594378 36.339774355103145,117.63525745331208 36.41357852690271,117.75317831545908 36.45970613426471,117.96221918523224 36.50122098089196,118.11229929039109 36.50122098089196,118.23557905205962 36.56579963120748,118.40709823329598 36.653442085225834,118.6107765246852 36.66266760669532,118.84125362718987 36.658054845946026,119.01813070932258 36.75953558218316,119.18964730414518 36.82872699321888,119.35044359695166 36.92559496872127,119.52731894363751 36.95788429387903,119.60235678738172 36.999399140520836,119.93466593411722 37.13778196263593,120.19729585117966 37.156233005574904,120.35272925770187 37.23003717737447,120.57247914159598 37.285390306205954,120.7118322444112 37.25771374179749,120.82438640045802 37.285390306205954,120.94230001642063 37.27155202398717,121.08701181534343 37.34074343503744,121.29067958954329 37.55293042896665,121.51042550222337 37.83892159466632,121.71945123869591 37.96346613456262,121.90703772138295 37.98191717751615,122.04102765110656 37.95885337381333,122.19645553623559 37.945015091623645,122.4322762662814 37.91733852720063,122.62521970303715 37.90350024498184,122.78064583885498 37.83430883393157,123.10221567682675 37.718989815490204,123.30587554383237 37.700538772551226,123.5845666985515 37.640572882970446,123.922209746921 37.5944452755939,124.20625695968192 37.55293042896665,124.40991249518265 37.511415582339396,124.59212992864559 37.45606245347881,124.83865837940903 37.42838588907034,124.92440713132964 37.39609656389803,125.01551502504299 37.39609656389803,125.128059849485 37.373032760224305,125.23524516973339 37.303841349159484,125.60503282578793 37.21158613440639,125.86763405459351 37.15162024484016,126.06592389821162 37.11471815894765,126.19454393236083 37.06397779080726,126.27493129187496 37.068590551556554,126.3713959590059 37.08704159451008,126.67686622244582 37.10549263744906,126.93410294502246 37.13778196263593,127.09487524941505 37.23003717737447,127.27708325921776 37.206973373671644,127.43785450155701 37.23003717737447,127.51823993604194 37.25310098104819,127.64685637232833 37.23926269882941,127.84513942075137 37.303841349159484,127.9416011705107 37.50680282160465,128.06485758995768 37.48835177863657,128.21490848828762 37.709764294020715,128.47213759083024 37.875823680558824,128.52572682679602 37.945015091623645,128.6221873121758 38.04649582784623,128.76687770421995 38.17565312847728,128.93300321269635 38.36477631870366,129.14199906518843 38.48470809786522,129.23845840570357 38.48932085859997,129.39386474407002 38.526222944492474,129.49032361670106 38.802988588722656,129.7904167412271 39.04285214706033,130.05299680252938 39.227362576537416,129.99940914275794 39.287328466103645,130.08514937185464 39.39342196306097,130.07979061168953 39.564094110333826,130.39595651561103 39.75321730057476,130.58351165061686 39.85008527604805,130.74427265577106 39.87314907973632,130.83001165500536 40.06227226994815,130.93182653276017 40.29752306755108,131.17296623641596 40.41284208599245,131.39267032489442 40.518935582920676,131.49984271370704 40.63886736209679,131.62309068737886 41.875087239648565,132.48581831343472 42.02730834396789,132.64121493403218 42.16569116606843,132.71087533716127 42.428618528094376,132.84483738824565 42.59006515389774,132.93057291960213 43.09285607424681,133.03238367927042 43.531068344265805,133.03238367927042 43.65561288416211,133.03238367927042 43.84012331365375,133.0270252232076 43.90470196396927,133.19849554288157 43.98773165725288,133.31102263251887 43.992344417987624,133.43962472213389 44.09382515421021,133.86829605440653 44.15840380452573,134.09334708754977 44.24604625851498,134.40413024448935 44.329075951798586,134.6988366927726 44.40288012356905,134.95067542359175 44.44439497021085,135.07927345347343 44.51819914201042,135.30431923968354 44.67503300707904,135.86157127585102 44.74883717886405,136.10804623114018 44.78112650402181,136.21520889040403 44.868768958040164,136.55276982209034 44.90567104393267,136.71351235189286 45.0532793875318,137.19573695697545 45.15014736300509,137.57079744393923 45.20088773110183,137.78511650642758 45.283917424370884,138.10123550968638 45.353108835435705,138.34234193098018 45.357721596185,138.55129992431466 45.42230024650053,138.85134070132335 45.49610441827099,139.16745321684357 45.51455546123907,139.3389032682171 45.579134111554595,139.81038799219823 45.61142343671236,139.9764781826634 45.72212969440443,140.52296473929528 45.74980625882745,140.6944103176611 45.76364454104623,140.79084820687058 45.80515938765893,140.92478942274465 45.846674234300735,141.0158692522964 45.81899766987772,141.24088932322047 45.8743507987092,141.39625975584204 45.934316688319086,141.61056303850273 45.98044429566653,141.7980776857803 46.05886122820084,142.13024482847322 46.063473988950136,142.37669004610143 46.040410185276414,142.54277203348465 45.95738049199281,142.66063634768216 45.95276773124351,142.80528764064002 45.966606013447745,142.96601082718917 46.02657190305763,143.09994643625396 46.12805263926566,143.22852429620616 46.109601596326684,143.33567226979721 46.229533375488245,143.58746913811046 46.38636724054231,143.737475203121 46.497073498234386,143.99462745005076 46.663132884772494,144.27856491116836 46.84764331424958,144.6214307210612 47.08289411183796,144.93750813570296 47.40117460269539,145.33929868437917 47.659489203986595,145.65001457879043 47.696391289893654,145.71965754166376 47.539557424839586,145.9125144902464 47.20743865174882,146.1428704631944 46.99986441859801,146.2875120639328 46.930673007518635,146.36786833486258 46.810741228357074,146.47500983614736 46.6123925166612,146.6785780801547 46.515524541187915,146.7321485381617 46.44172036938835,146.8071470866089 46.30333754728781,146.97321491592083 46.20646957179997,146.98928596801125 46.04502294599661,146.855360382051 45.98966981715057,146.78036190315834 45.994282577885315,146.69464922334737 45.9204784061003,146.64643577883544 45.837448712816695,146.58215111658137 45.76364454104623,146.52322343967535 45.75903178029694,146.43215326213976 45.55607030786632,146.11608493741005 45.2700791421521,146.2553695207789 45.108632516363286,146.40001080844013 44.997926258671214,146.38929665279284 44.822641350649064,146.10537072322404 44.64274368190672,146.2125127656509 44.536650184963946,146.3035833280519 44.44900773096015,146.18037017611277" stroke="#4dd2ff" stroke-linecap="round" stroke-linejoin="round" stroke-width="0.5"><title>2024-04-10 13.4km</title><desc>9223370324139026207</desc></polyline><polyline fill="none" points="154.69414390041493,97.04053386756641 154.67402691047755,96.80079969210419 154.49800324838725,96.39149508996343 154.47285701095825,96.18099442547464 154.3622135662299,96.04066021336257 154.0604587169655,96.0465074791573 153.83917182750884,96.0698965363008 153.5273584832612,96.0757437990651 153.32115933625028,96.05235474434085 152.96408276463626,96.00557660584673 152.55168447064352,96.02311841232222 152.23484187890426,95.9880347939179 151.88279455478187,95.99388206517324 149.35811231593834,96.11082736299795 148.99097724931198,96.01727114410824 148.72442713245982,96.11667462153127 148.42267228319542,96.11082736299795 148.10080044399365,96.0698965363008 147.66828516006353,96.15175816003466 147.30115009343717,96.0932855837491 147.13518492635922,96.10498010384617 146.8585763144947,96.08743832279652 146.62220168259228,96.12252187946433 146.1494524187583,96.11667462153127 145.96337026171386,96.1342163934969 145.5710889576585,96.18684167673564 145.04804721893743,96.23946691096717 144.6909706472943,96.11082736299795 144.44956676787115,96.0465074791573 144.2634846108267,96.03481294694939 143.81588158442173,95.92956204817165 143.58956544750254,95.84770010242573 143.07155295624398,95.88863109012891 142.79494434443768,95.74244885499866 142.5233649800939,95.63719741145906 140.783245349332,95.18695291130643 139.98359499877552,94.90043181532019 139.8025420892227,94.81272098516638 139.7019571394485,94.59636702180796 139.71704488192336,94.21043627280596 139.68184014951112,94.04670727958728 139.74219111935236,93.64907774867606 139.46558250754606,93.04093305136485 139.48569949748344,93.15203689839473 139.2744711029809,93.76602790129618 138.95762851124164,93.99992748007935 138.53517172229476,94.1402667624061 138.32897257528384,94.19874136045837 138.08253944839817,94.34492759074783 137.9668667561782,94.74255222299325 138.16300740820589,94.9764477579447 138.15797816071426,95.39745728016715 138.0171592310653,95.60211355336287 138.0875686958898,95.88863109012891 138.29879709039233,96.27455037321852 138.71622463184758,96.61953659132269 139.19400314320228,96.98206221125292 139.09341819342808,97.4673751250375 138.98277474869974,98.01700158309541 139.07833045098232,98.22749540623045 139.1738861532358,98.39705930449418 139.26944185548928,98.60755171156052 139.29458809294738,98.80050239575212 139.36499755777186,98.96421761099555 139.89809779147618,99.90557089223148 140.1093261859496,100.17452609177417 140.2803206005483,100.41424595135322 140.3557593128644,100.68904551475862 140.32558382794377,101.09831898264747 140.13950167089934,101.34972835732697 139.86792230655556,101.34972835732697 139.40523153767572,101.22694717456034 138.8218388291134,101.44912245270825 138.6961076419102,101.53682297990235 138.56534720724449,101.82331042016085 138.61061043461086,102.27350203437891 138.61563968210248,102.84062143022675 138.60558118711924,103.36096308544802 138.4697915049619,103.7877565966628 138.37926505020005,104.42501762056418 138.37423580267932,104.95703737498116 138.46476225747028,105.34289472263845 138.67599065194372,105.77551952507201 138.85704356152564,106.09706284090498 139.0230087286036,106.56475894374307 138.91739453136688,106.751836301195 138.7966925916553,107.18445031857482 138.7966925916553,107.48260129499613 138.91236528387526,107.81582699563296 138.91739453136688,108.08474454965472 138.67599065194372,108.61088388970529 138.47482075245352,109.30654949835662 138.24850461550523,109.67483958971934 138.32897257528384,110.06066473085593 138.54020096978638,110.38802945212592 138.78160484918044,110.75631249746584 138.79166334416368,111.12459314348962 138.78663409667206,111.34088383316703 138.7966925916553,111.49287139028092 139.299617340439,112.04236145684627 139.40523153767572,112.79644019462285 139.5259334773873,113.3985268490178 139.5259334773873,113.95968921994063 139.51084573494154,114.16427828218002 139.4002022901841,114.7312783857742 139.25435411307262,115.13460489548379 139.1990323906648,115.71328573203209 139.21914938063128,115.9763205181116 139.2493248655519,116.54914759612802 139.39014379520086,117.19795493103447 139.61645993217826,117.688939317326 139.76733735681046,117.90520489697519 139.97353650379227,118.14484957325476 140.37587630280177,118.48385738087018 140.7128358845075,118.71765468480226 141.04476621869253,118.94560612553687 141.17552665338735,119.13264251885994 141.06991245612153,119.55347214218637 141.090029446088,119.92754028962736 141.34652106795693,120.40096674151573 141.3867550478608,120.70489274541251 141.51248623503488,121.31858450561413 141.58289569985936,121.4647006099076 141.7689778569038,121.92642501849696 141.97517700391472,122.38230111643497 142.14114217099268,122.74466154764013 142.24172712076688,122.95506331339857 142.26687335819588,123.11286412411937 142.13108367603854,123.4810643038254 141.9701477564231,123.65639688033843 141.8947090441361,123.7732849627755 141.8192703317909,123.90186157447533 141.5929541948426,124.13563648336276 141.63821742220898,124.27005661851581 141.67342215465032,124.45707540560034 141.6935391445877,124.64409357442128 141.85447506420314,124.97721815608747 142.03552797378507,125.46813501670476 142.24172712076688,126.5609941585135 142.40266304038232,127.00514478165132 142.46301401022356,127.13955809873005 142.57868670244352,127.53695212501043 142.62897917730152,127.85837172207175 142.87038305672468,128.46614196942755 142.91564628412016,128.78171240750817 142.91061703665764,129.10896878056155 142.91061703665764,129.6524439326604 143.09166994618136,129.97969526972156 143.35822006306262,130.21928879854386 143.69517964473926,130.32447588098148 143.9567005140707,130.306944714157 144.09249019625713,130.3478507616419 144.1377534236526,130.60497381155074 144.12769492866937,130.7627532864608 144.2836016007932,130.8270336871501 144.6909706472943,130.71016017703369 144.93740377417998,130.75690961005603 145.15366141617415,130.71600385828788 145.3950652955682,130.52900575930835 145.6716739074036,130.39460049397167 146.2751836059324,129.95047647729734 147.0044244916644,129.88035131389188 147.42185203314875,129.89788261289868 147.5878172002267,130.15500770746075 147.7085191399383,130.26019490939507 147.89460129698273,130.54653685733865 147.97004000932793,130.94390695587208 147.97506925679045,131.14843459528856 147.99518624675693,131.5925492098322 148.02033248418593,131.7444823567348 148.13097592891427,131.91978932708298 148.22150238367612,132.07756513605636 148.52325723296963,132.24702755202452 148.67413465760183,132.31130626671802 148.81495358725078,132.3346803266868 148.96080176439136,132.34636735304957 149.15191316892742,132.31130626671802 149.38325855336734,132.27624515866046 149.52910673050792,132.2879321970904 149.69004265012336,132.3171497826006 149.7503936199646,132.5801073734583 149.84594932224718,132.73788134147617 150.03203147929162,132.97161974483606 150.16782116144896,133.1878269084409 150.31366933858953,133.38065962777182 150.49975149563397,133.3923464381296 150.90209129467257,133.30469530161645 151.09823194670025,133.398189842399 151.37986980599817,133.34559918221566 151.8174143374199,133.41572005159105 152.08396445430117,133.41572005159105 152.2951928487746,133.46246724958837 152.54162597568939,133.42740685470926 152.7729713601293,133.6728291627005 152.7729713601293,133.91240705583186 152.79308835003758,134.11108063700885 152.76291286511696,134.27469365079378 152.8232638349873,134.84733547430005 152.6975326477841,135.26220501285934 152.77800060759182,135.51930573589925 152.85846856739954,135.67122834146357 153.08478470434784,135.93417034901358 153.4519197709742,136.16205243417426 153.8039670950966,136.12115058901327 154.12080968683586,136.1562093152388 154.3823305561673,136.22632670256644 154.62876368308207,136.32565951924698 155.1115714418993,136.6061277077497 155.54911597335013,136.90412363531505 155.78549060525256,137.0618855500761 155.921280287439,137.1612169004511 156.0721577120712,137.24886206484734 156.60525794577552,137.45336692073033 156.8013985978032,137.79225905523344 156.94221752745216,138.04350536254788 157.18865065436694,138.3298079347369 157.43508378125262,138.42329417531073 157.5557857209642,138.5752089869784 157.77204336292925,138.6803805408381 158.0335642322898,138.9783655490719 158.2146171418426,139.0776935365866 158.54654747605673,139.3289341388263 158.8684193152585,139.57433085993398 158.91368254262488,139.75545632892317 158.92374103763723,139.8956821004831 159.09976469969843,139.97163758171882 159.21543739188928,140.18781800898796 159.3964903014712,140.36894151521483 159.63789418089436,140.5208511058736 159.8239763379388,140.53837910934817 159.9497075251129,140.80714114956936 160.04023397990386,140.85972487779145 160.33193033418502,140.9590495644661 160.7040946482739,141.54330890014535 160.8348550829396,141.67184514485052 161.06117121991701,141.7361131577818 161.34280907924403,141.86464896479447 161.52386198876775,142.0691371472858 161.62947618603357,142.17430221070026 161.77029511568253,142.2794670787771 161.9614065202186,142.37294679751722 162.12234243983403,142.37294679751722 162.35368782424484,142.42552907150093 162.6705304159841,142.612487872364 162.88678805794916,142.62417277693385 162.95719752277364,142.53069347294513 163.20865989718004,142.8578703616622 163.4752100140322,143.0448277349642 164.3352113344299,143.30773549677542 164.47603026407887,143.3895287736923 164.62187844121945,143.43626773601136 164.7878436083265,143.465479567898 165.0594229726703,143.44211010360596 165.54725997897913,143.34278977276335 165.73334213602357,142.96887637652617 165.9898337579216,142.75270656789507 166.36702731950209,142.77023388041562 166.81965959339868,142.86955521558048 167.12141444266308,143.10325178751737 167.26223337231204,143.2025725385247 167.63942693389254,143.25515404205726 168.15241017763037,143.7692817259449 168.5648084716231,144.0088168936345 168.9621190231701,144.14318983673002 169.5203654943034,144.32430069028487 170.01826099559548,144.42946156523612 170.68212166396552,144.4353038303525 171.21019265017821,144.35935433697523 172.02995999067207,144.20745504461593 172.27639311758685,144.1840858865471 172.92516604351113,144.1198206521367 173.34259358499548,144.08476685717324 173.66446542419726,144.2658778975856 173.81534284882946,144.38272342269556 174.28306286520092,144.49372644821779 174.74072438656003,144.58136026203647 175.10283020569477,144.45283062203816 175.77172012155643,144.76831194490296 176.2142939004989,144.8909986513645 177.00388575607212,144.97863185037932 177.53195674228482,145.0954759047636 177.6526586819673,145.36421631490157 177.75827287923312,145.6387975906473 178.12037869833875,145.64463973097372 178.52271849737735,145.5920604462408 178.72388839686755,145.58037615409557 179.15640368082677,145.55116541323878 179.3424858378712,145.61542902325164 179.5386264898989,145.7322717637071 179.6643576771021,145.83743002400297 179.9962880112871,146.11200900525 180.31313060302637,146.39242871836177 180.64506093721138,146.45084931714882 180.8261138467642,146.7487934335477 180.74061663946486,146.95326397899044 180.50927125502494,147.0 180.66517792714876,146.86563383562316 180.88646481660544,146.60858463284967 181.2787461206317,146.25221903537386 181.48997451513424,146.1470615453327 181.62576419732068,146.1645878072195 181.7816708694154,146.2171665603746 182.05325023375917,146.39242871836177" stroke="#ffc400" stroke-linecap="round" stroke-linejoin="round" stroke-width="0.5"><title>2024-03-28 21.8km</title><desc>9223370325245023807</desc></polyline><polyline fill="none" points="35.90961799307843,153.0 36.05881125776796,153.11576196480019 36.357197787147015,153.35307324035603 36.541202813590644,153.48041058110175 36.88932043121895,153.60774763068912 37.06337924001855,153.64247586641795 37.16284141645883,153.6540519401824 37.71485649581882,153.7582364957525 37.81929178111022,153.76981254545535 38.11270520166727,153.810328700456 38.25195224871277,153.83926879311912 38.54536566929892,153.86820887074646 39.01781100744847,153.61932371168223 39.201816033921205,153.6135356714949 39.465390801546164,153.74087241668894 39.873185725009535,153.93187698860493 40.20141090734978,153.94345300221175 40.415254586725496,153.90872495417352 40.68380246317247,154.0129090333212 41.0418662984157,154.0765769857644 41.2159251072153,154.12288090542643 41.52425785426749,154.22706458398534 42.00167630126816,154.52225061480567 42.339847701223334,154.77113173890757 42.593476251204265,154.95634487690768 43.04602915409487,155.23995130084222 43.53339381876867,155.48882921785116 43.6825870834291,155.57564683425517 43.956108068698086,155.69140344560583 44.334064339258475,155.83609887149214 44.44347273337189,155.94027934536643 44.59266599806142,156.0039450945842 44.920891180372564,156.14863970855367 45.15960040388745,156.25281959784843 45.54750289209187,156.39172581380626 45.74642724500154,156.47854202285816 45.86080874793697,156.51326846859956 46.1840608214261,156.7216266883661 46.3233078684716,156.877894841713 46.49239356844919,156.92998412872475 46.67639859489282,156.9762856763009 46.895215383090544,157.1730668240998 47.02948932131403,157.4508743198603 47.273171653650934,157.60714042737527 47.41739180954755,157.74604326601548 47.63123548892327,157.88494575828372 47.850052277120994,158.0354230673911 48.02908419474261,158.1106615695171 48.31255139768473,158.26692582613396 48.66564212410594,158.4289771847907 48.7899698446854,158.47527748639914 48.914297565235756,158.51000268735152 49.18781855053385,158.54472786664337 49.40166222990956,158.567877974172 49.70004875928862,158.52157774952502 50.22719829453854,158.56209044819116 50.58028902095975,158.61996568087125 50.70461674153921,158.66047830798198 51.07759990324848,158.84567851384418 51.3262553444074,159.05981548436466 51.53015280616819,159.45914979812005 51.63458809143049,159.5748983394551 51.768862029653974,159.69643404902672 51.96281327374163,159.8353316781613 52.10206032078713,159.95107943789844 52.27114602079382,160.07840169585324 52.38552752372925,160.17678687769512 52.25622669432778,160.48351603524134 52.171683844324434,160.59347513333705 52.116979647253174,160.8365418432295 52.32087710901396,160.98122390515346 52.58942498546094,160.9696493540432 52.748564467794495,160.9349256862224 52.897757732484024,161.21850167334196 52.98727369130938,161.44999120503053 53.08176275892765,161.6641181654959 53.10165519424481,161.84930838657965 53.221009805973154,162.05764664954404 53.335391308908584,162.3296426537163 53.38014928830671,162.43381098450845 53.534315661818255,162.7231664371211 53.59399296771153,162.85048236023795 53.66361649121973,163.02409451380663 53.728266905935016,163.23242838403166 53.86751395298052,163.71275072770004 53.90729882355663,163.86321229696114 54.09130385000026,164.07732998348 53.97692234706483,164.19306893091925 53.81778286473127,164.33774227715912 53.66361649121973,164.4939890691894 53.6188585118216,164.62130094619715 53.59399296771153,164.73125187860933 53.733240014727926,164.92221877191696 53.90729882355663,165.09582447065986 54.349905508803204,165.4372474336924 54.45931390291662,165.5356231534788 54.73780799700762,165.77866830490166 54.79748530287179,165.85968311980469 54.81737773818895,166.10272685785094 54.84224328226992,166.2300350595142 54.96657100284938,166.3573429703465 55.205280226364266,166.41521010639917 55.32463483812171,166.69297152303625 55.31468862047768,167.08646449345179 55.18538779107621,167.6014731539799 55.07597939696279,167.9197345536959 55.041167635208694,168.116477055406 55.01630209109862,168.25535369729914 54.97154411167139,168.40001649794795 54.96159789405647,168.53889243330195 54.951651676383335,168.63726267813036 54.951651676383335,168.73563274936532 54.75770043229568,168.85714847998315 54.59856094996212,168.97287750094256 54.35985172644723,169.12911129805434 54.02168032649206,169.46472315920983 53.77302488533314,169.77718755815295 53.6536702735757,169.81769207420803 53.464692138310056,169.74246937809585 53.300579547154484,169.88712831895828 53.08673586774967,170.11279551701955 52.70380648839637,170.52940948234027 52.29103845608188,170.95180657368473 52.022490579634905,171.23533159309954 51.86832420612336,171.3973452424143 51.73902337672189,171.53621370990004 51.480421717918944,171.81394960702164 51.271551147365244,171.970175441038 51.12733099149773,171.91231407207306 50.67477808860713,171.6461510013105 50.5255848239176,171.56514459708706 50.75932093858137,171.77923269555322 51.1521965356078,171.9991061029723 51.2218200591451,172.10325636169 51.032841923850356,172.3809894336082 50.7344553944713,172.82073063425196 50.44601508273627,173.27782636332995 50.39131088569411,173.35304428874588 50.17249409746728,173.65391497552991 49.77961850044085,173.93164032210916 49.57074792988715,174.00107144258072 49.39171601226553,173.99528551915864 49.1380874622846,173.90271066304194 48.8247816064395,174.0415728895714 48.541314403526485,174.18622067439355 48.58607238292461,174.4639433692464 48.53634129470447,174.92681145294773 48.342390050616814,175.4301761320712 48.13351948003401,175.89303619407656 48.019137977127684,176.17653608451656 47.850052277120994,176.7203889820994 47.76550942711765,176.80717352816282 47.730697665392654,176.98652782862337 47.77048253596877,177.05016953850645 47.81026740654488,177.23530864512577 47.815240515366895,177.74443801867892 47.87491782126017,178.08578351821416 47.94454134476837,178.38662866677623 48.03405730356462,178.94203083065076 48.1285463712411,179.51478351843616 48.21308922121534,180.05281856351212 48.297632071218686,180.52721074860165 48.37720181237091,180.9958137012618 48.43687911823508,181.30821348224345 48.4766639888112,181.6263966455408 48.43190600941307,181.69581818537335 48.43687911823508,181.90986738924767 48.50152953292127,182.25118739329992 48.5462875123485,182.62143045959237 48.64574968881789,183.1941453613763 48.725319429970114,183.4718231969091 48.784996735834284,183.82470345154798 48.7899698446854,184.00982006941194 48.86953958583763,184.22964525515272 48.98392108877306,184.61722965653462 49.093329482886475,184.9585330934715 49.23754963875399,185.31718869213364 49.48123197106179,185.7510431892115 49.77961850044085,186.16754033184407 50.167520988645265,186.61295744608287 50.570342803315725,186.994740713395 51.0129494885623,187.35338322081952 51.16711586207384,187.48642743565142 51.40085197676672,187.81614433970026 51.33620156205143,187.98389429734743 51.16711586207384,188.49292556406 50.98311083560111,189.03087401417724 50.928406638558954,189.27381677531957 50.868729332694784,189.45313099190753 50.814025135623524,189.62087602763495 50.6648318709631,190.06626557178242 50.53055793271051,190.3728303350581 50.33163357982994,190.89919232056855 50.192386532755336,191.30986690485224 50.013354615162825,191.84778819632993 49.84924202397815,192.35678421334887 49.759726065181894,192.44354443493285 49.71994119457668,192.66333639253935 49.361877359304344,193.05086220899102 48.954082435840974,193.49044047445568 48.73029253879213,193.6119022793464 48.50152953292127,193.7969864260558 48.42195979176904,193.93001527736124 48.218062330037355,194.2076396846751 47.95946067123441,194.69347907425617 47.79534808007884,194.93061343076988 47.65610103303334,195.24871891197472 47.50690776834381,195.5494715176319 47.123978388961405,195.6651451651851 46.77088766254019,195.74611657581409 46.65650615960476,196.32448037837457 46.61672128899954,196.55582422126463 46.50731289491523,196.78138354482508 46.44763558902196,196.90283818765602 46.08459864495671,197.33660261169643 45.816050768538844,197.6546943802532 45.438094497978454,198.07688610968398 45.08997688035015,198.51642479129805 44.75180548039498,198.8518598776427 44.40368786279578,199.26825924959485 44.18984418339096,199.54007383067437 43.91135008929996,199.8870692449309 43.82680723929661,200.0374332545798 43.56323247170076,200.31502728529085 43.235007289389614,200.7429820448706 42.90180899822735,201.15936731073452 42.53379894531099,201.6277970226547 42.20557376299985,202.0383926734612 42.051407389488304,202.2754958288133 41.97183764833608,202.3738065979196 41.83756371011259,202.38537255935807 41.70826288071112,202.7207843992619 41.44966122190817,202.95210173550004 41.091597386664944,203.42629927868256 40.7285604425997,203.84266453257078 40.4500663485087,204.19541599861623 40.11686805734644,204.57129625577363 40.02735209852108,204.6233410150162 39.85826639854349,204.55973074713984 39.53998743387638,204.3399856277465 39.33111686329357,204.17806761796965 39.122246292739874,203.9988007022912 38.99791857218952,203.88892714688336 38.61996230162913,203.54773946515706 38.28676401046687,203.20076680308193 38.062974113447126,203.04462840165797 37.76956069289008,202.76704794319085 37.670098516420694,202.6629549154568 37.57063633995131,202.50103204212428 37.3567926606047,202.3564576512399 36.93905151943909,201.98634550457064 36.541202813590644,201.6393631386636 36.19308519599144,201.3039448016607 35.755451619566884,200.95117506601673 35.5863659195893,200.80081351752233 35.4123071107897,200.6504515640263 35.27803317253711,200.47695649906382 35.07413571080542,200.28032810693912 34.86029203142971,200.1068318916732 34.63650213438086,200.2687617093652 34.32319627853576,200.63310208178518 34.20384166677832,200.77189778866887 33.955186225648504,201.06683752004392 33.65679969624034,201.46587114697832 33.41311736393254,201.73767502794726 33.18435435806168,202.00947758561597 33.07494596394827,202.1367038600838 32.89094093750464,202.34489168379514 32.57266197283752,202.7034355604119 32.34389896696666,202.95788465661826 32.09524352583685,203.241247058093 31.906265390542103,203.4436478929274 31.732206581742503,203.64026514419675 31.488524249434704,203.98145226055567 31.33933098471607,204.11445684280625 31.065809999447083,204.42094445654584 30.891751190647483,204.62912376304303 30.722665490699,204.80260592554987 30.63314953187364,204.90091224505522 30.399413417180767,205.08595896517363 30.245247043669224,205.1958301650775 30.03140336429351,205.3230491791037 29.83745212017675,205.39244124641118 29.61863533197902,205.45605056567 29.320248802599963,205.5890516354557 29.056674034975003,205.70470448210108 28.947265640861588,205.74518292184075 28.852776573214214,205.7798787039792 28.643906002660515,205.82613971327737 28.484766520326957,205.88974853850596 28.415142996789655,205.9302268440988 28.12172957623261,206.0343137808959 27.992428746831138,206.05744418494942 27.654257346875966,206.19044382231004 27.505064082186436,206.22513932779475 27.28127418513759,206.32344314291186 27.176838899875293,206.38126883565928 26.888398588140262,206.46800726250876 26.50546920875786,206.5894408337772 26.445791902864585,206.57209319689719 26.25184065880603,206.6819614727283 26.1374591558706,206.71087414095382 25.993238999973983,206.76291690606013 25.819180191203486,206.80339457871378 25.68490625298,206.83230718407867 25.520793661795324,206.88434983602565 25.406412158888998,206.8959148631984 25.301976873597596,206.97108748145183 25.162729826552095,207.0 25.028455888328608,206.98265249066753 24.81461220892379,206.67617893727584 24.779800447198795,206.5836582887423 24.680338270729408,206.38705140164166" stroke="#4dd2ff" stroke-linecap="round" stroke-linejoin="round" stroke-width="0.5"><title>2024-03-06 18.6km</title><desc>9223370327137444807</desc></polyline><polyline fill="none" points="144.26624673529295,199.36365539559483 144.16392687048938,199.3379347326536 143.8707942848414,199.29292352125958 143.66338915348751,199.30578387402784 143.2762329082907,199.2993536983122 143.06053157168208,199.30899896138726 142.82547242281726,199.2993536983122 142.55446305115765,199.29292352125958 142.2723920725257,199.3411498166879 142.1313565832097,199.31542913510748 142.0152097096434,199.26720279975962 141.82992779229244,199.30256878633918 141.71931172223412,199.31221404841926 141.58657243817288,199.27363298212367 141.4704255646211,199.19968580447312 141.35704409280152,199.08394204257456 141.32662467354385,198.9585524804861 141.2519588262512,198.79779589122154 141.16623137194256,198.3605337592653 141.08326931940974,198.24800206760483 140.8896911968186,198.26407804851442 140.76801351975882,198.27050843855795 140.61868182517355,198.28015402111487 140.48594254109776,198.28979960067227 140.2868336149986,198.28336921462687 139.8996773698018,198.27693882726453 139.6812106314319,198.25121726445832 139.43785527731234,198.28336921462687 139.12813028115488,198.27693882726453 138.94284836380393,198.32516670010045 138.6358887693932,198.32838188895585 138.51697649408015,198.25121726445832 138.37041020127072,198.28336921462687 138.05238899984397,198.30909075080672 137.81732985097915,198.2962299853807 137.67629436166317,198.28336921462687 137.20064526041097,198.33481226568074 136.85497004148783,198.29301479318747 136.64756491013395,198.18691326426597 136.51206022432598,198.15476121424035 136.1387309878628,198.05830486449122 135.8732524197403,197.94898730599016 135.51651559380116,197.83323888349878 135.3257028729422,197.8139474378113 134.84175756644981,197.6435391471805 134.63711783684266,197.5052826772244 134.64264864035067,197.27056679564703 134.72007988939004,196.90402063798683 134.75326471040898,196.77862227510013 134.76156091566372,196.60499293675457 134.5845752035675,196.41528569807633 134.60393301583827,196.3445471090654 134.612229221093,196.3445471090654 134.6509448456054,196.2320081126527 134.84728836995782,195.9072504364467 134.75603011217027,195.70146163618847 134.53203257029236,195.5181798377871 134.2416653863911,195.14196644131152 134.20018436013197,194.83327512187498 134.13381471809407,194.56638327831934 134.0508526655467,194.3477231907873 133.8268551236688,194.0325927087979 133.64157320634695,193.8525167116004 133.72453525887977,193.63385159661448 133.90981717623072,193.4441262049295 133.9844830235088,193.27369393232766 133.99554463052482,193.02286737661598 133.80749731142714,192.6176817365049 133.78260869566293,192.28967044016463 133.7134736518783,192.0484834523395 133.52819173452735,191.92306547809312 133.31525579966547,191.80086286195365 133.11891227531305,191.6432850941801 133.005530803508,191.46641113670012 133.12444307882106,191.04834141259744 133.3124903979333,190.7749850869477 133.47841450299893,190.56916226479734 133.69964664311556,190.33760995844204 133.754954678152,189.9066607890145 133.71900445537176,189.68153570918548 133.7273006606265,189.40816734544933 133.73836226764251,189.20876772610973 133.66646182211116,188.9321790362883 133.58903057305724,188.71026307260036 133.51989552927262,188.3982915705692 133.61391918882146,188.23426405894497 133.87663235521177,187.9673154706561 134.00660623752628,187.661769087239 133.84344753419282,187.48487243749514 133.63880780458567,187.28224412681448 133.59732677831198,186.8609016570972 133.42310646797705,186.6325380803646 133.2627131663903,186.3816578472888 133.3235520049202,185.84772649589286 133.41757566446904,185.47461238665346 133.36779843295517,185.1465255829553 133.38715624521137,184.81200213224838 133.48117990474566,184.49034156625385 133.50606852052442,184.36810967665406 133.45352588724927,184.14937772478152 133.40651405746758,183.8952607262836 133.46182209248946,183.69904237908486 133.62498079583747,183.33876939516085 133.754954678152,183.1296804765807 134.05638346904016,182.99457611805883 134.17253034260648,182.93024050240274 134.2610231986473,182.67611351594132 134.32186203719175,182.3254791922118 134.29697342142754,182.10994970497268 134.18082654786122,181.83008082218475 134.15317253035028,181.41188123340908 134.16976494085975,181.24138285977278 134.3356890459545,181.06444959413966 134.4407743125048,180.94220420277634 134.62882163158793,180.8199583295136 134.86664618221403,180.83282633886483 135.05745890305843,180.8360433403741 135.2206176063919,180.84247734237215 135.54140420956537,180.80387331031488 135.72945152866305,180.59155027497218 135.68243969888135,180.4210473911371 135.57458903058432,180.29236534860502 135.6298970656062,180.09612420563099 135.65755108311714,179.89023052385346 135.50821938854642,179.57817030615115 135.31740666768746,179.35940456965363 135.07958211707592,179.25002112260336 134.6841296666389,179.13742011227623 134.37993547396036,178.88969645015277 134.19465355662396,178.5422365501745 134.02043324628903,178.4038949506412 133.9844830235088,178.1593827069155 134.00384083577956,178.05964689589746 133.98171762176207,177.7218296683077 134.0978644953284,177.22635774245646 134.16976494085975,176.96253179781706 134.161468735605,176.69870360788263 134.20571516362543,176.36087154964298 134.1974189583707,176.2160852547422 134.2471961898991,175.98764328085235 134.3744046704669,175.77528726001947 134.49608234752668,175.67876131506455 134.58180980182078,175.56614733271272 134.59287140882225,175.14464565285925 134.45183591950627,175.2315205138384 134.27761560915678,175.04811774396512 134.1227531110926,174.900107699792 134.01766784452775,174.62660901929485 134.08956829007366,174.42711434186822 134.20571516362543,174.2823190136951 134.34675065295596,173.9895086161996 134.39652788446983,173.6709535032751 134.41035489323258,173.52615464222072 134.46842833001574,173.33952400111593 134.59840221233026,173.2043769731663 134.80027654019068,172.94373461198848 135.04639729607152,172.83754635485639 135.17637117837148,172.81823935991815 135.36165309572243,172.56081161131806 135.50821938854642,172.5061079392417 135.82900599170534,172.42887906130818 136.0336457213125,172.3999181824638 136.28529728070134,172.31303538351858 136.3323091104685,172.12639743613545 136.24658165617438,171.9687196735158 136.14979259487882,171.6469258315501 136.1912736211525,171.28007677512505 136.15255799662555,171.19962683994163 135.99769549854682,171.13848474950828 135.92026424950745,170.99367405402154 136.04194192656723,170.9100053436905 136.15808880013356,170.70726868544625 136.24658165617438,170.43695107747408 136.29082808420935,170.31788185905316 136.34060531572322,170.1762854360768 136.43186357352533,169.95423519685573 136.48164080505376,169.80620081984853 136.58396066984278,169.62276593658862 136.90198187125497,169.36209344456074 137.04854816409352,169.23014727295777 137.22553387617518,168.9437256005349 137.40528499001812,168.68948391980666 137.612690121372,168.4513315919212 137.66246735291497,168.16490271817565 137.71224458442884,168.02007812218108 137.75649101244926,167.86237945866378 138.01643877709284,167.5695083820101 138.26255953297368,167.3152554215303 138.4257182362926,167.2573240753045 138.4976186818385,167.17042685278466 138.64695037640922,167.10927680930945 138.78798586573976,167.06100037390934 138.9456137655652,167.03525291092774 139.1391918881709,166.97088415983853 139.36318943003425,166.67800465326764 139.48763250884076,166.51708066849824 139.67844522968517,166.25316352332447 141.56444922416995,164.02265196668122 141.8078045782895,163.92608939653292 142.17007220772211,163.74905723578922 142.36641573207453,163.64283745349712 142.54063604240946,163.48833530147567 142.7452757720166,163.36923936643325 142.96097710862523,163.17289101384085 143.17667844523385,163.0280430703806 143.44492241511762,162.95722827359714 143.98970656015445,162.9025076378839 144.09755722845148,162.91216422768048 144.1998770932696,162.93469625883517 144.37962820711255,162.93147739824963 144.7501920417999,162.8896321801276 144.88846212936915,162.87675671702527 145.15117529575946,162.7608773080883 145.43324627439142,162.64177857472896 145.54939314795774,162.48727142709868 145.7872176985693,162.43898778533003 146.13289291750698,162.32310673785832 146.5062221539556,162.06881069668634 146.65278844676504,161.86279718238075 146.8159471500985,161.68253423274655 147.0482408972166,161.5666503536795 147.22246120756608,161.53446031029307 147.32478107236966,161.55055533617997 147.47411276694038,161.62781134391116 147.65939468429133,161.75978991111333 147.88615762791596,162.02696431254662 148.17375941004138,162.31666888916152 148.45583038870245,162.40357973351638 148.5802734675235,162.4261121348154 148.79874020587886,162.38748515112093 149.144415424802,162.3198878136791 149.33799354739313,162.26838498132747 149.77769242587965,162.13318963875645 149.97127054847078,162.12675175056575 150.4054386234493,162.0784675465202 150.72069442311476,162.0559348921961 150.8561991089373,162.08168649580693 151.15486249807873,162.10421913138453 151.25994776464358,162.0784675465202 151.36779843294062,162.12675175056575 151.4950069135084,162.13962752559564 151.7521892763907,162.09456228957606 151.96512521123805,162.12353280597563 152.0840374865511,162.15572223685194 152.25549239515385,162.17181693972634 152.48502074051066,162.17825481854743 152.58180980182078,162.12675175056575 152.7726225226652,162.10743807798463 153.17084037487803,162.11387597019166 153.53310800429608,162.11065702425367 153.67967429713462,162.08490544474444 153.83730219696008,162.04949698795645 154.16085420188028,162.03018326717756 154.49270241205522,162.01086953434788 154.67245352589816,162.0334022214738 154.98770932556363,162.02696431254662 155.2559532954474,162.04627803533367 155.43293900752906,162.05271594024634 155.58227070211433,162.0784675465202 155.8173298509937,162.16537905958285 156.00261176831555,162.17503587930514 156.2072514979227,162.20400632040037 156.3206329697423,162.22653886694934 156.60546935013554,162.30701211362793 156.71055461668584,162.33920135372318 156.95390997081995,162.4067986489863 157.28852358274162,162.50336595761837 157.57335996313486,162.56774399603637 157.94115839606093,162.6192463303978 158.42786910432915,162.64177857472896 158.83438316178217,162.5870573814609 159.4123521278234,162.48727142709868 159.7303733292356,162.47117688821163 159.88800122906105,162.46473907031213 160.02074051313684,162.45508234095905 160.15901060072065,162.3907040682625 160.52127823015326,162.24263353302558 160.8199416192947,162.12675175056575 160.93885389460775,162.0076505777106 161.32601013981912,161.85957821033662 161.77677062529256,161.81129358959697 162.23306191428856,161.76622787561973 162.4764172684081,161.7436949940202 162.65340298048977,161.71794310926998 162.90228913811734,161.6921912030848 163.10969426947122,161.62781134391116 163.25626056230976,161.60205936275815 163.45813489014108,161.51836527604792 163.72084805654595,161.4217948948317 163.92548778613855,161.32200518441277 164.17437394378067,161.1996818747375 164.33476724535285,161.11920574949727 164.50622215394105,161.03229129924694 164.68044246427598,161.00653882267943 164.83807036410144,161.03551035730925 164.97910585344653,161.03229129924694 165.3109540636069,160.84880443620386 165.4796435704484,160.84558535872384 165.61514825625636,160.85524259016165 166.03548932248668,160.86489981857994 166.31756030111865,160.86168074277703 166.48624980796012,160.88421426639434 166.66600092180306,160.77154648426585 166.91765248117736,160.77798465429441 167.13335381778597,160.70394561815374 167.3131049316289,160.65565919482833 167.38500537717482,160.84236628090548 167.3822399754281,161.08701524082426 167.3352281456464,161.27050069187862 167.25226609309902,161.39926176252447 167.04486096174514,161.51836527604792 166.9065908741759,161.75335194528816 166.93977569519484,161.92073862184589 167.06974957750936,162.04627803533367 167.21631587033335,162.13962752559564 167.36841296666535,162.191130572146 167.57581809801923,162.3037931877825 167.65878015055205,162.37782839765896 167.79428483637457,162.4840525199943 167.9574435397226,162.55486839906916 168.10954063604004,162.5613061982258 168.25610692887858,162.65143524585255 168.5049930864916,162.699718556285 168.80642187740887,162.68362412785063 169.0801966507861,162.6675296910289 169.32631740666693,162.55486839906916 169.67199262559006,162.33920135372318 169.83515132893808,162.28447962564678 170.02043324627448,162.35851488171102 170.29420801966626,162.4422066971274 170.42418190198077,162.47117688821163 170.57627899829822,162.5098037674852 170.7062528806273,162.48727142709868 171.20679059762915,162.29091748101928 171.311875864194,162.24263353302558 171.69626670762955,162.02374535757372 171.94791826700384,161.85957821033662 172.23552004917292,161.73081905432628 172.53971424182237,161.79197972020484 172.88262405899877,162.0044316207368 173.15639883239055,162.0430590823671 173.41358119527285,162.06237279510788 173.73436779844633,162.04949698795645 174.13811645413807,162.13962752559564 174.38147180825763,162.27804176891914 174.63865417115449,162.4067986489863 174.90136733753025,162.57418179251727 175.14472269166436,162.69328078592116 175.52081732984516,162.6868430142058 175.73651866646833,162.66109191396208 176.00199723460537,162.63212190058948 176.20663696419797,162.63212190058948 176.39191888154892,162.63212190058948 176.5744353971386,162.60315186011758 176.75695191272825,162.55486839906916 177.1275157474156,162.53877389531408 177.27131663850741,162.42933104794247 177.47042556460656,162.3037931877825 177.6750652942137,162.21366312807731 177.8824704255676,162.17503587930514 178.26133046549512,162.0559348921961 178.46043939160882,162.0752485969133 178.6346597019583,162.12675175056575 178.80334920878522,162.12353280597563 179.09924719619448,161.97546099286956 179.38684897833446,161.98189891252696 179.58319250268687,161.86923512544672 179.86802888308011,161.73081905432628 180.0477799969376,161.7823227809913 180.38792441235273,161.72760006856151 180.71147641727293,161.5666503536795 181.00737440466764,161.4861751824501 181.3419880165893,161.3702905683258 181.6019357812329,161.46686111021882 181.8646489476232,161.62781134391116 182.04163465970487,161.73081905432628 182.31817483484338,161.88211100758417 182.60577661698335,162.05271594024634 182.81318174835178,162.18791163424976 183.0537717007246,162.33598243121378 183.18651098478585,162.43576887320523 183.29159625133616,162.5774006902593 183.46581656168564,162.70615632533008 183.71193731756648,162.83813029556586 183.87786142264667,162.91860195254594 184.20694423106033,163.13426496184547 184.39222614841128,163.33061355939208 184.6023966815119,163.5591488835198 184.70471654631547,163.82952652524 184.89276386541314,164.08702684614582 185.12782301427796,163.9969019774162 185.40989399292448,163.9647144607261 185.6781379628228,163.99368322725604 185.84129666615627,164.10312054509996 186.03210938700067,164.26083835219288 186.25610692886403,164.44752369787238 186.39437701644783,164.8112350182255 186.4856352742354,164.94320001629967 186.8672607159242,165.09125763739758 186.96404977721977,165.1298812482164" stroke="#ff6f00" stroke-linecap="round" stroke-linejoin="round" stroke-width="0.5"><title>2024-03-06 36.2km</title><desc>9223370327144915207</desc></polyline><polyline fill="none" points="19.31275535057648,213.0 19.31748602623702,213.01099906531454 19.23233386440552,213.08249293438712 19.298563323623966,213.37946643809119 19.31275535057648,213.67643828250584 19.293832647963427,214.00640505252522 19.237064540066058,214.31437218977226 19.156643053895095,214.6113388108497 19.071490892063593,214.9248017776481 19.043106838100357,215.23276359398733 19.047837513760896,215.5627207030775 19.104605621658266,215.82668491573713 19.18029643216869,216.10714545550218 19.308024674945045,216.38210533256643 19.36952345847385,216.6405663202895 19.326947377528995,217.16848273099822 19.464136971597327,217.52042409243222 19.397907512407983,217.81187376874732 19.50671305254218,218.12531786388718 19.558750484749908,218.40576627734117 19.558750484749908,218.6477205825904 19.46886764728697,218.9061705560125 19.208680486131925,219.42306673384883 19.071490892063593,219.71450598040246 18.94376264931634,220.00044482072917 19.038376162439818,220.25888821872286 19.170835080876714,220.49533533357317 19.355331431492232,220.73728013009895 19.544558457797393,220.95722898982058 19.918281834718073,222.01297085223632 19.643902646610513,221.63356603329885 19.719593457091833,221.9469875999239 19.79055359197082,222.2549087435982 19.856783051160164,222.56282810425546 19.932473861670587,222.82125904864006 20.03654872617335,223.1456705839919 20.107508861023234,223.4590832386457 20.12170088797575,223.75050036560788 20.12170088797575,224.03641750424504 20.093316834012512,224.322333105727 20.046010077465326,224.60824717011565 19.975049942586338,224.8666681750583 19.89935913210502,225.13608448157174 19.92774318603915,225.42749241955244 19.918281834718073,225.70240410494807 19.960857915633824,226.04329262142346 19.965588591294363,226.48864368189243 19.92774318603915,226.97247764484928 20.041279401804786,227.30236191443691 20.183199671533657,227.5552718022518 20.329850616893964,227.78618847572216 20.54273102147272,227.9566263298002 20.817110209609382,228.088577841776 21.09148939771694,228.16005144075825 21.275985748361563,228.35247988374977 21.351676558871986,228.63287436883184 21.351676558871986,228.9077694880325 21.398983315448277,229.18816104618236 21.517250206903554,229.6169923353118 21.862589529860998,230.52962177732843 21.924088313418906,230.815502478672 22.009240475221304,231.10138164382442 22.113315339694964,231.34877583531488 22.217390204168623,231.61266170492308 22.345118446915876,231.85455593561346 22.46811601400259,232.14042951761803 22.61003628373146,232.43729661165708 22.70938047254458,232.7231670625988 22.79453263434698,233.042020753619 22.841839390952373,233.45982614610693 22.803993985668058,233.73469632570414 22.766148580412846,233.96008881343369 22.723572499497095,234.24045374623165 22.699919121223502,234.53730912377796 22.66207371596829,234.83416284525447 22.619497635023436,235.1145231727205 22.619497635023436,235.42786532015452 22.647881688986672,235.76319434641118 22.695188445562962,236.02156117129925 22.82764736394165,236.39536627213238 22.92699155275477,236.68671254468427 23.04525844421005,236.9725601676073 23.144602632994065,237.2474122033127 23.215562767873053,237.54425080751025 23.258138848788803,237.79711201633836 23.295984254044015,238.05546896711894 23.295984254044015,238.4127690665009 23.281792227062397,238.72609179505525 23.3669443888939,239.02292215226043 23.589286144793732,239.31425404131005 24.005585602630163,239.468164584232 24.30834884470096,239.4571709887823 24.473922492703423,239.63306824347455 24.516498573619174,239.79247462844796 24.5921893841587,240.08929903869648 24.82399249135051,240.21572374782045 25.18352384128957,239.95188053602396 25.4295189754921,239.7704875692616 25.533593839936657,239.66055213702566 25.65659140702337,239.58909398430478 25.86474113597069,239.38571256301657 26.12965897275717,239.2263049598223 26.408768836554373,239.11087156983194 26.702070727274986,239.0559032008823 26.985911266732728,239.03391583741904 27.298135860124603,239.00643162030974 27.591437750845216,239.08338739246392 27.809048831113614,239.30875722798373 27.936777073860867,239.60558433574988 28.02192923569237,240.012344720908 28.045582613995066,240.2926777715802 28.02192923569237,240.58400271083883 28.11181207318441,240.8753260556732 28.277385721186874,241.17214442760087 28.547034233633894,241.3700224227432 28.81668274611002,241.54591335642908 29.114715312520275,241.6778311753078 29.398555851948913,241.70531401309927 29.69185774269863,241.661341465835 29.970967606495833,241.54591335642908 30.188578686735127,241.38651222244516 30.47241922619287,241.34253941184215 30.746798414271325,241.45796796222203 30.883988008339657,241.69432087968016 30.865065305726603,241.9911346849476 30.93129476494505,242.26046429826238 31.14890584515524,242.50231013682787 31.404362330649747,242.67819732931093 31.702394897060003,242.72766549749213 31.986235436517745,242.6397220556173 32.18965448977542,242.43635228982384 32.44511097526993,242.37589085826767 32.61068462327239,242.59575028019026 32.60595394761185,242.8760697262478 32.61068462327239,243.17287694261904 32.601223271980416,243.48067527102467 32.57283921801718,243.7445009932926 32.47349502920406,244.04130336804883 32.53026313710143,244.321615202698 32.6721834068303,244.57444421901164 32.8424877304933,244.79979080854173 33.08848286466673,244.91521186306272 33.36286205280339,244.9811666390342 33.623049213929335,244.91521186306272 33.90688975338708,244.9811666390342 34.195460968476254,245.08559486720696 34.50295488620759,245.2120077114705 34.772603398683714,245.398878322776 35.0375212354993,245.60773293573584 35.27878569398308,245.76162528420173 35.510588801203994,245.88254038881496 35.7660452866985,245.9979590961666 36.026232447853545,246.10788144198523 36.27695825768751,246.2342918591239 36.404686500434764,246.4596314236187 36.504030689247884,246.76191470758204 36.76894852606347,246.94328385423069 37.04805838983157,247.10816436056484 37.294053524004994,247.28953232785716 37.45962717203656,247.49288355655517 37.63939284699154,247.74569751476884 37.89484933248605,247.92706331059526 38.15976716930163,248.05896531958206 38.34426351994625,248.28979304912718 38.377378249540925,248.54260322391565 38.59972000544076,248.7514455065284 38.807869734358974,248.93830369673742 39.00655811195611,249.13615283053878 39.2478225704981,249.29553076487718 39.48908702901099,249.47689128237107 39.75400486582657,249.63626819696583 39.91957851382904,249.86159336581113 40.066229459189344,250.10890038055004 40.250725809833966,250.2407969855085 40.56768107885728,250.29575380782626 40.83259891567286,250.5045892154485 41.08805540116737,250.63648484044097 41.33878121103044,250.78486702813098 41.5895070208644,250.95523125230102 41.88280891161412,250.9882049101725 42.07676661355072,251.24649785716247 42.313300396403065,251.26298459847385 42.507258098368766,251.24100227557938 42.80055998911848,251.25199343815984 43.07493917722604,251.26848017777593 43.29728093315498,251.48830288503086 43.453393229836365,251.73560234621618 43.71358039099141,251.83452180918175 43.99269025475951,251.82902628827287 44.27653079418815,251.8180352447671 44.555640657956246,251.7465934067186 44.6833689007326,251.46082509624102 44.83001984612201,251.21901994361906 45.11859106121119,251.15856848391195 45.40716227630037,251.19154201588753 45.69100281572901,251.25748901860788 45.95592065254459,251.37839164481193 46.173531732783886,251.52677176551515 46.47156429919414,251.5762317139015 46.72229010902811,251.74109787675116 46.92570916231489,251.9389365985444 47.10547483726987,252.16974751184898 47.36566199842491,252.30163901321794 47.64477186219301,252.3895664993761 47.914420374669135,252.48298929435623 48.16987686016364,252.5709164811342 48.4442560483003,252.66433895802402 48.72809658772894,252.70280698912393 49.011937127186684,252.70830241988006 49.30050834227586,252.70280698912393 49.5843488817045,252.66433895802402 49.86818942113314,252.6203754598937 50.175683338864474,252.5819073692619 50.45006252697203,252.53244835477017 50.74809509341139,252.48298929435623 51.01774360585841,252.5159620064078 51.42931238806341,252.439025646534 51.722614278813126,252.4115483482201 51.97807076430763,252.4610074749944 52.21933522282052,252.60388913874704 52.45113833004143,252.73577956510053 52.7018641398754,252.82920175283652 52.97624332801206,252.90064213879305 53.23169981347746,252.95010081135842 53.47296427201945,252.80172465578653 53.7331514331745,252.9061375491001 53.979146567347925,253.02154103515568 54.24406440416351,253.12045810992277 54.49479021396837,253.21937500098284 54.769169402105035,253.20288886521666 55.05300994156278,253.23586113162673 55.351042507973034,253.27982412174606 55.62542169608059,253.307300972152 55.89033953289618,253.3457685389003 55.96129966774606,253.59305937609315 56.02752912696451,253.84584437862213 56.31610034205369,253.89530217358697 56.68509304334293,253.8733209370439 56.95947223145049,253.84034906524903 57.24804344653967,253.8238631216591 57.52242263467633,253.84034906524903 57.735303039255086,253.98322702901714 57.93872209251276,254.15907630449146 58.13267979444936,254.32942973652098 58.31717614509398,254.51077311391055 58.54897925231489,254.63716358761667 58.79970506214886,254.69211587394238 58.92270262923557,254.90642924900385 58.865934521338204,255.1317321238712 58.66251546808053,255.19217907452185 58.82808911608299,254.96138125755897 59.03623884500121,254.76904897957138 59.23965789825888,254.56572553062506 59.44307695154566,254.3733918240905 59.6654187074455,254.18655270134695 59.86410708504263,254.27997234464056 60.08171816528193,254.51626835813295 60.275675867218524,254.74157288317292 60.49328694745782,254.98885724058346 60.72035937901819,255.22515010960706 60.91904775661533,255.4174807408417 61.04677599936258,255.65377170863576 60.8670103244076,255.87357631912892 60.66832194678136,256.07689477639724 60.44598019088153,256.274717395434 60.25675316460547,256.49451944393877 60.058064787008334,256.71432058558275 59.854645733721554,256.917635834212 59.6654187074455,257.1209503069513 59.476191681140335,257.3242640037897 59.277503303514095,257.5330718578007 59.06935357459588,257.73638398192634 58.861203845677665,257.94519022075474 58.66251546808053,258.15949050968266 58.444904387841234,258.3847796276241 58.222562631970504,258.61556261435544 58.014412903023185,258.84084980385524 57.825185876718024,259.03866216045935 57.635958850441966,259.24196853947797 57.41834777020267,259.417800457908 57.24804344653967,259.62660010741456 57.04935506894253,259.8408936337473 56.84120533999521,260.05518629826474 56.699285070295446,260.29145669867285 56.5479034492746,260.5277260514449 56.36340709862998,260.72553214577056 56.141065342730144,260.92883208866624 55.94710764079355,261.1541094978238 55.73895791187533,261.3793859546349 55.54973088557017,261.59367243218367 55.341581156651955,261.78598007583423 55.11923940075212,261.9892759730719 54.877974942239234,262.19257109477985 54.679286564612994,262.4013598719721 54.42383007914759,262.53322604663117 54.1825656206056,262.65959749116155 53.974415891687386,262.8354181328832 53.78518886541133,263.0442043915391 53.52973237991682,263.1870576761794 53.30265994835645,263.3738652398497 53.089779543777695,263.5606721487238 52.83905373394373,263.7035240489895 52.569405221467605,263.81340986556097 52.422754276078194,263.9068126315251 52.55521319448599,264.1815257003145 52.71605616682791,264.45623735312984 52.90528319313307,264.67600565589237 53.085048868117156,264.9562089276624 53.2600838674407,265.1704810238916 53.48715629897197,265.4012346257259 53.520271028595744,265.7528572408519 53.32631332663004,265.983608321425 53.12289427337237,266.17590012547953 52.895821841811994,266.3572031910553 52.6782107615727,266.52751763032575 52.45586900570197,266.70332551293177 52.22406589848106,266.85715693457314 52.06322292613913,266.9615422892748 51.91657198074972,266.73628942637515 51.79357441366301,266.4725775480656 51.64219279264216,266.2418285843123 51.46242711765808,266.01107862161007 51.23535468609771,266.18139416682243 51.013012930197874,266.3736852573529 50.81432455260074,266.20337032656244 50.66767360721133,265.9781142596876 50.5068306348694,265.8682329060139" stroke="#ffcf00" stroke-linecap="round" stroke-linejoin="round" stroke-width="0.5"><title>2024-03-04 20.1km</title><desc>383901413</desc></polyline></svg>