<?xml version="1.0" encoding="utf-8" ?>
<svg baseProfile="full" height="300mm" version="1.1" viewBox="0,0,200,300" width="200mm" xmlns="http://www.w3.org/2000/svg" xmlns:ev="http://www.w3.org/2001/xml-events" xmlns:xlink="http://www.w3.org/1999/xlink"><defs /><rect fill="#222222" height="300" width="200" x="0" y="0" /><text fill="#FFFFFF" style="font-size:12px; font-family:Arial; font-weight:bold;" x="10" y="20">Over 10km Runs</text><text fill="#FFFFFF" style="font-size:4px; font-family:Arial" x="10" y="280">ATHLETE</text><text fill="#FFFFFF" style="font-size:9px; font-family:Arial" x="10" y="290">SAM0TA</text><text fill="#FFFFFF" style="font-size:4px; font-family:Arial" x="120" y="280">STATISTICS</text><text fill="#FFFFFF" style="font-size:3px; font-family:Arial" x="120" y="285">Number: 6</text><text fill="#FFFFFF" style="font-size:3px; font-family:Arial" x="120" y="290">Weekly: 2.0</text><text fill="#FFFFFF" style="font-size:3px; font-family:Arial" x="141" y="285">Total: 121.9 km</text><text fill="#FFFFFF" style="font-size:3px; font-family:Arial" x="141" y="290">Avg: 20.3 km</text><text fill="#FFFFFF" style="font-size:3px; font-family:Arial" x="167" y="285">Min: 11.9 km</text><text fill="#FFFFFF" style="font-size:3px; font-family:Arial" x="167" y="290">Max: 36.2 km</text><polyline fill="none" points="14.022627278434811,67.21206246923975 14.045254556869622,67.33482730400283 14.603394091769587,67.38744075018622 14.84475172846578,67.3962096546893 15.055939660582226,67.40497855829017 15.123821495915763,67.28221382516494 15.267127592698671,67.02791488355433 15.500942803279031,67.0542217060065 15.516027655568905,66.88761169245117 15.410433689510683,66.49300772182323 15.327467001887271,66.12470902432688 15.327467001887271,65.72133242333803 15.410433689510683,65.53718159737036 15.34255185420625,65.23026266458328 15.282212444988545,65.03734162341425 15.161533626640448,64.53749870035244 15.07856693904614,64.31826841770089 15.003142677567666,63.89734468462848 14.82212445003097,63.30103248256637 14.701445631682873,62.8274874494964 14.693903205537936,62.617022140620975 15.591451917018276,60.5649579744495 15.787554996844847,60.687732442384004 15.938403519801795,60.678962843441695 16.63230672533973,60.6526540411287 17.31866750473273,60.661423642792215 17.778755499690305,60.678962843441695 18.55562539282255,60.67019324357534 19.060967944707954,60.60003641201183 20.237586423638277,60.57372758519341 20.403519798855996,60.62634523065935 20.599622878682567,60.67019324357534 21.006913890625583,60.67019324357534 21.27089880578569,60.58249719504238 21.768698931497056,60.59126680398913 22.213702074164758,60.60880601913959 22.43243243242614,60.617575625365134 23.013199245760916,60.62634523065935 23.50345694529824,60.60880601913959 24.144563167821616,60.617575625365134 24.325581395358313,60.635114835051354 25.034569453186123,60.6526540411287 25.502199874288635,60.67019324357534 25.72847265872406,60.8017371461392 25.841609050898114,60.91574169644446 26.067881835333537,60.92451127086679 26.377121307363268,60.81050673236314 26.79949717159616,60.77542838194495 26.99560025142273,60.60003641201183 27.500942803249927,60.5649579744495 27.651791326206876,60.635114835051354 27.80263984913472,60.60003641201183 28.036455059685977,60.49480105573457 28.194846008816967,60.486031436790654 28.541797611571383,60.486031436790654 28.745443117513787,60.617575625365134 29.280955373949837,60.57372758519341 29.612822124443483,60.60003641201183 29.73350094279158,60.635114835051354 29.959773727227002,60.714041233783064 30.10307982400991,60.635114835051354 30.261470773111796,60.6526540411287 30.872407290997216,60.75788920130435 31.03834066624404,60.79296755897667 31.37020741670858,60.81927631767758 31.521055939636426,60.79296755897667 31.98114393465221,60.84558506825124 32.19987429291359,60.854354649956804 32.758013827813556,60.92451127086679 33.150219987437595,60.97712869843235 33.376492771843914,60.933280844379624 33.58013827781542,60.933280844379624 33.87429289755528,61.01220696530072 34.06285355123691,61.03851565592777 34.274041483324254,61.17005898647767 34.51539912004955,61.09113301266916 34.817096165934345,61.29283257739007 34.990571967326105,61.319141180836596 35.22438717787736,61.327910713524034 35.57133878066088,61.415605990318 35.96354494031402,61.398066942216246 36.287869264604524,61.398066942216246 36.57448145819944,61.38052789050562 36.85355122562032,61.415605990318 37.41923318669433,61.57345725976484 37.668133249506354,61.555918244346685 37.939660590840504,61.564687752514146 38.11313639220316,61.59976577605994 38.377121307334164,61.6523827841811 38.54305468258099,61.70499975961138 39.12382149591576,61.783925161456864 39.53111250788788,61.8540810124905 39.991200502816355,61.95054521275597 40.43620364551316,62.011931464825466 40.65493400377454,62.05577876052121 40.79069767441251,62.082087127018895 40.94154619736946,62.117164936324116 41.605279698298546,62.26624546381208 42.07291011943016,62.37147861938138 42.29164047766244,62.380248043104075 42.49528598366305,62.47671164420899 42.683846637344686,62.44163398377714 42.887492143316194,62.44163398377714 43.121307353896555,62.41532572894357 44.19987429291359,62.292553764949844 44.62225015714648,62.30132319686527 45.13513513514772,62.30132319686527 45.595223130105296,62.45917281580478 45.685732243873645,62.85379557631677 45.78378378378693,62.985336087956966 45.806411062250845,62.85379557631677 45.87429289755528,62.994105448146 46.26649905717932,63.06426029692375 46.507856693904614,63.09056835022784 46.892520427383715,63.15195377616328 47.02074167190585,63.13441508757387 47.51099937147228,63.29226315417327 47.722187303588726,63.30103248256637 47.956002514169086,63.34487911098404 48.1822752985463,63.4764188600966 48.348208673793124,63.43257229973824 48.61973601509817,63.48518816944852 48.84600879950449,63.55534261150751 49.049654305476,63.77457486853382 49.26838466373738,63.80088270123815 49.39660590825952,63.7833441469993 49.60779384034686,63.79211342457711 49.811439346318366,63.84472907093732 50.08296668762341,63.89734468462848 50.4450031426677,63.98503730149969 50.89000628536451,64.07272982757422 51.35009428032208,64.2218069135779 51.651791326206876,64.28319151982578 51.915776241366984,64.32703763988684 52.10433689504862,64.36211451961572 52.64739157765871,64.36211451961572 53.10747957258718,64.45857586395141 53.26587052168907,64.5725754929008 53.446888749225764,64.5024218932449 53.869264613458654,64.62519065454399 54.140791954734595,64.68657496848027 54.661219358909875,64.78303594337194 55.423004399752244,64.90580429802503 55.67944688873831,64.96718840862741 56.18478944059461,65.06364906398812 56.667504714016104,65.11626392063772 57.097423004423035,65.19518614432309 57.24827152735088,65.2741082944849 57.50471401636605,65.3442612551371 57.81395348836668,65.40564504805661 58.22878692645463,65.47579789975862 58.6059082338179,65.54595069341303 59.126335637964075,65.74763965150487 59.548711502196966,65.80025408334768 59.70710245126975,65.77394687150081 59.933375235734275,65.8265612870091 60.393463230662746,65.94055907518486 60.75549968573614,66.01071148397023 60.89880578254815,66.04578766658233 61.09490886234562,66.13347805954982 61.366436203650665,66.15101612725994 62.00754242614494,66.44039372022235 62.497800125711365,66.6333115663947 62.784412319306284,66.82622897328838 63.003142677567666,66.93145646461198 63.146448774350574,67.11560425998323 63.33500942803221,67.26467599165335 63.44814582023537,67.31728948136151 63.86297925832332,67.52774311354005 64.48145820238278,67.92234226482105 64.7680703960068,68.12402556579764 65.37900691386312,68.49231557224994 65.71087366435677,68.64138488164463 65.96731615337194,68.79045392872649 66.0804525455751,68.90444772898627 66.2011313639232,69.01844137586158 66.7064739157795,69.22012206768704 67.1514770584472,69.46564574024524 67.2947831552301,69.62348201117129 67.43808925207122,69.68486270379799 67.8378378378402,69.87777316260326 68.18478944062372,70.04437729627534 68.47894406033447,70.20221248916641 68.65241986172623,70.28112997535209 68.87869264616165,70.36881598489708 69.05216844752431,70.51788199290604 69.46700188558316,70.82478177184385 70.17598994341097,71.2105970597404 70.67379006912233,71.46488344811951 70.83218101825332,71.49995737284189 71.08108108106535,71.64025292651786 71.58642363295075,71.78931669781014 71.82023884350201,71.8770011466404 72.44626021373551,72.05236977213644 72.627278441214,72.03483292591409 72.92143306095386,72.02606450145686 73.26838466373738,72.0172960760683 73.70584538026014,71.98222236551373 73.89440603391267,71.93838020685507 74.18856065371074,71.99975922258454 74.35449402892846,71.99975922258454 74.61847894408857,72.2277380346859 74.82966687620501,72.23650643827568 75.16907605278539,72.48202137073531 75.4330609679746,72.6047785701885 75.79509742301889,72.92920745558513 76.01382778128027,73.10457390351075 76.39849151478847,73.58682976404089 76.69264613449923,73.91125488967373 77.01697045881883,74.29705612509133 77.24324324325426,74.61271037493134 77.34883720934158,74.71792819694383 77.46951602766057,74.82314588829468 77.80892520427005,75.18263868145732 78.17850408548838,75.27031961920875 78.26901319925673,75.39307277962507 78.34443746073521,75.59473830002389 78.56316781896749,75.72625903306471 78.69893148963456,75.998067901186 78.69138906346052,76.55045097943366 78.71401634195354,76.68197022932145 78.68384663734469,77.13790204870747 78.63104965430102,77.40093852111022 78.60087994972127,77.54999215978023 78.62350722812698,77.7867238706167 78.81961030798266,77.95331245593115 78.98554368322948,77.97084807744977 79.14393463230226,78.10236512315169 79.26461345065036,78.18127525260934 79.85292269013007,78.67226996293175 80.1621621621889,78.7774827450703 80.4035197989142,78.90899853911833 80.77309868007433,79.02297872886265 80.89377749845153,79.13695876533166 80.87869264613255,79.16326182890043 80.86360779384268,79.28600935097347 80.93148962917621,79.34738304534403 81.0295411690895,79.29477702431177 81.22564424888697,79.37368604360381 81.33123821497429,79.28600935097347 81.70835952233756,79.33861537742632 82.03268384665716,79.33861537742632 82.46260213703499,79.36491837845824 83.21684475176153,79.29477702431177 83.72972972973366,79.26847400156112 83.96354494028492,79.25093864854716 84.18981772472034,79.21586793155438 84.41609050912666,79.25093864854716 84.66499057196779,79.51396856321662 84.8082966687798,79.45259498947416 84.95160276556271,79.20710025005246 85.19296040228801,78.86515996376693 85.40414833437535,78.54075380156428 85.56253928350634,78.18127525260934 85.78126964173862,77.91824120201636 86.0,77.7253490461153 85.97737272156519,77.52368859551643 85.82652419860824,77.42724212347093 85.67567567565129,77.39217065185949 85.29101194217219,77.36586703862122 85.05719673162093,77.38340278167743 84.61973601509817,77.38340278167743 84.25769956002478,77.25188462031656 84.099308610952,77.28695614995377 83.64676304213936,77.27818826891598 83.18667504715268,77.40093852111022 83.0509113765147,77.36586703862122 82.91514770587673,77.19927729861956 82.82463859207928,77.12913415222283" stroke="#4dd2ff" stroke-linecap="round" stroke-linejoin="round" stroke-width="0.5"><title>2024-04-13 11.9km</title><desc>9223370323858149007</desc></polyline><polyline fill="none" points="139.73814494680846,34.057200960218324 139.77504703271552,34.035750605668 139.77504703271552,34.47190650568518 139.79964842332993,35.129710196793894 139.84885120450053,35.644508717428835 139.8427008568542,36.15930340282648 139.89805398570024,36.595445899205515 139.9349560715782,37.188881268535624 139.910354681022,37.339026758978434 139.96570780986804,37.7751618097609 139.9349560715782,38.07544991686882 140.0026098957169,38.1397971986371 139.984158852807,38.55447824389557 139.92880572396098,38.883361441527086 139.8611518998514,39.090700044362165 139.82424981391523,39.26943971995206 139.99645954809966,40.49915615753707 140.0272112863604,40.60639783286024 140.0948651104991,40.72793819705839 140.1010154581454,40.87092658715119 140.15636858699145,41.35708490084653 140.19942102051573,42.057718808246136 140.19942102051573,42.400883845191856 140.23017275874736,42.55101801309502 140.26707484465442,43.215893979730026 140.18096997760586,43.38032468397432 140.2609244970081,43.68773756011797 140.29782658291515,44.13813070047763 140.29167623526882,44.259664854624134 140.32857832117588,44.60996798569249 140.34087901646853,45.153291779141 140.34702936414396,45.35346262656094 140.34087901646853,45.51788824619143 140.3777811023756,45.68946238884382 140.46388596945326,45.8967805763823 140.5438404889137,46.31141508628207 140.56229153185268,46.53302906313911 140.64224605131312,46.82613032845984 140.62994535602047,46.96195732274646 140.71605022309814,47.09778405014367 140.78370404723682,47.31224676061538 140.84520752370008,47.598196006358194 140.90671100022155,47.719724077651335 140.95591378142126,47.94133354004589 140.99281586732832,48.05571233948285 141.0358683008526,48.17723960654257 141.09122142969863,48.456036647323344 141.20807803506614,48.842061463190475 141.2941829021438,49.04222163029044 141.33723533566808,49.20663847688411 141.4110395074822,49.421094645760604 141.4786933316209,49.70703516947833 141.5770988940203,50.02871684517595 141.70010584700503,50.49336551232409 141.8108121046971,50.90082408154558 141.92151836238918,51.322576913720695 141.8784659288358,51.52987821026909 141.8108121046971,51.69428914146556 141.86001488589682,51.79436516908754 141.92151836238918,51.88729277929815 142.0691267059883,52.00881331192795 142.10602879186627,52.16607486065914 142.1859833113267,52.3161878235187 142.302839916636,52.73078383756365 142.15523157309508,52.88804374435131 142.25978748311172,53.0953403477688 142.4196965220326,53.15967365006509 142.6042069514806,53.85303988719534 142.70876286152634,54.231886543631845 142.6534097326803,54.36769899056526 142.64110903738765,54.582139153179014 142.85637120509637,54.903798150298826 142.9547767674958,55.13253252694267 143.13928719697287,55.83302684921364 143.25614380234038,56.247601779337856 143.33609832177171,56.54780966012186 143.4714059700491,57.041005492414115 143.5882625754166,57.51275473669375 143.60671361835557,57.64856074083946 143.64976605187985,57.74862815219967 143.60056327068014,57.92017194912478 143.64361570426263,58.02738660615432 143.76662265724735,58.220372569950996 143.80967509077163,58.44194838289695 143.9449827390781,58.83506501378724 144.1294931685552,59.45689948571817 144.16024490678683,59.62129157270829 144.28940220744698,60.12161291168013 144.28940220744698,60.24311897641019 144.4124091604317,60.55760427047062 144.56616785167716,61.000740212606615 144.70762584760087,61.38669501047116 144.74452793350792,61.62970248212514 144.762978976476,62.0013593169715 144.75067828115425,62.473074731824454 144.73222723821527,62.973375444780686 144.70147549995454,63.416495911857055 144.67687410936924,63.938230887957616 144.6891748046619,64.11690634513798 144.69532515233732,64.25269938396377 144.66457341407659,64.70295860562328 144.6707237616938,65.05315819651878 144.6461223711085,65.21753698504472 144.70147549995454,65.57488083007047 144.7875803670613,65.93936965059402 144.86753488649265,66.11803993968351 144.929038362985,66.33959045742085 144.98439149183105,66.46823236792989 145.11969914013753,66.84700993775186 145.21810470253695,67.00423775395029 145.2796081790293,67.28295891364542 145.33496130784624,67.48306572052388 145.33496130784624,67.6474387360795 145.4210661749239,67.87613097773283 145.5379227802914,68.14770203291118 145.55022347558406,68.45500483625801 145.54407312793774,68.69084094576829 145.6793807762151,68.91952973885782 145.7716359909682,69.1339247959404 145.90079329159926,69.36975859151426 145.94384572515264,69.4698090498423 145.99919885399868,69.91288791216357 146.18370928350487,70.26306113490864 146.20831067409017,70.47030567693582 146.3067162364896,70.7633055221304 146.3805204082746,70.94910965921736 146.34361832239665,71.09918186727737 146.3805204082746,71.25640002189903 146.36206936530652,71.44934908712457 146.45432458005962,71.72090611939348 146.73724057196523,72.01390066963359 147.11856212621205,72.2926016515994 147.28462151275016,72.54271696184878 147.30922290333547,72.72137020147784 147.27847116507473,72.92860738164745 147.26002012216486,73.24303502171097 147.2231180362578,73.50029293738771 147.20466699328972,73.70752778513997 147.11241177856573,74.13628756910475 146.95865308732027,74.40783405844559 146.93405169673497,74.77942226473533 146.85409717727453,75.22961299589952 146.79259370078216,75.60834261291166 146.73724057196523,75.87988332691748 146.6818874430901,76.12283990486321 146.60808327130508,76.4515445058787 146.57118118542712,76.56587617511104 146.52812875184463,76.68735336672398 146.52812875184463,76.83741313264909 146.497377013613,76.98032689297543 146.4051217988599,77.47337710105785 146.28211484587518,77.82351207279135 146.20216032644385,78.08789853095368 146.15295754527324,78.25939190982172 146.08530372107634,78.36657505583571 146.09145406875177,78.49519461200543 146.11605545933708,78.90248829659686 146.14065684992238,79.24547059336328 146.18370928350487,79.45983366588916 146.3067162364896,79.70277767896187 146.27596449822886,79.91713933541178 146.3067162364896,80.02431991472986 146.33746797472122,80.19580849644262 146.31901693178224,80.46018589434243 146.4051217988599,80.58880156068335 146.67573709547287,80.75314345327934 146.65113570482936,80.95321131771925 146.94635239199852,81.2961834544476 147.16776490741177,81.36763576906378 147.26002012216486,81.49624974956532 147.39532777044224,81.68917027229327 147.56753750462667,81.91067095026665 147.81970175824245,82.18933208692033 147.97961079713423,82.31794454094052 147.98576114478055,82.52515299209335 148.03496392598026,82.65376482227293 148.40398478493444,83.05388898830279 148.723802862718,83.40399573671311 148.96981676871656,83.33254552367725 149.0497712881479,83.4468658291371 149.1912292840716,83.43972081558604 149.41879214710207,83.86127535414562 149.67095640074695,84.11134886748914 149.800113701378,84.32569687436626 149.83086543963873,84.44001554000715 150.0830296932545,84.57576871034689 150.39669742339174,84.8972883152237 150.5504561146372,85.19022709986166 150.6919141105609,85.33312361827848 150.85182314945268,85.49745424983848 152.50011631951202,86.64775775124872 152.70307779195718,86.85495324537624 152.88758822140517,86.94783378288412 153.23815803744947,87.12644985099905 153.45342020518729,87.24076389280526 154.12380809898605,87.37651157236542 154.70809112567804,87.37651157236542 154.87415051221615,87.37651157236542 155.1201644181856,87.36936696428165 155.20626928529236,87.59799405717786 155.31697554298444,87.74803017669183 155.32312589063076,87.91949962951185 155.45843353893724,88.49106140588265 155.5445384060149,88.79112945007364 155.6613950113533,89.20550699265732 155.77210126904538,89.59844892370165 155.8705068314157,89.93423389812233 155.92585996026173,90.10569793796458 156.02426552266115,90.40575898624957 156.23337734275265,91.14876170113712 156.33178290515207,91.477394974856 156.37483533870545,91.6202785205387 156.49169194404385,92.07035976278712 156.54089472524356,92.284683135862 156.7377058500133,92.92764927596727 156.86686315064435,93.42772992524988 156.93451697478304,93.7134886752392 157.0452232324751,94.13498067958426 157.1374784472282,94.45645590798085 157.14362879490363,94.73506656575773 157.2297336619813,95.1351209350978 157.32813922435162,95.55660428912961 157.35274061496602,95.78520435762766 157.4388454820728,96.41385065626673 157.48189791559707,96.63530424355122 157.6295062591962,97.36395298573188 157.66640834510326,97.5925470902148 157.68485938804224,97.72113094249653 157.74021251688828,97.89971923032863 157.7955656457343,98.02115900306671 157.75866355982726,98.32118576429639 157.83246773161227,98.52834634112514 157.9124222510727,98.81408405133698 157.97392572753597,99.0641035810404 158.07848163758172,99.50699310463824 158.08463198525715,99.83558672814252 158.05388024702552,100.05702937798196 157.94317398930434,100.21418179690954 157.93702364165802,100.40705018752487 157.955474684597,100.62134776958555 158.03542920405744,100.7999285816768 158.1707368523348,100.9713657282773 158.1461354617495,101.11422969306295 158.3060445006413,101.4499588508188 158.51515632073279,101.64996693749708 158.6627646643028,101.99283660007495 158.88417717968696,102.37141988155781 159.1301910856564,102.82857429474825 159.44385881576454,103.25001084760879 159.86823280359386,103.78573157917708 160.21265227196272,104.20001943839452 160.26185505319154,104.29287672221835 160.05274323310005,104.55001932033338 159.60991820233176,104.8571606175974 159.33315255810157,105.05001608524617 159.24089734334848,105.15715777981677 159.0809883044567,105.30001311486558 158.81652335551917,105.57143744020868 158.68736605488812,105.64286471754895 158.5889604924887,105.74286278215004 158.4044500630407,105.96428655456839 158.27529276238056,105.98571462401742 158.06003059467184,105.80714717607043 157.98622642285773,105.70714920420869 157.99237677050405,105.5928656311371 157.89397120813373,105.5285810384521 157.78326495041256,105.44286815544183 157.68485938804224,105.36429791957198 157.6787090403668,105.24287101618393 157.40809374381206,104.8214465832134 157.02677218953613,105.00715936104098 156.8115100217983,105.20001441126078 156.66390167822829,105.18572887039045 156.43018846752238,104.80716096430115 156.19032490919926,104.95001702087029 156.04886691327556,105.07144443740253 155.93201030793716,104.90716023481946" stroke="#4dd2ff" stroke-linecap="round" stroke-linejoin="round" stroke-width="0.5"><title>2024-04-10 13.4km</title><desc>9223370324139026207</desc></polyline><polyline fill="none" points="42.92552520058234,119.3873784900934 42.8987025473034,119.06773292280559 42.6640043311927,118.521993453287 42.6304760146304,118.24132590063527 42.482951421668986,118.05421361781919 42.08061162265949,118.0620099722073 41.78556243667845,118.09319538174168 41.36981131104403,118.10099173209164 41.09487911502947,118.0698063257878 40.61877701955382,118.00743547446473 40.0689126275538,118.03082454976538 39.64645583857782,117.98404639188811 39.177059406385524,117.99184275356674 35.810816421260824,118.14776981733303 35.321302999102045,118.02302819214674 34.96590284330887,118.15556616204412 34.56356304429937,118.14776981733303 34.134400592010934,118.09319538174168 33.55771354676108,118.20234421337955 33.0682001246023,118.12438077833212 32.84691323514562,118.13997347179975 32.47810175269842,118.11658443039778 32.162935576809105,118.16336250595486 31.53260322503047,118.15556616204412 31.28449368229485,118.17895519133162 30.76145194354467,118.24912223564752 30.064062958583236,118.31928921462531 29.58796086307848,118.14776981733303 29.2660890238476,118.0620099722073 29.01797948111198,118.04641726260161 28.421175445924746,117.90608273090038 28.119420596660348,117.79693346990098 27.428737275011372,117.85150812017673 27.059925792593276,117.65659847333154 26.69781997348764,117.51626321527874 24.37766046577599,116.91593721507525 23.311459998396458,116.53390908709116 23.070056119002402,116.41696131356002 22.9359428526368,116.12848936241062 22.956059842574177,115.61391503040795 22.909120199357858,115.39560970611637 22.989588159165578,114.8654369982396 22.62077667671838,114.05457740181737 22.64759932999732,114.20271586452873 22.3659614706703,115.02137053506158 21.94350468169432,115.33323664010823 21.38022896309849,115.52035568320571 21.105296767083928,115.5983218139445 20.776719264569692,115.79323678766377 20.62248900826671,116.32340296399343 20.88400987762725,116.63526367726445 20.877304214285687,117.1966097068871 20.68954564142041,117.46948473781958 20.783424927853048,117.85150812017673 21.065062787180068,118.36606716429378 21.621632842492545,118.82604878843267 22.258670857612742,119.30941628167056 22.124557591276243,119.95650016672153 21.977032998285722,120.68933544412721 22.10444060130976,120.96999387497635 22.2318482043338,121.19607907266618 22.35925580735784,121.47673561541887 22.39278412394924,121.73400319433858 22.48666341038188,121.95229014799406 23.197463721997337,123.20742785630864 23.479101581295254,123.5660347890298 23.70709413406439,123.88566126846854 23.807679083838593,124.25206068634725 23.767445103934733,124.79775864352996 23.519335561199114,125.13297114310262 23.157229742093477,125.13297114310262 22.54030871691066,124.96926289941621 21.762451772170607,125.26549660361343 21.594810189213604,125.38243063986738 21.42046294300235,125.76441389355023 21.480813912843587,126.3646693791743 21.487519576126942,127.12082857363566 21.474108249531128,127.81461744726403 21.29305533997831,128.38367546221707 21.17235340026673,129.2333568274189 21.165647736925166,129.94271649997245 21.28634967666585,130.45719296352036 21.567987535963766,131.0340260334342 21.809391415386926,131.4627504545424 22.030678304843605,132.08634525832895 21.889859375165543,132.33578173492424 21.728923455550103,132.91260042476642 21.728923455550103,133.31013505999726 21.883153711853083,133.75443599417486 21.889859375165543,134.11299273287295 21.567987535963766,134.81451185294281 21.299761003261665,135.74206599780882 20.99800615402637,136.23311945296155 21.105296767083928,136.747552974477 21.386934626410948,137.18403926950123 21.708806465612724,137.67508332995203 21.722217792237643,138.16612419132434 21.715512128925184,138.45451177755604 21.728923455550103,138.65716185370547 22.3994897872617,139.38981527579745 22.54030871691066,140.3952535928329 22.701244636555202,141.19803579869767 22.701244636555202,141.94625229325175 22.68112764658872,142.2190377095758 22.5336030535982,142.9750378476965 22.339138817420462,143.51280652731657 22.2653765209252,144.2843809760452 22.29219917417504,144.63509402415366 22.3324331540789,145.39886346150888 22.52019172697328,146.26393990805082 22.82194657623768,146.9185857564371 23.02311647575698,147.2069398626336 23.298048671742436,147.52646609767544 23.834501737117535,147.97847650782933 24.28378117934335,148.29020624640543 24.72635495828581,148.59414150071825 24.90070220452617,148.84352335848234 24.759883274848107,149.40462952292 24.78670592812705,149.90338705283648 25.128694757295307,150.53462232202583 25.182340063824086,150.93985699388577 25.34998164672288,151.75811267415702 25.44386093315552,151.95293414654589 25.69197047589114,152.56856669132685 25.9669026719057,153.17640148857754 26.18818956136238,153.65954873018927 26.322302827698877,153.94008441786718 26.355831144290278,154.1504854988234 26.17477823473746,154.64141907176963 25.960197008564137,154.87519584045367 25.859612058848143,155.031046617034 25.759027109103044,155.20248209930287 25.457272259809542,155.5141819778146 25.51762322965078,155.69340882468532 25.564562872896204,155.9427672074671 25.59138552614604,156.19212476589746 25.80596675229026,156.6362908747833 26.04737063171342,157.2908466889421 26.322302827698877,158.7479922113489 26.536884053843096,159.3401930422042 26.617352013650816,159.51941079831158 26.771582269953797,160.0492695000139 26.838638903107494,160.47782896276476 27.16051074230927,161.2881892925725 27.220861712179612,161.70894987667998 27.214156048896257,162.14529170742026 27.214156048896257,162.8699252435472 27.455559928290313,163.3062603596336 27.81096008408349,163.62571839805605 28.260239526309306,163.76596784131107 28.608934018790023,163.74259295221418 28.78998692834284,163.79713434885343 28.850337898213184,164.13996508206765 28.836926571588265,164.35033771528833 29.044802134420024,164.436044916205 29.58796086307848,164.28021356938552 29.916538365592714,164.34254614674865 30.204881888232194,164.28800514438626 30.52675372743397,164.0386743457493 30.89556520988117,163.85946732529555 31.700244807929266,163.26730196973222 32.67256598890526,163.17380175185826 33.22913604421774,163.19717681720067 33.450422933645314,163.54001027661434 33.61135885328986,163.680259879191 33.85946839599637,164.0620491431182 33.960053345770575,164.5918759411652 33.966759009083034,164.86457946038718 33.993581662361976,165.45673227977386 34.02710997892427,165.65930980898702 34.174634571914794,165.89305243611307 34.29533651159727,166.1034201814109 34.69767631063587,166.32937006936845 34.89884621012607,166.4150750222907 35.08660478302045,166.44624043557997 35.281069019198185,166.46182313740428 35.535884225246264,166.4150750222907 35.84434473782312,166.3683268782188 36.03880897402996,166.38390959612298 36.253390200203285,166.4228663768008 36.3338581599819,166.77347649794683 36.46126576300594,166.9838417886349 36.70937530574156,167.29549299311475 36.890428215265274,167.58376921125455 37.084892451472115,167.84087950369576 37.333001994207734,167.85646191750857 37.86945505955373,167.7395937354886 38.13097592894337,167.86425312319625 38.50649307470303,167.79413224295422 39.08988578323624,167.88762673545716 39.445285939087626,167.88762673545716 39.72692379838554,167.9499563327845 40.05550130092888,167.90320913961477 40.36396181350574,168.23043888359825 40.36396181350574,168.5498760744449 40.390784466755576,168.81477418268332 40.350550486851716,169.0329248677226 40.43101844665944,169.7964472990643 40.26337686373154,170.34960668381245 40.370667476789095,170.6924076478681 40.47795808990486,170.89497112195386 40.779712939140154,171.24556046535145 41.269226361298934,171.5494032455681 41.73862279349123,171.49486745202012 42.16107958246721,171.54161242031842 42.50977407491882,171.635102270091 42.83835157746216,171.76754602566507 43.48209525589482,172.14150361033535 44.06548796448624,172.5388315137534 44.380654140375555,172.74918073343724 44.56170704992837,172.8816225339324 44.76287694944767,172.9984827531298 45.47367726106313,173.27115589430468 45.73519813042367,173.72301207364217 45.922956703288946,174.05800715006626 46.251534205832286,174.43974391298252 46.58011170834652,174.56439223374764 46.74104762796196,174.76694531597605 47.02939115060144,174.9071740544532 47.37808564308216,175.30448739876738 47.619489522476215,175.43692471545364 48.062063301418675,175.77191218510416 48.49122575370711,176.09910781325016 48.55157672351925,176.34060843856423 48.56498805020237,176.5275761339799 48.79968626628397,176.62885010895843 48.95391652255785,176.91709067865304 49.19532040198101,177.15858868695796 49.51719224121189,177.36113480783388 49.7653017839184,177.3845054791309 49.9329433668463,177.74285486609006 50.05364530655788,177.8129665037195 50.44257377894246,177.94539941928815 50.938792864384595,178.72441186686046 51.113140110624954,178.8957935264698 51.41489495988935,178.9814842103806 51.79041210564901,179.1528652863999 52.03181598504307,179.42551619638107 52.17263491472113,179.5657362809361 52.36039348758641,179.70595610504097 52.61520869366359,179.83059573002538 52.829789919778705,179.83059573002538 53.13825043235556,179.90070542867034 53.56070722133154,180.14998382981867 53.84905074397102,180.1655637025833 53.94293003040366,180.0409246305935 54.27821319625946,180.47716048221628 54.633613352052635,180.72643697995227 55.78028177926899,181.07698066237208 55.96804035213427,181.18603836492548 56.162504588312004,181.24835698134848 56.383791477797786,181.2873060905331 56.74589729690342,181.25614680480794 57.39634663864854,181.1237196970178 57.64445618138416,180.62516850203247 57.98644501058152,180.3369420905292 58.489369759336114,180.360311840559 59.09287945786491,180.49274028744549 59.49521925690351,180.80433571668982 59.68297782976879,180.9367633846996 60.18590257852338,181.0068720560812 60.8698802368599,181.6923756345932 61.41974462885992,182.0117558581842 61.94949203089345,182.19091978231154 62.69382065910031,182.43240092038468 63.35768132749945,182.57261542031483 64.24282888529706,182.5804051071391 64.94692353360006,182.47913911596697 66.03994665425853,182.27660672615457 66.36852415680187,182.24544784873433 67.2335547246912,182.1597608695156 67.79012478000368,182.11302247623098 68.21928723229212,182.35450386344746 68.42045713181142,182.51029789692984 69.04408382027759,182.6583019309619 69.65429918211885,182.77514701605105 70.13710694093606,182.6037741627224 71.02896016210434,183.02441592654213 71.61905853400822,183.18799820182176 72.67184767479193,183.30484246717242 73.37594232306583,183.46063453968964 73.53687824265216,183.81895508653542 73.67769717233023,184.18506345419883 74.16050493114744,184.19285297463648 74.69695799652254,184.12274726165197 74.96518452919554,184.10716820546077 75.5418715744454,184.06822055098746 75.78998111715191,184.15390536433551 76.05150198654155,184.30969568494038 76.21914356946945,184.4499066986682 76.66171734841191,184.81601200700243 77.08417413738789,185.18990495782054 77.52674791627214,185.26779908953176 77.7681517956953,185.66505791139934 77.65415551932529,185.93768530531815 77.34569500671932,186.0 77.55357056955108,185.82084511416178 77.84861975550302,185.4781128438044 78.371661494195,185.00295871383423 78.65329935352202,184.8627487271151 78.83435226310394,184.88611707629752 79.0422278259066,184.9562220805019 79.40433364504133,185.18990495782054" stroke="#ffc400" stroke-linecap="round" stroke-linejoin="round" stroke-width="0.5"><title>2024-03-28 21.8km</title><desc>9223370325245023807</desc></polyline><polyline fill="none" points="144.54615732413367,114.0 144.74508167701424,114.15434928640025 145.1429303828627,114.4707643204747 145.38827041813056,114.64054744147143 145.85242724162526,114.81033017425216 146.08450565335806,114.85663448855485 146.21712188862148,114.87206925357896 146.9531419944251,115.01098199433909 147.0923890414997,115.02641672727623 147.48360693556606,115.08043826727226 147.66926966494066,115.11902505749458 148.06048755906522,115.15761182766437 148.69041467658826,114.82576494890964 148.93575471188524,114.81804756198835 149.28718773537548,114.98782988891617 149.8309143000224,115.24250265146839 150.26854787644697,115.25793733628234 150.55367278232006,115.21163327223621 150.9117366175633,115.35054537776159 151.38915506456397,115.43543598101678 151.62123347629677,115.497174540571 152.03234380568028,115.63608611198288 152.66890173504362,116.02966748640756 153.11979693497415,116.3615089852101 153.45796833492932,116.60845983587933 154.06137220546952,116.98660173445387 154.71119175833883,117.31843895713246 154.9101161112485,117.43419577900204 155.27481075827382,117.58853792747686 155.77875245234463,117.78146516199195 155.92463031114312,117.92037246048858 156.1235546640819,118.00526012611226 156.56118824050645,118.19818627806671 156.87946720517357,118.33709279712639 157.39667052277946,118.52230108507501 157.6619029933354,118.63805603047513 157.81441166391596,118.68435795813275 158.24541442855843,118.9621689178166 158.43107715796214,119.17052645561489 158.65652475794195,119.23997883829725 158.90186479320982,119.30171423507272 159.1936205108068,119.56408909879974 159.3726524284284,119.9344990931495 159.6975622048776,120.14285390316945 159.8898557460343,120.32805768802064 160.1749806519074,120.51326101104496 160.46673636950436,120.71389742319298 160.70544559299015,120.81421542602038 161.08340186357964,121.02256776817376 161.55418949882733,121.23863624638761 161.71995979291387,121.30036998186552 161.8857300870004,121.34667024980445 162.25042473402573,121.39297048885783 162.53554963989882,121.42383729889843 162.93339834574726,121.36210366603336 163.63626439272775,121.41612059758336 164.10705202797544,121.49328757449257 164.27282232206198,121.54730441064748 164.7701332043507,121.79423801846133 165.1016737925529,122.07975397915288 165.37353707489092,122.61219973082916 165.51278412190732,122.7665311192759 165.69181603955803,122.9285787320332 165.95041769833188,123.11377557088417 166.13608042773558,123.2681059171955 166.3615280277154,123.4378689278019 166.51403669829597,123.56904917025531 166.34163559242734,123.97802138032421 166.22891179245198,124.12463351111364 166.15597286302363,124.4487224576369 166.42783614536165,124.64163187354279 166.78589998060488,124.62619913872186 166.99808595707873,124.57990091496322 167.1970103099593,124.95800223112747 167.31636492174584,125.26665494003828 167.44235034522717,125.55215755398967 167.46887359232642,125.79907784877287 167.62801307465998,126.07686219939205 167.78052174521144,126.43952353829081 167.84019905107561,126.5784146460137 168.04575421576737,126.96422191616148 168.1253239569487,127.13397648031969 168.218155321636,127.36545935174217 168.30435587457032,127.64323784537555 168.49001860397402,128.2836676369334 168.5430650980852,128.48428306261485 168.78840513335308,128.76977331130183 168.6358964627725,128.9240919078875 168.42371048629866,129.11698970288126 168.218155321636,129.32531875891436 168.15847801574273,129.49506792826287 168.1253239569487,129.64166917147668 168.3109866863233,129.8962916958917 168.5430650980852,130.12776596087497 169.13320734509034,130.58299657826137 169.27908520388883,130.71416420464084 169.65041066266713,131.0382244065404 169.72998040381935,131.14624415973958 169.7565036509186,131.470302477137 169.78965770971263,131.64004674601892 169.95542800379917,131.80979062712868 170.2737069684954,131.88694680853223 170.43284645082895,132.25729536404833 170.41958482732298,132.7819526579333 170.24718372142524,133.46863087196834 170.10130586262676,133.89297940492543 170.05489018026856,134.1553027405389 170.02173612147453,134.34047159639886 169.96205881558126,134.53335533059726 169.9487971920753,134.7185232444026 169.9355355685111,134.8496835708429 169.9355355685111,134.98084366582043 169.67693390973727,135.14286463997996 169.46474793329253,135.29717000125675 169.1464689685963,135.50548173073912 168.69557376866578,135.95296421227977 168.3640331804636,136.36958341086574 168.20489369813004,136.42358943227737 167.95292285108007,136.32329250412295 167.73410606288235,136.51617109194194 167.44898115700926,136.81706068935455 166.93840865118545,137.3725459764537 166.38805127478554,137.93574209824146 166.0299874395132,138.31377545746363 165.82443227485055,138.52979365655483 165.65203116898192,138.7149516132049 165.30722895721556,139.08526614269795 165.02873486315366,139.29356725471735 164.83644132199697,139.21641876276408 164.23303745145677,138.86153466840915 164.0341130985471,138.75352612944698 164.34576125146123,139.0389769274043 164.869595380791,139.33214147062972 164.9624267455074,139.4710084822509 164.71045589848654,139.84131924481335 164.3126071926381,140.4276408456717 163.92802011032472,141.03710181776842 163.85508118092548,141.13739238498965 163.5633254632994,141.53855330070655 163.03949133394053,141.9088537628122 162.76099723984953,142.00142859011248 162.52228801636375,141.99371402554243 162.18411661637947,141.87028088406078 161.76637547524297,142.05543051943096 161.38841920471168,142.2482942325223 161.44809651057585,142.61859115899279 161.3817883929587,143.23574860393273 161.12318673415575,143.90690150942828 160.84469264006475,144.52404825876874 160.69218396948418,144.9020481126936 160.46673636950436,145.62718530946586 160.3540125694999,145.742898037548 160.3075968871999,145.98203710483358 160.360643381282,146.0668927180086 160.41368987539317,146.31374486017012 160.42032068717526,146.99258402490523 160.4998904283566,147.4477113576213 160.5927217930148,147.84883822236588 160.71207640477223,148.5893744408677 160.83806182831177,149.35304469124821 160.95078562828712,150.0704247513495 161.06350942829158,150.7029476648022 161.16960241648485,151.3277516016824 161.24917215766618,151.74428464299126 161.30221865177737,152.16852886071865 161.2425413458841,152.26109091383114 161.24917215766618,152.54648985233507 161.3353727105714,153.00158319106413 161.39505001646467,153.49524061278498 161.52766625172808,154.25886048183747 161.63375923997955,154.62909759588365 161.71332898113178,155.0996046020664 161.71995979291387,155.34642675922078 161.82605278113624,155.63952700686787 161.9785614516877,156.15630620871525 162.1244393105153,156.61137745795713 162.316732851672,157.08958492284728 162.6416426280921,157.66805758561532 163.03949133394053,158.223387109123 163.55669465154642,158.81727659477474 164.09379040444037,159.32632095119334 164.6839326514164,159.80451096109027 164.88948781607905,159.98190324753523 165.2011359690223,160.421525786267 165.11493541608797,160.64519239646324 164.88948781607905,161.3239007520824 164.64414778081118,162.04116535223147 164.57120885141194,162.36508903375943 164.4916391102597,162.6041746558767 164.41870018086047,162.82783470350842 164.2197758279508,163.42168742904323 164.04074391030008,163.83044044674898 163.77551143977325,164.53225642742473 163.58984871036955,165.079822539803 163.35113948688377,165.79705092844233 163.13232269862783,166.4757122844676 163.0129680868995,166.59139257991046 162.9599215927592,166.8844485233858 162.48250314575853,167.4011496119856 161.9387765811116,167.9872539659409 161.64039005173254,168.14920303912368 161.3353727105714,168.39598190140532 161.22927972237812,168.5733537031483 160.9574164400401,168.94351957956678 160.61261422830285,169.59130543233914 160.39379744010512,169.90748457435984 160.20813471070142,170.33162521596387 160.00921035779174,170.73262869017344 159.49863785196794,170.88686022024922 159.02785021672025,170.99482210108545 158.87534154613968,171.7659738378352 158.8222950520285,172.0744322950195 158.67641719323,172.37517805976677 158.59684745204868,172.53711758353893 158.11279819329502,173.11547014892858 157.7547343580227,173.53959250700427 157.25079266395187,174.10251481291198 156.78663584048627,174.68856638839497 156.33574064052664,175.1358131701927 155.87158381706104,175.6910123327907 155.58645891118795,176.05343177422765 155.21513345240965,176.5160923265721 155.10240965240519,176.71657767277065 154.75097662894404,177.08670304705447 154.31334305251949,177.65730939315836 153.86907866431284,178.21248974764603 153.378398593748,178.83706269687536 152.94076501735253,179.38452356461494 152.73520985266077,179.70066110508196 152.6291168644384,179.8317421305619 152.4500849468168,179.84716341247986 152.27768384094816,180.29437919901102 151.93288162924,180.6028023139952 151.45546318221022,181.23506570491008 150.97141392345657,181.7902193767586 150.60008846464916,182.2605546648192 150.15582407647162,182.76172834102908 150.03646946471417,182.8311213533525 149.81102186473436,182.74630766285554 149.38664991184487,182.45331417032867 149.10815581772476,182.23742349062377 148.82966172366287,181.99840093639068 148.66389142957632,181.85190286250872 148.1599497355055,181.39698595354275 147.71568534729886,180.93435573743773 147.4172988179489,180.7261712022082 147.02608092385344,180.3560639242496 146.89346468856093,180.21727322060906 146.7608484532975,180.00137605616328 146.47572354745353,179.8086102016532 145.91873535927152,179.3151273394251 145.38827041813056,178.85248418488482 144.92411359466496,178.4052597355476 144.3406021594128,177.93490008801746 144.1151545594621,177.7344180233631 143.8830761477293,177.53393541870173 143.70404423007858,177.30260866541357 143.43218094774056,177.0404374759164 143.14705604192568,176.80910918890004 142.84866951251752,177.0250156124821 142.43092837138101,177.510802775716 142.27178888904746,177.69586371822516 141.94024830084527,178.08911669338704 141.54239959499682,178.62116152930685 141.21748981857672,178.98356670392968 140.91247247744468,179.34597011415462 140.7665946186171,179.5156051467784 140.52125458334922,179.79318891172443 140.09688263045973,180.27124741388252 139.79186528929858,180.61051287549344 139.4603247011255,180.98832941079309 139.20835385407554,181.25819719056744 138.97627544231364,181.5203535256005 138.65136566589354,181.9752696807409 138.45244131298386,182.15260912373924 138.08774666592944,182.56125927539688 137.85566825419664,182.83883168405737 137.63022065427504,183.07014123406407 137.5108660424885,183.20121632674272 137.19921788957436,183.44794528689818 136.9936627248826,183.59444022010575 136.7085378190386,183.7640655721334 136.44993616023567,183.85658832854824 136.1581804426387,183.94140075422183 135.76033173679025,184.11873551394092 135.4088987133,184.27293930947053 135.26302085450152,184.32691056245676 135.137035430962,184.37317160530802 134.85854133687099,184.43485295103892 134.64635536042624,184.51966471800552 134.55352399570984,184.57363579213416 134.16230610167258,184.71241837452544 133.98990499577485,184.7432589132659 133.53900979584432,184.92059176308248 133.34008544293465,184.96685243705724 133.0416989135265,185.0979241905443 132.9024518665101,185.1750251142148 132.51786478419672,185.2906763500141 132.0072922783438,185.45258777836716 131.92772253716248,185.4294575958629 131.66912087838864,185.5759486303068 131.51661220780807,185.61449885460752 131.32431866665138,185.68388920807774 131.09224025491858,185.7378594382899 130.91320833729696,185.77640957877156 130.69439154907013,185.84579978136753 130.54188287848956,185.86121981759788 130.40263583147316,185.96144997527153 130.21697310206946,186.0 130.03794118441874,185.9768699875567 129.75281627857476,185.56823858303687 129.70640059624566,185.44487771832064 129.57378436098224,185.18273520218645" stroke="#4dd2ff" stroke-linecap="round" stroke-linejoin="round" stroke-width="0.5"><title>2024-03-06 18.6km</title><desc>9223370327137444807</desc></polyline><polyline fill="none" points="29.021662313723937,255.81820719412644 28.88523582732887,255.78391297687267 28.494392379783676,255.72389802834732 28.21785220464517,255.74104516537045 27.701643877706374,255.732471597752 27.4140420955664,255.74533194851756 27.100629897075123,255.732471597752 26.739284068215056,255.72389802834732 26.363189430034254,255.78819975558508 26.175142110936577,255.75390551347664 26.02027961285785,255.6896037330116 25.773237056389917,255.73675838178679 25.625748962978832,255.7496187312281 25.448763250897173,255.69817730949944 25.293900752818445,255.59958107263083 25.142725457058987,255.44525605676608 25.102166231386946,255.27806997398147 25.002611768330098,255.06372785496205 24.88830849592341,254.48071167902162 24.77769242587965,254.33066942347432 24.519588262410252,254.35210406468832 24.35735135966388,254.36067791807727 24.158242433564737,254.37353869482104 23.981256721468526,254.38639946756302 23.715778153331485,254.3778256195037 23.19956982640724,254.36925176968725 22.908280841918895,254.33495635261352 22.5838070364116,254.3778256195037 22.170840374878026,254.36925176968725 21.923797818410094,254.43355560013515 21.51451835919579,254.43784251861143 21.35596865878324,254.33495635261352 21.16054693501792,254.3778256195037 20.736518666453776,254.41212100107805 20.42310646797705,254.39497331384337 20.235059148879373,254.3778256195037 19.60086034721462,254.4464163542434 19.139960055312258,254.39068639091784 18.86341988017375,254.24921768568674 18.68274696575827,254.2063482856538 18.184974650488584,254.0777398193204 17.831003226310713,253.93198307465354 17.355354125073063,253.77765184466625 17.100937163922936,253.75192991708172 16.45567675527127,253.52471886290732 16.182823782466585,253.34037690296827 16.19019818713423,253.02742239419604 16.293439852524898,252.53869418398244 16.337686280545313,252.3714963668026 16.34874788756133,252.1399905823382 16.112766938094865,251.88704759743632 16.13857735444617,251.79272947875506 16.149638961447636,251.79272947875506 16.201259794150246,251.64267748353814 16.463051159938914,251.20966724859682 16.341373482893687,250.93528218158463 16.042710093723144,250.69090645038523 15.655553848526324,250.18928858841537 15.600245813504444,249.77770016249997 15.511752957449062,249.42184437109245 15.401136887390749,249.13029758771881 15.102473498234758,248.71012361173416 14.855430941781378,248.4700222821375 14.96604701182514,248.17846879548597 15.213089568307623,247.92550160657265 15.312644031335367,247.6982585764381 15.327392840685206,247.36382316882373 15.076663081898005,246.82357564867198 15.043478260879056,246.38622725355526 14.951298202504404,246.06464460312054 14.704255646036472,245.8974206374587 14.42034106621577,245.73448381593698 14.15854970041255,245.52438012557468 14.007374404682196,245.28854818226682 14.165924105094746,244.73112188346568 14.4166538638965,244.36664678259694 14.637886003998574,244.09221635306676 14.932862190820742,243.78347994458818 15.006606237526285,243.20888105202175 14.958672607172048,242.90871427891398 14.969734214173513,242.54422312726456 14.984483023508801,242.27835696814873 14.88861576281488,241.9095720483856 14.785374097409658,241.61368409679926 14.693194039020455,241.19772209409348 14.818558918414055,240.97901874525996 15.168843140272656,240.62308729420693 15.342141650035046,240.21569211631868 15.124596712252242,239.9798299166614 14.851743739447556,239.70965883575263 14.796435704425676,239.14786887613081 14.564141957293032,238.84338410715281 14.350284221858601,238.50887712971962 14.431402673231787,237.79696866119048 14.556767552625388,237.2994831822034 14.490397910602042,236.86203411060706 14.516208326938795,236.41600284299784 14.641573206332396,235.98712208833967 14.674758027351345,235.82414623553996 14.604701182994177,235.53250363304323 14.5420187432901,235.19368096837934 14.61576278998109,234.9320565054477 14.833307727778447,234.45169252688356 15.006606237526285,234.1729073021088 15.408511292058392,233.9927681574154 15.563373790151672,233.906987336537 15.681364264863078,233.56815135458965 15.762482716250815,233.10063892294784 15.729297895246418,232.8132662732969 15.574435397138586,232.44010776291543 15.537563373800367,231.88250831121331 15.55968658781785,231.6551771463637 15.780918727934477,231.41926612552197 15.921032416663365,231.25627227036966 16.171762175450567,231.09327777268481 16.48886157629022,231.11043511848766 16.743278537411243,231.11472445383333 16.960823475194047,231.12330312316408 17.388538946092012,231.07183108042227 17.639268704879214,230.7887336999629 17.576586265175138,230.56139652151614 17.432785374112427,230.3898204648067 17.506529420803417,230.12816560751162 17.54340144415619,229.85364069847128 17.344292518057046,229.43756040820153 17.08987555692147,229.14587275953818 16.77277615609637,229.00002816347114 16.24550622217066,228.84989348303498 15.839913965275628,228.51959526687278 15.592871408822248,228.05631540023387 15.360577661718708,227.87185993418825 15.312644031335367,227.54584360921945 15.338454447701224,227.4128625278645 15.308956829001545,226.9624395577448 15.463819327094825,226.30181032327891 15.55968658781785,225.95004239708942 15.548624980801833,225.59827147717806 15.607620218157535,225.1478287328573 15.59655861115607,224.95478033965628 15.662928253193968,224.65019104113526 15.832539560622536,224.36704968002596 15.994776463368908,224.23834842008728 16.109079735761043,224.08819644361574 16.12382854509633,223.52619420381234 15.935781225998653,223.64202735178696 15.703487478880561,223.39749032528562 15.497004148113774,223.20014359972265 15.356890459370334,222.83547869239192 15.45275772009336,222.56948578915762 15.607620218157535,222.37642535159466 15.795667537269765,221.98601148826856 15.862037179293111,221.56127133770133 15.88047319096222,221.36820618962884 15.957904440016137,221.11936533482003 16.131202949778526,220.93916929755505 16.40036872024939,220.5916461493216 16.728529728090507,220.4500618064776 16.901828237823793,220.42431914655754 17.148870794291724,220.0810821484265 17.344292518057046,220.00814391898894 17.77200798894046,219.90517208174424 18.044860961759696,219.86655757662083 18.380396374253905,219.75071384469265 18.44307881395798,219.50186324818424 18.328775541565847,219.29162623135562 18.199723459823872,218.86256777540257 18.255031494860305,218.37343570017038 18.203410662157694,218.2661691199246 17.996927331390907,218.18464633268013 17.89368566601479,217.99156540536205 18.05592256874661,217.88000712492067 18.21078506685444,217.60969158059743 18.328775541565847,217.24926810329998 18.3877707789361,217.0905091454042 18.454140420959448,216.90171391476906 18.57581809803378,216.6056469291434 18.642187740071677,216.40826775979804 18.778614226466743,216.16368791545028 19.202642495001783,215.8161245927513 19.398064218796208,215.6401963639437 19.63404516823357,215.2583008007132 19.873713320033858,214.91931189307797 20.150253495172365,214.60177545589613 20.216623137210263,214.21987029090087 20.28299277923361,214.02677082957598 20.341988016603864,213.81650594488747 20.68858503611409,213.42601117601225 21.01674604395521,213.08700722871072 21.23429098172346,213.00976543374054 21.330158242446487,212.89390247037954 21.52926716854563,212.81236907907805 21.717314487643307,212.7480004985482 21.927485020743916,212.71367054790608 22.185589184213313,212.6278455464526 22.484252573369304,212.2373395376926 22.650176678449498,212.02277422466432 22.904593639585073,211.67088469776718 25.419265632212046,208.6968692889095 25.74373943770479,208.56811919537722 26.226762943624635,208.33207631438563 26.488554309427855,208.19044993799616 26.720848056545947,207.98444706863665 26.993701029350632,207.8256524885801 27.281302811490605,207.56385468512235 27.56890459364513,207.370724093842 27.926563220156822,207.2763043647974 28.652942080196226,207.20334351717975 28.796742971258936,207.21621897024306 28.933169457683107,207.2462616784469 29.172837609483395,207.24196986433526 29.666922722404706,207.18617624017133 29.85128283915401,207.16900895603612 30.20156706101261,207.01450307745472 30.577661699193413,206.85570476630528 30.73252419725759,206.649695236134 31.04962359809724,206.5853170471055 31.510523889999604,206.4308089838123 32.00829620526929,206.091747595583 32.20371792902006,205.8170629098422 32.42126286680286,205.57671231032873 32.73098786296032,205.4222004715739 32.96328161007841,205.37928041372288 33.09970809648803,205.40074044823996 33.29881702258717,205.50374845854822 33.545859579055104,205.67971988148565 33.84821017054492,206.03595241672883 34.23167921339336,206.4222251855499 34.60777385158872,206.5381063113564 34.77369795668346,206.56814951308843 35.06498694115726,206.51664686816002 35.52588723305962,206.42651708490666 35.78399139652902,206.35784664177118 36.37025656783953,206.17758618501102 36.62836073129438,206.16900233408887 37.2072514979227,206.10462339536025 37.62759256413847,206.07457985626388 37.8082654785685,206.10891532774258 38.20648333076679,206.13895884184603 38.34659701952478,206.10462339536025 38.49039791058749,206.16900233408887 38.66000921801606,206.18617003412874 39.00291903517791,206.12608305276808 39.28683361498406,206.1647104079675 39.44538331541116,206.20762964913592 39.673989860195434,206.22908925297088 39.980027654004516,206.23767309139657 40.10907973574649,206.16900233408887 40.363496696882066,206.1432507706486 40.89445383315615,206.1518346269222 41.37747733906144,206.14754269900732 41.572899062841316,206.11320725965925 41.783069595956476,206.06599598394314 42.21447226917371,206.04024435623796 42.656936549406964,206.01449271246383 42.8966047011927,206.04453629529962 43.31694576740847,206.03595241672883 43.67460439392016,206.06170404711156 43.91058534337208,206.07028792032725 44.10969426947122,206.10462339536025 44.42310646797705,206.22050541278077 44.67014902443043,206.23338117240928 44.943001997235115,206.2720084272005 45.09417729299457,206.30205182260033 45.4739591335092,206.40934948483846 45.614072822238086,206.45226847163212 45.93854662774538,206.5423981986496 46.384698110312456,206.67115461015783 46.76447995084163,206.75699199471637 47.25487786141457,206.82566177386252 47.90382547242916,206.85570476630528 48.44584421570471,206.7827431752812 49.21646950376453,206.649695236134 49.64049777231412,206.62823585094884 49.85066830541473,206.61965209375194 50.02765401751094,206.60677645461328 50.21201413428935,206.52093875768333 50.69503764019464,206.32351137736623 51.09325549239293,206.16900233408887 51.25180519282003,206.0102007702808 51.76801351974427,205.8127709471155 52.36902750037552,205.74839145279475 52.97741588570352,205.68830383415843 53.301889691196266,205.65825999202934 53.53787064066273,205.6239241456933 53.86971885082312,205.58958827078095 54.146259025961626,205.50374845854822 54.3416807497415,205.46941248367875 54.61084652019781,205.3578203680663 54.96113074205641,205.2290598597756 55.2339837148611,205.09600691255037 55.565831925036036,204.93290916631668 55.77968966047047,204.82560766599636 56.008296205240185,204.70972173233167 56.24058995237283,204.67538509690712 56.45076048547344,204.71401380974567 56.63880780458567,204.70972173233167 57.08127208480437,204.46507258160636 57.30619142725482,204.46078047830088 57.4868643416703,204.4736567868822 58.04731909664406,204.48653309143992 58.42341373482486,204.4822409903718 58.64833307727531,204.5122856885282 58.8880012290756,204.36206197902357 59.22353664156981,204.3706462057271 59.51113842372433,204.27192749087408 59.75080657551007,204.20754559310808 59.84667383621854,204.45648837454064 59.84298663388472,204.7826869877681 59.780304194195196,205.02733425583938 59.66968812413688,205.19901568336718 59.393147948983824,205.3578203680663 59.20878783223452,205.6711359270521 59.25303426026949,205.8943181624636 59.42633277000277,206.06170404711156 59.621754493782646,206.18617003412874 59.82455062223016,206.25484076286375 60.10109079735412,206.40505758371 60.21170686739788,206.50377119687982 60.39237978182791,206.64540335999482 60.60992471962527,206.73982453209464 60.81272084804368,206.74840826430227 61.00814257183811,206.86858032780583 61.339990781998495,206.9329580750491 61.741895836545154,206.9114988371366 62.10692886772449,206.89003958804096 62.43508987556561,206.73982453209464 62.89599016745342,206.45226847163212 63.113535105250776,206.37930616752783 63.360577661704156,206.47801984228136 63.72561069288349,206.58960892950563 63.89890920264588,206.62823585094884 64.1017053310643,206.67973835664816 64.27500384084124,206.649695236134 64.94238746349583,206.38788997469237 65.08250115225383,206.32351137736623 65.59502227684425,206.03166047676496 65.93055768933846,205.8127709471155 66.314026732216,205.64109207243746 66.71961898908194,205.72263962693978 67.17683207865048,206.00590882765027 67.54186510984437,206.0574121098216 67.88477492702077,206.0831637268093 68.31249039791874,206.06599598394314 68.85082193886046,206.18617003412874 69.1752957443532,206.37072235855885 69.51820556152961,206.5423981986496 69.86848978337366,206.76557572335878 70.19296358888096,206.92437438122943 70.69442310646991,206.91579068560895 70.98202488862444,206.88145588528278 71.33599631280231,206.84282920078476 71.608849285607,206.84282920078476 71.85589184206037,206.84282920078476 72.09924719617993,206.80420248015798 72.34260255029949,206.73982453209464 72.8366876632208,206.7183651937521 73.02842218466685,206.57244139725663 73.29390075280389,206.40505758371 73.56675372560858,206.28488417077097 73.84329390074708,206.23338117240928 74.34844062066986,206.07457985626388 74.6139191888069,206.10033146255228 74.846212935925,206.16900233408887 75.07113227837544,206.1647104079675 75.46566292825446,205.9672813238285 75.84913197111746,205.97586521670382 76.11092333690613,205.8256468339314 76.4907051774353,205.64109207243746 76.73037332923559,205.70976370798962 77.18389921647031,205.63680009141535 77.61530188968754,205.4222004715739 78.00983253955201,205.31490024326922 78.45598402211908,205.1603874244356 78.80258104164386,205.28914814695963 79.15286526348791,205.50374845854822 79.38884621293982,205.64109207243746 79.75756644646754,205.8428146767801 80.14103548931598,206.07028792032725 80.41757566446904,206.25054884566634 80.73836226762796,206.44797657495292 80.91534797970962,206.58102516427243 81.05546166845306,206.7698675870124 81.28775541557116,206.941541767108 81.61591642341227,207.1175070607569 81.8371485635289,207.2248026033958 82.27592564141378,207.51235328246185 82.52296819786716,207.77415141252277 82.80319557535404,208.07886517802763 82.93962206176366,208.4393687003212 83.19035182055086,208.78270246152897 83.50376401904214,208.66253596988827 83.87985865723749,208.61961928096935 84.23751728376374,208.65824430300927 84.45506222154654,208.80416072680237 84.70947918266756,209.01445113625596 85.008142571809,209.26336493049894 85.19250268858741,209.7483133576352 85.31418036564719,209.92426668840199 85.82301428790379,210.12167684986707 85.95206636963121,210.1731749976243" stroke="#ff6f00" stroke-linecap="round" stroke-linejoin="round" stroke-width="0.5"><title>2024-03-06 36.2km</title><desc>9223370327144915207</desc></polyline><polyline fill="none" points="122.41700713409227,194.0 122.42331470164936,194.0146654204218 122.30977848585462,194.10999057918525 122.39808443147922,194.50595525079552 122.41700713409227,194.90191771001264 122.39177686395124,195.3418734033694 122.31608605341171,195.75249625303695 122.20885740520316,196.14845174780203 122.09532118940842,196.56640237019747 122.05747578412411,196.97701812531886 122.0637833517103,197.41696093743667 122.13947416222072,197.76891322098527 122.24039524290129,198.14286060733866 122.4106995665934,198.50947377675766 122.4926979446318,198.8540884270551 122.43592983673443,199.55797697466915 122.6188492954825,200.0272321232478 122.53054334988701,200.41583169166552 122.67561740337987,200.83375715184957 122.74500064633321,201.20768836978823 122.74500064633321,201.5302941101254 122.62515686303959,201.8748940746882 122.2782406481565,202.56408897846995 122.09532118940842,202.95267464053904 121.92501686577452,203.33392642764375 122.05116821659612,203.67851762496866 122.22778010781622,203.99378044476907 122.47377524198964,204.31637350680103 122.72607794372016,204.60963865309895 123.2243757796241,206.01729446965328 122.85853686212795,205.51142137773422 122.95945794280851,205.9293167999058 123.0540714559611,206.3398783247976 123.14237740155659,206.75043747234304 123.24329848223715,207.09501206485584 123.38206496823113,207.5275607786607 123.47667848135461,207.94544431819668 123.49560118396766,208.33400048748445 123.49560118396766,208.71522333900066 123.45775577868335,209.0964441409742 123.3946801032871,209.47766289349238 123.30006659013452,209.8222242334159 123.19914550945396,210.18144597543142 123.23699091473827,210.56998989274143 123.2243757796241,210.93653880659986 123.28114388749236,211.39105682856461 123.28745145504945,211.98485824252566 123.23699091473827,212.6299701931348 123.38837253573001,213.06981588592316 123.57759956203518,213.40702906967635 123.77313415586832,213.71491796762712 124.05697469529696,213.94216843973845 124.42281361282221,214.11810378903465 124.78865253028926,214.21340192101343 125.03464766449179,214.4699731783403 125.13556874517235,214.84383249178063 125.13556874517235,215.21035931738152 125.1986444205977,215.58421472824557 125.35633360920474,216.15598978041817 125.81678603982436,217.37282903644518 125.89878441789187,217.75400330490083 126.01232063365751,218.13517552510166 126.15108711959329,218.4650344470865 126.28985360555816,218.8168822732332 126.46015792922117,219.1394079141537 126.62415468532708,219.52057269016223 126.81338171163225,219.91639548221428 126.94584063004004,220.2975560834675 127.05937684580567,220.7226943381611 127.12245252126013,221.2797681948141 127.07199198089074,221.64626176760794 127.02153144055046,221.9467850845831 126.96476333265309,222.32060499498039 126.93322549495497,222.71641216504213 126.88276495461469,223.1122171270108 126.82599684671732,223.48603089696553 126.82599684671732,223.9038204268727 126.86384225197253,224.35092579521734 126.92691792739788,224.6954148950681 127.10352981861797,225.19382169617893 127.23598873699666,225.58228339291236 127.3936779256037,225.96341355681216 127.52613684398239,226.3298829377527 127.62075035716407,226.72566774335428 127.67751846506144,227.06281602178933 127.72797900537262,227.4072919561586 127.72797900537262,227.88369208866789 127.70905630275956,228.3014557267452 127.8225925185543,228.6972295363521 128.1190481930389,229.08567205508007 128.67411413684022,229.29088611231418 129.07779845962068,229.27622798504308 129.29856332359486,229.5107576579685 129.35533143149223,229.7232995045997 129.4562525122019,230.1190653849335 129.76532332180068,230.28763166376302 130.24469845506246,229.93584071470104 130.5726919673325,229.69398342568456 130.71145845326828,229.54740284936997 130.8754552093742,229.45212531241123 131.15298818127485,229.18095008402452 131.50621196368593,228.96840661310125 131.87835844871006,228.81449542644987 132.26942763637635,228.74120426784793 132.64788168895757,228.71188778323267 133.0641811468231,228.67524216041784 133.4552503344894,228.77784985661856 133.74539844147512,229.07834297064983 133.91570276516723,229.47411244767136 134.02923898093286,230.01645962787734 134.0607768186601,230.39023702877603 134.02923898093286,230.77867028112087 134.14908276425558,231.16710140756913 134.36984762822976,231.56285923680844 134.72937897819793,231.8266965636576 135.0889103281661,232.0612178085721 135.48628708336037,232.2371082337486 135.86474113594159,232.27375201747054 136.25581032360788,232.21512195445393 136.6279568086611,232.0612178085721 136.91810491564684,231.84868296326022 137.29655896825716,231.79005254912045 137.6623978857242,231.94395728296513 137.84531734447228,232.25909450624022 137.82008707430214,232.65484624660166 137.90839301992673,233.01395239768317 138.19854112688336,233.33641351577535 138.53914977420936,233.570929772417 138.93652652943274,233.63688732999435 139.31498058201396,233.51962940749218 139.58620598635753,233.2484697197724 139.92681463371264,233.16785447769507 140.14757949768682,233.4610003735943 140.14127193015884,233.8347596349995 140.14757949768682,234.23050259015872 140.13496436263085,234.6409003613735 140.09711895737564,234.99266799106408 139.96466003893875,235.38840449073177 140.04035084947827,235.7621536036022 140.22957787578343,236.09925895868219 140.4566503073147,236.39972107805806 140.78464381955564,236.55361581742181 141.1504827370518,236.64155551871227 141.49739895190578,236.55361581742181 141.8758530045161,236.64155551871227 142.2606146246544,236.78079315627838 142.67060651493375,236.94934361529886 143.03013786490192,237.19850443037285 143.383361647313,237.4769772476502 143.70504759199684,237.68216704560473 144.01411840159562,237.8433871850866 144.35472704892163,237.99727879489365 144.70164326380473,238.14384192264697 145.03594434357365,238.3123891455034 145.20624866726575,238.6128418981607 145.33870758567355,239.01588627677847 145.69193136808462,239.25771180564334 146.06407785310876,239.47755248075555 146.3920713653497,239.71937643714773 146.61283622938208,239.99051140874508 146.85252379599842,240.32759668635845 147.19313244329533,240.5694177474652 147.5463562257355,240.74528709278093 147.79235135990893,241.05305739883624 147.83650433272123,241.39013763188996 148.13296000723494,241.6685940087118 148.4104929791647,241.91773826231656 148.67541081595118,242.1815371073899 148.99709676063503,242.3940410198411 149.31878270534799,242.63585504316143 149.67200648775906,242.84835759596172 149.89277135176235,243.14879115441727 150.0883059455955,243.47853384073824 150.33430107976892,243.65439598068042 150.75690810516244,243.72767174377077 151.11013188757352,244.00611895393376 151.45074053489952,244.18197978725948 151.78504161469755,244.37982270417706 152.11934269446647,244.60697500307288 152.51041188216186,244.65093988023727 152.76902215139125,244.99533047621662 153.08440052854712,245.0173127979724 153.34301079780562,244.98800303410826 153.734079985501,245.00265791754646 154.09991890299716,245.02464023703214 154.39637457753997,245.31773718004115 154.60452430642908,245.64746979495976 154.95144052131218,245.77936241224234 155.3235870063363,245.77203505103535 155.70204105894663,245.75738032635854 156.07418754397077,245.6621245422939 156.24449186766287,245.28110012832622 156.4400264614669,244.95869325816602 156.82478808160522,244.87809131188988 157.20954970171442,244.92205602119066 157.58800375432475,245.0099853581487 157.94122753673582,245.17118885974924 158.23137564369245,245.36902902068687 158.62875239891582,245.4349756185402 158.96305347871385,245.65479716900154 159.23427888308652,245.91858213139494 159.47396644967375,246.22633001580107 159.82088266458595,246.4021853509621 160.19302914961008,246.51942199916812 160.55256049954914,246.6439857258083 160.89316914687515,246.761221974848 161.2590080644004,246.88578527736536 161.63746211698162,246.937075985501 162.01591616956284,246.94440322650917 162.40067778970115,246.937075985501 162.77913184228237,246.88578527736536 163.1575858948636,246.82716727985826 163.56757778514293,246.7758764923492 163.93341670263908,246.70993113969598 164.33079345786246,246.6439857258083 164.69032480783062,246.6879493418819 165.23908318407484,246.58536752871441 165.63015237174113,246.54873113096255 165.97076101906714,246.61467663333315 166.2924469637801,246.80518551833666 166.60151777337887,246.98103942014131 166.9358188531769,247.10560233712022 167.30165777067305,247.20085618505982 167.64226641799905,247.26680108181608 167.9639523626829,247.06896620772022 168.310868577566,247.20818339880498 168.63886208980693,247.36205471354333 168.992085872218,247.49394414656126 169.32638695198693,247.62583333464863 169.69222586948308,247.6038518202913 170.0706799220934,247.64781484217383 170.46805667728768,247.70643216233293 170.83389559478383,247.7430679628742 171.1871193771949,247.7943580518695 171.28173289034748,248.12407916812663 171.37003883594298,248.46112583816284 171.75480045605218,248.52706956478505 172.24679072445724,248.49776124939672 172.6126296419243,248.4537987536678 172.9973912620626,248.43181749554788 173.36323017955874,248.4537987536678 173.64707071898738,248.64430270536104 173.91829612336005,248.8787684059862 174.17690639261855,249.10590631536616 174.42290152682108,249.3476974852165 174.73197233641986,249.51621811682708 175.06627341618878,249.58948783192318 175.2302701723238,249.87523899867665 175.15457936178427,250.17564283182583 174.8833539574407,250.25623876602913 175.104118821444,249.94850834341196 175.38165179334464,249.69206530610245 175.6528771976882,249.4209673741716 175.92410260206088,249.16452243212552 176.2205582765746,248.9154036017935 176.48547611339018,249.03996312618983 176.7756242203759,249.3550244775106 177.0342344896344,249.65543051090208 177.32438259662013,249.98514298744703 177.62714583869092,250.30020014615002 177.8920636755065,250.5566409877938 178.0623679991695,250.87169561151677 177.82268043252407,251.16476842550765 177.55776259570848,251.4358597018654 177.26130692119477,251.69962319391198 177.00900421946426,251.9926925919208 176.74408638267778,252.28576078077458 176.4728609783051,252.5568477789493 176.2205582765746,252.82793374260655 175.96825557487318,253.09901867172448 175.7033377380285,253.37742914373666 175.42580476615694,253.64851197590178 175.1482717942563,253.92692029434693 174.8833539574407,254.21265401291748 174.59320585045498,254.5130395035012 174.29675017594127,254.8207501524812 174.01921720404061,255.12113307181426 173.7669145023101,255.3848828806149 173.5146118005796,255.65595805264456 173.22446369362297,255.89040061054402 172.9973912620626,256.1688001432194 172.732473425247,256.4545248450013 172.45494045334635,256.7402483976912 172.2657134270703,257.0552755982353 172.06387126568006,257.37030140193383 171.81787613150664,257.6340428610274 171.52142045696382,257.90510945155984 171.26281018770533,258.2054793304342 170.98527721580467,258.50584793951566 170.73297451410326,258.791563242914 170.4554415422026,259.04797343444807 170.1589858676889,259.3190346307674 169.83729992297594,259.5900947930422 169.57238208616036,259.8684798293034 169.23177343886346,260.0443013955155 168.9100874941505,260.2127966548869 168.63255452224985,260.44722417718003 168.38025182051933,260.72560585538304 168.03964317322243,260.9160769015725 167.73687993112253,261.16515365313535 167.4530393916939,261.4142295316342 167.11873831189587,261.604698731986 166.7592069619568,261.75121315408614 166.56367236812366,261.87575017537165 166.74028425931465,262.24203426708846 166.95474155578995,262.60831647084706 167.20704425752047,262.90134087452316 167.4467318241659,263.274945236888 167.68011182325426,263.56064136519126 167.98287506532506,263.86831283430365 168.02702803810826,264.3371429878025 167.76841776884976,264.6448110952333 167.4971923645062,264.9012001673109 167.1944291224354,265.14293758807617 166.90428101544967,265.3700235071083 166.60782534093596,265.6044340172448 166.29875453130808,265.80954257943813 166.08429723483277,265.9487230523664 165.88876264099963,265.64838590183354 165.7247658848937,265.29677006409474 165.52292372353259,264.98910477908066 165.28323615685804,264.6814381621516 164.98047291481635,264.90852555576566 164.68401724027353,265.1649136764754 164.41909940345795,264.93782710208325 164.2235648096248,264.6374856795883 164.0091075131786,264.4909772080209" stroke="#ffcf00" stroke-linecap="round" stroke-linejoin="round" stroke-width="0.5"><title>2024-03-04 20.1km</title><desc>383901413</desc></polyline></svg>