<?xml version="1.0" encoding="utf-8" ?>
<svg baseProfile="full" height="300mm" version="1.1" viewBox="0,0,200,300" width="200mm" xmlns="http://www.w3.org/2000/svg" xmlns:ev="http://www.w3.org/2001/xml-events" xmlns:xlink="http://www.w3.org/1999/xlink"><defs /><rect fill="#222222" height="300" width="200" x="0" y="0" /><text fill="#FFFFFF" style="font-size:12px; font-family:Arial; font-weight:bold;" x="10" y="20">Over 10km Runs</text><text fill="#FFFFFF" style="font-size:4px; font-family:Arial" x="10" y="280">ATHLETE</text><text fill="#FFFFFF" style="font-size:9px; font-family:Arial" x="10" y="290">SAM0TA</text><text fill="#FFFFFF" style="font-size:4px; font-family:Arial" x="120" y="280">STATISTICS</text><text fill="#FFFFFF" style="font-size:3px; font-family:Arial" x="120" y="285">Number: 5</text><text fill="#FFFFFF" style="font-size:3px; font-family:Arial" x="120" y="290">Weekly: 1.7</text><text fill="#FFFFFF" style="font-size:3px; font-family:Arial" x="141" y="285">Total: 110.0 km</text><text fill="#FFFFFF" style="font-size:3px; font-family:Arial" x="141" y="290">Avg: 22.0 km</text><text fill="#FFFFFF" style="font-size:3px; font-family:Arial" x="167" y="285">Min: 13.4 km</text><text fill="#FFFFFF" style="font-size:3px; font-family:Arial" x="167" y="290">Max: 36.2 km</text><polyline fill="none" points="39.73814494680846,34.057200960218324 39.77504703271552,34.035750605668 39.77504703271552,34.47190650568518 39.79964842332993,35.129710196793894 39.848851204500534,35.644508717428835 39.84270085685421,36.15930340282648 39.898053985700244,36.595445899205515 39.9349560715782,37.188881268535624 39.910354681022,37.339026758978434 39.965707809868036,37.7751618097609 39.9349560715782,38.07544991686882 40.00260989571689,38.1397971986371 39.98415885280701,38.55447824389557 39.92880572396098,38.883361441527086 39.86115189985139,39.090700044362165 39.82424981391523,39.26943971995206 39.996459548099665,40.49915615753707 40.0272112863604,40.60639783286024 40.094865110499086,40.72793819705839 40.10101545814541,40.87092658715119 40.15636858699145,41.35708490084653 40.19942102051573,42.057718808246136 40.19942102051573,42.400883845191856 40.23017275874736,42.55101801309502 40.26707484465442,43.215893979730026 40.180969977605855,43.38032468397432 40.26092449700809,43.68773756011797 40.29782658291515,44.13813070047763 40.291676235268824,44.259664854624134 40.32857832117588,44.60996798569249 40.340879016468534,45.153291779141 40.347029364143964,45.35346262656094 40.340879016468534,45.51788824619143 40.37778110237559,45.68946238884382 40.46388596945326,45.8967805763823 40.5438404889137,46.31141508628207 40.56229153185268,46.53302906313911 40.64224605131312,46.82613032845984 40.62994535602047,46.96195732274646 40.71605022309814,47.09778405014367 40.783704047236824,47.31224676061538 40.84520752370008,47.598196006358194 40.90671100022155,47.719724077651335 40.95591378142126,47.94133354004589 40.99281586732832,48.05571233948285 41.0358683008526,48.17723960654257 41.091221429698635,48.456036647323344 41.20807803506614,48.842061463190475 41.2941829021438,49.04222163029044 41.33723533566808,49.20663847688411 41.4110395074822,49.421094645760604 41.47869333162089,49.70703516947833 41.57709889402031,50.02871684517595 41.700105847005034,50.49336551232409 41.810812104697106,50.90082408154558 41.92151836238918,51.322576913720695 41.878465928835794,51.52987821026909 41.810812104697106,51.69428914146556 41.86001488589682,51.79436516908754 41.92151836238918,51.88729277929815 42.06912670598831,52.00881331192795 42.106028791866265,52.16607486065914 42.18598331132671,52.3161878235187 42.302839916636,52.73078383756365 42.15523157309508,52.88804374435131 42.25978748311172,53.0953403477688 42.41969652203261,53.15967365006509 42.60420695148059,53.85303988719534 42.70876286152634,54.231886543631845 42.6534097326803,54.36769899056526 42.64110903738765,54.582139153179014 42.856371205096366,54.903798150298826 42.95477676749579,55.13253252694267 43.13928719697287,55.83302684921364 43.256143802340375,56.247601779337856 43.336098321771715,56.54780966012186 43.47140597004909,57.041005492414115 43.58826257541659,57.51275473669375 43.60671361835557,57.64856074083946 43.64976605187985,57.74862815219967 43.60056327068014,57.92017194912478 43.64361570426263,58.02738660615432 43.76662265724735,58.220372569950996 43.809675090771634,58.44194838289695 43.944982739078114,58.83506501378724 44.1294931685552,59.45689948571817 44.16024490678683,59.62129157270829 44.28940220744698,60.12161291168013 44.28940220744698,60.24311897641019 44.41240916043171,60.55760427047062 44.566167851677164,61.000740212606615 44.707625847600866,61.38669501047116 44.744527933507925,61.62970248212514 44.762978976476006,62.0013593169715 44.75067828115425,62.473074731824454 44.73222723821527,62.973375444780686 44.70147549995454,63.416495911857055 44.67687410936924,63.938230887957616 44.68917480466189,64.11690634513798 44.69532515233732,64.25269938396377 44.664573414076585,64.70295860562328 44.67072376169381,65.05315819651878 44.646122371108504,65.21753698504472 44.70147549995454,65.57488083007047 44.78758036706131,65.93936965059402 44.86753488649265,66.11803993968351 44.92903836298501,66.33959045742085 44.98439149183105,66.46823236792989 45.11969914013753,66.84700993775186 45.21810470253695,67.00423775395029 45.27960817902931,67.28295891364542 45.33496130784624,67.48306572052388 45.33496130784624,67.6474387360795 45.42106617492391,67.87613097773283 45.53792278029141,68.14770203291118 45.55022347558406,68.45500483625801 45.544073127937736,68.69084094576829 45.67938077621511,68.91952973885782 45.77163599096821,69.1339247959404 45.90079329159926,69.36975859151426 45.94384572515264,69.4698090498423 45.99919885399868,69.91288791216357 46.18370928350487,70.26306113490864 46.20831067409017,70.47030567693582 46.30671623648959,70.7633055221304 46.380520408274606,70.94910965921736 46.34361832239665,71.09918186727737 46.380520408274606,71.25640002189903 46.362069365306525,71.44934908712457 46.45432458005962,71.72090611939348 46.73724057196523,72.01390066963359 47.118562126212055,72.2926016515994 47.284621512750164,72.54271696184878 47.30922290333547,72.72137020147784 47.278471165074734,72.92860738164745 47.26002012216486,73.24303502171097 47.2231180362578,73.50029293738771 47.20466699328972,73.70752778513997 47.11241177856573,74.13628756910475 46.95865308732027,74.40783405844559 46.93405169673497,74.77942226473533 46.854097177274525,75.22961299589952 46.79259370078216,75.60834261291166 46.73724057196523,75.87988332691748 46.68188744309009,76.12283990486321 46.60808327130508,76.4515445058787 46.57118118542712,76.56587617511104 46.52812875184463,76.68735336672398 46.52812875184463,76.83741313264909 46.497377013613004,76.98032689297543 46.40512179885991,77.47337710105785 46.282114845875185,77.82351207279135 46.202160326443845,78.08789853095368 46.15295754527324,78.25939190982172 46.08530372107634,78.36657505583571 46.09145406875177,78.49519461200543 46.116055459337076,78.90248829659686 46.14065684992238,79.24547059336328 46.18370928350487,79.45983366588916 46.30671623648959,79.70277767896187 46.27596449822886,79.91713933541178 46.30671623648959,80.02431991472986 46.33746797472122,80.19580849644262 46.319016931782244,80.46018589434243 46.40512179885991,80.58880156068335 46.67573709547287,80.75314345327934 46.65113570482936,80.95321131771925 46.946352391998516,81.2961834544476 47.167764907411765,81.36763576906378 47.26002012216486,81.49624974956532 47.395327770442236,81.68917027229327 47.56753750462667,81.91067095026665 47.819701758242445,82.18933208692033 47.97961079713423,82.31794454094052 47.985761144780554,82.52515299209335 48.034963925980264,82.65376482227293 48.40398478493444,83.05388898830279 48.723802862718,83.40399573671311 48.969816768716555,83.33254552367725 49.049771288147895,83.4468658291371 49.191229284071596,83.43972081558604 49.41879214710207,83.86127535414562 49.670956400746945,84.11134886748914 49.800113701377995,84.32569687436626 49.83086543963873,84.44001554000715 50.0830296932545,84.57576871034689 50.39669742339174,84.8972883152237 50.5504561146372,85.19022709986166 50.6919141105609,85.33312361827848 50.851823149452684,85.49745424983848 52.50011631951202,86.64775775124872 52.703077791957185,86.85495324537624 52.88758822140517,86.94783378288412 53.238158037449466,87.12644985099905 53.453420205187285,87.24076389280526 54.123808098986046,87.37651157236542 54.70809112567804,87.37651157236542 54.87415051221615,87.37651157236542 55.120164418185595,87.36936696428165 55.206269285292365,87.59799405717786 55.31697554298444,87.74803017669183 55.32312589063076,87.91949962951185 55.45843353893724,88.49106140588265 55.54453840601491,88.79112945007364 55.66139501135331,89.20550699265732 55.77210126904538,89.59844892370165 55.870506831415696,89.93423389812233 55.92585996026173,90.10569793796458 56.02426552266115,90.40575898624957 56.23337734275265,91.14876170113712 56.33178290515207,91.477394974856 56.37483533870545,91.6202785205387 56.49169194404385,92.07035976278712 56.54089472524356,92.284683135862 56.7377058500133,92.92764927596727 56.86686315064435,93.42772992524988 56.93451697478304,93.7134886752392 57.04522323247511,94.13498067958426 57.137478447228204,94.45645590798085 57.143628794903634,94.73506656575773 57.2297336619813,95.1351209350978 57.32813922435162,95.55660428912961 57.352740614966024,95.78520435762766 57.43884548207279,96.41385065626673 57.481897915597074,96.63530424355122 57.629506259196205,97.36395298573188 57.666408345103264,97.5925470902148 57.68485938804224,97.72113094249653 57.74021251688828,97.89971923032863 57.795565645734314,98.02115900306671 57.758663559827255,98.32118576429639 57.83246773161227,98.52834634112514 57.91242225107271,98.81408405133698 57.97392572753597,99.0641035810404 58.07848163758172,99.50699310463824 58.08463198525715,99.83558672814252 58.05388024702552,100.05702937798196 57.94317398930434,100.21418179690954 57.937023641658016,100.40705018752487 57.95547468459699,100.62134776958555 58.035429204057436,100.7999285816768 58.17073685233481,100.9713657282773 58.14613546174951,101.11422969306295 58.30604450064129,101.4499588508188 58.515156320732785,101.64996693749708 58.66276466430281,101.99283660007495 58.88417717968696,102.37141988155781 59.130191085656406,102.82857429474825 59.44385881576454,103.25001084760879 59.868232803593855,103.78573157917708 60.212652271962725,104.20001943839452 60.26185505319154,104.29287672221835 60.052743233100045,104.55001932033338 59.609918202331755,104.8571606175974 59.333152558101574,105.05001608524617 59.24089734334848,105.15715777981677 59.080988304456696,105.30001311486558 58.816523355519166,105.57143744020868 58.687366054888116,105.64286471754895 58.588960492488695,105.74286278215004 58.40445006304071,105.96428655456839 58.27529276238056,105.98571462401742 58.060030594671844,105.80714717607043 57.986226422857726,105.70714920420869 57.99237677050405,105.5928656311371 57.893971208133735,105.5285810384521 57.78326495041256,105.44286815544183 57.68485938804224,105.36429791957198 57.67870904036681,105.24287101618393 57.40809374381206,104.8214465832134 57.02677218953613,105.00715936104098 56.81151002179831,105.20001441126078 56.663901678228285,105.18572887039045 56.430188467522385,104.80716096430115 56.19032490919926,104.95001702087029 56.04886691327556,105.07144443740253 55.93201030793716,104.90716023481946" stroke="#4dd2ff" stroke-linecap="round" stroke-linejoin="round" stroke-width="0.5"><title>2024-04-10 13.4km</title><desc>9223370324139026207</desc></polyline><polyline fill="none" points="142.92552520058234,39.3873784900934 142.8987025473034,39.06773292280559 142.6640043311927,38.521993453286996 142.6304760146304,38.241325900635275 142.482951421669,38.05421361781919 142.0806116226595,38.062009972207306 141.78556243667845,38.09319538174168 141.36981131104403,38.10099173209164 141.09487911502947,38.069806325787795 140.61877701955382,38.00743547446473 140.0689126275538,38.030824549765384 139.64645583857782,37.984046391888114 139.17705940638552,37.99184275356674 135.81081642126082,38.14776981733303 135.32130299910204,38.02302819214674 134.96590284330887,38.155566162044124 134.56356304429937,38.14776981733303 134.13440059201093,38.09319538174168 133.55771354676108,38.20234421337955 133.0682001246023,38.124380778332124 132.84691323514562,38.13997347179975 132.47810175269842,38.11658443039778 132.1629355768091,38.163362505954865 131.53260322503047,38.155566162044124 131.28449368229485,38.178955191331625 130.76145194354467,38.24912223564752 130.06406295858324,38.319289214625314 129.58796086307848,38.14776981733303 129.2660890238476,38.062009972207306 129.01797948111198,38.04641726260161 128.42117544592475,37.90608273090038 128.11942059666035,37.79693346990098 127.42873727501137,37.85150812017673 127.05992579259328,37.65659847333154 126.69781997348764,37.51626321527874 124.37766046577599,36.915937215075246 123.31145999839646,36.53390908709116 123.0700561190024,36.41696131356002 122.9359428526368,36.12848936241062 122.95605984257418,35.61391503040795 122.90912019935786,35.395609706116375 122.98958815916558,34.8654369982396 122.62077667671838,34.05457740181737 122.64759932999732,34.20271586452873 122.3659614706703,35.02137053506158 121.94350468169432,35.333236640108225 121.38022896309849,35.52035568320571 121.10529676708393,35.598321813944494 120.77671926456969,35.79323678766377 120.62248900826671,36.32340296399343 120.88400987762725,36.63526367726445 120.87730421428569,37.1966097068871 120.68954564142041,37.469484737819585 120.78342492785305,37.85150812017673 121.06506278718007,38.36606716429378 121.62163284249255,38.82604878843267 122.25867085761274,39.309416281670565 122.12455759127624,39.956500166721526 121.97703299828572,40.68933544412721 122.10444060130976,40.96999387497635 122.2318482043338,41.19607907266618 122.35925580735784,41.476735615418875 122.39278412394924,41.734003194338584 122.48666341038188,41.95229014799406 123.19746372199734,43.20742785630864 123.47910158129525,43.5660347890298 123.70709413406439,43.88566126846854 123.8076790838386,44.25206068634725 123.76744510393473,44.79775864352996 123.51933556119911,45.13297114310262 123.15722974209348,45.13297114310262 122.54030871691066,44.96926289941621 121.7624517721706,45.26549660361343 121.5948101892136,45.38243063986738 121.42046294300235,45.76441389355023 121.48081391284359,46.3646693791743 121.48751957612694,47.12082857363566 121.47410824953113,47.81461744726403 121.29305533997831,48.38367546221707 121.17235340026673,49.2333568274189 121.16564773692517,49.94271649997245 121.28634967666585,50.457192963520356 121.56798753596377,51.0340260334342 121.80939141538693,51.4627504545424 122.0306783048436,52.08634525832895 121.88985937516554,52.33578173492424 121.7289234555501,52.912600424766424 121.7289234555501,53.310135059997265 121.88315371185308,53.754435994174855 121.88985937516554,54.112992732872954 121.56798753596377,54.814511852942815 121.29976100326166,55.74206599780882 120.99800615402637,56.233119452961546 121.10529676708393,56.747552974477 121.38693462641095,57.18403926950123 121.70880646561272,57.67508332995203 121.72221779223764,58.16612419132434 121.71551212892518,58.454511777556036 121.7289234555501,58.657161853705475 122.3994897872617,59.389815275797446 122.54030871691066,60.39525359283289 122.7012446365552,61.198035798697674 122.7012446365552,61.946252293251746 122.68112764658872,62.21903770957579 122.5336030535982,62.97503784769651 122.33913881742046,63.51280652731657 122.2653765209252,64.28438097604521 122.29219917417504,64.63509402415366 122.3324331540789,65.39886346150888 122.52019172697328,66.26393990805082 122.82194657623768,66.9185857564371 123.02311647575698,67.20693986263359 123.29804867174244,67.52646609767544 123.83450173711753,67.97847650782933 124.28378117934335,68.29020624640543 124.72635495828581,68.59414150071825 124.90070220452617,68.84352335848234 124.75988327484811,69.40462952292 124.78670592812705,69.90338705283648 125.1286947572953,70.53462232202583 125.18234006382409,70.93985699388577 125.34998164672288,71.75811267415702 125.44386093315552,71.95293414654589 125.69197047589114,72.56856669132685 125.9669026719057,73.17640148857754 126.18818956136238,73.65954873018927 126.32230282769888,73.94008441786718 126.35583114429028,74.1504854988234 126.17477823473746,74.64141907176963 125.96019700856414,74.87519584045367 125.85961205884814,75.03104661703401 125.75902710910304,75.20248209930287 125.45727225980954,75.51418197781459 125.51762322965078,75.69340882468532 125.5645628728962,75.94276720746711 125.59138552614604,76.19212476589746 125.80596675229026,76.6362908747833 126.04737063171342,77.29084668894211 126.32230282769888,78.7479922113489 126.5368840538431,79.34019304220419 126.61735201365082,79.51941079831158 126.7715822699538,80.0492695000139 126.8386389031075,80.47782896276476 127.16051074230927,81.2881892925725 127.22086171217961,81.70894987667998 127.21415604889626,82.14529170742026 127.21415604889626,82.86992524354719 127.45555992829031,83.3062603596336 127.81096008408349,83.62571839805605 128.2602395263093,83.76596784131107 128.60893401879002,83.74259295221418 128.78998692834284,83.79713434885343 128.85033789821318,84.13996508206765 128.83692657158826,84.35033771528833 129.04480213442002,84.43604491620499 129.58796086307848,84.28021356938552 129.91653836559271,84.34254614674865 130.2048818882322,84.28800514438626 130.52675372743397,84.03867434574931 130.89556520988117,83.85946732529555 131.70024480792927,83.26730196973222 132.67256598890526,83.17380175185826 133.22913604421774,83.19717681720067 133.4504229336453,83.54001027661434 133.61135885328986,83.680259879191 133.85946839599637,84.0620491431182 133.96005334577058,84.5918759411652 133.96675900908303,84.86457946038718 133.99358166236198,85.45673227977386 134.02710997892427,85.65930980898702 134.1746345719148,85.89305243611307 134.29533651159727,86.10342018141091 134.69767631063587,86.32937006936845 134.89884621012607,86.4150750222907 135.08660478302045,86.44624043557997 135.28106901919818,86.46182313740428 135.53588422524626,86.4150750222907 135.84434473782312,86.3683268782188 136.03880897402996,86.38390959612298 136.25339020020328,86.42286637680081 136.3338581599819,86.77347649794683 136.46126576300594,86.98384178863489 136.70937530574156,87.29549299311475 136.89042821526527,87.58376921125455 137.08489245147211,87.84087950369576 137.33300199420773,87.85646191750857 137.86945505955373,87.7395937354886 138.13097592894337,87.86425312319625 138.50649307470303,87.79413224295422 139.08988578323624,87.88762673545716 139.44528593908763,87.88762673545716 139.72692379838554,87.9499563327845 140.05550130092888,87.90320913961477 140.36396181350574,88.23043888359825 140.36396181350574,88.54987607444491 140.39078446675558,88.81477418268332 140.35055048685172,89.03292486772261 140.43101844665944,89.79644729906431 140.26337686373154,90.34960668381245 140.3706674767891,90.6924076478681 140.47795808990486,90.89497112195386 140.77971293914015,91.24556046535145 141.26922636129893,91.5494032455681 141.73862279349123,91.49486745202012 142.1610795824672,91.54161242031842 142.50977407491882,91.63510227009101 142.83835157746216,91.76754602566507 143.48209525589482,92.14150361033535 144.06548796448624,92.5388315137534 144.38065414037555,92.74918073343724 144.56170704992837,92.88162253393239 144.76287694944767,92.99848275312979 145.47367726106313,93.27115589430468 145.73519813042367,93.72301207364217 145.92295670328895,94.05800715006626 146.2515342058323,94.43974391298252 146.58011170834652,94.56439223374764 146.74104762796196,94.76694531597605 147.02939115060144,94.90717405445321 147.37808564308216,95.30448739876738 147.61948952247621,95.43692471545364 148.06206330141868,95.77191218510416 148.4912257537071,96.09910781325016 148.55157672351925,96.34060843856423 148.56498805020237,96.52757613397989 148.79968626628397,96.62885010895843 148.95391652255785,96.91709067865304 149.195320401981,97.15858868695796 149.5171922412119,97.36113480783388 149.7653017839184,97.3845054791309 149.9329433668463,97.74285486609006 150.05364530655788,97.81296650371951 150.44257377894246,97.94539941928815 150.9387928643846,98.72441186686046 151.11314011062495,98.89579352646979 151.41489495988935,98.98148421038059 151.790412105649,99.1528652863999 152.03181598504307,99.42551619638107 152.17263491472113,99.56573628093611 152.3603934875864,99.70595610504097 152.6152086936636,99.83059573002538 152.8297899197787,99.83059573002538 153.13825043235556,99.90070542867034 153.56070722133154,100.14998382981867 153.84905074397102,100.16556370258331 153.94293003040366,100.04092463059351 154.27821319625946,100.47716048221628 154.63361335205263,100.72643697995227 155.780281779269,101.07698066237208 155.96804035213427,101.18603836492548 156.162504588312,101.24835698134848 156.38379147779779,101.2873060905331 156.74589729690342,101.25614680480794 157.39634663864854,101.1237196970178 157.64445618138416,100.62516850203247 157.98644501058152,100.33694209052919 158.4893697593361,100.360311840559 159.0928794578649,100.49274028744549 159.4952192569035,100.80433571668982 159.6829778297688,100.93676338469959 160.18590257852338,101.00687205608119 160.8698802368599,101.69237563459319 161.41974462885992,102.01175585818419 161.94949203089345,102.19091978231154 162.6938206591003,102.43240092038468 163.35768132749945,102.57261542031483 164.24282888529706,102.58040510713909 164.94692353360006,102.47913911596697 166.03994665425853,102.27660672615457 166.36852415680187,102.24544784873433 167.2335547246912,102.1597608695156 167.79012478000368,102.11302247623098 168.21928723229212,102.35450386344746 168.42045713181142,102.51029789692984 169.0440838202776,102.6583019309619 169.65429918211885,102.77514701605105 170.13710694093606,102.6037741627224 171.02896016210434,103.02441592654213 171.61905853400822,103.18799820182176 172.67184767479193,103.30484246717242 173.37594232306583,103.46063453968964 173.53687824265216,103.81895508653542 173.67769717233023,104.18506345419883 174.16050493114744,104.19285297463648 174.69695799652254,104.12274726165197 174.96518452919554,104.10716820546077 175.5418715744454,104.06822055098746 175.7899811171519,104.15390536433551 176.05150198654155,104.30969568494038 176.21914356946945,104.4499066986682 176.6617173484119,104.81601200700243 177.0841741373879,105.18990495782054 177.52674791627214,105.26779908953176 177.7681517956953,105.66505791139934 177.6541555193253,105.93768530531815 177.34569500671932,106.0 177.55357056955108,105.82084511416178 177.84861975550302,105.47811284380441 178.371661494195,105.00295871383423 178.65329935352202,104.8627487271151 178.83435226310394,104.88611707629752 179.0422278259066,104.9562220805019 179.40433364504133,105.18990495782054" stroke="#ffcc00" stroke-linecap="round" stroke-linejoin="round" stroke-width="0.5"><title>2024-03-28 21.8km</title><desc>9223370325245023807</desc></polyline><polyline fill="none" points="44.546157324133674,114.0 44.74508167701424,114.15434928640025 45.14293038286269,114.4707643204747 45.38827041813056,114.64054744147143 45.852427241625264,114.81033017425216 46.084505653358065,114.85663448855485 46.21712188862148,114.87206925357896 46.953141994425096,115.01098199433909 47.0923890414997,115.02641672727623 47.48360693556606,115.08043826727226 47.66926966494066,115.11902505749458 48.06048755906522,115.15761182766437 48.69041467658826,114.82576494890964 48.93575471188524,114.81804756198835 49.28718773537548,114.98782988891617 49.830914300022414,115.24250265146839 50.26854787644697,115.25793733628234 50.553672782320064,115.21163327223621 50.91173661756329,115.35054537776159 51.389155064563965,115.43543598101678 51.621233476296766,115.497174540571 52.032343805680284,115.63608611198288 52.66890173504362,116.02966748640756 53.11979693497415,116.3615089852101 53.45796833492932,116.60845983587933 54.061372205469524,116.98660173445387 54.71119175833883,117.31843895713246 54.9101161112485,117.43419577900204 55.274810758273816,117.58853792747686 55.778752452344634,117.78146516199195 55.92463031114312,117.92037246048858 56.123554664081894,118.00526012611226 56.56118824050645,118.19818627806671 56.87946720517357,118.33709279712639 57.39667052277946,118.52230108507501 57.66190299333539,118.63805603047513 57.81441166391596,118.68435795813275 58.24541442855843,118.9621689178166 58.431077157962136,119.17052645561489 58.65652475794195,119.23997883829725 58.901864793209825,119.30171423507272 59.193620510806795,119.56408909879974 59.37265242842841,119.9344990931495 59.69756220487761,120.14285390316945 59.8898557460343,120.32805768802064 60.17498065190739,120.51326101104496 60.46673636950436,120.71389742319298 60.705445592990145,120.81421542602038 61.08340186357964,121.02256776817376 61.55418949882733,121.23863624638761 61.71995979291387,121.30036998186552 61.88573008700041,121.34667024980445 62.25042473402573,121.39297048885783 62.53554963989882,121.42383729889843 62.933398345747264,121.36210366603336 63.63626439272775,121.41612059758336 64.10705202797544,121.49328757449257 64.27282232206198,121.54730441064748 64.77013320435071,121.79423801846133 65.1016737925529,122.07975397915288 65.37353707489092,122.61219973082916 65.51278412190732,122.7665311192759 65.69181603955803,122.9285787320332 65.95041769833188,123.11377557088417 66.13608042773558,123.2681059171955 66.3615280277154,123.4378689278019 66.51403669829597,123.56904917025531 66.34163559242734,123.97802138032421 66.22891179245198,124.12463351111364 66.15597286302363,124.4487224576369 66.42783614536165,124.64163187354279 66.78589998060488,124.62619913872186 66.99808595707873,124.57990091496322 67.1970103099593,124.95800223112747 67.31636492174584,125.26665494003828 67.44235034522717,125.55215755398967 67.46887359232642,125.79907784877287 67.62801307465998,126.07686219939205 67.78052174521144,126.43952353829081 67.84019905107561,126.5784146460137 68.04575421576737,126.96422191616148 68.1253239569487,127.13397648031969 68.218155321636,127.36545935174217 68.30435587457032,127.64323784537555 68.49001860397402,128.2836676369334 68.54306509808521,128.48428306261485 68.78840513335308,128.76977331130183 68.63589646277251,128.9240919078875 68.42371048629866,129.11698970288126 68.218155321636,129.32531875891436 68.15847801574273,129.49506792826287 68.1253239569487,129.64166917147668 68.3109866863233,129.8962916958917 68.54306509808521,130.12776596087497 69.13320734509034,130.58299657826137 69.27908520388883,130.71416420464084 69.65041066266713,131.0382244065404 69.72998040381935,131.14624415973958 69.7565036509186,131.470302477137 69.78965770971263,131.64004674601892 69.95542800379917,131.80979062712868 70.27370696849539,131.88694680853223 70.43284645082895,132.25729536404833 70.41958482732298,132.7819526579333 70.24718372142524,133.46863087196834 70.10130586262676,133.89297940492543 70.05489018026856,134.1553027405389 70.02173612147453,134.34047159639886 69.96205881558126,134.53335533059726 69.94879719207529,134.7185232444026 69.93553556851111,134.8496835708429 69.93553556851111,134.98084366582043 69.67693390973727,135.14286463997996 69.46474793329253,135.29717000125675 69.14646896859631,135.50548173073912 68.69557376866578,135.95296421227977 68.3640331804636,136.36958341086574 68.20489369813004,136.42358943227737 67.95292285108007,136.32329250412295 67.73410606288235,136.51617109194194 67.44898115700926,136.81706068935455 66.93840865118545,137.3725459764537 66.38805127478554,137.93574209824146 66.0299874395132,138.31377545746363 65.82443227485055,138.52979365655483 65.65203116898192,138.7149516132049 65.30722895721556,139.08526614269795 65.02873486315366,139.29356725471735 64.83644132199697,139.21641876276408 64.23303745145677,138.86153466840915 64.0341130985471,138.75352612944698 64.34576125146123,139.0389769274043 64.869595380791,139.33214147062972 64.9624267455074,139.4710084822509 64.71045589848654,139.84131924481335 64.3126071926381,140.4276408456717 63.928020110324724,141.03710181776842 63.85508118092548,141.13739238498965 63.56332546329941,141.53855330070655 63.03949133394053,141.9088537628122 62.76099723984953,142.00142859011248 62.522288016363746,141.99371402554243 62.18411661637947,141.87028088406078 61.76637547524297,142.05543051943096 61.38841920471168,142.2482942325223 61.44809651057585,142.61859115899279 61.3817883929587,143.23574860393273 61.12318673415575,143.90690150942828 60.84469264006475,144.52404825876874 60.69218396948418,144.9020481126936 60.46673636950436,145.62718530946586 60.3540125694999,145.742898037548 60.30759688719991,145.98203710483358 60.36064338128199,146.0668927180086 60.413689875393175,146.31374486017012 60.42032068717526,146.99258402490523 60.49989042835659,147.4477113576213 60.59272179301479,147.84883822236588 60.71207640477223,148.5893744408677 60.838061828311766,149.35304469124821 60.95078562828712,150.0704247513495 61.06350942829158,150.7029476648022 61.16960241648485,151.3277516016824 61.24917215766618,151.74428464299126 61.302218651777366,152.16852886071865 61.24254134588409,152.26109091383114 61.24917215766618,152.54648985233507 61.33537271057139,153.00158319106413 61.395050016464666,153.49524061278498 61.52766625172808,154.25886048183747 61.633759239979554,154.62909759588365 61.71332898113178,155.0996046020664 61.71995979291387,155.34642675922078 61.82605278113624,155.63952700686787 61.97856145168771,156.15630620871525 62.1244393105153,156.61137745795713 62.316732851671986,157.08958492284728 62.641642628092086,157.66805758561532 63.03949133394053,158.223387109123 63.55669465154642,158.81727659477474 64.09379040444037,159.32632095119334 64.6839326514164,159.80451096109027 64.88948781607905,159.98190324753523 65.20113596902229,160.421525786267 65.11493541608797,160.64519239646324 64.88948781607905,161.3239007520824 64.64414778081118,162.04116535223147 64.57120885141194,162.36508903375943 64.49163911025971,162.6041746558767 64.41870018086047,162.82783470350842 64.2197758279508,163.42168742904323 64.04074391030008,163.83044044674898 63.775511439773254,164.53225642742473 63.58984871036955,165.079822539803 63.35113948688377,165.79705092844233 63.13232269862783,166.4757122844676 63.01296808689949,166.59139257991046 62.9599215927592,166.8844485233858 62.48250314575853,167.4011496119856 61.9387765811116,167.9872539659409 61.64039005173254,168.14920303912368 61.33537271057139,168.39598190140532 61.22927972237812,168.5733537031483 60.957416440040106,168.94351957956678 60.612614228302846,169.59130543233914 60.39379744010512,169.90748457435984 60.208134710701415,170.33162521596387 60.009210357791744,170.73262869017344 59.49863785196794,170.88686022024922 59.02785021672025,170.99482210108545 58.87534154613968,171.7659738378352 58.822295052028494,172.0744322950195 58.67641719323001,172.37517805976677 58.59684745204868,172.53711758353893 58.11279819329502,173.11547014892858 57.75473435802269,173.53959250700427 57.25079266395187,174.10251481291198 56.78663584048627,174.68856638839497 56.33574064052664,175.1358131701927 55.87158381706104,175.6910123327907 55.58645891118795,176.05343177422765 55.215133452409646,176.5160923265721 55.102409652405186,176.71657767277065 54.750976628944045,177.08670304705447 54.313343052519485,177.65730939315836 53.86907866431284,178.21248974764603 53.37839859374799,178.83706269687536 52.94076501735253,179.38452356461494 52.73520985266077,179.70066110508196 52.6291168644384,179.8317421305619 52.45008494681679,179.84716341247986 52.27768384094816,180.29437919901102 51.93288162924,180.6028023139952 51.455463182210224,181.23506570491008 50.971413923456566,181.7902193767586 50.60008846464916,182.2605546648192 50.15582407647162,182.76172834102908 50.03646946471417,182.8311213533525 49.81102186473436,182.74630766285554 49.38664991184487,182.45331417032867 49.108155817724764,182.23742349062377 48.829661723662866,181.99840093639068 48.663891429576324,181.85190286250872 48.159949735505506,181.39698595354275 47.71568534729886,180.93435573743773 47.417298817948904,180.7261712022082 47.02608092385344,180.3560639242496 46.893464688560925,180.21727322060906 46.76084845329751,180.00137605616328 46.475723547453526,179.8086102016532 45.91873535927152,179.3151273394251 45.38827041813056,178.85248418488482 44.92411359466496,178.4052597355476 44.34060215941281,177.93490008801746 44.1151545594621,177.7344180233631 43.8830761477293,177.53393541870173 43.70404423007858,177.30260866541357 43.43218094774056,177.0404374759164 43.14705604192568,176.80910918890004 42.84866951251752,177.0250156124821 42.430928371381015,177.510802775716 42.27178888904746,177.69586371822516 41.94024830084527,178.08911669338704 41.54239959499682,178.62116152930685 41.21748981857672,178.98356670392968 40.91247247744468,179.34597011415462 40.76659461861709,179.5156051467784 40.52125458334922,179.79318891172443 40.09688263045973,180.27124741388252 39.791865289298585,180.61051287549344 39.4603247011255,180.98832941079309 39.20835385407554,181.25819719056744 38.976275442313636,181.5203535256005 38.651365665893536,181.9752696807409 38.452441312983865,182.15260912373924 38.087746665929444,182.56125927539688 37.855668254196644,182.83883168405737 37.630220654275035,183.07014123406407 37.51086604248849,183.20121632674272 37.199217889574356,183.44794528689818 36.9936627248826,183.59444022010575 36.70853781903861,183.7640655721334 36.449936160235666,183.85658832854824 36.158180442638695,183.94140075422183 35.76033173679025,184.11873551394092 35.408898713300005,184.27293930947053 35.26302085450152,184.32691056245676 35.13703543096199,184.37317160530802 34.858541336870985,184.43485295103892 34.64635536042624,184.51966471800552 34.55352399570984,184.57363579213416 34.162306101672584,184.71241837452544 33.98990499577485,184.7432589132659 33.53900979584432,184.92059176308248 33.34008544293465,184.96685243705724 33.04169891352649,185.0979241905443 32.90245186651009,185.1750251142148 32.51786478419672,185.2906763500141 32.00729227834381,185.45258777836716 31.92772253716248,185.4294575958629 31.66912087838864,185.5759486303068 31.516612207808066,185.61449885460752 31.32431866665138,185.68388920807774 31.09224025491858,185.7378594382899 30.913208337296965,185.77640957877156 30.694391549070133,185.84579978136753 30.54188287848956,185.86121981759788 30.402635831473162,185.96144997527153 30.21697310206946,186.0 30.03794118441874,185.9768699875567 29.752816278574755,185.56823858303687 29.706400596245658,185.44487771832064 29.573784360982245,185.18273520218645" stroke="#4dd2ff" stroke-linecap="round" stroke-linejoin="round" stroke-width="0.5"><title>2024-03-06 18.6km</title><desc>9223370327137444807</desc></polyline><polyline fill="none" points="129.02166231372394,175.81820719412644 128.88523582732887,175.78391297687267 128.49439237978368,175.72389802834732 128.21785220464517,175.74104516537045 127.70164387770637,175.732471597752 127.4140420955664,175.74533194851756 127.10062989707512,175.732471597752 126.73928406821506,175.72389802834732 126.36318943003425,175.78819975558508 126.17514211093658,175.75390551347664 126.02027961285785,175.6896037330116 125.77323705638992,175.73675838178679 125.62574896297883,175.7496187312281 125.44876325089717,175.69817730949944 125.29390075281844,175.59958107263083 125.14272545705899,175.44525605676608 125.10216623138695,175.27806997398147 125.0026117683301,175.06372785496205 124.88830849592341,174.48071167902162 124.77769242587965,174.33066942347432 124.51958826241025,174.35210406468832 124.35735135966388,174.36067791807727 124.15824243356474,174.37353869482104 123.98125672146853,174.38639946756302 123.71577815333148,174.3778256195037 123.19956982640724,174.36925176968725 122.9082808419189,174.33495635261352 122.5838070364116,174.3778256195037 122.17084037487803,174.36925176968725 121.9237978184101,174.43355560013515 121.51451835919579,174.43784251861143 121.35596865878324,174.33495635261352 121.16054693501792,174.3778256195037 120.73651866645378,174.41212100107805 120.42310646797705,174.39497331384337 120.23505914887937,174.3778256195037 119.60086034721462,174.4464163542434 119.13996005531226,174.39068639091784 118.86341988017375,174.24921768568674 118.68274696575827,174.2063482856538 118.18497465048858,174.0777398193204 117.83100322631071,173.93198307465354 117.35535412507306,173.77765184466625 117.10093716392294,173.75192991708172 116.45567675527127,173.52471886290732 116.18282378246658,173.34037690296827 116.19019818713423,173.02742239419604 116.2934398525249,172.53869418398244 116.33768628054531,172.3714963668026 116.34874788756133,172.1399905823382 116.11276693809486,171.88704759743632 116.13857735444617,171.79272947875506 116.14963896144764,171.79272947875506 116.20125979415025,171.64267748353814 116.46305115993891,171.20966724859682 116.34137348289369,170.93528218158463 116.04271009372314,170.69090645038523 115.65555384852632,170.18928858841537 115.60024581350444,169.77770016249997 115.51175295744906,169.42184437109245 115.40113688739075,169.13029758771881 115.10247349823476,168.71012361173416 114.85543094178138,168.4700222821375 114.96604701182514,168.17846879548597 115.21308956830762,167.92550160657265 115.31264403133537,167.6982585764381 115.3273928406852,167.36382316882373 115.076663081898,166.82357564867198 115.04347826087906,166.38622725355526 114.9512982025044,166.06464460312054 114.70425564603647,165.8974206374587 114.42034106621577,165.73448381593698 114.15854970041255,165.52438012557468 114.0073744046822,165.28854818226682 114.16592410509475,164.73112188346568 114.4166538638965,164.36664678259694 114.63788600399857,164.09221635306676 114.93286219082074,163.78347994458818 115.00660623752628,163.20888105202175 114.95867260717205,162.90871427891398 114.96973421417351,162.54422312726456 114.9844830235088,162.27835696814873 114.88861576281488,161.9095720483856 114.78537409740966,161.61368409679926 114.69319403902045,161.19772209409348 114.81855891841406,160.97901874525996 115.16884314027266,160.62308729420693 115.34214165003505,160.21569211631868 115.12459671225224,159.9798299166614 114.85174373944756,159.70965883575263 114.79643570442568,159.14786887613081 114.56414195729303,158.84338410715281 114.3502842218586,158.50887712971962 114.43140267323179,157.79696866119048 114.55676755262539,157.2994831822034 114.49039791060204,156.86203411060706 114.5162083269388,156.41600284299784 114.6415732063324,155.98712208833967 114.67475802735134,155.82414623553996 114.60470118299418,155.53250363304323 114.5420187432901,155.19368096837934 114.61576278998109,154.9320565054477 114.83330772777845,154.45169252688356 115.00660623752628,154.1729073021088 115.40851129205839,153.9927681574154 115.56337379015167,153.906987336537 115.68136426486308,153.56815135458965 115.76248271625082,153.10063892294784 115.72929789524642,152.8132662732969 115.57443539713859,152.44010776291543 115.53756337380037,151.88250831121331 115.55968658781785,151.6551771463637 115.78091872793448,151.41926612552197 115.92103241666337,151.25627227036966 116.17176217545057,151.09327777268481 116.48886157629022,151.11043511848766 116.74327853741124,151.11472445383333 116.96082347519405,151.12330312316408 117.38853894609201,151.07183108042227 117.63926870487921,150.7887336999629 117.57658626517514,150.56139652151614 117.43278537411243,150.3898204648067 117.50652942080342,150.12816560751162 117.54340144415619,149.85364069847128 117.34429251805705,149.43756040820153 117.08987555692147,149.14587275953818 116.77277615609637,149.00002816347114 116.24550622217066,148.84989348303498 115.83991396527563,148.51959526687278 115.59287140882225,148.05631540023387 115.36057766171871,147.87185993418825 115.31264403133537,147.54584360921945 115.33845444770122,147.4128625278645 115.30895682900154,146.9624395577448 115.46381932709482,146.30181032327891 115.55968658781785,145.95004239708942 115.54862498080183,145.59827147717806 115.60762021815754,145.1478287328573 115.59655861115607,144.95478033965628 115.66292825319397,144.65019104113526 115.83253956062254,144.36704968002596 115.99477646336891,144.23834842008728 116.10907973576104,144.08819644361574 116.12382854509633,143.52619420381234 115.93578122599865,143.64202735178696 115.70348747888056,143.39749032528562 115.49700414811377,143.20014359972265 115.35689045937033,142.83547869239192 115.45275772009336,142.56948578915762 115.60762021815754,142.37642535159466 115.79566753726976,141.98601148826856 115.86203717929311,141.56127133770133 115.88047319096222,141.36820618962884 115.95790444001614,141.11936533482003 116.13120294977853,140.93916929755505 116.40036872024939,140.5916461493216 116.7285297280905,140.4500618064776 116.90182823782379,140.42431914655754 117.14887079429172,140.0810821484265 117.34429251805705,140.00814391898894 117.77200798894046,139.90517208174424 118.0448609617597,139.86655757662083 118.3803963742539,139.75071384469265 118.44307881395798,139.50186324818424 118.32877554156585,139.29162623135562 118.19972345982387,138.86256777540257 118.2550314948603,138.37343570017038 118.2034106621577,138.2661691199246 117.9969273313909,138.18464633268013 117.89368566601479,137.99156540536205 118.05592256874661,137.88000712492067 118.21078506685444,137.60969158059743 118.32877554156585,137.24926810329998 118.3877707789361,137.0905091454042 118.45414042095945,136.90171391476906 118.57581809803378,136.6056469291434 118.64218774007168,136.40826775979804 118.77861422646674,136.16368791545028 119.20264249500178,135.8161245927513 119.39806421879621,135.6401963639437 119.63404516823357,135.2583008007132 119.87371332003386,134.91931189307797 120.15025349517236,134.60177545589613 120.21662313721026,134.21987029090087 120.28299277923361,134.02677082957598 120.34198801660386,133.81650594488747 120.68858503611409,133.42601117601225 121.01674604395521,133.08700722871072 121.23429098172346,133.00976543374054 121.33015824244649,132.89390247037954 121.52926716854563,132.81236907907805 121.7173144876433,132.7480004985482 121.92748502074392,132.71367054790608 122.18558918421331,132.6278455464526 122.4842525733693,132.2373395376926 122.6501766784495,132.02277422466432 122.90459363958507,131.67088469776718 125.41926563221205,128.6968692889095 125.74373943770479,128.56811919537722 126.22676294362464,128.33207631438563 126.48855430942785,128.19044993799616 126.72084805654595,127.98444706863665 126.99370102935063,127.82565248858009 127.2813028114906,127.56385468512235 127.56890459364513,127.370724093842 127.92656322015682,127.2763043647974 128.65294208019623,127.20334351717975 128.79674297125894,127.21621897024306 128.9331694576831,127.2462616784469 129.1728376094834,127.24196986433526 129.6669227224047,127.18617624017133 129.851282839154,127.16900895603612 130.2015670610126,127.01450307745472 130.5776616991934,126.85570476630528 130.7325241972576,126.649695236134 131.04962359809724,126.58531704710549 131.5105238899996,126.43080898381231 132.0082962052693,126.091747595583 132.20371792902006,125.8170629098422 132.42126286680286,125.57671231032873 132.73098786296032,125.42220047157389 132.9632816100784,125.37928041372288 133.09970809648803,125.40074044823996 133.29881702258717,125.50374845854822 133.5458595790551,125.67971988148565 133.84821017054492,126.03595241672883 134.23167921339336,126.4222251855499 134.60777385158872,126.53810631135639 134.77369795668346,126.56814951308843 135.06498694115726,126.51664686816002 135.52588723305962,126.42651708490666 135.78399139652902,126.35784664177118 136.37025656783953,126.17758618501102 136.62836073129438,126.16900233408887 137.2072514979227,126.10462339536025 137.62759256413847,126.07457985626388 137.8082654785685,126.10891532774258 138.2064833307668,126.13895884184603 138.34659701952478,126.10462339536025 138.4903979105875,126.16900233408887 138.66000921801606,126.18617003412874 139.0029190351779,126.12608305276808 139.28683361498406,126.1647104079675 139.44538331541116,126.20762964913592 139.67398986019543,126.22908925297088 139.98002765400452,126.23767309139657 140.1090797357465,126.16900233408887 140.36349669688207,126.14325077064859 140.89445383315615,126.15183462692221 141.37747733906144,126.14754269900732 141.57289906284132,126.11320725965925 141.78306959595648,126.06599598394314 142.2144722691737,126.04024435623796 142.65693654940696,126.01449271246383 142.8966047011927,126.04453629529962 143.31694576740847,126.03595241672883 143.67460439392016,126.06170404711156 143.91058534337208,126.07028792032725 144.10969426947122,126.10462339536025 144.42310646797705,126.22050541278077 144.67014902443043,126.23338117240928 144.94300199723511,126.27200842720049 145.09417729299457,126.30205182260033 145.4739591335092,126.40934948483846 145.6140728222381,126.45226847163212 145.93854662774538,126.54239819864961 146.38469811031246,126.67115461015783 146.76447995084163,126.75699199471637 147.25487786141457,126.82566177386252 147.90382547242916,126.85570476630528 148.4458442157047,126.78274317528121 149.21646950376453,126.649695236134 149.64049777231412,126.62823585094884 149.85066830541473,126.61965209375194 150.02765401751094,126.60677645461328 150.21201413428935,126.52093875768333 150.69503764019464,126.32351137736623 151.09325549239293,126.16900233408887 151.25180519282003,126.01020077028079 151.76801351974427,125.8127709471155 152.36902750037552,125.74839145279475 152.97741588570352,125.68830383415843 153.30188969119627,125.65825999202934 153.53787064066273,125.62392414569331 153.86971885082312,125.58958827078095 154.14625902596163,125.50374845854822 154.3416807497415,125.46941248367875 154.6108465201978,125.35782036806631 154.9611307420564,125.22905985977559 155.2339837148611,125.09600691255037 155.56583192503604,124.93290916631668 155.77968966047047,124.82560766599636 156.00829620524019,124.70972173233167 156.24058995237283,124.67538509690712 156.45076048547344,124.71401380974567 156.63880780458567,124.70972173233167 157.08127208480437,124.46507258160636 157.30619142725482,124.46078047830088 157.4868643416703,124.4736567868822 158.04731909664406,124.48653309143992 158.42341373482486,124.48224099037179 158.6483330772753,124.51228568852821 158.8880012290756,124.36206197902357 159.2235366415698,124.3706462057271 159.51113842372433,124.27192749087408 159.75080657551007,124.20754559310808 159.84667383621854,124.45648837454064 159.84298663388472,124.7826869877681 159.7803041941952,125.02733425583938 159.66968812413688,125.19901568336718 159.39314794898382,125.35782036806631 159.20878783223452,125.67113592705209 159.2530342602695,125.8943181624636 159.42633277000277,126.06170404711156 159.62175449378265,126.18617003412874 159.82455062223016,126.25484076286375 160.10109079735412,126.40505758371 160.21170686739788,126.50377119687982 160.3923797818279,126.64540335999482 160.60992471962527,126.73982453209464 160.81272084804368,126.74840826430227 161.0081425718381,126.86858032780583 161.3399907819985,126.9329580750491 161.74189583654515,126.9114988371366 162.1069288677245,126.89003958804096 162.4350898755656,126.73982453209464 162.89599016745342,126.45226847163212 163.11353510525078,126.37930616752783 163.36057766170416,126.47801984228136 163.7256106928835,126.58960892950563 163.89890920264588,126.62823585094884 164.1017053310643,126.67973835664816 164.27500384084124,126.649695236134 164.94238746349583,126.38788997469237 165.08250115225383,126.32351137736623 165.59502227684425,126.03166047676496 165.93055768933846,125.8127709471155 166.314026732216,125.64109207243746 166.71961898908194,125.72263962693978 167.17683207865048,126.00590882765027 167.54186510984437,126.0574121098216 167.88477492702077,126.08316372680929 168.31249039791874,126.06599598394314 168.85082193886046,126.18617003412874 169.1752957443532,126.37072235855885 169.5182055615296,126.54239819864961 169.86848978337366,126.76557572335878 170.19296358888096,126.92437438122943 170.6944231064699,126.91579068560895 170.98202488862444,126.88145588528278 171.3359963128023,126.84282920078476 171.608849285607,126.84282920078476 171.85589184206037,126.84282920078476 172.09924719617993,126.80420248015798 172.3426025502995,126.73982453209464 172.8366876632208,126.7183651937521 173.02842218466685,126.57244139725663 173.2939007528039,126.40505758371 173.56675372560858,126.28488417077097 173.84329390074708,126.23338117240928 174.34844062066986,126.07457985626388 174.6139191888069,126.10033146255228 174.846212935925,126.16900233408887 175.07113227837544,126.1647104079675 175.46566292825446,125.9672813238285 175.84913197111746,125.97586521670382 176.11092333690613,125.82564683393139 176.4907051774353,125.64109207243746 176.7303733292356,125.70976370798962 177.1838992164703,125.63680009141535 177.61530188968754,125.42220047157389 178.009832539552,125.31490024326922 178.45598402211908,125.16038742443561 178.80258104164386,125.28914814695963 179.1528652634879,125.50374845854822 179.38884621293982,125.64109207243746 179.75756644646754,125.84281467678011 180.14103548931598,126.07028792032725 180.41757566446904,126.25054884566634 180.73836226762796,126.44797657495292 180.91534797970962,126.58102516427243 181.05546166845306,126.76986758701241 181.28775541557116,126.94154176710799 181.61591642341227,127.1175070607569 181.8371485635289,127.2248026033958 182.27592564141378,127.51235328246185 182.52296819786716,127.77415141252277 182.80319557535404,128.07886517802763 182.93962206176366,128.4393687003212 183.19035182055086,128.78270246152897 183.50376401904214,128.66253596988827 183.8798586572375,128.61961928096935 184.23751728376374,128.65824430300927 184.45506222154654,128.80416072680237 184.70947918266756,129.01445113625596 185.008142571809,129.26336493049894 185.1925026885874,129.7483133576352 185.3141803656472,129.92426668840199 185.8230142879038,130.12167684986707 185.9520663696312,130.1731749976243" stroke="#ff7300" stroke-linecap="round" stroke-linejoin="round" stroke-width="0.5"><title>2024-03-06 36.2km</title><desc>9223370327144915207</desc></polyline><polyline fill="none" points="22.417007134092273,194.0 22.42331470164936,194.0146654204218 22.309778485854622,194.10999057918525 22.39808443147922,194.50595525079552 22.417007134092273,194.90191771001264 22.391776863951236,195.3418734033694 22.31608605341171,195.75249625303695 22.20885740520316,196.14845174780203 22.095321189408423,196.56640237019747 22.057475784124108,196.97701812531886 22.0637833517103,197.41696093743667 22.139474162220722,197.76891322098527 22.240395242901286,198.14286060733866 22.410699566593394,198.50947377675766 22.4926979446318,198.8540884270551 22.43592983673443,199.55797697466915 22.618849295482505,200.0272321232478 22.53054334988701,200.41583169166552 22.675617403379874,200.83375715184957 22.74500064633321,201.20768836978823 22.74500064633321,201.5302941101254 22.625156863039592,201.8748940746882 22.278240648156498,202.56408897846995 22.095321189408423,202.95267464053904 21.925016865774523,203.33392642764375 22.051168216596125,203.67851762496866 22.227780107816216,203.99378044476907 22.473775241989642,204.31637350680103 22.726077943720156,204.60963865309895 23.224375779624097,206.01729446965328 22.85853686212795,205.51142137773422 22.959457942808513,205.9293167999058 23.054071455961093,206.3398783247976 23.142377401556587,206.75043747234304 23.24329848223715,207.09501206485584 23.382064968231134,207.5275607786607 23.47667848135461,207.94544431819668 23.495601183967665,208.33400048748445 23.495601183967665,208.71522333900066 23.45775577868335,209.0964441409742 23.3946801032871,209.47766289349238 23.30006659013452,209.8222242334159 23.199145509453956,210.18144597543142 23.23699091473827,210.56998989274143 23.224375779624097,210.93653880659986 23.281143887492362,211.39105682856461 23.28745145504945,211.98485824252566 23.23699091473827,212.6299701931348 23.388372535730014,213.06981588592316 23.577599562035175,213.40702906967635 23.77313415586832,213.71491796762712 24.056974695296958,213.94216843973845 24.42281361282221,214.11810378903465 24.788652530289255,214.21340192101343 25.034647664491786,214.4699731783403 25.13556874517235,214.84383249178063 25.13556874517235,215.21035931738152 25.198644420597702,215.58421472824557 25.35633360920474,216.15598978041817 25.816786039824365,217.37282903644518 25.898784417891875,217.75400330490083 26.01232063365751,218.13517552510166 26.151087119593285,218.4650344470865 26.289853605558164,218.8168822732332 26.460157929221168,219.1394079141537 26.624154685327085,219.52057269016223 26.813381711632246,219.91639548221428 26.94584063004004,220.2975560834675 27.059376845805673,220.7226943381611 27.12245252126013,221.2797681948141 27.071991980890743,221.64626176760794 27.02153144055046,221.9467850845831 26.964763332653092,222.32060499498039 26.933225494954968,222.71641216504213 26.882764954614686,223.1122171270108 26.825996846717317,223.48603089696553 26.825996846717317,223.9038204268727 26.863842251972528,224.35092579521734 26.92691792739788,224.6954148950681 27.10352981861797,225.19382169617893 27.23598873699666,225.58228339291236 27.393677925603697,225.96341355681216 27.526136843982385,226.3298829377527 27.62075035716407,226.72566774335428 27.67751846506144,227.06281602178933 27.727979005372617,227.4072919561586 27.727979005372617,227.88369208866789 27.709056302759564,228.3014557267452 27.822592518554302,228.6972295363521 28.119048193038907,229.08567205508007 28.674114136840217,229.29088611231418 29.07779845962068,229.27622798504308 29.298563323594863,229.5107576579685 29.355331431492232,229.7232995045997 29.4562525122019,230.1190653849335 29.76532332180068,230.28763166376302 30.244698455062462,229.93584071470104 30.572691967332503,229.69398342568456 30.71145845326828,229.54740284936997 30.875455209374195,229.45212531241123 31.15298818127485,229.18095008402452 31.506211963685928,228.96840661310125 31.87835844871006,228.81449542644987 32.26942763637635,228.74120426784793 32.64788168895757,228.71188778323267 33.0641811468231,228.67524216041784 33.45525033448939,228.77784985661856 33.74539844147512,229.07834297064983 33.915702765167225,229.47411244767136 34.02923898093286,230.01645962787734 34.06077681866009,230.39023702877603 34.02923898093286,230.77867028112087 34.14908276425558,231.16710140756913 34.36984762822976,231.56285923680844 34.72937897819793,231.8266965636576 35.088910328166094,232.0612178085721 35.48628708336037,232.2371082337486 35.864741135941586,232.27375201747054 36.255810323607875,232.21512195445393 36.62795680866111,232.0612178085721 36.918104915646836,231.84868296326022 37.29655896825716,231.79005254912045 37.662397885724204,231.94395728296513 37.84531734447228,232.25909450624022 37.82008707430214,232.65484624660166 37.908393019926734,233.01395239768317 38.198541126883356,233.33641351577535 38.53914977420936,233.570929772417 38.93652652943274,233.63688732999435 39.31498058201396,233.51962940749218 39.58620598635753,233.2484697197724 39.92681463371264,233.16785447769507 40.14757949768682,233.4610003735943 40.14127193015884,233.8347596349995 40.14757949768682,234.23050259015872 40.13496436263085,234.6409003613735 40.09711895737564,234.99266799106408 39.964660038938746,235.38840449073177 40.04035084947827,235.7621536036022 40.229577875783434,236.09925895868219 40.4566503073147,236.39972107805806 40.78464381955564,236.55361581742181 41.15048273705179,236.64155551871227 41.49739895190578,236.55361581742181 41.8758530045161,236.64155551871227 42.26061462465441,236.78079315627838 42.67060651493375,236.94934361529886 43.03013786490192,237.19850443037285 43.383361647312995,237.4769772476502 43.705047591996845,237.68216704560473 44.014118401595624,237.8433871850866 44.35472704892163,237.99727879489365 44.701643263804726,238.14384192264697 45.03594434357365,238.3123891455034 45.206248667265754,238.6128418981607 45.338707585673546,239.01588627677847 45.691931368084624,239.25771180564334 46.064077853108756,239.47755248075555 46.39207136534969,239.71937643714773 46.61283622938208,239.99051140874508 46.85252379599842,240.32759668635845 47.193132443295326,240.5694177474652 47.54635622573551,240.74528709278093 47.792351359908935,241.05305739883624 47.83650433272123,241.39013763188996 48.13296000723494,241.6685940087118 48.4104929791647,241.91773826231656 48.67541081595118,242.1815371073899 48.99709676063503,242.3940410198411 49.318782705347985,242.63585504316143 49.67200648775906,242.84835759596172 49.89277135176235,243.14879115441727 50.08830594559549,243.47853384073824 50.33430107976892,243.65439598068042 50.75690810516244,243.72767174377077 51.110131887573516,244.00611895393376 51.45074053489952,244.18197978725948 51.78504161469755,244.37982270417706 52.11934269446647,244.60697500307288 52.51041188216186,244.65093988023727 52.769022151391255,244.99533047621662 53.08440052854712,245.0173127979724 53.34301079780562,244.98800303410826 53.73407998550101,245.00265791754646 54.09991890299716,245.02464023703214 54.39637457753997,245.31773718004115 54.604524306429084,245.64746979495976 54.95144052131218,245.77936241224234 55.32358700633631,245.77203505103535 55.702041058946634,245.75738032635854 56.074187543970766,245.6621245422939 56.24449186766287,245.28110012832622 56.440026461466914,244.95869325816602 56.82478808160522,244.87809131188988 57.20954970171442,244.92205602119066 57.588003754324745,245.0099853581487 57.94122753673582,245.17118885974924 58.231375643692445,245.36902902068687 58.62875239891582,245.4349756185402 58.963053478713846,245.65479716900154 59.23427888308652,245.91858213139494 59.47396644967375,246.22633001580107 59.82088266458595,246.4021853509621 60.19302914961008,246.51942199916812 60.552560499549145,246.6439857258083 60.89316914687515,246.761221974848 61.259008064400405,246.88578527736536 61.637462116981624,246.937075985501 62.01591616956284,246.94440322650917 62.40067778970115,246.937075985501 62.77913184228237,246.88578527736536 63.15758589486359,246.82716727985826 63.56757778514293,246.7758764923492 63.93341670263908,246.70993113969598 64.33079345786246,246.6439857258083 64.69032480783062,246.6879493418819 65.23908318407484,246.58536752871441 65.63015237174113,246.54873113096255 65.97076101906714,246.61467663333315 66.2924469637801,246.80518551833666 66.60151777337887,246.98103942014131 66.9358188531769,247.10560233712022 67.30165777067305,247.20085618505982 67.64226641799905,247.26680108181608 67.9639523626829,247.06896620772022 68.310868577566,247.20818339880498 68.63886208980693,247.36205471354333 68.99208587221801,247.49394414656126 69.32638695198693,247.62583333464863 69.69222586948308,247.6038518202913 70.0706799220934,247.64781484217383 70.46805667728768,247.70643216233293 70.83389559478383,247.7430679628742 71.1871193771949,247.7943580518695 71.28173289034748,248.12407916812663 71.37003883594298,248.46112583816284 71.75480045605218,248.52706956478505 72.24679072445724,248.49776124939672 72.61262964192429,248.4537987536678 72.99739126206259,248.43181749554788 73.36323017955874,248.4537987536678 73.64707071898738,248.64430270536104 73.91829612336005,248.8787684059862 74.17690639261855,249.10590631536616 74.42290152682108,249.3476974852165 74.73197233641986,249.51621811682708 75.06627341618878,249.58948783192318 75.2302701723238,249.87523899867665 75.15457936178427,250.17564283182583 74.8833539574407,250.25623876602913 75.10411882144399,249.94850834341196 75.38165179334464,249.69206530610245 75.65287719768821,249.4209673741716 75.92410260206088,249.16452243212552 76.2205582765746,248.9154036017935 76.48547611339018,249.03996312618983 76.7756242203759,249.3550244775106 77.0342344896344,249.65543051090208 77.32438259662013,249.98514298744703 77.62714583869092,250.30020014615002 77.8920636755065,250.5566409877938 78.06236799916951,250.87169561151677 77.82268043252407,251.16476842550765 77.55776259570848,251.4358597018654 77.26130692119477,251.69962319391198 77.00900421946426,251.9926925919208 76.74408638267778,252.28576078077458 76.4728609783051,252.5568477789493 76.2205582765746,252.82793374260655 75.96825557487318,253.09901867172448 75.7033377380285,253.37742914373666 75.42580476615694,253.64851197590178 75.14827179425629,253.92692029434693 74.8833539574407,254.21265401291748 74.59320585045498,254.5130395035012 74.29675017594127,254.8207501524812 74.01921720404061,255.12113307181426 73.7669145023101,255.3848828806149 73.51461180057959,255.65595805264456 73.22446369362297,255.89040061054402 72.99739126206259,256.1688001432194 72.73247342524701,256.4545248450013 72.45494045334635,256.7402483976912 72.2657134270703,257.0552755982353 72.06387126568006,257.37030140193383 71.81787613150664,257.6340428610274 71.52142045696382,257.90510945155984 71.26281018770533,258.2054793304342 70.98527721580467,258.50584793951566 70.73297451410326,258.791563242914 70.4554415422026,259.04797343444807 70.1589858676889,259.3190346307674 69.83729992297594,259.5900947930422 69.57238208616036,259.8684798293034 69.23177343886346,260.0443013955155 68.9100874941505,260.2127966548869 68.63255452224985,260.44722417718003 68.38025182051933,260.72560585538304 68.03964317322243,260.9160769015725 67.73687993112253,261.16515365313535 67.45303939169389,261.4142295316342 67.11873831189587,261.604698731986 66.7592069619568,261.75121315408614 66.56367236812366,261.87575017537165 66.74028425931465,262.24203426708846 66.95474155578995,262.60831647084706 67.20704425752047,262.90134087452316 67.44673182416591,263.274945236888 67.68011182325426,263.56064136519126 67.98287506532506,263.86831283430365 68.02702803810826,264.3371429878025 67.76841776884976,264.6448110952333 67.49719236450619,264.9012001673109 67.1944291224354,265.14293758807617 66.90428101544967,265.3700235071083 66.60782534093596,265.6044340172448 66.29875453130808,265.80954257943813 66.08429723483277,265.9487230523664 65.88876264099963,265.64838590183354 65.72476588489371,265.29677006409474 65.52292372353259,264.98910477908066 65.28323615685804,264.6814381621516 64.98047291481635,264.90852555576566 64.68401724027353,265.1649136764754 64.41909940345795,264.93782710208325 64.2235648096248,264.6374856795883 64.0091075131786,264.4909772080209" stroke="#ffd600" stroke-linecap="round" stroke-linejoin="round" stroke-width="0.5"><title>2024-03-04 20.1km</title><desc>383901413</desc></polyline></svg>