<?xml version="1.0" encoding="utf-8" ?>
<svg baseProfile="full" height="300mm" version="1.1" viewBox="0,0,200,300" width="200mm" xmlns="http://www.w3.org/2000/svg" xmlns:ev="http://www.w3.org/2001/xml-events" xmlns:xlink="http://www.w3.org/1999/xlink"><defs /><rect fill="#222222" height="300" width="200" x="0" y="0" /><text fill="#FFFFFF" style="font-size:12px; font-family:Arial; font-weight:bold;" x="10" y="20">Over 10km Runs</text><text fill="#FFFFFF" style="font-size:4px; font-family:Arial" x="10" y="280">ATHLETE</text><text fill="#FFFFFF" style="font-size:9px; font-family:Arial" x="10" y="290">SAM0TA</text><text fill="#FFFFFF" style="font-size:4px; font-family:Arial" x="120" y="280">STATISTICS</text><text fill="#FFFFFF" style="font-size:3px; font-family:Arial" x="120" y="285">Number: 8</text><text fill="#FFFFFF" style="font-size:3px; font-family:Arial" x="120" y="290">Weekly: 1.6</text><text fill="#FFFFFF" style="font-size:3px; font-family:Arial" x="141" y="285">Total: 151.9 km</text><text fill="#FFFFFF" style="font-size:3px; font-family:Arial" x="141" y="290">Avg: 19.0 km</text><text fill="#FFFFFF" style="font-size:3px; font-family:Arial" x="167" y="285">Min: 11.9 km</text><text fill="#FFFFFF" style="font-size:3px; font-family:Arial" x="167" y="290">Max: 36.2 km</text><polyline fill="none" points="44.554146961221704,85.04379418542521 44.52671234097215,85.17760828154132 44.576094657415524,85.28593376628487 44.88884932821384,85.47072386105356 45.069917821878335,85.56630472786128 45.41559403701103,85.87216250869096 45.76675717617036,86.31820239373701 45.96977336599957,86.61131256625958 46.18376340396935,86.77061099031198 46.35934497351991,86.96814046620784 46.463596530491486,86.92990900399673 46.403240365936654,87.0 46.19473725205171,86.74512327005868 45.82711334072519,86.29271448700092 45.60214945470216,86.025090831743 45.432054809178226,85.70011769313714 45.22903861931991,85.55993267465965 45.10832629021024,85.45160766995832 45.27293401173665,85.29230584770994 45.55825406231452,85.0183057533468 45.67347946733935,84.9482125109098 45.76127025214373,84.86537494012009 46.013668758416316,84.75067658196349 46.15084185966407,84.66783874653629 46.23863264443935,84.6041172591249 46.39775344191003,84.52127922731961 46.507491922879126,84.4448132532998 46.441648834297666,84.18992599022022 46.44713575832429,84.06248196462548 46.502004998823395,83.9222932330631 46.56784808743396,83.78847642002438 46.71599503676407,83.75661523137387 46.929985074704746,83.59730904183743 47.10007972025778,83.50809739638134 47.231765897449804,83.40614107254441 47.325043606280815,83.34879056647333 47.4128343910852,83.27232314230059 47.50062517586048,83.21497251211258 47.69815444163396,83.17036642965104 47.780458302411716,83.1002710921457 47.91214447960374,83.04929261494544 48.01639603651711,82.96008017872009 48.07126527704531,82.81351661114968 48.27976839093026,82.77528257985614 48.46632380859228,82.54587789553989 48.54862766934093,82.36745144142697 48.38950687189936,82.20814167225035 48.21941222634632,81.93412790894581 48.04383065676666,81.75569968919808 47.97250064412947,81.67285784068372 47.82984061882598,81.44982154291938 47.73107598593924,81.29688190223897 47.4128343910852,80.85080578898487 47.297608986031264,80.6660018847906 47.19335742908879,80.47482485076034 47.017775859480025,80.16894036652229 46.929985074704746,80.03511542873093 46.940958922787104,79.92040810855542 46.79829889751272,79.49344010168352 46.68307349248789,79.02186006953343 46.62820425195969,78.86254167804873 46.51846577099059,78.39095683253981 46.403240365936654,77.88113133050138 46.403240365936654,77.72180999868215 46.43067498621531,77.53062385844169 46.386779593798565,77.44140345727283 46.27704111280036,77.0526559204518 46.24960649255081,76.93157012269876 46.22765879635699,76.81685704284246 46.18376340396935,76.70214375007708 46.17278955585789,76.50458146898382 46.16181570774643,76.40261359294527 46.12889416347025,76.22416940507901 46.057564150803955,75.99474040645873 46.002694910304854,75.84816032259187 45.964286441972945,75.75893749262468 45.843574112892384,75.62510300612485 45.519845593953505,74.93680678331657 45.53081944203586,74.63726807019339 45.492410973703954,74.44607238780736 45.48692404964822,74.03181304668033 45.426567885122495,73.99357358288034 45.432054809178226,73.88522830696456 45.28939478384564,73.90434807533893 45.020535505434964,73.95533409541531 44.75716315105092,74.01906656136998 44.52671234097215,74.0891721980006 44.38405231566867,74.14653129608996 44.17006227772799,74.18477066524792 43.81889913856867,74.2612493325505 42.814792037475854,74.38871356774325 42.58982815142372,74.47793837594872 42.288047328736866,74.56078986822831 42.19476961987675,74.54804349203187 42.090518062905176,74.59265579721614 41.81617186043877,74.6117753467297 41.739354923774954,74.52255073176275 41.65156413897057,74.08279896159002 41.64607721491484,73.94258759434888 41.56377335416619,73.80237590897377 41.481469493417535,73.68765702069504 41.50890411363798,73.51557828892692 41.51987796177855,73.60480435781574 41.56377335416619,73.80874917430992 41.61864259466529,74.0700524868189 41.65156413897057,74.17839743868171 41.67899875919102,74.37596715605468 41.68997260730248,74.5098043476537 41.79422416424495,74.49068476660614 41.903962645243155,74.49705796095441 42.20025654390338,74.61814852857424 42.15087422746001,74.4843115716103 42.35937734134495,74.4269527870274 42.61177584764664,74.34410111533361 42.770896645088214,74.3122350581798 42.99586053111125,74.28674220062385 43.341536746243946,74.2293832326759 43.731108353764284,74.159277755105 44.18652304986608,74.12741160263249 44.42246078402968,74.06367924842561 45.7009140875889,73.79600264299734 45.80516564453137,73.776882841099 45.83808718883665,73.91709458430705 45.82711334072519,74.03818628833687 45.69542716356227,73.96808059388422 45.569227910396876,73.64304406216615 45.48692404964822,73.31800582080905 45.432054809178226,73.16504605682712 45.39364634081721,73.04395264183768 45.37169864462339,72.83363193600235 45.28939478384564,72.59144356980687 45.25098631551373,72.40661496751636 45.190630150958896,72.2345326684408 45.119300138321705,72.10706398975162 45.13027398643317,71.97959504815299 44.9546924168244,71.39323452981989 44.960179340909235,71.03631670740288 44.9546924168244,70.83873631201277 44.94920549279777,70.76225340872043 44.92177087251912,70.46906806896004 44.883362404216314,70.22049679986958 44.79557161941193,69.92093522373762 44.702293910551816,69.61499849796746 44.77362392318901,69.6596143648203 44.69680698652519,69.40466612024102 44.63645082197036,69.16246431346372 44.54866003716597,68.99674674069684 43.83535991073586,67.5243903255141 43.79146451831912,67.25668538914397 43.785977594263386,67.09096270434384 43.692699885432376,66.94436149718604 43.5884483284899,66.63841003121343 43.51711831582361,66.4280675193877 43.429327531019226,66.19860214421351 43.385432138631586,66.10936537923408 43.357997518382035,65.95638776793203 43.29764135385631,65.8798988202143 43.29764135385631,65.61856086760235 43.176929024775745,65.18511987456804 43.05621669566608,64.75167584015799 42.97939975897316,64.66881119315076 42.93001744252979,64.43933928282058 42.88063512608642,64.1524981961411 42.710540480562486,63.4322024841058 42.60628892359091,63.06886429177757 42.4581419742608,62.51429135116268 42.414246581844054,62.40592594210466 42.392298885650234,62.303934795229 42.24963886037585,62.01070930977585 42.20025654390338,61.749354986335675 42.19476961987675,61.62823919313814 42.26061270845821,61.513497696298145 42.24415193629102,61.38600689423038 42.05210959460237,61.20114476377785 41.96431880976888,61.17564649547421 41.7667895439954,61.00990749483026 41.6570510629972,60.90153944623307 41.574747202248545,60.82504423863429 41.481469493417535,60.767672770747595 41.40465255672461,60.691177397337015 41.157740974478656,60.54456100011157 41.00410710112192,60.346947044450644 40.894368620123714,60.117459076620435 40.94923786059371,59.926218451983004 40.91631631628843,59.88159555436505 40.76268244290259,59.49273751032888 40.548692404991016,59.46723853666481 40.06584308861056,59.55648489846499 39.4897160633991,59.518236473493744 39.31413449381944,59.505486993239174 39.03978829132393,59.54373542610119 38.902615190076176,59.505486993239174 38.4691481901682,59.518236473493744 38.101524278812576,59.505486993239174 37.931429633288644,59.505486993239174 37.7229265194037,59.499112252109626 37.54734494982404,59.505486993239174 37.35530260807718,59.49273751032888 37.163260266330326,59.499112252109626 36.79563635503291,59.46086379161352 36.499342456343584,59.42899005640356 36.33473473487538,59.4034910564078 36.14269239312853,59.39074155246999 35.9561369754374,59.282370662647736 35.736660013440996,59.288745426129026 35.52266997550032,59.22499776163386 35.336114557809196,59.24412206789202 34.51856287443661,58.97000644559739 34.50210210226942,59.1166265809552 34.414311317465035,59.0465039509545 33.90951430491987,58.75326299909648 33.90402738089324,58.638516160637664 33.93694892516942,58.54289363238058 34.10155664663762,58.39627213478889 34.249703595996834,58.23052567482591 34.2442166719411,58.11577786505586 34.304572836495936,58.0137796328745 34.392363621271215,57.848032146299374 34.48564133013133,57.51016089202676 34.55697134276852,57.37628686480457 34.672196747822454,57.10216295112696 34.880699861678295,56.61128685565927 35.01238603889942,56.27340883422585 35.072742203454254,55.90365340901553 35.122124519897625,55.827152010111604 35.20442838061717,55.68052406394054 35.24832377303392,55.32989060685213 35.242836848978186,55.12588477007739 35.209915304672904,55.01750639513557 35.166019912285265,54.826249975285464 35.13309836797998,54.44373535821069 35.00689911484369,53.86995898910027 34.89716063384549,53.58944415684164 34.864239089540206,53.44281089634751 34.76547445668257,53.12404173730829 34.770961380709196,52.830772657333 34.858752165484475,52.773393761330226 35.166019912285265,52.652260361344815 35.32514070972684,52.63950946330806 35.5555915198056,52.563004019801156 35.80799002607819,52.48649848146306 35.91772850707639,52.46099661430344 36.131718545017065,52.371739996229735 36.20853548170999,52.307985190011095 36.09331007668516,51.970083617899945 35.86285926657729,51.447288861985726 35.71471231724718,51.122133792869136 35.82993772230111,50.886235906054935 35.81896387418965,50.73959622474649 35.64886922863661,50.459067168209 35.5007222793065,50.133906893799576 35.336114557809196,49.751363201634376 35.23186300089583,49.63022387156889 35.166019912285265,49.39432028336887 35.01787296295515,49.21579804977591 34.96849064651178,49.018147831771785 34.90813448195695,48.884255389024474 34.76547445668257,48.775866055970255 34.672196747822454,48.46344867814696 34.683170595933916,48.28492375226415 34.61732750732335,48.16378154421545 34.65573597565526,47.908744539567124 34.63378827946144,47.76847373781857 34.65573597565526,47.66645840907222 34.50210210226942,47.55169096264581 34.43077208963223,47.39229137750226 34.47466748201987,47.13087516671294 34.55697134276852,45.57510700943749 34.743526760459645,46.13620824330792 34.814856773096835,45.92579587840373 34.57891903896234,44.497523288428056 34.52953672251897,44.255223766042036 34.55697134276852,44.14682630328389 34.50758902632515,43.99379426703672 34.47466748201987,43.86626728027477 34.43625901368796,43.68772905604419 34.38687669724459,43.59845975024291 34.375902849133126,43.51556670779246 34.28811206432874,43.375285920748865 34.282625140302116,43.27326332988014 34.183860507415375,43.09472339000058 34.04668740616762,42.97357099374494 33.898540456808405,42.88430065483408 33.79428889986593,42.06173216884417 33.766854279645486,41.57073645127093 33.74490658342256,41.353931903959165 33.70649811506155,41.20726957235456 33.79977582389256,41.0542302459653 33.860131988476496,40.95220381750187 33.74490658342256,40.85655388759551 33.60773348217481,40.78003383692703 33.54737731764908,40.51858961442122 33.5144557733438,40.35279514325157 33.48702115306514,40.24439082505705 33.44861268476234,40.135986316399794 33.432151912595145,39.970190817137336 33.37179574806942,39.88729290045376 33.34436112779076,39.77888776437976 33.333387279708404,39.670482437868486 33.17975340632256,39.472801646232256 32.92735490002087,38.54178036965823 33.0041718367429,38.09539532270355 33.0041718367429,37.92959433979922 32.85602488738368,37.808431801284314 32.72433871019166,37.48958187865355 32.66946946969256,37.21536962721075 32.609113305137726,37.05594333931003 32.521322520362446,36.97304150676064 32.466453279863345,36.87100832919532 32.35671479886514,36.79448333525215 32.3128194064775,36.698826959342114 32.19210707736784,35.83791290153749 32.17564630522975,35.51267557511164 32.17015938117402,35.39150828961283 32.093342444481095,35.18105928067598 32.04396012806683,34.91959133006458 31.95616934323334,34.7474045134295 31.895813178707613,34.65812227114657 31.873865482513793,34.45404808923922 31.78607469770941,34.2435958820206 31.692796988849295,34.026765584178065 31.528189267381094,33.235966274205566 31.44039848257671,33.10841704891209 31.43491155852098,33.0" stroke="#4dd2ff" stroke-linecap="round" stroke-linejoin="round" stroke-width="0.5"><title>2024-05-13 15.0km</title><desc>9223370321284178807</desc></polyline><polyline fill="none" points="152.8636567976646,33.0 152.8636567976646,33.0462359952362 152.99180166011502,33.05651065498023 153.44693686126266,33.08733462150121 153.56182535864355,33.0821972950871 153.74299568141578,33.19521835357591 153.76067083486123,33.44180886064714 153.76950841158396,33.590790031703364 153.7650896232226,33.78086880765841 153.8181150835444,34.14561252846761 153.8313714486285,34.232945134364854 153.8667217555194,34.46925612113046 153.89765327403438,34.66446869646461 153.89765327403438,34.890503350969084 153.92416600420256,35.20900498087576 153.9550975227321,35.43503715593033 153.95067873437074,35.52750456728245 153.941841157648,35.830590985900926 153.92858479256392,36.16963461738851 153.93742236928665,36.60627830731755 153.9683538878162,36.67819572317967 153.94625994600938,36.81689330244262 153.97277267617756,36.99154896217806 153.98161025288573,37.11483494030472 154.00370419469255,37.19188852116713 154.021379348138,37.38195350931346 154.03463571323664,37.4692804220831 153.99928540633118,37.561744044636725 154.01254177141527,37.69530230656892 154.03463571323664,37.839133879162546 153.99928540633118,37.941870461621875 153.87555933224212,38.38877212166335 153.87997812060348,38.48123403187492 154.2113872476475,40.29961660961635 154.22022482437023,40.63862972550123 154.2423187661625,40.79786235987922 154.23789997780113,40.98791354542118 154.22022482437023,41.321785488507885 154.21580603599432,41.41937840173705 154.20696845928614,41.6659280651038 154.19813088256342,41.92274932947839 154.22022482437023,42.030613864477345 154.23348118943977,42.42097879486391 154.2290624010784,42.595614743986516 154.23348118943977,42.74456845063469 154.24673755452386,43.011656736922305 154.2555751312466,43.11951890690398 154.29534422649886,43.30956120787232 154.29092543812294,43.4585127732571 154.37930120533565,43.57151021452955 154.3969763587811,43.735869670174 154.40139514714247,43.82318540974666 154.46325818420155,43.95672683219891 154.4986084910779,44.21353625080883 154.5472151630529,44.398438209987944 154.54279637467698,44.5319780857717 154.58256546992925,44.6347008228222 154.64442850697378,44.82473732630024 154.67977881385013,44.94800385871713 154.7195479091024,45.09695051056406 154.79466731123102,45.40511457915272 154.85211155992874,45.57974003602067 154.87420550173556,45.67732458276805 154.922812173696,45.75950089448452 154.9935127874778,45.954669089951494 155.03328188270098,46.10874870259795 155.08630734303733,46.416906494108844 155.11723886156688,46.71992645827413 155.1393328033737,46.83291648025988 155.21887099386367,46.98699336878053 155.25864008911594,47.17702087314319 155.3116655494232,47.336232546851534 155.33817827959138,47.52112288244825 155.4000413166359,47.67006181900069 155.36469100975955,47.88576569408906 155.40446010499727,47.962802565361926 155.4972546605859,48.03470353743978 155.54144254418497,48.1682336380436 155.62981831139768,48.270948855828465 155.65633104156586,48.42502128428532 155.6872625600663,48.491785854901536 155.73145044369448,48.69721474018297 155.7844759040163,49.03617054381175 155.91703955482808,49.31349629943361 156.0098341104167,49.65244789851204 155.93029591991217,49.863007575921074 156.0054153220408,50.06329522144006 156.01867168712488,50.16600652134002 156.06285957072396,50.273853157716076 156.20426079825847,50.4690036189495 156.266123835303,50.7052373622937 156.27054262367892,50.782269861843815 156.31473050726345,51.141753280669946 156.40752506285207,51.36771295559447 156.44287536972843,51.47555698364522 156.55776386710932,51.85557693120427 156.71242145974247,52.31775943703906 156.74335297825746,52.42560140318892 156.71242145974247,52.52830782002275 156.7698657084111,52.718314131521765 156.82730995712336,52.76966706397798 156.88475420579198,52.94940190963098 156.9068481475988,53.02643093019651 156.93336087775242,53.18562386098711 156.9731299730047,53.30373441557094 157.0615057402174,53.616982787745656 157.0968560471083,53.74536269769669 157.14546271906875,53.940499525644555 157.17197544922237,54.0842840664518 157.20732575611328,54.33077088286518 157.30012031168735,54.56698626805883 157.2691887931578,54.746714613393124 157.2691887931578,54.95211764071428 157.2691887931578,55.1113044029953 157.45919669266732,55.30643586761653 157.54315367153322,55.47075650677289 157.56082882496412,55.61453662036365 157.50338457628095,56.13316857390964 157.50338457628095,56.35910555438386 157.46361548102868,56.667199781673844 157.4503591159446,56.81611130692909 157.43710275087506,57.226899408535246 157.4503591159446,57.401483323676075 157.39291486727598,57.591471005169296 157.42826517415233,57.714705869748286 157.46361548102868,57.81740135683867 157.5078033646423,58.146025489728345 157.5519912482414,58.32574089346963 157.68455489906773,58.64409229944431 157.77734945462726,58.95730701557841 157.8436312800477,59.07540385523316 157.8613064334786,59.162692643334594 157.94526341232995,59.4964424785976 158.02038281445857,59.645345528384496 158.07340827479493,59.789113567047025 158.10433979330992,59.871266545302205 158.1529464652849,60.02016847237974 158.197134348884,60.10232106883268 158.1441088885622,60.21528066725659 158.34737315314123,60.36931606966391 158.4755180156062,60.590099314147665 158.59924408969528,60.83141941331269 158.70971379870025,61.17029246879247 158.82460229608114,61.473222487307794 158.97484110036748,61.82749423522182 159.08972959771927,62.15095753951027 159.1515926347638,62.26904679290601 159.2708999205206,62.45388158294736 159.3416005342733,62.536030157949426 159.3416005342733,62.83381760462726 159.39462599460967,62.96217371261446 159.40788235969376,63.034052988350595 159.65533450787188,63.049455676773505 159.77022300525277,63.193213871993066 159.969068481485,63.455058088136866 160.14582001589588,63.7169009254103 160.28722124344495,63.911998613573815 160.38001579903357,64.06088843955513 160.47722914295446,64.19437549071517 160.6274679472117,64.41514175046177 160.90585161393392,64.80533088226366 161.09585951344343,65.16984691027392 161.31238014310657,65.4830205186845 161.4802941007947,65.7140489656631 161.5951825981756,65.78079031719972 161.6482080584974,65.84239763910591 161.9398480903037,66.06315658254607 162.06357416439278,66.26851285943121 162.28451358243183,66.61761658400428 162.47010269357997,66.92051341831393 162.5452220957086,67.10533091945035 162.50545300045633,67.16693660053716 162.4303335983277,67.32608425680519 162.36405177290726,67.44929499577484 162.29776994751592,67.52630155261068 162.30660752423864,67.61357550622415 162.5098717888177,67.80865790761527 162.60708513275313,67.88053017839047 162.74848636028764,68.00887326073644 162.8191869740549,68.06021040094856 163.01361366192577,68.22962258764892 163.08431427569303,68.28609318831514 163.16385246618302,68.45550460563754 163.42014219108387,68.74812296732489 163.48200522814295,68.83026114535096 163.53503068846476,68.9175328109086 163.63666282076156,69.08694207749431 163.76038889486517,69.34875526363612 163.8001579901029,69.48736168662072 163.84434587373107,69.6362348218463 163.9945846779883,70.062317539363 164.02993498486467,70.22145593143796 164.08296044520102,70.42166157249085 164.11831075207738,70.53973118820431 164.15366105895373,70.6475336360636 164.24645561451325,71.02227366098668 164.3790192653396,71.48941138292867 164.43646351405187,71.58181173135017 164.45413866746821,71.68961192091228 164.48948897435912,71.8384784653208 164.63530899026955,72.32614161154561 164.65298414370045,72.43394018819527 164.71042839239817,72.68546929196236 164.78112900615088,72.89593144238461 164.8871799268236,73.25525500739604 164.93136781040812,73.32198624087323 164.9755556940363,73.57864399699974 164.9932308474672,73.65564106566308 165.10370055647218,73.90716399281882 165.12137570991763,74.13815331604928 165.13905086336308,74.25621411155225 165.17881995861535,74.37940768645421 165.28928966762032,74.74385355954655 165.29812724434305,74.88757795861966 165.3290587628726,74.99023798949202 165.42627210680803,75.25202010949215 165.47487877876847,75.39574304069902 165.56767333434254,75.62672545325768 165.59860485287209,75.76018146956267 165.65604910155525,75.95523192642213 165.6913994084316,76.11948434970327 165.72233092696115,76.19134461439171 165.78861275236704,76.36586196801363 165.8460570010502,76.67896509774073 165.90350124976248,76.82781671438352 165.92117640319339,76.94073833341827 165.96978307515383,77.04339412836998 165.98303944023792,77.1306513875752 166.04048368890653,77.2538378459576 166.01838974711427,77.34622748962647 166.05374005399062,77.42835147334699 166.0669964190747,77.51560805752524 166.11118430268834,77.66958989168415 166.07141520745063,77.81843854513136 166.11118430268834,77.9056944453223 166.13327824449516,77.9980828787775 166.12444066777243,78.1058691676808 166.21281643498514,78.24445119609663 166.2835170487524,78.42409399192184 166.35863645088102,78.7320515617539 166.42049948792555,78.88089703738297 166.42049948792555,79.0143443267043 166.47794373663783,79.25044250048813 166.54422556201462,79.5481299057792 166.56190071547462,79.72263548793853 166.6016698107269,79.98439271393727 166.62376375251915,80.17429415346851 166.6723704244796,80.26154592330204 166.73423346152413,80.6362135492127 166.78725892186048,80.71833210407203 166.8447031705582,80.85690685820373 166.91540378432546,81.1340552090187 166.93749772611773,81.21104058815763 166.91540378432546,81.29829054056245 166.9463353028259,81.6062303265644 166.90656620760274,81.70887649853103 166.81377165202866,81.7294057075269 166.69446436630096,81.77046410010371 166.37631160434103,81.85771307188043 166.1951412815397,81.9039036421018 166.075833995812,81.93982961152142 165.95210792170838,81.94496189074198 165.55883575763437,82.02194601567317 165.25393936074397,82.05787189989132 165.15230722844717,82.06300416694285 164.86950477337814,82.05787189989132 164.80764173631906,82.12972359054038 164.63089020189364,82.31961684511407 164.3790192653396,82.45305491496038 164.2950622865028,82.4633193670561 164.24203682616644,82.54030269030045 164.39227563042368,82.89442444373708 164.50716412780457,83.22288294855389 164.59553989501728,83.42816841350577 164.70600960402226,83.55647139920256 164.7678726410668,83.62318882107502 164.8562484082795,83.75149130412683 164.9446241754922,83.86952929648032 165.06835024959582,84.03888766620366 165.15672601679398,84.13639676923776 165.36882785812486,84.43405495494517 165.4174345300853,84.63933542539598 165.33347755123395,84.67012742295628 165.20975147713034,84.73684335233338 165.13463207500172,84.77789926443074 165.0595126728731,84.83948306910315 164.89601750353177,84.96265044989559 164.52042049288866,85.0652897011023 164.46297624419094,85.04476186778265 164.38785684206232,85.08581752595637 164.2111053076369,85.15253289826796 163.91504648748378,85.23977594254757 163.84434587373107,85.2551717580136 163.702944646182,85.29622724265573 163.52619311175658,85.28596337466661 163.44223613290524,85.27569950457473 163.45991128633614,85.33728269345374 163.79573920174153,85.26030369543878 164.15366105895373,85.17819263303682 164.3083186515869,85.1114772951114 164.38785684206232,85.10634534234487 164.53367685797275,85.05502578549931 164.93136781040812,84.96778241747961 165.06393146123446,84.9164627177961 165.13905086336308,84.84974702914405 165.27161451418942,84.83435108828053 165.38650301155576,84.84461504938372 165.57651091106527,84.75737131262576 165.73558729204524,84.92672666197541 166.00513338203018,85.2808314398826 166.0625776307279,85.37833811039673 166.16420976301015,85.49637224549588 166.22165401170787,85.56821897332702 166.34979887417285,85.69138455124266 166.5000376784301,85.88639609315578 166.4735249482619,86.01982460275758 166.50887525513826,86.091670575217 166.71213951973186,86.32260335588217 166.84912195890502,86.47655794791353 166.90214741924137,86.5637986720867 166.9463353028259,86.63564385956488 166.92424136103364,86.71262073109392 167.10099289545906,86.92815533828252 167.08773653037497,86.97947296437997 167.05680501185998,86.8922329685447 166.9463353028259,86.71262073109392 166.84912195890502,86.60485307762792 166.71655830809323,86.37905342822341 166.6591140593955,86.31233969946697 166.52655040859827,86.40471253087162 166.3718928159651,86.45603069647404 166.20397885824786,86.50221700030306 166.05374005399062,86.3328670101655 165.9653642867779,86.32773518327667 165.7709375989216,86.43037162028486 165.66488667826343,86.32773518327667" stroke="#4dd2ff" stroke-linecap="round" stroke-linejoin="round" stroke-width="0.5"><title>2024-04-30 15.0km</title><desc>9223370322408862007</desc></polyline><polyline fill="none" points="13.016970458847936,117.909046851928 13.033940917666769,118.00112047799848 13.452545568841742,118.04058056263602 13.63356379637844,118.04715724101334 13.791954745451221,118.05373391871399 13.842866121936822,117.96166036887371 13.950345694524003,117.77093616266575 14.125707102473825,117.79066627950306 14.137020741705783,117.66570876933474 14.057825267140288,117.36975579136197 13.99560025142273,117.09353176824152 13.99560025142273,116.7909993175017 14.057825267140288,116.65288619802595 14.006913890654687,116.42269699843746 13.96165933375596,116.27800621755887 13.871150219987612,115.90312402526251 13.808925204270054,115.73870131327203 13.752357008168474,115.42300851346954 13.616593337530503,114.9757743619266 13.526084223762155,114.62061558711866 13.52042740417528,114.46276660546573 14.193588937778259,112.92371848083349 14.340666247648187,113.015799331788 14.453802639851347,113.00922213257945 14.974230044026626,112.98949053084289 15.489000628556823,112.99606773209234 15.834066624782281,113.00922213257945 16.41671904461691,113.00264493267969 16.79572595853824,112.95002730900524 17.678189817728708,112.93029568889688 17.80263984913472,112.96975892299088 17.949717159033753,113.00264493267969 18.255185417976463,113.00264493267969 18.453174104361096,112.93687289627633 18.826524198637344,112.94345010298639 19.160276555630844,112.9566045143547 19.32432432434871,112.96318171902385 19.759899434342515,112.96975892299088 20.127592709002784,112.9566045143547 20.608422375895316,112.96318171902385 20.744186046533287,112.97633612628852 21.275927089882316,112.98949053084289 21.626649905723752,113.00264493267969 21.796354494057596,113.10130285959895 21.88120678818086,113.1868062723297 22.050911376514705,113.19338345314827 22.282840980537003,113.10788004926872 22.59962287871167,113.08157128645689 22.7467001885816,112.95002730900524 23.12570710244472,112.92371848083349 23.23884349464788,112.97633612628852 23.351979886880144,112.95002730900524 23.52734129477176,112.87110079179911 23.64613450662,112.86452357758753 23.90634820869309,112.86452357758753 24.059082338149892,112.96318171902385 24.46071653047693,112.93029568889688 24.709616593347164,112.95002730900524 24.80012570708641,112.97633612628852 24.969830295420252,113.03553092533184 25.077309868007433,112.97633612628852 25.196103079855675,112.98949053084289 25.65430546825519,113.0684169009728 25.778755499690305,113.09472566923068 26.027655562531436,113.11445723825818 26.140791954734595,113.09472566923068 26.485857950989157,113.13418880118479 26.64990571970702,113.1407659874676 27.06851037085289,113.19338345314827 27.362664990592748,113.23284652382426 27.532369578897487,113.19996063328654 27.685103708383394,113.19996063328654 27.905719673173735,113.2591552239719 28.047140163427684,113.278886741944 28.205531112500466,113.37754423985461 28.386549340037163,113.31834975950187 28.612822124472586,113.46962443304074 28.74292897549458,113.48935588562745 28.918290383415297,113.4959330351412 29.178504085488385,113.5617044927385 29.472658705257345,113.54855020665855 29.715901948482497,113.54855020665855 29.93086109365686,113.53539591787921 30.140163419244345,113.5617044927385 30.564424890035298,113.68009294482181 30.75109993715887,113.6669386832582 30.954745443130378,113.67351581438561 31.08485229415237,113.69982433204132 31.2828409805079,113.739287088134 31.407291011943016,113.77874981970672 31.842866121936822,113.83794387109083 32.148334380908636,113.89056075936605 32.493400377134094,113.96290890956152 32.827152734127594,114.00894859861728 32.99120050284546,114.04183407038727 33.09302325581666,114.06156534526235 33.20615964801982,114.08787370224309 33.703959773731185,114.19968409785724 34.05468258957262,114.27860896453421 34.21873035826138,114.28518603232442 34.37146448777639,114.3575337331531 34.51288497800124,114.33122548782922 34.665619107487146,114.33122548782922 34.84098051543697,114.31149429670404 35.64990571967792,114.21941532371056 35.96668761788169,114.22599239764531 36.35135135136079,114.22599239764531 36.69641734758625,114.34437961184813 36.764299182919785,114.64034668223758 36.8378378378693,114.7390020659659 36.854808296688134,114.64034668223758 36.905719673173735,114.74557908610586 37.19987429288449,114.79819522268735 37.380892520421185,114.81792626266906 37.66939032054506,114.86396533212246 37.76555625395849,114.85081131567858 38.13324952861876,114.96919736562631 38.291640477691544,114.9757743619266 38.467001885641366,115.00865933323439 38.636706473917,115.10731414507245 38.76115650535212,115.07442922480186 38.96480201132363,115.11389112708639 39.13450659962837,115.16650695863063 39.287240729114274,115.33093115139854 39.45128849783214,115.35066202592498 39.54745443118736,115.33750811024584 39.70584538028925,115.34408506843101 39.85857950974605,115.38354680319753 40.06222501574666,115.42300851346954 40.333752357022604,115.48877797611931 40.66750471404521,115.55454737067703 41.012570710270666,115.6663551851816 41.238843494676985,115.71239363986751 41.436832181032514,115.74527822991149 41.578252671286464,115.77158588970997 41.985543683258584,115.77158588970997 42.33060967945494,115.84393189796174 42.449402891274076,115.92943161967196 42.58516656194115,115.87681641993186 42.90194846011582,115.96889299090617 43.10559396605822,116.01493122635657 43.495914519182406,116.08727695752532 44.06725329981418,116.17935322351696 44.25958516658284,116.22539130647056 44.638592080475064,116.29773679798745 45.000628535519354,116.33719794047283 45.323067253339104,116.39638960823868 45.43620364551316,116.45558122086368 45.628535512281815,116.50819594135464 45.86046511627501,116.55423378604246 46.1715901948628,116.6068484248135 46.4544311753707,116.65946302005614 46.84475172846578,116.81072973862683 47.16153362666955,116.85019056250894 47.28032683845959,116.83046015362197 47.45003142679343,116.86992096525864 47.795097422989784,116.95541930638501 48.06662476432393,117.00803361297221 48.174104336911114,117.03434074993129 48.32118164678104,117.10010854465872 48.52482715275255,117.11326209544131 49.00565681961598,117.33029529016494 49.37335009430535,117.4749836747942 49.58830923947971,117.61967172996447 49.75235700819758,117.69859234845717 49.859836580755655,117.83670319498924 50.00125707103871,117.94850699373637 50.08610936519108,117.98796711102113 50.39723444374977,118.14580733515322 50.86109365179436,118.44175669861579 51.07605279699783,118.59301917434641 51.534255185426446,118.86923667918745 51.78315524829668,118.98103866122983 51.97548711503623,119.09284044654487 52.0603394091886,119.17833579673606 52.15084852295695,119.26383103189073 52.529855436849175,119.41509155076346 52.863607793842675,119.59923430518029 52.971087366429856,119.71761150837847 53.078566939075245,119.76364702784485 53.378378378401976,119.90832987195245 53.638592080475064,120.03328297220287 53.859208045265405,120.15165936687481 53.9893148962874,120.21084748151407 54.15901948462124,120.27661198866917 54.28912633564323,120.38841149467771 54.60025141420192,120.61858632888107 55.131992457580054,120.90794779480348 55.5053425518563,121.098662586086 55.624135763704544,121.12496802962778 55.810810810828116,121.2301896948884 56.18981772472034,121.34198752335578 56.36517913264106,121.4077508599803 56.834695160301635,121.5392773290987 56.970458830939606,121.52612469443557 57.191074795729946,121.51954837609082 57.451288497803034,121.51297205704759 57.77938403520966,121.48666677413348 57.92080452546361,121.45378515513585 58.14142049028305,121.49981941693477 58.26587052168907,121.49981941693477 58.4638592080737,121.6708035260126 58.62225015714648,121.67737982870676 58.87680703960359,121.86151602804603 59.074795725988224,121.95358392763956 59.346323067264166,122.19690559168885 59.51037083598203,122.32843042763125 59.79886863610591,122.69012232303066 60.01948460089625,122.93344116725348 60.2627278441214,123.22279209381668 60.43243243245524,123.45953278119487 60.51162790702074,123.53844614770424 60.60213702075998,123.617359416221 60.85669390321709,123.88697901109117 61.13387806410901,123.95273971440474 61.20175989944255,124.04480458471517 61.25832809554413,124.1960537250161 61.42237586423289,124.29469427479489 61.524198617233196,124.49855092588768 61.51854179761722,124.91283823456979 61.535512256465154,125.01147767198563 61.51288497800124,125.35342653652697 61.473287240747595,125.55070389083266 61.450659962312784,125.66249411983154 61.46763042110251,125.8400429029607 61.614707731001545,125.96498434194655 61.73915776243666,125.97813605808551 61.857950974226696,126.07677384236376 61.948460087995045,126.13595643945519 62.38969201760483,126.50420247219517 62.62162162165623,126.58311205880455 62.80263984919293,126.68174890433511 63.07982401008485,126.76723404664517 63.1703331238532,126.85271907399874 63.15901948462124,126.87244637167169 63.14770584538928,126.96450701322829 63.19861722187488,127.01053728400802 63.2721558768244,126.97108276822837 63.419233186665224,127.03026453269922 63.49842866123072,126.96450701322829 63.78126964176772,127.00396153306792 64.02451288499287,127.00396153306792 64.34695160278352,127.02368878384004 64.91263356382842,126.97108276822837 65.29729729730752,126.95135550116902 65.47265870522824,126.93820398640673 65.64236329353298,126.91190094866397 65.81206788186682,126.93820398640673 65.9987429289904,127.13547642240883 66.10622250160668,127.08944624210199 66.21370207419386,126.90532518753389 66.39472030173056,126.64886997282156 66.55311125080334,126.40556535117139 66.67190446262248,126.13595643945519 66.83595223131124,125.93868090150863 67.0,125.79401178458647 66.98302954118117,125.6427664466355 66.8698931489489,125.57043159260138 66.75675675674574,125.54412798889462 66.46825895662187,125.52440027896228 66.29289754873025,125.53755208625444 65.96480201132363,125.53755208625444 65.69327467001858,125.43891346523378 65.57448145822855,125.46521711246533 65.23507228161907,125.45864120168699 64.8900062853645,125.55070389083266 64.7881835323933,125.52440027896228 64.6863607794221,125.39945797396285 64.61847894408857,125.3468506141653" stroke="#4dd2ff" stroke-linecap="round" stroke-linejoin="round" stroke-width="0.5"><title>2024-04-13 11.9km</title><desc>9223370323858149007</desc></polyline><polyline fill="none" points="152.3036087101209,93.04290072016374 152.33128527454392,93.02681295424918 152.33128527454392,93.35392987926025 152.34973631749745,93.84728264759542 152.38663840338995,94.2333815380698 152.3820256426552,94.61947755212168 152.42354048928246,94.94658442440414 152.45121705370548,95.39166095139808 152.43276601078105,95.50427006923564 152.4742808574083,95.83137135731886 152.45121705370548,96.05658743765161 152.50195742180222,96.104847898976 152.48811913961254,96.41585868292168 152.44660429297073,96.66252108113986 152.39586392488854,96.81802503326617 152.36818736043642,96.95207978996041 152.49734466109658,97.87436711815462 152.5204084647703,97.95479837464154 152.57114883286704,98.04595364779016 152.57576159361633,98.15319494036157 152.6172764402436,98.51781367563308 152.64956576540135,99.04328910618278 152.64956576540135,99.30066288389207 152.67262956907507,99.41326350981763 152.7003061334981,99.9119204847957 152.63572748321167,100.03524351297892 152.6956933727779,100.26580317008484 152.7233699372009,100.60359802535459 152.71875717646617,100.69474864096264 152.7464337408892,100.95747598927119 152.75565926235868,101.36496883435757 152.76027202310797,101.51509696991707 152.75565926235868,101.63841618463994 152.7833358267817,101.76709679163469 152.84791447709722,101.92258543228672 152.907880366678,102.23356131471155 152.92171864889679,102.3997717973507 152.98168453847757,102.61959774634306 152.97245901702263,102.72146799205802 153.03703766733815,102.82333803760775 153.0877780354349,102.9841850704579 153.1339056427969,103.19864700476319 153.180033250188,103.28979305823668 153.21693533606594,103.45600015503078 153.24461190050351,103.54178425461214 153.27690122566128,103.63292970490511 153.31841607227398,103.84202748548705 153.40605852630688,104.13154609738922 153.47063717660785,104.28166622271965 153.50292650176561,104.40497885766308 153.55827963061165,104.56582098431682 153.60901999872294,104.78027637710693 153.6828241705225,105.02153763387832 153.77507938526105,105.37002413424125 153.8581090785301,105.67561806115918 153.94113877179916,105.99193268529052 153.90884944662685,106.14740865769636 153.8581090785301,106.27071685609553 153.89501116443716,106.34577387681202 153.94113877179916,106.41546958446997 154.05184502949123,106.50660998394233 154.07952159391425,106.6245561454889 154.13948748349503,106.73714086763721 154.22712993749883,107.04808787817456 154.1164236798213,107.16603280826166 154.19484061234107,107.32150526082478 154.31477239153173,107.36975523754882 154.45315521361772,107.8897799153965 154.53157214615203,108.17391490772206 154.49005729951023,108.2757742429203 154.48083177804074,108.43660436488426 154.6422784038441,108.6778486127223 154.71608257562912,108.84939939520336 154.85446539772965,109.37477013690659 154.94210785176256,109.68570133449975 155.0020737413288,109.91085724508957 155.10355447755137,110.28075411931059 155.19119693156972,110.6345660525185 155.20503521377395,110.73642055562959 155.23732453891716,110.81147111414975 155.20042245302466,110.94012896183995 155.23271177819697,111.02053995461392 155.32496699295007,111.16527942745961 155.35725631809328,111.33146128716908 155.45873705431586,111.62629876034043 155.59711987643095,112.09267461429044 155.62018368010467,112.21596867953122 155.7170516555925,112.5912096837601 155.7170516555925,112.68233923230946 155.8093068703456,112.91820320285115 155.92462588875787,113.25055515945496 156.0307193857152,113.54002125785337 156.05839595013822,113.72227686159385 156.072234232357,114.00101948772863 156.06300871087296,114.3548060488647 156.04917042868328,114.73003158358188 156.02610662498046,115.06237193389097 156.00765558204148,115.45367316596457 156.01688110349642,115.58767975884984 156.0214938642457,115.68952453797101 155.99843006055744,116.02721895421564 156.00304282129218,116.28986864738908 155.98459177833865,116.41315273878354 156.02610662498046,116.68116062254921 156.09068527529598,116.9545272379437 156.15065116487676,117.08852995476263 156.1967787722533,117.25469284306018 156.23829361888056,117.35117427594378 156.33977435510315,117.63525745331208 156.4135785269027,117.75317831545908 156.4597061342647,117.96221918523224 156.50122098089196,118.11229929039109 156.50122098089196,118.23557905205962 156.56579963120748,118.40709823329598 156.65344208522583,118.6107765246852 156.66266760669532,118.84125362718987 156.65805484594603,119.01813070932258 156.75953558218316,119.18964730414518 156.82872699321888,119.35044359695166 156.92559496872127,119.52731894363751 156.95788429387903,119.60235678738172 156.99939914052084,119.93466593411722 157.13778196263593,120.19729585117966 157.1562330055749,120.35272925770187 157.23003717737447,120.57247914159598 157.28539030620595,120.7118322444112 157.2577137417975,120.82438640045802 157.28539030620595,120.94230001642063 157.27155202398717,121.08701181534343 157.34074343503744,121.29067958954329 157.55293042896665,121.51042550222337 157.83892159466632,121.71945123869591 157.96346613456262,121.90703772138295 157.98191717751615,122.04102765110656 157.95885337381333,122.19645553623559 157.94501509162365,122.4322762662814 157.91733852720063,122.62521970303715 157.90350024498184,122.78064583885498 157.83430883393157,123.10221567682675 157.7189898154902,123.30587554383237 157.70053877255123,123.5845666985515 157.64057288297045,123.922209746921 157.5944452755939,124.20625695968192 157.55293042896665,124.40991249518265 157.5114155823394,124.59212992864559 157.4560624534788,124.83865837940903 157.42838588907034,124.92440713132964 157.39609656389803,125.01551502504299 157.39609656389803,125.128059849485 157.3730327602243,125.23524516973339 157.30384134915948,125.60503282578793 157.2115861344064,125.86763405459351 157.15162024484016,126.06592389821162 157.11471815894765,126.19454393236083 157.06397779080726,126.27493129187496 157.06859055155655,126.3713959590059 157.08704159451008,126.67686622244582 157.10549263744906,126.93410294502246 157.13778196263593,127.09487524941505 157.23003717737447,127.27708325921776 157.20697337367164,127.43785450155701 157.23003717737447,127.51823993604194 157.2531009810482,127.64685637232833 157.2392626988294,127.84513942075137 157.30384134915948,127.9416011705107 157.50680282160465,128.06485758995768 157.48835177863657,128.21490848828762 157.70976429402072,128.47213759083024 157.87582368055882,128.52572682679602 157.94501509162365,128.6221873121758 158.04649582784623,128.76687770421995 158.17565312847728,128.93300321269635 158.36477631870366,129.14199906518843 158.48470809786522,129.23845840570357 158.48932085859997,129.39386474407002 158.52622294449247,129.49032361670106 158.80298858872266,129.7904167412271 159.04285214706033,130.05299680252938 159.22736257653742,129.99940914275794 159.28732846610365,130.08514937185464 159.39342196306097,130.07979061168953 159.56409411033383,130.39595651561103 159.75321730057476,130.58351165061686 159.85008527604805,130.74427265577106 159.87314907973632,130.83001165500536 160.06227226994815,130.93182653276017 160.29752306755108,131.17296623641596 160.41284208599245,131.39267032489442 160.51893558292068,131.49984271370704 160.6388673620968,131.62309068737886 161.87508723964856,132.48581831343472 162.0273083439679,132.64121493403218 162.16569116606843,132.71087533716127 162.42861852809438,132.84483738824565 162.59006515389774,132.93057291960213 163.0928560742468,133.03238367927042 163.5310683442658,133.03238367927042 163.6556128841621,133.03238367927042 163.84012331365375,133.0270252232076 163.90470196396927,133.19849554288157 163.98773165725288,133.31102263251887 163.99234441798762,133.43962472213389 164.0938251542102,133.86829605440653 164.15840380452573,134.09334708754977 164.24604625851498,134.40413024448935 164.3290759517986,134.6988366927726 164.40288012356905,134.95067542359175 164.44439497021085,135.07927345347343 164.51819914201042,135.30431923968354 164.67503300707904,135.86157127585102 164.74883717886405,136.10804623114018 164.7811265040218,136.21520889040403 164.86876895804016,136.55276982209034 164.90567104393267,136.71351235189286 165.0532793875318,137.19573695697545 165.1501473630051,137.57079744393923 165.20088773110183,137.78511650642758 165.28391742437088,138.10123550968638 165.3531088354357,138.34234193098018 165.357721596185,138.55129992431466 165.42230024650053,138.85134070132335 165.496104418271,139.16745321684357 165.51455546123907,139.3389032682171 165.5791341115546,139.81038799219823 165.61142343671236,139.9764781826634 165.72212969440443,140.52296473929528 165.74980625882745,140.6944103176611 165.76364454104623,140.79084820687058 165.80515938765893,140.92478942274465 165.84667423430074,141.0158692522964 165.81899766987772,141.24088932322047 165.8743507987092,141.39625975584204 165.9343166883191,141.61056303850273 165.98044429566653,141.7980776857803 166.05886122820084,142.13024482847322 166.06347398895014,142.37669004610143 166.04041018527641,142.54277203348465 165.9573804919928,142.66063634768216 165.9527677312435,142.80528764064002 165.96660601344774,142.96601082718917 166.02657190305763,143.09994643625396 166.12805263926566,143.22852429620616 166.10960159632668,143.33567226979721 166.22953337548824,143.58746913811046 166.3863672405423,143.737475203121 166.49707349823439,143.99462745005076 166.6631328847725,144.27856491116836 166.84764331424958,144.6214307210612 167.08289411183796,144.93750813570296 167.4011746026954,145.33929868437917 167.6594892039866,145.65001457879043 167.69639128989365,145.71965754166376 167.5395574248396,145.9125144902464 167.20743865174882,146.1428704631944 166.999864418598,146.2875120639328 166.93067300751864,146.36786833486258 166.81074122835707,146.47500983614736 166.6123925166612,146.6785780801547 166.51552454118792,146.7321485381617 166.44172036938835,146.8071470866089 166.3033375472878,146.97321491592083 166.20646957179997,146.98928596801125 166.0450229459966,146.855360382051 165.98966981715057,146.78036190315834 165.99428257788531,146.69464922334737 165.9204784061003,146.64643577883544 165.8374487128167,146.58215111658137 165.76364454104623,146.52322343967535 165.75903178029694,146.43215326213976 165.55607030786632,146.11608493741005 165.2700791421521,146.2553695207789 165.1086325163633,146.40001080844013 164.9979262586712,146.38929665279284 164.82264135064906,146.10537072322404 164.64274368190672,146.2125127656509 164.53665018496395,146.3035833280519 164.44900773096015,146.18037017611277" stroke="#4dd2ff" stroke-linecap="round" stroke-linejoin="round" stroke-width="0.5"><title>2024-04-10 13.4km</title><desc>9223370324139026207</desc></polyline><polyline fill="none" points="34.69414390041493,157.0405338675664 34.67402691047755,156.8007996921042 34.49800324838725,156.39149508996343 34.47285701095825,156.18099442547464 34.36221356622991,156.04066021336257 34.06045871696551,156.0465074791573 33.839171827508835,156.0698965363008 33.527358483261196,156.0757437990651 33.321159336250275,156.05235474434085 32.96408276463626,156.00557660584673 32.55168447064352,156.02311841232222 32.23484187890426,155.9880347939179 31.882794554781867,155.99388206517324 29.358112315938342,156.11082736299795 28.99097724931198,156.01727114410824 28.724427132459823,156.11667462153127 28.422672283195425,156.11082736299795 28.10080044399365,156.0698965363008 27.668285160063533,156.15175816003466 27.301150093437172,156.0932855837491 27.135184926359216,156.10498010384617 26.858576314494712,156.08743832279652 26.622201682592276,156.12252187946433 26.1494524187583,156.11667462153127 25.963370261713862,156.1342163934969 25.571088957658503,156.18684167673564 25.048047218937427,156.23946691096717 24.690970647294307,156.11082736299795 24.449566767871147,156.0465074791573 24.26348461082671,156.0348129469494 23.81588158442173,155.92956204817165 23.589565447502537,155.84770010242573 23.071552956243977,155.8886310901289 22.79494434443768,155.74244885499866 22.523364980093902,155.63719741145906 20.78324534933199,155.18695291130643 19.983594998775516,154.9004318153202 19.802542089222698,154.81272098516638 19.701957139448496,154.59636702180796 19.717044881923357,154.21043627280596 19.681840149511117,154.04670727958728 19.742191119352356,153.64907774867606 19.46558250754606,153.04093305136485 19.485699497483438,153.15203689839473 19.274471102980897,153.76602790129618 18.957628511241637,153.99992748007935 18.535171722294763,154.1402667624061 18.328972575283842,154.19874136045837 18.082539448398165,154.34492759074783 17.966866756178206,154.74255222299325 18.163007408205885,154.9764477579447 18.157978160714265,155.39745728016715 18.017159231065307,155.60211355336287 18.087568695889786,155.8886310901289 18.298797090392327,156.27455037321852 18.71622463184758,156.61953659132269 19.19400314320228,156.98206221125292 19.09341819342808,157.4673751250375 18.98277474869974,158.0170015830954 19.07833045098232,158.22749540623045 19.1738861532358,158.39705930449418 19.269441855489276,158.60755171156052 19.29458809294738,158.80050239575212 19.364997557771858,158.96421761099555 19.898097791476175,159.90557089223148 20.109326185949612,160.17452609177417 20.280320600548293,160.41424595135322 20.355759312864393,160.68904551475862 20.325583827943774,161.09831898264747 20.139501670899335,161.34972835732697 19.867922306555556,161.34972835732697 19.405231537675718,161.22694717456034 18.821838829113403,161.44912245270825 18.696107641910203,161.53682297990235 18.565347207244486,161.82331042016085 18.610610434610862,162.2735020343789 18.615639682102483,162.84062143022675 18.605581187119242,163.36096308544802 18.469791504961904,163.7877565966628 18.379265050200047,164.42501762056418 18.374235802679323,164.95703737498116 18.464762257470284,165.34289472263845 18.67599065194372,165.775519525072 18.857043561525643,166.09706284090498 19.0230087286036,166.56475894374307 18.91739453136688,166.751836301195 18.7966925916553,167.18445031857482 18.7966925916553,167.48260129499613 18.91236528387526,167.81582699563296 18.91739453136688,168.08474454965472 18.67599065194372,168.6108838897053 18.474820752453525,169.30654949835662 18.248504615505226,169.67483958971934 18.328972575283842,170.06066473085593 18.540200969786383,170.38802945212592 18.78160484918044,170.75631249746584 18.79166334416368,171.12459314348962 18.78663409667206,171.34088383316703 18.7966925916553,171.49287139028092 19.299617340439,172.04236145684627 19.405231537675718,172.79644019462285 19.525933477387298,173.3985268490178 19.525933477387298,173.95968921994063 19.51084573494154,174.16427828218002 19.400202290184097,174.7312783857742 19.254354113072623,175.1346048954838 19.199032390664797,175.7132857320321 19.21914938063128,175.9763205181116 19.2493248655519,176.54914759612802 19.390143795200856,177.19795493103447 19.61645993217826,177.688939317326 19.767337356810458,177.9052048969752 19.973536503792275,178.14484957325476 20.37587630280177,178.48385738087018 20.712835884507513,178.71765468480226 21.04476621869253,178.94560612553687 21.17552665338735,179.13264251885994 21.06991245612153,179.55347214218637 21.09002944608801,179.92754028962736 21.346521067956928,180.40096674151573 21.386755047860788,180.7048927454125 21.512486235034885,181.31858450561413 21.582895699859364,181.4647006099076 21.768977856903803,181.92642501849696 21.975177003914723,182.38230111643497 22.14114217099268,182.74466154764013 22.241727120766882,182.95506331339857 22.26687335819588,183.11286412411937 22.131083676038543,183.4810643038254 21.970147756423103,183.65639688033843 21.894709044136107,183.7732849627755 21.819270331790904,183.90186157447533 21.592954194842605,184.13563648336276 21.63821742220898,184.2700566185158 21.673422154650325,184.45707540560034 21.693539144587703,184.64409357442128 21.854475064203143,184.97721815608747 22.035527973785065,185.46813501670476 22.241727120766882,186.5609941585135 22.402663040382322,187.00514478165132 22.46301401022356,187.13955809873005 22.57868670244352,187.53695212501043 22.628979177301517,187.85837172207175 22.870383056724677,188.46614196942755 22.915646284120157,188.78171240750817 22.91061703665764,189.10896878056155 22.91061703665764,189.6524439326604 23.091669946181355,189.97969526972156 23.358220063062618,190.21928879854386 23.695179644739255,190.32447588098148 23.95670051407069,190.306944714157 24.09249019625713,190.3478507616419 24.13775342365261,190.60497381155074 24.12769492866937,190.7627532864608 24.28360160079319,190.8270336871501 24.690970647294307,190.71016017703369 24.937403774179984,190.75690961005603 25.153661416174145,190.71600385828788 25.3950652955682,190.52900575930835 25.6716739074036,190.39460049397167 26.275183605932398,189.95047647729734 27.004424491664395,189.88035131389188 27.421852033148753,189.89788261289868 27.58781720022671,190.15500770746075 27.70851913993829,190.26019490939507 27.894601296982728,190.54653685733865 27.97004000932793,190.94390695587208 27.975069256790448,191.14843459528856 27.99518624675693,191.5925492098322 28.02033248418593,191.7444823567348 28.130975928914268,191.91978932708298 28.221502383676125,192.07756513605636 28.523257232969627,192.24702755202452 28.674134657601826,192.31130626671802 28.814953587250784,192.3346803266868 28.960801764391363,192.34636735304957 29.151913168927422,192.31130626671802 29.38325855336734,192.27624515866046 29.52910673050792,192.2879321970904 29.69004265012336,192.3171497826006 29.750393619964598,192.5801073734583 29.84594932224718,192.73788134147617 30.032031479291618,192.97161974483606 30.167821161448956,193.1878269084409 30.313669338589534,193.38065962777182 30.499751495633973,193.3923464381296 30.902091294672573,193.30469530161645 31.098231946700253,193.398189842399 31.37986980599817,193.34559918221566 31.817414337419905,193.41572005159105 32.08396445430117,193.41572005159105 32.295192848774604,193.46246724958837 32.541625975689385,193.42740685470926 32.772971360129304,193.6728291627005 32.772971360129304,193.91240705583186 32.79308835003758,194.11108063700885 32.76291286511696,194.27469365079378 32.8232638349873,194.84733547430005 32.6975326477841,195.26220501285934 32.77800060759182,195.51930573589925 32.85846856739954,195.67122834146357 33.08478470434784,195.93417034901358 33.4519197709742,196.16205243417426 33.803967095096596,196.12115058901327 34.120809686835855,196.1562093152388 34.38233055616729,196.22632670256644 34.62876368308207,196.32565951924698 35.11157144189929,196.6061277077497 35.549115973350126,196.90412363531505 35.78549060525256,197.0618855500761 35.921280287439004,197.1612169004511 36.0721577120712,197.24886206484734 36.60525794577552,197.45336692073033 36.8013985978032,197.79225905523344 36.94221752745216,198.04350536254788 37.18865065436694,198.3298079347369 37.435083781252615,198.42329417531073 37.555785720964195,198.5752089869784 37.77204336292925,198.6803805408381 38.03356423228979,198.9783655490719 38.21461714184261,199.0776935365866 38.54654747605673,199.3289341388263 38.86841931525851,199.57433085993398 38.91368254262488,199.75545632892317 38.92374103763723,199.8956821004831 39.099764699698426,199.97163758171882 39.21543739188928,200.18781800898796 39.396490301471204,200.36894151521483 39.637894180894364,200.5208511058736 39.8239763379388,200.53837910934817 39.9497075251129,200.80714114956936 40.04023397990386,200.85972487779145 40.33193033418502,200.9590495644661 40.704094648273895,201.54330890014535 40.83485508293961,201.67184514485052 41.061171219917014,201.7361131577818 41.342809079244034,201.86464896479447 41.52386198876775,202.0691371472858 41.62947618603357,202.17430221070026 41.77029511568253,202.2794670787771 41.96140652021859,202.37294679751722 42.12234243983403,202.37294679751722 42.353687824244844,202.42552907150093 42.6705304159841,202.612487872364 42.88678805794916,202.62417277693385 42.95719752277364,202.53069347294513 43.20865989718004,202.8578703616622 43.4752100140322,203.0448277349642 44.335211334429914,203.30773549677542 44.47603026407887,203.3895287736923 44.62187844121945,203.43626773601136 44.78784360832651,203.465479567898 45.05942297267029,203.44211010360596 45.54725997897913,203.34278977276335 45.733342136023566,202.96887637652617 45.98983375792159,202.75270656789507 46.367027319502085,202.77023388041562 46.81965959339868,202.86955521558048 47.12141444266308,203.10325178751737 47.26223337231204,203.2025725385247 47.63942693389254,203.25515404205726 48.15241017763037,203.7692817259449 48.56480847162311,204.0088168936345 48.96211902317009,204.14318983673002 49.520365494303405,204.32430069028487 50.01826099559548,204.42946156523612 50.68212166396552,204.4353038303525 51.210192650178215,204.35935433697523 52.02995999067207,204.20745504461593 52.27639311758685,204.1840858865471 52.925166043511126,204.1198206521367 53.342593584995484,204.08476685717324 53.66446542419726,204.2658778975856 53.81534284882946,204.38272342269556 54.28306286520092,204.49372644821779 54.74072438656003,204.58136026203647 55.10283020569477,204.45283062203816 55.77172012155643,204.76831194490296 56.21429390049889,204.8909986513645 57.00388575607212,204.97863185037932 57.53195674228482,205.0954759047636 57.652658681967296,205.36421631490157 57.75827287923312,205.6387975906473 58.120378698338754,205.64463973097372 58.522718497377355,205.5920604462408 58.72388839686755,205.58037615409557 59.15640368082677,205.55116541323878 59.34248583787121,205.61542902325164 59.53862648989889,205.7322717637071 59.66435767710209,205.83743002400297 59.996288011287106,206.11200900525 60.313130603026366,206.39242871836177 60.64506093721138,206.45084931714882 60.8261138467642,206.7487934335477 60.74061663946486,206.95326397899044 60.50927125502494,207.0 60.66517792714876,206.86563383562316 60.88646481660544,206.60858463284967 61.278746120631695,206.25221903537386 61.489974515134236,206.1470615453327 61.62576419732068,206.1645878072195 61.78167086941539,206.2171665603746 62.05325023375917,206.39242871836177" stroke="#ffc400" stroke-linecap="round" stroke-linejoin="round" stroke-width="0.5"><title>2024-03-28 21.8km</title><desc>9223370325245023807</desc></polyline><polyline fill="none" points="155.90961799307843,153.0 156.05881125776796,153.11576196480019 156.35719778714702,153.35307324035603 156.54120281359064,153.48041058110175 156.88932043121895,153.60774763068912 157.06337924001855,153.64247586641795 157.16284141645883,153.6540519401824 157.71485649581882,153.7582364957525 157.81929178111022,153.76981254545535 158.11270520166727,153.810328700456 158.25195224871277,153.83926879311912 158.54536566929892,153.86820887074646 159.01781100744847,153.61932371168223 159.2018160339212,153.6135356714949 159.46539080154616,153.74087241668894 159.87318572500953,153.93187698860493 160.20141090734978,153.94345300221175 160.4152545867255,153.90872495417352 160.68380246317247,154.0129090333212 161.0418662984157,154.0765769857644 161.2159251072153,154.12288090542643 161.5242578542675,154.22706458398534 162.00167630126816,154.52225061480567 162.33984770122333,154.77113173890757 162.59347625120427,154.95634487690768 163.04602915409487,155.23995130084222 163.53339381876867,155.48882921785116 163.6825870834291,155.57564683425517 163.9561080686981,155.69140344560583 164.33406433925848,155.83609887149214 164.4434727333719,155.94027934536643 164.59266599806142,156.0039450945842 164.92089118037256,156.14863970855367 165.15960040388745,156.25281959784843 165.54750289209187,156.39172581380626 165.74642724500154,156.47854202285816 165.86080874793697,156.51326846859956 166.1840608214261,156.7216266883661 166.3233078684716,156.877894841713 166.4923935684492,156.92998412872475 166.67639859489282,156.9762856763009 166.89521538309054,157.1730668240998 167.02948932131403,157.4508743198603 167.27317165365093,157.60714042737527 167.41739180954755,157.74604326601548 167.63123548892327,157.88494575828372 167.850052277121,158.0354230673911 168.0290841947426,158.1106615695171 168.31255139768473,158.26692582613396 168.66564212410594,158.4289771847907 168.7899698446854,158.47527748639914 168.91429756523576,158.51000268735152 169.18781855053385,158.54472786664337 169.40166222990956,158.567877974172 169.70004875928862,158.52157774952502 170.22719829453854,158.56209044819116 170.58028902095975,158.61996568087125 170.7046167415392,158.66047830798198 171.07759990324848,158.84567851384418 171.3262553444074,159.05981548436466 171.5301528061682,159.45914979812005 171.6345880914305,159.5748983394551 171.76886202965397,159.69643404902672 171.96281327374163,159.8353316781613 172.10206032078713,159.95107943789844 172.27114602079382,160.07840169585324 172.38552752372925,160.17678687769512 172.25622669432778,160.48351603524134 172.17168384432443,160.59347513333705 172.11697964725317,160.8365418432295 172.32087710901396,160.98122390515346 172.58942498546094,160.9696493540432 172.7485644677945,160.9349256862224 172.89775773248402,161.21850167334196 172.98727369130938,161.44999120503053 173.08176275892765,161.6641181654959 173.1016551942448,161.84930838657965 173.22100980597315,162.05764664954404 173.33539130890858,162.3296426537163 173.3801492883067,162.43381098450845 173.53431566181825,162.7231664371211 173.59399296771153,162.85048236023795 173.66361649121973,163.02409451380663 173.72826690593502,163.23242838403166 173.86751395298052,163.71275072770004 173.90729882355663,163.86321229696114 174.09130385000026,164.07732998348 173.97692234706483,164.19306893091925 173.81778286473127,164.33774227715912 173.66361649121973,164.4939890691894 173.6188585118216,164.62130094619715 173.59399296771153,164.73125187860933 173.73324001472793,164.92221877191696 173.90729882355663,165.09582447065986 174.3499055088032,165.4372474336924 174.45931390291662,165.5356231534788 174.73780799700762,165.77866830490166 174.7974853028718,165.85968311980469 174.81737773818895,166.10272685785094 174.84224328226992,166.2300350595142 174.96657100284938,166.3573429703465 175.20528022636427,166.41521010639917 175.3246348381217,166.69297152303625 175.31468862047768,167.08646449345179 175.1853877910762,167.6014731539799 175.0759793969628,167.9197345536959 175.0411676352087,168.116477055406 175.01630209109862,168.25535369729914 174.9715441116714,168.40001649794795 174.96159789405647,168.53889243330195 174.95165167638334,168.63726267813036 174.95165167638334,168.73563274936532 174.75770043229568,168.85714847998315 174.59856094996212,168.97287750094256 174.35985172644723,169.12911129805434 174.02168032649206,169.46472315920983 173.77302488533314,169.77718755815295 173.6536702735757,169.81769207420803 173.46469213831006,169.74246937809585 173.30057954715448,169.88712831895828 173.08673586774967,170.11279551701955 172.70380648839637,170.52940948234027 172.29103845608188,170.95180657368473 172.0224905796349,171.23533159309954 171.86832420612336,171.3973452424143 171.7390233767219,171.53621370990004 171.48042171791894,171.81394960702164 171.27155114736524,171.970175441038 171.12733099149773,171.91231407207306 170.67477808860713,171.6461510013105 170.5255848239176,171.56514459708706 170.75932093858137,171.77923269555322 171.1521965356078,171.9991061029723 171.2218200591451,172.10325636169 171.03284192385036,172.3809894336082 170.7344553944713,172.82073063425196 170.44601508273627,173.27782636332995 170.3913108856941,173.35304428874588 170.17249409746728,173.65391497552991 169.77961850044085,173.93164032210916 169.57074792988715,174.00107144258072 169.39171601226553,173.99528551915864 169.1380874622846,173.90271066304194 168.8247816064395,174.0415728895714 168.54131440352648,174.18622067439355 168.5860723829246,174.4639433692464 168.53634129470447,174.92681145294773 168.3423900506168,175.4301761320712 168.133519480034,175.89303619407656 168.01913797712768,176.17653608451656 167.850052277121,176.7203889820994 167.76550942711765,176.80717352816282 167.73069766539265,176.98652782862337 167.77048253596877,177.05016953850645 167.81026740654488,177.23530864512577 167.8152405153669,177.74443801867892 167.87491782126017,178.08578351821416 167.94454134476837,178.38662866677623 168.03405730356462,178.94203083065076 168.1285463712411,179.51478351843616 168.21308922121534,180.05281856351212 168.2976320712187,180.52721074860165 168.3772018123709,180.9958137012618 168.43687911823508,181.30821348224345 168.4766639888112,181.6263966455408 168.43190600941307,181.69581818537335 168.43687911823508,181.90986738924767 168.50152953292127,182.25118739329992 168.5462875123485,182.62143045959237 168.6457496888179,183.1941453613763 168.7253194299701,183.4718231969091 168.78499673583428,183.82470345154798 168.7899698446854,184.00982006941194 168.86953958583763,184.22964525515272 168.98392108877306,184.61722965653462 169.09332948288647,184.9585330934715 169.237549638754,185.31718869213364 169.4812319710618,185.7510431892115 169.77961850044085,186.16754033184407 170.16752098864526,186.61295744608287 170.57034280331573,186.994740713395 171.0129494885623,187.35338322081952 171.16711586207384,187.48642743565142 171.40085197676672,187.81614433970026 171.33620156205143,187.98389429734743 171.16711586207384,188.49292556406 170.9831108356011,189.03087401417724 170.92840663855895,189.27381677531957 170.86872933269478,189.45313099190753 170.81402513562352,189.62087602763495 170.6648318709631,190.06626557178242 170.5305579327105,190.3728303350581 170.33163357982994,190.89919232056855 170.19238653275534,191.30986690485224 170.01335461516283,191.84778819632993 169.84924202397815,192.35678421334887 169.7597260651819,192.44354443493285 169.71994119457668,192.66333639253935 169.36187735930434,193.05086220899102 168.95408243584097,193.49044047445568 168.73029253879213,193.6119022793464 168.50152953292127,193.7969864260558 168.42195979176904,193.93001527736124 168.21806233003736,194.2076396846751 167.9594606712344,194.69347907425617 167.79534808007884,194.93061343076988 167.65610103303334,195.24871891197472 167.5069077683438,195.5494715176319 167.1239783889614,195.6651451651851 166.7708876625402,195.74611657581409 166.65650615960476,196.32448037837457 166.61672128899954,196.55582422126463 166.50731289491523,196.78138354482508 166.44763558902196,196.90283818765602 166.0845986449567,197.33660261169643 165.81605076853884,197.6546943802532 165.43809449797845,198.07688610968398 165.08997688035015,198.51642479129805 164.75180548039498,198.8518598776427 164.40368786279578,199.26825924959485 164.18984418339096,199.54007383067437 163.91135008929996,199.8870692449309 163.8268072392966,200.0374332545798 163.56323247170076,200.31502728529085 163.2350072893896,200.7429820448706 162.90180899822735,201.15936731073452 162.533798945311,201.6277970226547 162.20557376299985,202.0383926734612 162.0514073894883,202.2754958288133 161.97183764833608,202.3738065979196 161.8375637101126,202.38537255935807 161.70826288071112,202.7207843992619 161.44966122190817,202.95210173550004 161.09159738666494,203.42629927868256 160.7285604425997,203.84266453257078 160.4500663485087,204.19541599861623 160.11686805734644,204.57129625577363 160.02735209852108,204.6233410150162 159.8582663985435,204.55973074713984 159.53998743387638,204.3399856277465 159.33111686329357,204.17806761796965 159.12224629273987,203.9988007022912 158.99791857218952,203.88892714688336 158.61996230162913,203.54773946515706 158.28676401046687,203.20076680308193 158.06297411344713,203.04462840165797 157.76956069289008,202.76704794319085 157.6700985164207,202.6629549154568 157.5706363399513,202.50103204212428 157.3567926606047,202.3564576512399 156.9390515194391,201.98634550457064 156.54120281359064,201.6393631386636 156.19308519599144,201.3039448016607 155.75545161956688,200.95117506601673 155.5863659195893,200.80081351752233 155.4123071107897,200.6504515640263 155.2780331725371,200.47695649906382 155.07413571080542,200.28032810693912 154.8602920314297,200.1068318916732 154.63650213438086,200.2687617093652 154.32319627853576,200.63310208178518 154.20384166677832,200.77189778866887 153.9551862256485,201.06683752004392 153.65679969624034,201.46587114697832 153.41311736393254,201.73767502794726 153.18435435806168,202.00947758561597 153.07494596394827,202.1367038600838 152.89094093750464,202.34489168379514 152.57266197283752,202.7034355604119 152.34389896696666,202.95788465661826 152.09524352583685,203.241247058093 151.9062653905421,203.4436478929274 151.7322065817425,203.64026514419675 151.4885242494347,203.98145226055567 151.33933098471607,204.11445684280625 151.06580999944708,204.42094445654584 150.89175119064748,204.62912376304303 150.722665490699,204.80260592554987 150.63314953187364,204.90091224505522 150.39941341718077,205.08595896517363 150.24524704366922,205.1958301650775 150.0314033642935,205.3230491791037 149.83745212017675,205.39244124641118 149.61863533197902,205.45605056567 149.32024880259996,205.5890516354557 149.056674034975,205.70470448210108 148.9472656408616,205.74518292184075 148.85277657321421,205.7798787039792 148.64390600266051,205.82613971327737 148.48476652032696,205.88974853850596 148.41514299678965,205.9302268440988 148.1217295762326,206.0343137808959 147.99242874683114,206.05744418494942 147.65425734687597,206.19044382231004 147.50506408218644,206.22513932779475 147.2812741851376,206.32344314291186 147.1768388998753,206.38126883565928 146.88839858814026,206.46800726250876 146.50546920875786,206.5894408337772 146.44579190286458,206.57209319689719 146.25184065880603,206.6819614727283 146.1374591558706,206.71087414095382 145.99323899997398,206.76291690606013 145.8191801912035,206.80339457871378 145.68490625298,206.83230718407867 145.52079366179532,206.88434983602565 145.406412158889,206.8959148631984 145.3019768735976,206.97108748145183 145.1627298265521,207.0 145.0284558883286,206.98265249066753 144.8146122089238,206.67617893727584 144.7798004471988,206.5836582887423 144.6803382707294,206.38705140164166" stroke="#4dd2ff" stroke-linecap="round" stroke-linejoin="round" stroke-width="0.5"><title>2024-03-06 18.6km</title><desc>9223370327137444807</desc></polyline><polyline fill="none" points="24.266246735292953,259.36365539559483 24.163926870489377,259.3379347326536 23.870794284841395,259.2929235212596 23.663389153487515,259.30578387402784 23.276232908290694,259.2993536983122 23.060531571682077,259.30899896138726 22.825472422817256,259.2993536983122 22.554463051157654,259.2929235212596 22.27239207252569,259.3411498166879 22.13135658320971,259.3154291351075 22.015209709643386,259.2672027997596 21.829927792292438,259.3025687863392 21.719311722234124,259.31221404841926 21.58657243817288,259.2736329821237 21.47042556462111,259.1996858044731 21.357044092801516,259.08394204257456 21.326624673543847,258.9585524804861 21.25195882625121,258.79779589122154 21.16623137194256,258.3605337592653 21.083269319409737,258.24800206760483 20.889691196818603,258.2640780485144 20.768013519758824,258.27050843855795 20.618681825173553,258.28015402111487 20.485942541097756,258.28979960067227 20.286833614998613,258.2833692146269 19.899677369801793,258.27693882726453 19.681210631431895,258.2512172644583 19.437855277312337,258.2833692146269 19.12813028115488,258.27693882726453 18.942848363803932,258.32516670010045 18.635888769393205,258.32838188895585 18.516976494080154,258.2512172644583 18.370410201270715,258.2833692146269 18.05238899984397,258.3090907508067 17.81732985097915,258.2962299853807 17.676294361663167,258.2833692146269 17.200645260410965,258.33481226568074 16.85497004148783,258.29301479318747 16.64756491013395,258.18691326426597 16.512060224325978,258.15476121424035 16.1387309878628,258.0583048644912 15.87325241974031,257.94898730599016 15.51651559380116,257.8332388834988 15.325702872942202,257.8139474378113 14.841757566449814,257.6435391471805 14.637117836842663,257.5052826772244 14.642648640350671,257.270566795647 14.720079889390036,256.90402063798683 14.753264710408985,256.77862227510013 14.761560915663722,256.60499293675457 14.58457520356751,256.41528569807633 14.603933015838265,256.3445471090654 14.612229221093003,256.3445471090654 14.650944845605409,256.2320081126527 14.847288369957823,255.9072504364467 14.756030112170265,255.70146163618847 14.532032570292358,255.5181798377871 14.241665386391105,255.14196644131152 14.20018436013197,254.83327512187498 14.133814718094072,254.56638327831934 14.0508526655467,254.3477231907873 13.826855123668793,254.0325927087979 13.641573206346948,253.8525167116004 13.724535258879769,253.63385159661448 13.909817176230717,253.4441262049295 13.984483023508801,253.27369393232766 13.995544630524819,253.02286737661598 13.807497311427142,252.6176817365049 13.78260869566293,252.28967044016463 13.713473651878303,252.0484834523395 13.528191734527354,251.92306547809312 13.315255799665465,251.80086286195365 13.11891227531305,251.6432850941801 13.005530803508009,251.46641113670012 13.12444307882106,251.04834141259744 13.312490397933288,250.7749850869477 13.47841450299893,250.56916226479734 13.699646643115557,250.33760995844204 13.75495467815199,249.9066607890145 13.71900445537176,249.68153570918548 13.727300660626497,249.40816734544933 13.738362267642515,249.20876772610973 13.66646182211116,248.9321790362883 13.589030573057244,248.71026307260036 13.519895529272617,248.3982915705692 13.613919188821455,248.23426405894497 13.876632355211768,247.9673154706561 14.006606237526285,247.661769087239 13.84344753419282,247.48487243749514 13.638807804585667,247.28224412681448 13.597326778311981,246.8609016570972 13.42310646797705,246.6325380803646 13.262713166390313,246.3816578472888 13.323552004920202,245.84772649589286 13.417575664469041,245.47461238665346 13.36779843295517,245.1465255829553 13.387156245211372,244.81200213224838 13.481179904745659,244.49034156625385 13.506068520524423,244.36810967665406 13.45352588724927,244.14937772478152 13.406514057467575,243.8952607262836 13.461822092489456,243.69904237908486 13.624980795837473,243.33876939516085 13.75495467815199,243.1296804765807 14.056383469040156,242.99457611805883 14.172530342606478,242.93024050240274 14.261023198647308,242.67611351594132 14.32186203719175,242.3254791922118 14.296973421427538,242.10994970497268 14.180826547861216,241.83008082218475 14.153172530350275,241.41188123340908 14.16976494085975,241.24138285977278 14.335689045954496,241.06444959413966 14.4407743125048,240.94220420277634 14.628821631587925,240.8199583295136 14.866646182214026,240.83282633886483 15.057458903058432,240.8360433403741 15.220617606391897,240.84247734237215 15.541404209565371,240.80387331031488 15.729451528663049,240.59155027497218 15.682439698881353,240.4210473911371 15.57458903058432,240.29236534860502 15.629897065606201,240.09612420563099 15.657551083117141,239.89023052385346 15.508219388546422,239.57817030615115 15.317406667687465,239.35940456965363 15.079582117075915,239.25002112260336 14.68412966663891,239.13742011227623 14.379935473960359,238.88969645015277 14.194653556623962,238.5422365501745 14.02043324628903,238.4038949506412 13.984483023508801,238.1593827069155 14.003840835779556,238.05964689589746 13.981717621762073,237.7218296683077 14.097864495328395,237.22635774245646 14.16976494085975,236.96253179781706 14.161468735605013,236.69870360788263 14.205715163625428,236.36087154964298 14.19741895837069,236.2160852547422 14.247196189899114,235.98764328085235 14.374404670466902,235.77528726001947 14.49608234752668,235.67876131506455 14.581809801820782,235.56614733271272 14.592871408822248,235.14464565285925 14.451835919506266,235.2315205138384 14.277615609156783,235.04811774396512 14.122753111092607,234.900107699792 14.01766784452775,234.62660901929485 14.089568290073657,234.42711434186822 14.205715163625428,234.2823190136951 14.346750652955961,233.9895086161996 14.396527884469833,233.6709535032751 14.41035489323258,233.52615464222072 14.46842833001574,233.33952400111593 14.598402212330257,233.2043769731663 14.80027654019068,232.94373461198848 15.046397296071518,232.83754635485639 15.176371178371483,232.81823935991815 15.361653095722431,232.56081161131806 15.508219388546422,232.5061079392417 15.829005991705344,232.42887906130818 16.033645721312496,232.3999181824638 16.285297280701343,232.31303538351858 16.332309110468486,232.12639743613545 16.246581656174385,231.9687196735158 16.149792594878818,231.6469258315501 16.191273621152504,231.28007677512505 16.152557996625546,231.19962683994163 15.997695498546818,231.13848474950828 15.920264249507454,230.99367405402154 16.041941926567233,230.9100053436905 16.158088800133555,230.70726868544625 16.246581656174385,230.43695107747408 16.290828084209352,230.31788185905316 16.340605315723224,230.1762854360768 16.431863573525334,229.95423519685573 16.481640805053758,229.80620081984853 16.58396066984278,229.62276593658862 16.901981871254975,229.36209344456074 17.048548164093518,229.23014727295777 17.225533876175177,228.9437256005349 17.405284990018117,228.68948391980666 17.612690121371998,228.4513315919212 17.662467352914973,228.16490271817565 17.712244584428845,228.02007812218108 17.75649101244926,227.86237945866378 18.016438777092844,227.5695083820101 18.262559532973683,227.3152554215303 18.425718236292596,227.2573240753045 18.497618681838503,227.17042685278466 18.646950376409222,227.10927680930945 18.787985865739756,227.06100037390934 18.945613765565213,227.03525291092774 19.1391918881709,226.97088415983853 19.363189430034254,226.67800465326764 19.48763250884076,226.51708066849824 19.678445229685167,226.25316352332447 21.564449224169948,224.02265196668122 21.807804578289506,223.92608939653292 22.170072207722114,223.74905723578922 22.36641573207453,223.64283745349712 22.54063604240946,223.48833530147567 22.745275772016612,223.36923936643325 22.96097710862523,223.17289101384085 23.176678445233847,223.0280430703806 23.444922415117617,222.95722827359714 23.989706560154445,222.9025076378839 24.09755722845148,222.91216422768048 24.199877093269606,222.93469625883517 24.379628207112546,222.93147739824963 24.75019204179989,222.8896321801276 24.888462129369145,222.87675671702527 25.151175295759458,222.7608773080883 25.433246274391422,222.64177857472896 25.549393147957744,222.48727142709868 25.787217698569293,222.43898778533003 26.13289291750698,222.32310673785832 26.506222153955605,222.06881069668634 26.652788446765044,221.86279718238075 26.81594715009851,221.68253423274655 27.0482408972166,221.5666503536795 27.222461207566084,221.53446031029307 27.32478107236966,221.55055533617997 27.47411276694038,221.62781134391116 27.65939468429133,221.75978991111333 27.886157627915964,222.02696431254662 28.173759410041384,222.31666888916152 28.455830388702452,222.40357973351638 28.58027346752351,222.4261121348154 28.798740205878858,222.38748515112093 29.14441542480199,222.3198878136791 29.337993547393125,222.26838498132747 29.77769242587965,222.13318963875645 29.971270548470784,222.12675175056575 30.4054386234493,222.0784675465202 30.720694423114765,222.0559348921961 30.85619910893729,222.08168649580693 31.154862498078728,222.10421913138453 31.259947764643584,222.0784675465202 31.367798432940617,222.12675175056575 31.495006913508405,222.13962752559564 31.75218927639071,222.09456228957606 31.965125211238046,222.12353280597563 32.0840374865511,222.15572223685194 32.25549239515385,222.17181693972634 32.48502074051066,222.17825481854743 32.58180980182078,222.12675175056575 32.77262252266519,222.10743807798463 33.170840374878026,222.11387597019166 33.53310800429608,222.11065702425367 33.679674297134625,222.08490544474444 33.83730219696008,222.04949698795645 34.160854201880284,222.03018326717756 34.49270241205522,222.01086953434788 34.67245352589816,222.0334022214738 34.98770932556363,222.02696431254662 35.2559532954474,222.04627803533367 35.43293900752906,222.05271594024634 35.58227070211433,222.0784675465202 35.8173298509937,222.16537905958285 36.002611768315546,222.17503587930514 36.2072514979227,222.20400632040037 36.32063296974229,222.22653886694934 36.605469350135536,222.30701211362793 36.71055461668584,222.33920135372318 36.95390997081995,222.4067986489863 37.28852358274162,222.50336595761837 37.57335996313486,222.56774399603637 37.94115839606093,222.6192463303978 38.42786910432915,222.64177857472896 38.83438316178217,222.5870573814609 39.4123521278234,222.48727142709868 39.73037332923559,222.47117688821163 39.88800122906105,222.46473907031213 40.02074051313684,222.45508234095905 40.15901060072065,222.3907040682625 40.52127823015326,222.24263353302558 40.819941619294696,222.12675175056575 40.938853894607746,222.0076505777106 41.32601013981912,221.85957821033662 41.776770625292556,221.81129358959697 42.233061914288555,221.76622787561973 42.47641726840811,221.7436949940202 42.65340298048977,221.71794310926998 42.90228913811734,221.6921912030848 43.10969426947122,221.62781134391116 43.25626056230976,221.60205936275815 43.45813489014108,221.51836527604792 43.72084805654595,221.4217948948317 43.92548778613855,221.32200518441277 44.174373943780665,221.1996818747375 44.33476724535285,221.11920574949727 44.50622215394105,221.03229129924694 44.680442464275984,221.00653882267943 44.83807036410144,221.03551035730925 44.97910585344653,221.03229129924694 45.310954063606914,220.84880443620386 45.47964357044839,220.84558535872384 45.61514825625636,220.85524259016165 46.03548932248668,220.86489981857994 46.31756030111865,220.86168074277703 46.48624980796012,220.88421426639434 46.66600092180306,220.77154648426585 46.917652481177356,220.77798465429441 47.133353817785974,220.70394561815374 47.313104931628914,220.65565919482833 47.38500537717482,220.84236628090548 47.38223997542809,221.08701524082426 47.3352281456464,221.27050069187862 47.252266093099024,221.39926176252447 47.044860961745144,221.51836527604792 46.90659087417589,221.75335194528816 46.93977569519484,221.92073862184589 47.069749577509356,222.04627803533367 47.21631587033335,222.13962752559564 47.368412966665346,222.191130572146 47.57581809801923,222.3037931877825 47.65878015055205,222.37782839765896 47.79428483637457,222.4840525199943 47.95744353972259,222.55486839906916 48.10954063604004,222.5613061982258 48.25610692887858,222.65143524585255 48.504993086491595,222.699718556285 48.806421877408866,222.68362412785063 49.08019665078609,222.6675296910289 49.32631740666693,222.55486839906916 49.671992625590065,222.33920135372318 49.83515132893808,222.28447962564678 50.02043324627448,222.35851488171102 50.29420801966626,222.4422066971274 50.42418190198077,222.47117688821163 50.57627899829822,222.5098037674852 50.70625288062729,222.48727142709868 51.20679059762915,222.29091748101928 51.31187586419401,222.24263353302558 51.69626670762955,222.02374535757372 51.94791826700384,221.85957821033662 52.23552004917292,221.73081905432628 52.53971424182237,221.79197972020484 52.88262405899877,222.0044316207368 53.15639883239055,222.0430590823671 53.413581195272855,222.06237279510788 53.73436779844633,222.04949698795645 54.13811645413807,222.13962752559564 54.38147180825763,222.27804176891914 54.638654171154485,222.4067986489863 54.901367337530246,222.57418179251727 55.144722691664356,222.69328078592116 55.52081732984516,222.6868430142058 55.73651866646833,222.66109191396208 56.00199723460537,222.63212190058948 56.20663696419797,222.63212190058948 56.39191888154892,222.63212190058948 56.574435397138586,222.60315186011758 56.756951912728255,222.55486839906916 57.1275157474156,222.53877389531408 57.271316638507415,222.42933104794247 57.47042556460656,222.3037931877825 57.67506529421371,222.21366312807731 57.88247042556759,222.17503587930514 58.26133046549512,222.0559348921961 58.460439391608816,222.0752485969133 58.6346597019583,222.12675175056575 58.80334920878522,222.12353280597563 59.09924719619448,221.97546099286956 59.386848978334456,221.98189891252696 59.58319250268687,221.86923512544672 59.868028883080115,221.73081905432628 60.04777999693761,221.7823227809913 60.38792441235273,221.72760006856151 60.711476417272934,221.5666503536795 61.007374404667644,221.4861751824501 61.34198801658931,221.3702905683258 61.601935781232896,221.46686111021882 61.86464894762321,221.62781134391116 62.04163465970487,221.73081905432628 62.318174834843376,221.88211100758417 62.60577661698335,222.05271594024634 62.81318174835178,222.18791163424976 63.05377170072461,222.33598243121378 63.186510984785855,222.43576887320523 63.29159625133616,222.5774006902593 63.46581656168564,222.70615632533008 63.71193731756648,222.83813029556586 63.877861422646674,222.91860195254594 64.20694423106033,223.13426496184547 64.39222614841128,223.33061355939208 64.60239668151189,223.5591488835198 64.70471654631547,223.82952652524 64.89276386541314,224.08702684614582 65.12782301427796,223.9969019774162 65.40989399292448,223.9647144607261 65.6781379628228,223.99368322725604 65.84129666615627,224.10312054509996 66.03210938700067,224.26083835219288 66.25610692886403,224.44752369787238 66.39437701644783,224.8112350182255 66.48563527423539,224.94320001629967 66.8672607159242,225.09125763739758 66.96404977721977,225.1298812482164" stroke="#ff6f00" stroke-linecap="round" stroke-linejoin="round" stroke-width="0.5"><title>2024-03-06 36.2km</title><desc>9223370327144915207</desc></polyline><polyline fill="none" points="139.31275535057648,213.0 139.31748602623702,213.01099906531454 139.23233386440552,213.08249293438712 139.29856332362397,213.37946643809119 139.31275535057648,213.67643828250584 139.29383264796343,214.00640505252522 139.23706454006606,214.31437218977226 139.1566430538951,214.6113388108497 139.0714908920636,214.9248017776481 139.04310683810036,215.23276359398733 139.0478375137609,215.5627207030775 139.10460562165827,215.82668491573713 139.1802964321687,216.10714545550218 139.30802467494505,216.38210533256643 139.36952345847385,216.6405663202895 139.326947377529,217.16848273099822 139.46413697159733,217.52042409243222 139.39790751240798,217.81187376874732 139.50671305254218,218.12531786388718 139.5587504847499,218.40576627734117 139.5587504847499,218.6477205825904 139.46886764728697,218.9061705560125 139.20868048613193,219.42306673384883 139.0714908920636,219.71450598040246 138.94376264931634,220.00044482072917 139.03837616243982,220.25888821872286 139.1708350808767,220.49533533357317 139.35533143149223,220.73728013009895 139.5445584577974,220.95722898982058 139.91828183471807,222.01297085223632 139.6439026466105,221.63356603329885 139.71959345709183,221.9469875999239 139.79055359197082,222.2549087435982 139.85678305116016,222.56282810425546 139.9324738616706,222.82125904864006 140.03654872617335,223.1456705839919 140.10750886102323,223.4590832386457 140.12170088797575,223.75050036560788 140.12170088797575,224.03641750424504 140.0933168340125,224.322333105727 140.04601007746533,224.60824717011565 139.97504994258634,224.8666681750583 139.89935913210502,225.13608448157174 139.92774318603915,225.42749241955244 139.91828183471807,225.70240410494807 139.96085791563382,226.04329262142346 139.96558859129436,226.48864368189243 139.92774318603915,226.97247764484928 140.0412794018048,227.30236191443691 140.18319967153366,227.5552718022518 140.32985061689396,227.78618847572216 140.54273102147272,227.9566263298002 140.81711020960938,228.088577841776 141.09148939771694,228.16005144075825 141.27598574836156,228.35247988374977 141.351676558872,228.63287436883184 141.351676558872,228.9077694880325 141.39898331544828,229.18816104618236 141.51725020690355,229.6169923353118 141.862589529861,230.52962177732843 141.9240883134189,230.815502478672 142.0092404752213,231.10138164382442 142.11331533969496,231.34877583531488 142.21739020416862,231.61266170492308 142.34511844691588,231.85455593561346 142.4681160140026,232.14042951761803 142.61003628373146,232.43729661165708 142.70938047254458,232.7231670625988 142.79453263434698,233.042020753619 142.84183939095237,233.45982614610693 142.80399398566806,233.73469632570414 142.76614858041285,233.96008881343369 142.7235724994971,234.24045374623165 142.6999191212235,234.53730912377796 142.6620737159683,234.83416284525447 142.61949763502344,235.1145231727205 142.61949763502344,235.42786532015452 142.64788168898667,235.76319434641118 142.69518844556296,236.02156117129925 142.82764736394165,236.39536627213238 142.92699155275477,236.68671254468427 143.04525844421005,236.9725601676073 143.14460263299407,237.2474122033127 143.21556276787305,237.54425080751025 143.2581388487888,237.79711201633836 143.29598425404401,238.05546896711894 143.29598425404401,238.4127690665009 143.2817922270624,238.72609179505525 143.3669443888939,239.02292215226043 143.58928614479373,239.31425404131005 144.00558560263016,239.468164584232 144.30834884470096,239.4571709887823 144.47392249270342,239.63306824347455 144.51649857361917,239.79247462844796 144.5921893841587,240.08929903869648 144.8239924913505,240.21572374782045 145.18352384128957,239.95188053602396 145.4295189754921,239.7704875692616 145.53359383993666,239.66055213702566 145.65659140702337,239.58909398430478 145.8647411359707,239.38571256301657 146.12965897275717,239.2263049598223 146.40876883655437,239.11087156983194 146.702070727275,239.0559032008823 146.98591126673273,239.03391583741904 147.2981358601246,239.00643162030974 147.59143775084522,239.08338739246392 147.8090488311136,239.30875722798373 147.93677707386087,239.60558433574988 148.02192923569237,240.012344720908 148.04558261399507,240.2926777715802 148.02192923569237,240.58400271083883 148.1118120731844,240.8753260556732 148.27738572118687,241.17214442760087 148.5470342336339,241.3700224227432 148.81668274611002,241.54591335642908 149.11471531252027,241.6778311753078 149.3985558519489,241.70531401309927 149.69185774269863,241.661341465835 149.97096760649583,241.54591335642908 150.18857868673513,241.38651222244516 150.47241922619287,241.34253941184215 150.74679841427132,241.45796796222203 150.88398800833966,241.69432087968016 150.8650653057266,241.9911346849476 150.93129476494505,242.26046429826238 151.14890584515524,242.50231013682787 151.40436233064975,242.67819732931093 151.70239489706,242.72766549749213 151.98623543651775,242.6397220556173 152.18965448977542,242.43635228982384 152.44511097526993,242.37589085826767 152.6106846232724,242.59575028019026 152.60595394761185,242.8760697262478 152.6106846232724,243.17287694261904 152.60122327198042,243.48067527102467 152.57283921801718,243.7445009932926 152.47349502920406,244.04130336804883 152.53026313710143,244.321615202698 152.6721834068303,244.57444421901164 152.8424877304933,244.79979080854173 153.08848286466673,244.91521186306272 153.3628620528034,244.9811666390342 153.62304921392933,244.91521186306272 153.90688975338708,244.9811666390342 154.19546096847625,245.08559486720696 154.5029548862076,245.2120077114705 154.7726033986837,245.398878322776 155.0375212354993,245.60773293573584 155.27878569398308,245.76162528420173 155.510588801204,245.88254038881496 155.7660452866985,245.9979590961666 156.02623244785354,246.10788144198523 156.2769582576875,246.2342918591239 156.40468650043476,246.4596314236187 156.50403068924788,246.76191470758204 156.76894852606347,246.94328385423069 157.04805838983157,247.10816436056484 157.294053524005,247.28953232785716 157.45962717203656,247.49288355655517 157.63939284699154,247.74569751476884 157.89484933248605,247.92706331059526 158.15976716930163,248.05896531958206 158.34426351994625,248.28979304912718 158.37737824954093,248.54260322391565 158.59972000544076,248.7514455065284 158.80786973435897,248.93830369673742 159.0065581119561,249.13615283053878 159.2478225704981,249.29553076487718 159.489087029011,249.47689128237107 159.75400486582657,249.63626819696583 159.91957851382904,249.86159336581113 160.06622945918934,250.10890038055004 160.25072580983397,250.2407969855085 160.56768107885728,250.29575380782626 160.83259891567286,250.5045892154485 161.08805540116737,250.63648484044097 161.33878121103044,250.78486702813098 161.5895070208644,250.95523125230102 161.88280891161412,250.9882049101725 162.07676661355072,251.24649785716247 162.31330039640306,251.26298459847385 162.50725809836877,251.24100227557938 162.80055998911848,251.25199343815984 163.07493917722604,251.26848017777593 163.29728093315498,251.48830288503086 163.45339322983637,251.73560234621618 163.7135803909914,251.83452180918175 163.9926902547595,251.82902628827287 164.27653079418815,251.8180352447671 164.55564065795625,251.7465934067186 164.6833689007326,251.46082509624102 164.830019846122,251.21901994361906 165.1185910612112,251.15856848391195 165.40716227630037,251.19154201588753 165.691002815729,251.25748901860788 165.9559206525446,251.37839164481193 166.17353173278389,251.52677176551515 166.47156429919414,251.5762317139015 166.7222901090281,251.74109787675116 166.9257091623149,251.9389365985444 167.10547483726987,252.16974751184898 167.3656619984249,252.30163901321794 167.644771862193,252.3895664993761 167.91442037466913,252.48298929435623 168.16987686016364,252.5709164811342 168.4442560483003,252.66433895802402 168.72809658772894,252.70280698912393 169.01193712718668,252.70830241988006 169.30050834227586,252.70280698912393 169.5843488817045,252.66433895802402 169.86818942113314,252.6203754598937 170.17568333886447,252.5819073692619 170.45006252697203,252.53244835477017 170.7480950934114,252.48298929435623 171.0177436058584,252.5159620064078 171.4293123880634,252.439025646534 171.72261427881313,252.4115483482201 171.97807076430763,252.4610074749944 172.21933522282052,252.60388913874704 172.45113833004143,252.73577956510053 172.7018641398754,252.82920175283652 172.97624332801206,252.90064213879305 173.23169981347746,252.95010081135842 173.47296427201945,252.80172465578653 173.7331514331745,252.9061375491001 173.97914656734793,253.02154103515568 174.2440644041635,253.12045810992277 174.49479021396837,253.21937500098284 174.76916940210504,253.20288886521666 175.05300994156278,253.23586113162673 175.35104250797303,253.27982412174606 175.6254216960806,253.307300972152 175.89033953289618,253.3457685389003 175.96129966774606,253.59305937609315 176.0275291269645,253.84584437862213 176.3161003420537,253.89530217358697 176.68509304334293,253.8733209370439 176.9594722314505,253.84034906524903 177.24804344653967,253.8238631216591 177.52242263467633,253.84034906524903 177.7353030392551,253.98322702901714 177.93872209251276,254.15907630449146 178.13267979444936,254.32942973652098 178.31717614509398,254.51077311391055 178.5489792523149,254.63716358761667 178.79970506214886,254.69211587394238 178.92270262923557,254.90642924900385 178.8659345213382,255.1317321238712 178.66251546808053,255.19217907452185 178.828089116083,254.96138125755897 179.0362388450012,254.76904897957138 179.23965789825888,254.56572553062506 179.44307695154566,254.3733918240905 179.6654187074455,254.18655270134695 179.86410708504263,254.27997234464056 180.08171816528193,254.51626835813295 180.27567586721852,254.74157288317292 180.49328694745782,254.98885724058346 180.7203593790182,255.22515010960706 180.91904775661533,255.4174807408417 181.04677599936258,255.65377170863576 180.8670103244076,255.87357631912892 180.66832194678136,256.07689477639724 180.44598019088153,256.274717395434 180.25675316460547,256.49451944393877 180.05806478700833,256.71432058558275 179.85464573372155,256.917635834212 179.6654187074455,257.1209503069513 179.47619168114034,257.3242640037897 179.2775033035141,257.5330718578007 179.06935357459588,257.73638398192634 178.86120384567766,257.94519022075474 178.66251546808053,258.15949050968266 178.44490438784123,258.3847796276241 178.2225626319705,258.61556261435544 178.01441290302319,258.84084980385524 177.82518587671802,259.03866216045935 177.63595885044197,259.24196853947797 177.41834777020267,259.417800457908 177.24804344653967,259.62660010741456 177.04935506894253,259.8408936337473 176.8412053399952,260.05518629826474 176.69928507029545,260.29145669867285 176.5479034492746,260.5277260514449 176.36340709862998,260.72553214577056 176.14106534273014,260.92883208866624 175.94710764079355,261.1541094978238 175.73895791187533,261.3793859546349 175.54973088557017,261.59367243218367 175.34158115665196,261.78598007583423 175.11923940075212,261.9892759730719 174.87797494223923,262.19257109477985 174.679286564613,262.4013598719721 174.4238300791476,262.53322604663117 174.1825656206056,262.65959749116155 173.97441589168739,262.8354181328832 173.78518886541133,263.0442043915391 173.52973237991682,263.1870576761794 173.30265994835645,263.3738652398497 173.0897795437777,263.5606721487238 172.83905373394373,263.7035240489895 172.5694052214676,263.81340986556097 172.4227542760782,263.9068126315251 172.555213194486,264.1815257003145 172.7160561668279,264.45623735312984 172.90528319313307,264.67600565589237 173.08504886811716,264.9562089276624 173.2600838674407,265.1704810238916 173.48715629897197,265.4012346257259 173.52027102859574,265.7528572408519 173.32631332663004,265.983608321425 173.12289427337237,266.17590012547953 172.895821841812,266.3572031910553 172.6782107615727,266.52751763032575 172.45586900570197,266.70332551293177 172.22406589848106,266.85715693457314 172.06322292613913,266.9615422892748 171.91657198074972,266.73628942637515 171.793574413663,266.4725775480656 171.64219279264216,266.2418285843123 171.46242711765808,266.01107862161007 171.2353546860977,266.18139416682243 171.01301293019787,266.3736852573529 170.81432455260074,266.20337032656244 170.66767360721133,265.9781142596876 170.5068306348694,265.8682329060139" stroke="#ffcf00" stroke-linecap="round" stroke-linejoin="round" stroke-width="0.5"><title>2024-03-04 20.1km</title><desc>383901413</desc></polyline></svg>