<?xml version="1.0" encoding="utf-8" ?>
<svg baseProfile="full" height="300mm" version="1.1" viewBox="0,0,200,300" width="200mm" xmlns="http://www.w3.org/2000/svg" xmlns:ev="http://www.w3.org/2001/xml-events" xmlns:xlink="http://www.w3.org/1999/xlink"><defs /><rect fill="#222222" height="300" width="200" x="0" y="0" /><text fill="#FFFFFF" style="font-size:12px; font-family:Arial; font-weight:bold;" x="10" y="20">Over 10km Runs</text><text fill="#FFFFFF" style="font-size:4px; font-family:Arial" x="10" y="280">ATHLETE</text><text fill="#FFFFFF" style="font-size:9px; font-family:Arial" x="10" y="290">SAM0TA</text><text fill="#FFFFFF" style="font-size:4px; font-family:Arial" x="120" y="280">STATISTICS</text><text fill="#FFFFFF" style="font-size:3px; font-family:Arial" x="120" y="285">Number: 4</text><text fill="#FFFFFF" style="font-size:3px; font-family:Arial" x="120" y="290">Weekly: 2.0</text><text fill="#FFFFFF" style="font-size:3px; font-family:Arial" x="141" y="285">Total: 96.6 km</text><text fill="#FFFFFF" style="font-size:3px; font-family:Arial" x="141" y="290">Avg: 24.1 km</text><text fill="#FFFFFF" style="font-size:3px; font-family:Arial" x="167" y="285">Min: 18.6 km</text><text fill="#FFFFFF" style="font-size:3px; font-family:Arial" x="167" y="290">Max: 36.2 km</text><polyline fill="none" points="47.0412158506515,40.560800801351434 47.01104036573088,40.20119953815447 46.747004872595426,39.58724263494514 46.70928551646648,39.271491638210136 46.54332034938852,39.0609903200384 46.090688075491926,39.06976121873595 45.758757741277805,39.10484480445302 45.291037724906346,39.11361569859582 44.98173900440452,39.07853211650945 44.44612414698349,39.00836490876827 43.827526705979835,39.03467761848151 43.352262818370946,38.98205219087686 42.82419183218735,38.99082309775986 39.03716847390751,39.16624104449875 38.48646587401163,39.025906716160534 38.08664069871884,39.17501193229691 37.63400842482224,39.16624104449875 37.151200666005025,39.10484480445302 36.50242774010985,39.22763724005199 35.95172514018486,39.13992837562546 35.70277738952427,39.15747015576926 35.287864471785724,39.131157484189316 34.93330252391752,39.18378281920013 34.224178628152,39.17501193229691 33.945055392570794,39.20132459024171 33.356633436487755,39.28026251510164 32.57207082840614,39.35920036645257 32.03645597095601,39.16624104449875 31.674350151821272,39.06976121873595 31.395226916269166,39.05221942042408 30.7238223766617,38.89434307225747 30.384348171268357,38.77155015363678 29.60732943439507,38.832946635193366 29.19241651665652,38.613673282496165 28.785047470155405,38.455796117188584 26.174868023983436,37.780429366954195 24.975392498192377,37.3506477229821 24.703813133877702,37.21908147774957 24.5529357092164,36.89455053270649 24.575567322899587,36.315654409212584 24.52276022429578,36.07006091938092 24.613286679057637,35.473616623014095 24.19837376131909,34.56139957704727 24.22854924623971,34.72805534759391 23.91170665450045,35.649041851946095 23.43644276689156,35.999891220119025 22.802757583471248,36.21040014360915 22.493458862940315,36.29811204068392 22.123809172626352,36.517391386121744 21.95030013428186,37.113828334484424 22.244511112337932,37.464671636917046 22.236967241071397,38.09618592025072 22.02573884659796,38.403170330042485 22.13135304383468,38.832946635193366 22.44819563557394,39.41182555982232 23.074336947785923,39.929304886987666 23.791004714817973,40.47309331687575 23.640127290185774,41.20106268755626 23.474162123078713,42.02550237464311 23.61749567647348,42.34124310934567 23.76082922986825,42.59558895674127 23.90416278326302,42.91132756733714 23.941882139450172,43.20075359362818 24.04749633668689,43.446326416487864 24.847146687243367,44.85835633835086 25.163989278953522,45.261789137657615 25.42048090082244,45.621368927029835 25.533638969325693,46.03356827213429 25.488375741930213,46.647478473969386 25.209252506349003,47.02459253598499 24.801883459847886,47.02459253598499 24.10784730652813,46.84042076184414 23.232758243684657,47.17368367905874 23.044161462865304,47.30523446985171 22.84802081086673,47.734965630246734 22.915915651945397,48.41025305156654 22.923459523153724,49.26093214534194 22.908371780707967,50.04144462817203 22.70468725747196,50.681634894994204 22.568897575314622,51.637526430844446 22.561353704048088,52.435556062468095 22.69714338623453,53.01434208395949 23.013985977944685,53.66327928761166 23.285565342288464,54.145594261353835 23.534513092949055,54.84713841561461 23.37609179705032,55.12775445178704 23.195038887497503,55.776675477864046 23.195038887497503,56.22390194249601 23.368547925841995,56.72374049344944 23.37609179705032,57.127116824478435 23.013985977944685,57.91632583455794 22.712231128680287,58.959824247533106 22.37275692325784,59.51225938458083 22.493458862940315,60.09099709628208 22.81030145470868,60.5820441781907 23.172407273814315,61.134468746196944 23.187495016289176,61.68688971523807 23.179951145022642,62.01132574975054 23.195038887497503,62.23930708541593 23.9494260106585,63.06354218527122 24.10784730652813,64.19466029193427 24.28890021611005,65.09779027353215 24.28890021611005,65.9395338299073 24.26626860239776,66.24641742327367 24.100303435290698,67.09691757865949 23.881531169608934,67.70190734322387 23.7985485860263,68.5699285980445 23.82872407094692,68.96448077716923 23.8739872983424,69.82372139419749 24.085215692815837,70.79693239655171 24.42468989826739,71.53340897598537 24.651006035215687,71.85780734546279 24.960304755717516,72.2172743598785 25.563814454246312,72.72578607130708 26.069253826746717,73.07648202720156 26.5671493280679,73.41840918830712 26.76328998009558,73.69896377828991 26.604868684196845,74.33020821327955 26.635044169146568,74.89131043443922 27.019781601964496,75.60145011227723 27.080132571805734,76.05733911811694 27.26872935256688,76.97787675842119 27.374343549803598,77.19705091485957 27.653466785384808,77.88963752773998 27.962765505886637,78.57345167465246 28.211713256518124,79.11699232145475 28.362590681150323,79.43259497010149 28.400310037337476,79.66929618617723 28.196625514072366,80.22159645573265 27.955221634649206,80.48459532050765 27.84206356620416,80.65992744416144 27.72890549773001,80.85279236171482 27.38943129227846,81.20345472504414 27.457326133357128,81.40508492777008 27.51013323199004,81.68561310839868 27.54030871691066,81.96614036162646 27.781712596304715,82.46582723412575 28.053291960677598,83.20220252505533 28.362590681150323,84.84149123777024 28.603994560573483,85.50771717247699 28.694521015364444,85.70933714809507 28.868030053708935,86.30542818751564 28.94346876599593,86.78755758310581 29.305574585101567,87.69921295413951 29.373469426180236,88.17256861126225 29.365925555001013,88.66345317084051 29.365925555001013,89.47866589899058 29.63750491931569,89.96954290458234 30.037330094579374,90.32893319781579 30.542769467108883,90.48671382147586 30.93505077113514,90.46041707123368 31.13873529440025,90.52177614245738 31.206630135478918,90.90746071732428 31.19154239303316,91.14412992969301 31.42540240121889,91.24055053072516 32.03645597095601,91.06524026555417 32.40610566129908,91.13536441508768 32.73049212427577,91.07400578743545 33.092597943381406,90.79350863896252 33.507510861119954,90.59190074095386 34.41277540894225,89.9257147159442 35.50663673749659,89.82052697083418 36.13277804973768,89.8468239193462 36.38172580036917,90.23251156118931 36.56277870995109,90.3902923640926 36.841901945503196,90.8198052860098 36.95506001400645,91.41586043380812 36.962603885214776,91.72265189293103 36.992779370135395,92.38882381474832 37.030498726293445,92.61672353510221 37.196463893400505,92.87968399062083 37.33225357555784,93.11634770408273 37.78488584945444,93.37054132803314 38.01120198640274,93.46695940007339 38.22243038090528,93.50202049002837 38.44120264661615,93.51955102957436 38.727869753405685,93.46695940007339 39.07488783006556,93.41436773799069 39.29366009577643,93.43189829563926 39.53506397519959,93.47572467390273 39.62559042996145,93.87016106018564 39.76892398338532,94.10682201221061 40.04804721896653,94.45742961725045 40.25173174217343,94.78174036266137 40.470504007913405,95.07098944165773 40.74962724346551,95.08851965719077 41.35313694199431,94.95704295242467 41.64734792005038,95.09728476359305 42.06980470902636,95.01839877332532 42.72612150615896,95.12358007738658 43.12594668145175,95.12358007738658 43.44278927316191,95.1937008743771 43.81243896353408,95.14111028206389 44.159457040193956,95.50924374404713 44.159457040193956,95.8686105837478 44.18963252508547,96.16662095551146 44.14436929768999,96.41204047619249 44.23489575248095,97.27100321144826 44.04629897171981,97.89330751928355 44.16700091140228,98.27895860384888 44.28770285114297,98.50684251219354 44.62717705653631,98.90125552352401 45.1778796564613,99.2430786512632 45.705950642674,99.18172588352172 46.18121453028289,99.23431397286186 46.57349583428004,99.33949005385512 46.943145524623105,99.48848927886866 47.667357162892586,99.90919156162272 48.32367396002519,100.3561854529762 48.6782359079225,100.59282832511235 48.881920431158505,100.74182535067666 49.108236568106804,100.8732930972692 49.907886918692384,101.1800503810955 50.20209789671935,101.68838858285017 50.41332629119279,102.06525804382545 50.78297598156496,102.49471190210897 51.15262567187892,102.63494126296428 51.33367858143174,102.8628134804676 51.65806504440843,103.02057081125531 52.05034634846379,103.46754832360602 52.321925712778466,103.61654030487989 52.819821214070544,103.9934012082449 53.302628972916864,104.36149628990097 53.37052381396643,104.6331844933884 53.385611556470394,104.84352315072465 53.64964704957674,104.95745637257642 53.823156087863026,105.28172701348376 54.09473545223591,105.5534122728277 54.456841271341546,105.78127665881038 54.735964506922755,105.80756866402226 54.9245612876839,106.2107117243504 55.06035096987034,106.28958731668536 55.49789550132118,106.43857434669917 56.056141972425394,107.31496335021802 56.25228262445307,107.50776771727396 56.59175682987552,107.60416973667452 57.0142136188515,107.7969734471917 57.28579298319528,108.10370572092506 57.44421427906491,108.26145331604494 57.655442673538346,108.41920061816927 57.94210978035699,108.55942019628128 58.18351365975104,108.55942019628128 58.53053173638182,108.63829360724776 59.00579562399071,108.918731808546 59.3301820869674,108.93625916539895 59.435796284204116,108.7960402094177 59.81298984581372,109.28680554249149 60.2128150210483,109.5672416024463 61.50281700165942,109.96160324516677 61.71404539613286,110.08429316053662 61.93281766187283,110.15440160402068 62.18176541250432,110.19821935184882 62.589134459005436,110.16316515541257 63.32088996848324,110.01418465914321 63.60001320406445,109.45331456478743 63.98475063688238,109.12905985184625 64.55054097925313,109.15535082062706 65.22948939009802,109.3043328233689 65.68212166399462,109.65487768127787 65.89335005846806,109.80385880779068 66.4591404008388,109.8827310630877 67.22861526647466,110.6539225889137 67.84721270744922,111.01322534045175 68.44317853476969,111.21478475509502 69.28054824148421,111.48645103543095 70.02739149340778,111.644192347856 71.02318249596283,111.65295574552874 71.81528897528187,111.53903150546103 73.04493998602265,111.31118256692571 73.41458967639483,111.27612882982066 74.38774906526669,111.17973097820504 75.01389037750778,111.12715028576349 75.496698136325,111.39881684637658 75.7230142732733,111.57408513404516 76.42459429780138,111.7405896723285 77.1110865798837,111.87204039305652 77.65424530857126,111.67924593305361 78.65758018236374,112.15246791735262 79.32144085076288,112.33649797704857 80.50582863413729,112.46794777556352 81.29793511342723,112.6432138571472 81.47898802298005,113.04632447235053 81.63740931887878,113.45819638596731 82.18056804753724,113.46695959645876 82.78407774606603,113.38809066935937 83.08583259533043,113.37056423113972 83.7346055212256,113.32674811985635 84.01372875680681,113.42314353487745 84.30793973486288,113.59840764555702 84.49653651565313,113.75614503600082 84.99443201694521,114.16801350787136 85.4696959045541,114.58864307754266 85.96759140581707,114.67627397571778 86.23917077016085,115.12319015031972 86.11092495924095,115.42989596848201 85.76390688255196,115.5 85.9977668907377,115.29845075343474 86.32969722492271,114.9128769492745 86.91811918097665,114.37832855305896 87.2349617727159,114.22059231800085 87.43864629598102,114.24688171083108 87.67250630413764,114.32574984056555 88.07987535066786,114.58864307754266" stroke="#fff300" stroke-linecap="round" stroke-linejoin="round" stroke-width="0.5"><title>2024-03-28 21.8km</title><desc>9223370325245023807</desc></polyline><polyline fill="none" points="138.8644269896613,34.5 139.08821688665194,34.673642947207554 139.53579668072052,35.029609860539495 139.81180422040052,35.22061587165808 140.33398064682842,35.411621446037316 140.59506886001327,35.46371379962511 140.7442621247028,35.481077910277236 141.57228474374278,35.63735474363057 141.72893767169444,35.654718818186666 142.1690578025009,35.715493050687655 142.3779283730546,35.75890318968595 142.81804850394838,35.802313306121505 143.5267165111727,35.42898556752334 143.8027240508818,35.42030350724235 144.19808620231925,35.611308625033416 144.8097785875434,35.89781548290921 145.30211636103923,35.91517950332491 145.62288188011735,35.86308743126574 146.0257036947878,36.01936354998179 146.56279944765265,36.114865478652064 146.8238876608375,36.1843213581451 147.28638678140123,36.340596875983465 148.0025144519168,36.783375922212144 148.50977155184955,37.156697608363174 148.89021437682095,37.43451731537061 149.5690437311423,37.85992695126333 150.300090728153,38.23324382678402 150.52388062517275,38.36347025138093 150.93416210307623,38.53710516841238 151.50109650887316,38.75414830724185 151.66520910005784,38.91041901805147 151.88899899710668,39.00591764187993 152.3813367705734,39.22295956283051 152.73940060581663,39.3792293967781 153.3212543381378,39.58758872071485 153.61964086751686,39.717813034287246 153.79121312193456,39.76990270290844 154.27609123216826,40.08244003255095 154.48496180272195,40.31684226257494 154.73859035267378,40.39497619309259 155.01459789235378,40.464428514453175 155.34282307466492,40.75960023615335 155.5442339820147,41.176311479794094 155.90975748049095,41.410710641066544 156.12608771430678,41.619064899023215 156.446853233414,41.82741863743286 156.77507841569604,42.05313460109028 157.04362629214302,42.16599235427566 157.46882709654165,42.400388739202754 157.99846318617347,42.643465777189704 158.1849547670281,42.71291622960416 158.37144634788274,42.76500403103273 158.78172782578622,42.817091799966875 159.10249334489345,42.85181696125801 159.55007313896203,42.78236662429117 160.3407974418369,42.843135672286735 160.87043353146873,42.929948521312326 161.05692511232337,42.99071746198024 161.61639985491638,43.26851777077536 161.98938301662565,43.58972322654881 162.29522920926684,44.1887246971819 162.45188213716028,44.36234750918811 162.65329304451006,44.5446510735419 162.9442199106561,44.752997517243784 163.1530904812098,44.92661915685312 163.40671903119073,45.117602543781686 163.57829128560843,45.26518031654268 163.38434004149167,45.7252740528711 163.2575257665012,45.890212700011034 163.17546947090887,46.254812764847884 163.48131566355005,46.47183585773746 163.8841374781914,46.45447403106664 164.1228467017354,46.40238852933544 164.34663659872604,46.82775251002022 164.48091053697863,47.17498680754943 164.62264413840603,47.496177248249296 164.65248279136722,47.773962579871295 164.83151470898883,48.08646997431788 165.00308696334832,48.49446398058353 165.07022393247462,48.65071647676814 165.30147349272738,49.08474965568166 165.39098945158185,49.27572354036238 165.49542473684414,49.536141770709946 165.59240035890252,49.848642576049315 165.80127092948533,50.56912609155552 165.8609482353495,50.7948184454508 166.1369557750295,51.115994975225476 165.9653835206409,51.28960339638434 165.7266742970969,51.506613415738684 165.49542473684414,51.740983603784116 165.42828776771785,51.93195141929755 165.39098945158185,52.09687781791581 165.59986002213554,52.38332815787726 165.8609482353495,52.643736705991614 166.5248582632339,53.155871150542225 166.68897085438948,53.30343473022367 167.10671199552598,53.66800245735794 167.19622795432224,53.789524679712486 167.22606660728343,54.15409028677823 167.26336492344853,54.34505258927675 167.44985650427407,54.5360144555234 167.8079203395755,54.62281515960058 167.98695225719712,55.03945728456165 167.97203293073107,55.6296967401795 167.77808168664342,56.40220973097166 167.61396909545874,56.879601830543834 167.5617514528276,57.17471558311081 167.5244531366625,57.38303054594871 167.4573161675362,57.600024746927375 167.44239684109925,57.80833864995657 167.427477514575,57.95589401719917 167.427477514575,58.1034491240498 167.13655064845807,58.28572271997837 166.89784142497228,58.459316251421114 166.53977758969995,58.693666947088786 166.0325204897381,59.19708473881474 165.65953732802882,59.66578133722942 165.4805054104072,59.726538111317495 165.19703820746508,59.61370406714559 164.95086932074628,59.83069247844105 164.63010380166816,60.16919327553478 164.0557097326091,60.79411422351404 163.43655768412282,61.42770986053074 163.03373586948146,61.85299738965114 162.8024863091996,62.096017863623274 162.60853506511194,62.304320564857335 162.22063257687842,62.72092441053974 161.90732672106242,62.95526316155883 161.6909964872466,62.868471108115045 161.01216713292524,62.46922650196939 160.7883772358764,62.34771689563058 161.1389814078866,62.668849043337104 161.7282948034117,62.99865915445844 161.8327300887031,63.154884542535 161.5492628858192,63.57148415041593 161.1016830917506,64.23109595138521 160.66902262411895,64.91673954499856 160.58696632855572,65.02956643312064 160.25874114621547,65.48087246329669 159.66942775069037,65.89746048316738 159.35612189484527,66.00160716387472 159.0875740183983,65.9929282787416 158.7071311934269,65.85406599457201 158.23717240965925,66.06235933436255 157.81197160528973,66.27933101159579 157.87910857438692,66.6959150538678 157.8045119420858,67.39021717942524 157.51358507591067,68.14526419810863 157.20027922009467,68.83955429111666 157.02870696567697,69.26480412678211 156.77507841569604,70.08058347315091 156.64826414070558,70.21076029224787 156.59604649810353,70.47979174293869 156.6557238039677,70.5752543077615 156.71540110983187,70.85296296769229 156.722860773094,71.61665702802566 156.81237673191936,72.12867527732305 156.91681201715255,72.57994300017162 157.05108595537604,73.41304624597979 157.19281955686165,74.27217527765606 157.31963383185212,75.07922784527182 157.44644810684258,75.79081612290611 157.56580271857092,76.49372055189451 157.65531867739628,76.96232022337063 157.71499598326045,77.43959496831667 157.64785901413416,77.54372727806185 157.65531867739628,77.8648010838806 157.75229429939645,78.37678108995169 157.81943126852275,78.93214568938856 157.96862453321228,79.79121804206807 158.08797914496972,80.20773479536729 158.17749510376598,80.73705517732742 158.1849547670281,81.01473010412155 158.30430937878555,81.34446788272908 158.47588163314504,81.9258444848092 158.6399942243297,82.43779964021087 158.85632445814554,82.97578303820046 159.2218479566218,83.62656478382269 159.66942775069037,84.25131049776974 160.25128148301155,84.91943616912613 160.8555142050027,85.49211107009614 161.519424232858,86.03007483122929 161.75067379311076,86.22964115347713 162.10127796515008,86.7242165095522 162.0043023431208,86.97584144603024 161.75067379311076,87.73938834608998 161.47466625343077,88.54631102126586 161.39260995786753,88.910725162983 161.30309399907128,89.17969648786675 161.22103770347894,89.43131404145242 160.9972478064592,90.09939835767727 160.79583689910942,90.55924550259078 160.49745036975946,91.34878848085646 160.28857979914756,91.96480035728018 160.0200319227297,92.77168229450035 159.77386303595267,93.53517632003059 159.6395890977874,93.66531665240473 159.57991179186502,93.99500458881812 159.04281603900017,94.57629331349017 158.431123653776,95.23566071168898 158.09543880820274,95.41785341902141 157.75229429939645,95.69547963908553 157.6329396876681,95.89502291604731 157.32709349508514,96.31145952701627 156.93919100685162,97.04021861138608 156.6930221201037,97.3959201461621 156.48415154955,97.8730783679639 156.26036165253026,98.32420727645513 155.6859675834712,98.49771774778492 155.15633149381028,98.6191748637284 154.9847592394217,99.48672056756914 154.92508193352842,99.83373633190058 154.76096934237285,100.17207531724125 154.6714533835475,100.35425728148402 154.12689796744962,101.00490391755011 153.72407615280827,101.4820415703798 153.15714174698223,102.11532916453143 152.63496532055433,102.77463718695071 152.12770822062157,103.27778981647134 151.60553179419367,103.90238887439773 151.28476627511554,104.31011074601702 150.86702513394994,104.83060386739817 150.74021085898858,105.05614988187153 150.34484870758024,105.47254092794174 149.85251093408442,106.11447306731134 149.35271349738468,106.73905096610542 148.8006984179956,107.44169553398388 148.30836064452888,108.05758901019726 148.0771110842761,108.41324374322721 147.95775647251867,108.56070989688305 147.75634556516889,108.57805883904075 147.56239432108123,109.08117659889103 147.17449183290591,109.42815260325006 146.63739607998286,110.13944891802385 146.092840663885,110.76399679885799 145.6750995227485,111.2931239979298 145.17530208604876,111.85694438366045 145.04102814779617,111.93501152253157 144.78739959784434,111.8395961207134 144.30998115081456,111.50997844162339 143.99667529496946,111.2671014269581 143.68336943912436,110.99820105343679 143.49687785826973,110.83339072032686 142.9299434524437,110.32160919773742 142.43014601574396,109.80115020462108 142.0944611701998,109.5669426024906 141.65434103933512,109.15057191478991 141.5051477746456,108.99443237319065 141.35595450995606,108.7515480631846 141.03518899090705,108.53468647686532 140.40857727918774,107.97951825685595 139.81180422040052,107.45904470799724 139.28962779403082,106.95591720248922 138.63317742935033,106.4267625990251 138.3795488793985,106.20122027629259 138.11846066618455,105.97567734604672 137.91704975883476,105.71543474859936 137.61120356622268,105.4204921604105 137.29043804717367,105.16024783751345 136.9547532016004,105.40314256404963 136.48479441780364,105.94965312268323 136.30576250018203,106.1578466830033 135.93277933847276,106.60025628007133 135.48519954440417,107.19880672047293 135.11967604592792,107.60651254192635 134.77653153712163,108.01421637842577 134.61241894593695,108.20505579013115 134.33641140628606,108.51733752569271 133.85899295925628,109.05515334061784 133.5158484504791,109.43682698492921 133.14286528876983,109.86187058714859 132.8593980858568,110.1654718393911 132.59830987261375,110.46039771629876 132.2327863741375,110.97217839083169 132.00899647711776,111.17168526421301 131.59871499918518,111.63141668482422 131.33762678600033,111.94368564456818 131.0839982360485,112.20390888833208 130.94972429782501,112.35136836758466 130.5991201257566,112.62893844776409 130.36787056550384,112.79374524761806 130.04710504645482,112.98457376865554 129.75617818027968,113.08866186961677 129.42795299796853,113.18407584850502 128.98037320389994,113.38357745319081 128.5850110524625,113.55705672315526 128.42089846130693,113.61777438276476 128.27916485985043,113.66981805597607 127.96585900400532,113.73920956991788 127.72714978049044,113.83462280776439 127.62271449519903,113.89534026615001 127.18259436436347,114.05147067134385 126.98864312027581,114.08616627743322 126.48138602034305,114.28566573347052 126.2575961232942,114.33770899169758 125.92191127772094,114.48516471437324 125.76525834982749,114.57190325349802 125.33259788222495,114.70201089376496 124.75820381316589,114.88416125066578 124.66868785434053,114.85813979534578 124.3777609881945,115.02294220909243 124.2061887338059,115.06631121143437 123.98985849999008,115.14437535909383 123.72877028680523,115.20509186807612 123.52735937945545,115.24846077612165 123.28119049273664,115.32652475404029 123.10961823831894,115.3438722948049 122.9529653103964,115.45663122218684 122.7440947398427,115.5 122.54268383249291,115.4739787360013 122.22191831341479,115.01426840591739 122.16970067078364,114.87548743311345 122.02050740609411,114.58057710246794" stroke="#4dd2ff" stroke-linecap="round" stroke-linejoin="round" stroke-width="0.5"><title>2024-03-06 18.6km</title><desc>9223370327137444807</desc></polyline><polyline fill="none" points="31.39937010293943,254.04548309339225 31.24589030574134,254.00690209897948 30.806191427254817,253.93938528188664 30.495083730231272,253.95867581104176 29.914349362428766,253.94903054746828 29.590797357523115,253.96349844207725 29.238208634211333,253.94903054746828 28.831694576743757,253.93938528188664 28.40858810878126,254.01172472503094 28.19703487480001,253.9731437026603 28.02281456447963,253.90080419963851 27.744891688445932,253.95385317950786 27.578967583351186,253.9683210726289 27.379858657252043,253.9104494731837 27.205638346931664,253.79952870670968 27.035566139194998,253.62591306386093 26.989937010308495,253.43782872072916 26.87793823936954,253.1966938368314 26.749347057921113,252.54080063889705 26.624903979129158,252.37200310140543 26.334536795227905,252.39611707277072 26.152020279638236,252.40576265783602 25.92802273777488,252.4202310316723 25.728913811661187,252.43469940100476 25.430250422505196,252.4250538219385 24.84951605470269,252.4154082408968 24.52181594715512,252.3768258966884 24.156782915975782,252.4250538219385 23.692195421739598,252.4154082408968 23.4142725457059,252.48775005014977 22.953833154097083,252.49257283343468 22.775464741134783,252.3768258966884 22.555615301898797,252.4250538219385 22.078583499765955,252.46363612620917 21.725994776468724,252.44434497807015 21.514441542487475,252.4250538219385 20.800967890609172,252.5022183985202 20.282455062231747,252.43952218977938 19.97134736519365,252.28036989639804 19.76809033648169,252.23214182136144 19.208096481801476,252.0874572967332 18.809878629617742,251.92348095898342 18.27477339070174,251.74985832524544 17.988554309427855,251.72092115671694 17.262636349681998,251.46530872076983 16.95567675527127,251.25792401583385 16.96397296054056,250.90585019347054 17.08011983409233,250.3560309569766 17.129897065620753,250.1679334126493 17.14234137350286,249.90748940513004 16.876862805351266,249.62292854711268 16.905899523757398,249.51682066359717 16.918343831639504,249.51682066359717 16.976417268422665,249.3480121689754 17.270932554936735,248.86087565467096 17.134045168262674,248.55219245428088 16.798048855445813,248.27726975667974 16.362498079586658,247.7129496619673 16.30027654019068,247.24991268281155 16.200722077148384,246.84957491747628 16.076278998327325,246.52158478618003 15.740282685510465,246.04888906319684 15.462359809520422,245.7787750673997 15.586802888312377,245.45077739492262 15.864725764346076,245.16618930739423 15.976724535255926,244.91054089849058 15.993316945779952,244.53430106492306 15.711245967147988,243.9265226047537 15.673913043487119,243.43450566024694 15.570210477817454,243.07272517850652 15.292287601783755,242.8845982171406 14.972883699505473,242.70129429292865 14.678368412976852,242.46492764126742 14.50829620526929,242.19961670504927 14.686664618231589,241.57251211889525 14.968735596892657,241.16247763041974 15.217621754505672,240.85374339719783 15.549469964680611,240.50641493765943 15.632432017227984,239.859991183519 15.578506683072192,239.5223035637755 15.590950990954298,239.112251018174 15.60754340144922,238.81315158916186 15.49969273316674,238.3982685544288 15.383545859585865,238.0653946088969 15.27984329390165,237.5974373558529 15.420878783232183,237.35139608841564 15.814948532817652,236.95097320598143 16.009909356289427,236.49265363085578 15.765171301274677,236.2273086562418 15.458211706878501,235.9233661902217 15.395990167482523,235.2913524856449 15.134659701958299,234.9488071205451 14.894069749600021,234.5724867709323 14.98532800738758,233.7715897438393 15.126363496703561,233.21191857997837 15.05169764944003,232.7197883744302 15.080734367802506,232.21800319837348 15.22176985713304,231.73551234937986 15.259102780779358,231.55216451497836 15.180288830873906,231.22406658716864 15.109771086208639,230.84289108942176 15.19273313874146,230.54856356862365 15.437471193741658,230.0081540927422 15.632432017227984,229.69452071487103 16.08457520356751,229.49186417708916 16.258795513916994,229.3953607536023 16.391534797978238,229.01417027390926 16.48279305578035,228.48821878831586 16.445460132148582,228.16492455745538 16.271239821784548,227.7451212332744 16.229758795525413,227.1178218501118 16.254647411289625,226.8620742896601 16.503533568931744,226.5966743912104 16.6611614687572,226.4133063041627 16.943232447389164,226.22993749426678 17.299969273328315,226.24923950829543 17.586188354587648,226.2540650105584 17.830926409602398,226.2637160135564 18.312106314348057,226.20580996547142 18.594177292994573,225.88732541245918 18.523659548329306,225.63157108670202 18.361883545891033,225.43854802290662 18.4448455984093,225.1441863084474 18.486326624682988,224.83534578577746 18.262329082819633,224.36725545922673 17.97611000154575,224.03910685448136 17.61937317562115,223.87503168390322 17.02619449995109,223.70613016841162 16.569903210940538,223.33454467522824 16.291980334935943,222.813354825259 16.03064986942627,222.60584242596087 15.976724535255926,222.2390740603696 16.005761253662058,222.0894703438462 15.972576432643109,221.58274450246245 16.146796742992592,220.8395366136865 16.254647411289625,220.44379769672378 16.24220310340752,220.04805541182577 16.308572745430865,219.54130732446356 16.29612843754876,219.3241278821115 16.370794284855947,218.98146492127853 16.561607005700353,218.66293089002647 16.74412352129002,218.5181419725959 16.872714702723897,218.34922099906908 16.88930711323337,217.7169684792898 16.677753879252123,217.84728077075852 16.41642341374245,217.57217661594404 16.18412966663891,217.35016154968616 16.0265017667989,216.93991352894227 16.134352435110486,216.6406715127996 16.308572745430865,216.4234785205408 16.520125979426666,215.9842629242994 16.5947918267193,215.5064302549108 16.615532339841593,215.28923196333199 16.702642495016335,215.00928600167026 16.89760331850266,214.80656545974853 17.20041481028602,214.4156019179827 17.569595944107277,214.25631953228367 17.7645567675645,214.22735903987632 18.042479643583647,213.84121741697527 18.262329082819633,213.75916190885982 18.74350898755074,213.64331859196318 19.05046858197602,213.59987727369298 19.427945921052014,213.46955307527605 19.49846366570273,213.18959615420317 19.369872484268853,212.9530795102728 19.22468889231095,212.47038874732607 19.28691043172148,211.92011516268758 19.22883699493832,211.79944025991063 18.996543247820227,211.7077271242597 18.880396374268457,211.49051108102867 19.062912889843574,211.36500801553484 19.23713320020761,211.0609030281703 19.369872484268853,210.6554266162093 19.43624212630675,210.47682278857974 19.510907973584835,210.26442815411428 19.647795360288,209.9313527952836 19.722461207580636,209.70930122977006 19.875941004778724,209.43414890488202 20.352972806882462,209.04314016684293 20.572822246147553,208.84522090943574 20.838300814270042,208.4155884007996 21.107927485034452,208.03422587971 21.419035182072548,207.67699738787996 21.493701029365184,207.24735407726257 21.568366876643267,207.03011718326889 21.634736518681166,206.79356918799385 22.024658165639266,206.3542625730115 22.393839299460524,205.97288313229728 22.63857735444617,205.88598611295674 22.746428022757755,205.7556402791779 22.97042556462111,205.66391521396145 23.18197879860236,205.5915005608622 23.41842064834782,205.5528793663907 23.708787832249072,205.4563262397569 24.04478414503683,205.01700697990236 24.231448763253866,204.77562100274736 24.517667844542302,204.37974528498307 27.346673836247646,201.03397795002093 27.711706867426983,200.88913409479937 28.25510831158317,200.62358585368202 28.549623598111793,200.46425618024296 28.810954063621466,200.23250295221078 29.117913658032194,200.05385904964714 29.441465662937844,199.75933652076128 29.765017667843495,199.5420646055718 30.1673836226837,199.43584241039207 30.984559840231668,199.35376145682312 31.146335842684493,199.36824634152072 31.299815639897133,199.40204438825094 31.569442310676095,199.39721609737535 32.12528806269984,199.33444827019048 32.33269319405372,199.3151350755361 32.72676294363919,199.14131596213338 33.149869411601685,198.96266786209162 33.324089721922064,198.7309071406453 33.680826547861216,198.65848167799413 34.19933937625319,198.4846601067875 34.75933323093341,198.10321604503042 34.97918267015484,197.79419577357112 35.22392072515504,197.523801349118 35.572361345839454,197.34997553051653 35.83369181134913,197.30169046543597 35.987171608547214,197.32583300426995 36.21116915041057,197.44171701586674 36.48909202642972,197.63968486667 36.829236441873945,198.04044646881812 37.26063911507663,198.47500333374046 37.68374558305368,198.60536960027457 37.87041020128527,198.6391682022222 38.198110308818286,198.5812277266814 38.71662313719571,198.4798317205168 39.006990321096964,198.40257747198848 39.666538638819475,198.19978445813467 39.956905822706176,198.1901276258468 40.60815793517395,198.11770131977755 41.08104163466487,198.08390233829414 41.284298663405934,198.12252974370858 41.73229374711809,198.15632869707406 41.88992164697265,198.11770131977755 42.051697649410926,198.1901276258468 42.24251037026988,198.20944128839255 42.62828391457151,198.14184343436136 42.947687816864345,198.18529920896253 43.1260562298412,198.23358335527882 43.3832385927235,198.2577254095886 43.727531110765995,198.26738222781933 43.8727147027239,198.1901276258468 44.15893378399778,198.16115711697785 44.75626056230976,198.17081395528658 45.2996620064514,198.1659855363796 45.51951144570194,198.12735816711574 45.7559532954474,198.07424548193376 46.24128130283498,198.04527490076362 46.73905361809011,198.01630430152 47.00868028883997,198.05010333220707 47.48156398833089,198.04044646881812 47.8839299431711,198.0694170530005 48.14940851130814,198.0790739103686 48.37340605317149,198.11770131977755 48.725994776483276,198.24806858937518 49.00391765248787,198.2625538189568 49.3108772468986,198.30600948059873 49.48094945462071,198.33980830042128 49.90820402519603,198.4605181704428 50.065831925021484,198.50880203058114 50.430864956229925,198.61019797348126 50.93278537411243,198.75504893642574 51.360039944702294,198.85161599405183 51.91173759409867,198.92886949559397 52.641803656486445,198.96266786209162 53.25157474268053,198.88058607219136 54.11852819174237,198.7309071406453 54.59555999386066,198.70676533231745 54.83200184360612,198.6971086054691 55.03111076969071,198.68262351143494 55.2385159010737,198.58605610239465 55.781917345229886,198.36395029953565 56.229912428956595,198.1901276258468 56.408280841918895,198.0114758665659 56.9890152097214,197.78936731550493 57.665155937938835,197.71694038439455 58.34959287142556,197.64934181342687 58.714625902604894,197.61554249102846 58.980104470741935,197.57691466390315 59.35343370719056,197.5382868046254 59.664541404214106,197.44171701586674 59.88439084345009,197.4030890441354 60.1872023352189,197.27754791407278 60.58127208481892,197.13269234224572 60.888231679215096,196.98300777662007 61.26156091566372,196.79952281210717 61.50215086803655,196.678808624245 61.7593332309043,196.5484369488695 62.020663696413976,196.5098082340155 62.25710554615944,196.55326553596387 62.46865878015524,196.5484369488695 62.96643109541037,196.27320665430307 63.21946535566531,196.26837803808667 63.42272238439182,196.28286388524066 64.05323398372275,196.297349727869 64.47634045168525,196.2925211141628 64.72937471194018,196.32632139959242 64.99900138270459,196.15731972639696 65.37647872178059,196.1669769814398 65.70003072668624,196.05591842723152 65.96965739745065,195.98348879224068 66.07750806576223,196.2635494213573 66.07335996313486,196.6305228612364 66.0028422184696,196.9057510378152 65.87839913966309,197.0988926437858 65.56729144261044,197.27754791407278 65.35988631127111,197.63002791793042 65.40966354279954,197.88110793276792 65.60462436625676,198.0694170530005 65.8244738055073,198.20944128839255 66.05261945001257,198.2866958582199 66.36372714703612,198.45568978167285 66.48817022582807,198.56674259648935 66.69142725456913,198.72607877998962 66.93616530956933,198.83230259860284 67.16431095406006,198.84195929733687 67.38416039332515,198.97715286877792 67.75748962974467,199.0495778344266 68.2096328161133,199.02543619177595 68.62029497619369,199.00129453654154 68.98947611001495,198.83230259860284 69.50798893839237,198.50880203058114 69.75272699340712,198.42671943846653 70.03064986942627,198.5377723225647 70.44131202949211,198.6633100456893 70.63627285297844,198.70676533231745 70.86441849745461,198.76470565122509 71.05937932095549,198.7309071406453 71.810185896451,198.43637622152892 71.96781379629101,198.36395029953565 72.5444000614516,198.03561803635966 72.92187740051304,197.78936731550493 73.35328007375938,197.5962285814894 73.80957136272627,197.68796958030725 74.32393608849088,198.0066474311061 74.73459824858583,198.06458862355066 75.12037179291656,198.0935591926609 75.60155169766222,198.07424548193376 76.20717468121438,198.20944128839255 76.57220771239372,198.4170626533778 76.95798125672445,198.61019797348126 77.35205100629537,198.8612726887768 77.71708403750381,199.03992117888265 78.28122599478229,199.0302645213087 78.60477799970249,198.9916378709422 79.00299585190078,198.9481828508833 79.3099554463115,198.9481828508833 79.58787832233065,198.9481828508833 79.86165309570788,198.90472779017728 80.13542786909966,198.83230259860284 80.69127362113795,198.80816084297112 80.90697495776112,198.64399657191098 81.20563834691711,198.45568978167285 81.51259794132784,198.3204946921178 81.82370563835138,198.2625538189568 82.39199569825723,198.08390233829414 82.69065908741322,198.1128728953663 82.9519895529229,198.1901276258468 83.20502381317783,198.18529920896253 83.64887079427717,197.96319148930343 84.08027346750896,197.9728483687868 84.37478875402303,197.80385268816826 84.80204332462745,197.5962285814894 85.07166999540641,197.67348417148605 85.5818866185291,197.59140010283954 86.06721462590212,197.34997553051653 86.51106160700147,197.22926277367515 87.01298202488397,197.05543585248597 87.40290367185662,197.20029166532913 87.79697342142754,197.44171701586674 88.06245198956458,197.5962285814894 88.47726225227234,197.82316651137444 88.90866492547502,198.0790739103686 89.21977262252767,198.28186745137282 89.58065755107964,198.50397364682067 89.77976647717878,198.65365330980785 89.93739437700424,198.86610103538987 90.19872484252846,199.05923448799513 90.56790597634972,199.25719544334788 90.81679213397729,199.37790292881618 91.3104163465905,199.7013974427682 91.58833922260965,199.9959203390863 91.90359502227511,200.33872332527972 92.05707481948775,200.74428978785727 92.33914579811972,201.13054026921964 92.69173452141695,200.99535296612157 93.114840989394,200.94707169108733 93.5172069442342,200.99052484088315 93.7619449992344,201.15468081764993 94.04816408050829,201.3912575282884 94.38416039329604,201.6712855468104 94.59156552466447,202.21685252733732 94.72845291135309,202.4148000244495 95.3008910738863,202.63688645609727 95.44607466582966,202.6948218723228" stroke="#ff8900" stroke-linecap="round" stroke-linejoin="round" stroke-width="0.5"><title>2024-03-06 36.2km</title><desc>9223370327144915207</desc></polyline><polyline fill="none" points="113.96913302585017,184.5 113.97622903937008,184.5164985979718 113.84850079659373,184.62373940158432 113.94784498540685,185.06919965714042 113.96913302585017,185.51465742375876 113.94074897194514,186.00960757878784 113.85559681011364,186.47155828466202 113.73496458082809,186.91700821628183 113.60723633808084,187.3872026664758 113.56466025716509,187.849145390981 113.5717562706559,188.34408105461625 113.6569084325165,188.74002737361297 113.77044464825303,189.16071818325872 113.96203701241757,189.57315799884964 114.05428518771078,189.96084948044154 113.9904210663226,190.75272409649915 114.19620545741054,191.2806361386538 114.09686126862653,191.71781065312825 114.26006957879872,192.18797679583076 114.33812572713941,192.60864941601176 114.33812572713941,192.97158087389107 114.20330147093046,193.35925583402422 113.81302072916878,194.13460010077688 113.60723633808084,194.5717589706037 113.41564397397451,195.00066723109921 113.55756424367428,195.38833232808975 113.75625262130052,195.74300300035975 114.03299714723835,196.10592019515025 114.31683768666699,196.43584348473814 114.87742275209166,198.01945627835812 114.46585396991577,197.45034904994827 114.5793901856523,197.92048139988765 114.68583038795623,198.38236311540095 114.78517457676935,198.84424215638865 114.89871079250588,199.2318885729619 115.05482308924547,199.7185058759933 115.1612632915203,200.18862485796853 115.18255133196362,200.62575054841727 115.18255133196362,201.054626256373 115.13997525101877,201.48349965859234 115.06901511619799,201.9123707551771 114.96257491389406,202.3000022625929 114.84903869812842,202.70412672236125 114.89161477907328,203.14123862933047 114.87742275209166,203.55360615742393 114.94128687342163,204.06493893214065 114.94838288694154,204.73296552284592 114.89161477907328,205.45871646727755 115.06191910270718,205.95354287166265 115.27479950731504,206.332907703385 115.4947759253555,206.67928271358687 115.81409653220908,206.93493949470576 116.22566531441407,207.1328667626658 116.63723409656086,207.24007716114284 116.9139786225569,207.52871982562647 117.02751483832253,207.9493115532532 117.02751483832253,208.3616542320524 117.09847497317242,208.782241569279 117.27587531032623,209.4254885029659 117.79388429480605,210.79443266599992 117.88613247012836,211.22325371801708 118.01386071284651,211.65207246573846 118.169973009557,212.02316375297232 118.32608530626749,212.41899255738826 118.51767767037381,212.7818339034202 118.70217402098933,213.21064427643432 118.91505442559719,213.65594491748925 119.06407070878777,214.08475059390184 119.19179895153502,214.56303113043396 119.26275908641401,215.18973921916768 119.20599097848753,215.60204448855802 119.14922287061927,215.94013322015962 119.08535874923109,216.3606806193493 119.04987868180615,216.80596368567058 118.99311057393788,217.25124426788534 118.9292464525497,217.6717847590844 118.9292464525497,218.14179798023542 118.97182253346546,218.6447915196186 119.04278266834444,219.03234175695252 119.24147104594158,219.59304940820584 119.39048732913216,220.03006881703186 119.56788766628597,220.45884025141277 119.71690394950565,220.87111830497452 119.82334415180958,221.3163762112672 119.88720827316865,221.695668024513 119.94397638106602,222.08320345068205 119.94397638106602,222.61915359974955 119.9226883405936,223.08913769258652 120.05041658336995,223.53438322839793 120.38392921717605,223.97138106196508 121.00837840393069,224.20224687635346 121.46252326705144,224.18575648317346 121.71088373905513,224.4496023652173 121.77474786044331,224.68871194267558 121.88828407620895,225.13394855804654 122.23598873702576,225.32358562173613 122.77528576194891,224.9278208040414 123.14427846323815,224.65573135389423 123.30039075991954,224.4908282055403 123.48488711056416,224.38364097646263 123.79711170392693,224.07856884453213 124.1944884591503,223.8394574397389 124.61315325481701,223.66630735475337 125.05310609092703,223.5838548013271 125.47886690008454,223.5508737561322 125.9472037901578,223.50964743046643 126.38715662629693,223.62508108869952 126.71357324664132,223.96313584197924 126.90516561080585,224.40837650362664 127.032893853524,225.01851708136383 127.06837392097805,225.43901665737212 127.032893853524,225.87600406626007 127.16771810976206,226.31298908351891 127.41607858176576,226.75821664140676 127.82055135047995,227.05503363411844 128.22502411916503,227.31887003464362 128.67207296879496,227.51674676296534 129.09783377792337,227.55797101965436 129.5377866140625,227.49201219875977 129.9564514097583,227.31887003464362 130.2828680301027,227.07976833367138 130.7086288392893,227.01380911776505 131.1201976214361,227.1869519433385 131.32598201252404,227.54148131952388 131.2975979585899,227.98670202742505 131.39694214740302,228.39069644739357 131.7233587677474,228.75346520524909 132.10654349598917,229.01729599397368 132.5535923456191,229.09149824624183 132.97935315477662,228.9595830834296 133.28448173464858,228.65452843473759 133.66766646291944,228.5638362874015 133.91602693489403,228.89362542029266 133.90893092143233,229.3141045893717 133.91602693489403,229.7593154139322 133.90183490794152,230.22101290654246 133.85925882702577,230.61675148994254 133.7102425438061,231.0619550520787 133.7953947056376,231.48242280405248 134.00827511024545,231.8616663285211 134.26373159573996,232.1996862128217 134.6327242970001,232.37281779460318 135.0442930792051,232.47174995855312 135.43457382090855,232.37281779460318 135.86033463006606,232.47174995855312 136.29319145274349,232.6283923008159 136.75443232929683,232.81801156720758 137.15890509801102,233.09831748416764 137.5562818532344,233.41159940361104 137.91817854097462,233.6424379263044 138.26588320179144,233.8238105832279 138.6490679300332,233.99693864425353 139.03934867179487,234.1618221629833 139.41543738651671,234.3514377886895 139.60702975068125,234.6894471354317 139.75604603387183,235.1428720613767 140.1534227890952,235.41492578134785 140.5720875847328,235.6622465408509 140.94108028602204,235.93429849178938 141.18944075805484,236.23932533483458 141.45908927047276,236.61854627215507 141.84227399871452,236.8905949658947 142.2396507539379,237.0884479793749 142.51639527990483,237.43468957369623 142.5660673743114,237.81390483587165 142.8995800081466,238.1271682598017 143.21180460153846,238.40745554510795 143.50983716794872,238.70422924581362 143.87173385571805,238.94329614732123 144.23363054351648,239.21533692356024 144.63100729873986,239.45440229545056 144.87936777071445,239.79239004872215 145.09934418878402,240.16335057083052 145.37608871475095,240.3611954782682 145.85152161831502,240.44363071174303 146.2488983735384,240.75688382317458 146.63208310175105,240.9547272606651 147.0081718165311,241.1773005422001 147.38426053128205,241.4328468784588 147.82421336742118,241.48230736526602 148.11514992031152,241.86974678574188 148.46995059461915,241.89447689771623 148.7608871475386,241.86150341336906 149.20083998367772,241.87799015724158 149.61240876585362,241.90272026666207 149.94592139971792,242.2324543275463 150.18008984474,242.60340351932973 150.57037058647256,242.75178271377808 150.98903538213926,242.74353943241294 151.41479619129677,242.7270528671579 151.83346098696347,242.619890110087 152.0250533510989,242.19123764436517 152.24502976916847,241.8285299154304 152.67788659178768,241.73785272587702 153.110743414436,241.78731302383676 153.5365042235935,241.88623352791183 153.9338809788169,242.06758746721607 154.26029759916128,242.29015764827636 154.7073464487621,242.36434757085226 155.08343516354216,242.61164681513037 155.38856374347233,242.9084048978184 155.65821225589025,243.2546212677771 156.04849299765192,243.45245851983054 156.46715779328952,243.58434974906413 156.8716305620037,243.72448394153616 157.25481529024546,243.85637472170492 157.66638407245046,243.99650843704148 158.09214488160796,244.0542104836859 158.51790569076547,244.06245362982008 158.9507625133847,244.0542104836859 159.3765233225713,243.99650843704148 159.8022841317288,243.93056318983872 160.26352500831126,243.8728610538965 160.67509379048715,243.7986725321607 161.122142640088,243.72448394153616 161.52661540880217,243.77394300961168 162.143968582066,243.65853846980463 162.58392141820514,243.61732252233196 162.9671061464469,243.69151121249888 163.32900283424533,243.90583370812237 163.67670749506215,244.10366934765625 164.0527962098131,244.24380262925843 164.464364991989,244.3509632081914 164.84754972023075,244.4251512170449 165.20944640802918,244.20258698368707 165.59972714976175,244.35920632365742 165.9687198510219,244.53231155273534 166.36609660624526,244.6806871648878 166.7421853209671,244.8290625014779 167.1537541031721,244.80433329782682 167.5795149123296,244.85379169744556 168.02656376195955,244.91973618262273 168.43813254413544,244.96095145823347 168.83550929935882,245.01865280835045 168.94194950163364,245.38958906414337 169.04129369044676,245.76876656794047 169.47415051306598,245.8429532603841 170.02763956499984,245.80998140556767 170.43920834717574,245.76052359787718 170.87206516982405,245.73579468249227 171.28363395202905,245.76052359787718 171.60295455888263,245.97484054353117 171.9080831387837,246.23861445673538 172.19901969170314,246.49414460478874 172.47576421767008,246.76615967087128 172.8234688784869,246.95574538142682 173.19955759320874,247.03817381091358 173.38405394385336,247.35964387351123 173.29890178202186,247.69759818580496 172.9937732021208,247.78826861178095 173.2421336741245,247.44207188634027 173.55435826751636,247.1535734693607 173.85948684738833,246.84858829594305 174.1646154273185,246.56008773614303 174.4981280611537,246.27982905202225 174.79616062756395,246.41995851696265 175.12257724790834,246.77440253720124 175.4135138008278,247.1123593247612 175.73993042120128,247.48328586087882 176.08053906849818,247.8377251644124 176.37857163493754,248.12622111126984 176.57016399904387,248.48065756295546 176.30051548659685,248.810364478697 176.0024829201575,249.11534216460132 175.6689702863223,249.4120760931546 175.38512974689365,249.74177916590997 175.0870971804834,250.07148087837413 174.78196860058233,250.3764537513198 174.4981280611537,250.68142546043237 174.21428752172505,250.98639600569004 173.9162549552857,251.29960778670647 173.60403036192292,251.60457597289496 173.29180576853105,251.9177853311412 172.9937732021208,252.23923576452944 172.6673565817764,252.5771694414434 172.3338439479412,252.92334392153862 172.02161935452023,253.2612747057865 171.7377788150916,253.55799324069085 171.45393827563385,253.8629528092206 171.12752165531856,254.12670068686566 170.87206516982405,254.43990016112366 170.5740326034138,254.76134045062645 170.26180801002192,255.08277944740257 170.04892760544317,255.43718504801654 169.8218551738828,255.7915890771692 169.54511064794497,256.0882982186595 169.21159801408066,256.3932481330048 168.92066146116122,256.73116424673935 168.60843686779845,257.069078931956 168.3245963283407,257.3905086482773 168.01237173497793,257.67897011376044 167.67885910114273,257.9839139596079 167.3169624133443,258.28885664217523 167.01892984693404,258.6020398079636 166.6357451187214,258.7998390699504 166.27384843092295,258.9893962367496 165.96162383753108,259.25312719932845 165.67778329810244,259.56630658730865 165.29459856986068,259.7805865142727 164.95398992250557,260.06079785977636 164.634669315652,260.3410082230912 164.25858060090104,260.5552860734897 163.85410783218686,260.7201147983433 163.6341314141464,260.8602189472949 163.83281979174353,261.27228855046997 164.07408425025642,261.6843560296984 164.35792478968506,262.0140084838422 164.62757330219029,262.4343133914954 164.8901258011465,262.75572153583926 165.2307344484725,263.1018519385907 165.28040654287906,263.62928586127964 164.98946998995962,263.9754124821411 164.68434141005855,264.26385018822475 164.34373276273254,264.5358047865884 164.01731614238815,264.7912764454959 163.68380350852385,265.0549882694031 163.33609884770704,265.28573540186335 163.09483438919415,265.44231343391584 162.87485797112458,265.1044341395682 162.69036162050907,264.7088663221002 162.4632891889487,264.36274287646665 162.19364067647257,264.0166179324224 161.85303202914656,264.27209125023364 161.51951939531136,264.5605278860312 161.2214868289011,264.30505548984365 161.00151041083154,263.9671713895368 160.76024595231866,263.8023493590226" stroke="#ffff00" stroke-linecap="round" stroke-linejoin="round" stroke-width="0.5"><title>2024-03-04 20.1km</title><desc>383901413</desc></polyline></svg>